<svg width="60" height="60" viewBox="0 0 60 60" fill="none" xmlns="http://www.w3.org/2000/svg">
<rect width="60" height="60" rx="12" fill="#24C3BC"/>
<g filter="url(#filter0_d_823_977)">
<g clip-path="url(#clip0_823_977)">
<path d="M30.1334 45.4438C28.1426 45.4438 26.1517 45.4438 24.162 45.4438C22.6153 45.4438 21.7306 44.5467 21.7163 42.9977C21.7044 41.7818 21.733 40.5753 22.2319 39.4352C23.2071 37.2107 24.88 35.8288 27.2769 35.3394C27.4019 35.3133 27.5805 35.3631 27.6841 35.4425C29.113 36.5375 31.1967 36.5364 32.6232 35.4401C32.7268 35.3607 32.9042 35.3169 33.0328 35.3394C36.1096 35.8656 38.5065 38.6423 38.5708 41.7462C38.5803 42.2297 38.5803 42.7145 38.5756 43.1992C38.5625 44.5087 37.6301 45.4367 36.3061 45.4426C34.2485 45.4497 32.1922 45.445 30.1346 45.445L30.1334 45.4438Z" fill="white"/>
<path d="M24.7144 25.779C25.2336 26.5114 25.7491 27.2367 26.2933 28.0047C26.1599 28.0177 26.0694 28.0331 25.9778 28.0331C23.9095 28.0343 21.8412 28.0473 19.7741 28.0307C16.3604 28.0047 13.8242 25.8975 13.1848 22.5815C12.4929 18.9965 14.8672 15.6034 18.4953 14.9196C22.4866 14.1682 25.9015 17.2046 26.2957 20.7884C26.4898 22.5542 25.9861 24.1127 24.9073 25.5052C24.8537 25.5751 24.7989 25.6439 24.7454 25.7138C24.7394 25.7221 24.7358 25.7328 24.7144 25.779ZM16.664 22.54C17.2998 22.5388 17.769 22.0624 17.7642 21.426C17.7595 20.7872 17.2856 20.3191 16.6497 20.3238C16.0151 20.3286 15.54 20.8085 15.5459 21.439C15.5519 22.0754 16.0258 22.5424 16.6628 22.5412L16.664 22.54ZM22.6831 22.54C23.3248 22.5531 23.8047 22.1015 23.8226 21.4639C23.8416 20.8299 23.3796 20.3428 22.745 20.3238C22.102 20.306 21.6269 20.7564 21.609 21.3999C21.5924 22.0411 22.0484 22.5258 22.6831 22.5388V22.54ZM20.7874 21.4272C20.7851 20.7813 20.3231 20.3203 19.6813 20.3226C19.0407 20.325 18.5799 20.7919 18.5834 21.4355C18.5858 22.0754 19.0538 22.5412 19.692 22.54C20.3326 22.5376 20.7898 22.0731 20.7874 21.4272Z" fill="white"/>
<path d="M34.6927 28.8638C35.144 28.2274 35.5572 27.6443 35.9739 27.0565C35.2488 26.1854 34.807 25.2136 34.6868 24.0937C34.3927 21.3501 36.5288 18.6776 39.321 18.3174C42.1144 17.9571 44.7638 19.9042 45.2138 22.649C45.7604 25.9816 43.3635 28.8413 39.9819 28.8769C38.3125 28.8947 36.6419 28.8804 34.9725 28.8793C34.8987 28.8793 34.8249 28.8721 34.6927 28.865V28.8638ZM39.9997 24.5583C40.5415 24.5583 40.9582 24.1364 40.9571 23.5876C40.9571 23.0377 40.5403 22.6182 39.9973 22.6206C39.4544 22.6229 39.0341 23.046 39.0352 23.59C39.0352 24.134 39.4591 24.5583 39.9997 24.5583ZM41.4667 23.5829C41.4643 24.134 41.8715 24.5535 42.4157 24.5583C42.9551 24.563 43.3766 24.1423 43.3813 23.5947C43.3861 23.0472 42.9729 22.6253 42.4288 22.6218C41.881 22.6182 41.4703 23.0294 41.4667 23.5817V23.5829ZM38.5244 23.6019C38.5316 23.0472 38.1315 22.6312 37.585 22.6218C37.0408 22.6135 36.6252 23.0223 36.6193 23.5746C36.6133 24.1281 37.0146 24.5476 37.5588 24.5571C38.0982 24.5666 38.5185 24.1518 38.5244 23.6007V23.6019Z" fill="white"/>
<path d="M38.2754 45.4414C39.1339 44.6592 39.2887 43.7313 39.3006 42.7133C39.3208 41.0256 39.0422 39.4304 38.1099 37.9905C37.9301 37.7144 37.7312 37.4501 37.5669 37.1005C37.7086 37.1467 37.8753 37.1585 37.9872 37.2427C39.1482 38.1102 40.8175 38.1114 41.9809 37.2486C42.0952 37.1645 42.2857 37.1171 42.4262 37.1408C44.8898 37.5721 46.8509 39.8547 46.9259 42.3672C46.939 42.7962 46.9366 43.2252 46.9295 43.6542C46.9128 44.6035 46.2138 45.413 45.2684 45.4284C42.9715 45.4651 40.6735 45.4402 38.2754 45.4402V45.4414Z" fill="white"/>
<path d="M22.7484 37.1823C22.7067 37.2427 22.6674 37.3055 22.6222 37.3636C21.5863 38.6803 21.0504 40.1759 21.0028 41.8446C20.9897 42.2949 20.9909 42.7465 20.9981 43.198C21.0123 44.0513 21.3243 44.7825 21.9756 45.4095C21.8697 45.4261 21.8018 45.445 21.7351 45.445C19.5573 45.4462 17.3783 45.451 15.2005 45.445C14.2289 45.4427 13.4609 44.7814 13.3882 43.825C13.3013 42.6801 13.3215 41.5353 13.8014 40.4533C14.5813 38.6933 15.9173 37.5947 17.795 37.1455C17.9963 37.097 18.1594 37.1159 18.3428 37.2581C19.4454 38.1138 21.1588 38.1008 22.2733 37.2605C22.3912 37.1716 22.5567 37.1455 22.7008 37.0898L22.7484 37.1811V37.1823Z" fill="white"/>
<path d="M33.5504 31.2388C33.5409 33.0947 31.9978 34.5678 30.0664 34.5643C28.2482 34.5607 26.7455 33.045 26.7515 31.2234C26.7586 29.3106 28.2565 27.7996 30.1414 27.8067C32.0585 27.8138 33.56 29.326 33.5504 31.2388Z" fill="white"/>
<path d="M17.5142 33.7512C17.5165 32.1774 18.7406 30.9259 20.2766 30.9247C21.8638 30.9235 23.1057 32.1703 23.101 33.7607C23.0962 35.2741 21.8091 36.5067 20.2433 36.496C18.737 36.4865 17.5106 35.254 17.5142 33.7524V33.7512Z" fill="white"/>
<path d="M39.9544 36.4949C38.4553 36.4985 37.211 35.2659 37.2027 33.7703C37.1943 32.1941 38.4398 30.92 39.983 30.9236C41.5464 30.9271 42.7966 32.1775 42.799 33.7407C42.8026 35.2505 41.5214 36.4913 39.9544 36.4949Z" fill="white"/>
</g>
</g>
<defs>
<filter id="filter0_d_823_977" x="11.0645" y="14.8046" width="37.8711" height="34.6451" filterUnits="userSpaceOnUse" color-interpolation-filters="sRGB">
<feFlood flood-opacity="0" result="BackgroundImageFix"/>
<feColorMatrix in="SourceAlpha" type="matrix" values="0 0 0 0 0 0 0 0 0 0 0 0 0 0 0 0 0 0 127 0" result="hardAlpha"/>
<feOffset dy="2"/>
<feGaussianBlur stdDeviation="1"/>
<feComposite in2="hardAlpha" operator="out"/>
<feColorMatrix type="matrix" values="0 0 0 0 0 0 0 0 0 0 0 0 0 0 0 0 0 0 0.15 0"/>
<feBlend mode="normal" in2="BackgroundImageFix" result="effect1_dropShadow_823_977"/>
<feBlend mode="normal" in="SourceGraphic" in2="effect1_dropShadow_823_977" result="shape"/>
</filter>
<clipPath id="clip0_823_977">
<rect width="33.871" height="30.6452" fill="white" transform="translate(13.0645 14.8046)"/>
</clipPath>
</defs>
</svg>
