<svg width="60" height="60" viewBox="0 0 60 60" fill="none" xmlns="http://www.w3.org/2000/svg">
<rect width="60" height="60" rx="12" fill="#24C3BC"/>
<g filter="url(#filter0_d_823_1032)">
<g clip-path="url(#clip0_823_1032)">
<path d="M31.9068 9.1665C32.7037 9.4515 33.3297 9.92209 33.4873 10.7938C33.5643 11.2199 33.5258 11.6668 33.5328 12.1047C33.5384 12.4231 33.5391 12.7421 33.5314 13.0605C33.5041 14.2276 32.7002 15.0673 31.5223 15.1208C30.8683 15.1507 30.2107 15.1507 29.5567 15.1208C28.3782 15.0666 27.5714 14.2276 27.549 13.0605C27.5378 12.4766 27.542 11.892 27.5476 11.3081C27.5574 10.2613 28.0483 9.58844 29.0427 9.24297C29.0896 9.22698 29.1302 9.19222 29.1744 9.1665C30.0854 9.1665 30.9964 9.1665 31.9068 9.1665Z" fill="white"/>
<path d="M29.8531 34.0285C29.8531 35.3312 29.8552 36.6345 29.8524 37.9371C29.851 38.5488 29.6647 38.6552 29.1192 38.3611C26.9568 37.194 24.7979 36.0207 22.632 34.8599C22.2832 34.6729 22.1341 34.4143 22.1348 34.0278C22.1404 31.4351 22.1355 28.8423 22.1397 26.2495C22.1404 25.7254 22.3547 25.6017 22.8203 25.8526C25.0423 27.0496 27.2607 28.2535 29.4862 29.445C29.7586 29.5909 29.8608 29.7772 29.858 30.0796C29.8468 31.3954 29.8531 32.712 29.8531 34.0285Z" fill="white"/>
<path d="M31.2288 34.0028C31.2288 32.7001 31.2365 31.3968 31.2232 30.0942C31.2197 29.7744 31.3325 29.5881 31.6189 29.4352C33.81 28.2647 35.9927 27.0795 38.1783 25.8999C38.7658 25.5829 38.943 25.6879 38.9437 26.3559C38.9451 28.8819 38.9366 31.4079 38.9507 33.934C38.9535 34.4052 38.7749 34.6951 38.3589 34.9169C36.2252 36.0527 34.102 37.2086 31.9746 38.3563C31.4116 38.66 31.2302 38.5523 31.2295 37.9128C31.2274 36.6101 31.2295 35.3068 31.2295 34.0042L31.2288 34.0028Z" fill="white"/>
<path d="M30.5488 28.4377C30.4333 28.3897 30.3192 28.3529 30.2155 28.2973C27.995 27.0989 25.7744 25.9012 23.5602 24.6918C23.4166 24.6132 23.2388 24.4353 23.2388 24.3032C23.2388 24.1725 23.4187 23.9966 23.563 23.9181C25.7184 22.7406 27.8836 21.5804 30.0397 20.4029C30.3969 20.2083 30.7057 20.2173 31.0572 20.4085C33.214 21.5839 35.3793 22.7441 37.5347 23.9223C37.6761 23.9994 37.8316 24.1788 37.8428 24.3213C37.8519 24.436 37.6775 24.6104 37.5431 24.6841C35.3282 25.8929 33.1076 27.0906 30.8871 28.2889C30.7827 28.3453 30.67 28.3849 30.5488 28.4377Z" fill="white"/>
<path d="M47.5332 17.9381C47.8672 17.9381 48.202 17.9298 48.536 17.9402C49.5416 17.9708 50.4036 18.7208 50.4778 19.7155C50.5366 20.5072 50.5338 21.3094 50.4778 22.1011C50.412 23.0395 49.6473 23.7895 48.6963 23.8549C47.9113 23.9084 47.1172 23.9112 46.3329 23.8549C45.3099 23.7819 44.5445 22.9248 44.5235 21.9058C44.5095 21.242 44.5088 20.5781 44.5235 19.9143C44.5473 18.8195 45.4212 17.9652 46.5304 17.9388C46.8644 17.9311 47.1992 17.9374 47.5332 17.9381Z" fill="white"/>
<path d="M13.5415 41.2416C13.2207 41.2416 12.8993 41.2486 12.5786 41.2416C11.5317 41.2159 10.6676 40.4562 10.5947 39.4197C10.5408 38.6537 10.5429 37.8787 10.5954 37.1127C10.662 36.1486 11.4197 35.3909 12.3881 35.3249C13.1731 35.2713 13.9672 35.2699 14.7515 35.3262C15.7732 35.3999 16.5351 36.257 16.5561 37.2795C16.5701 37.9433 16.5715 38.6072 16.5561 39.271C16.5309 40.3491 15.6668 41.2069 14.5842 41.2402C14.2368 41.2514 13.8888 41.2416 13.5408 41.2423L13.5415 41.2416Z" fill="white"/>
<path d="M47.5093 41.241C47.1753 41.241 46.8406 41.2493 46.5065 41.2396C45.4225 41.2076 44.5507 40.3512 44.5248 39.2794C44.5087 38.6023 44.5087 37.9246 44.5248 37.2483C44.5493 36.2522 45.3154 35.3979 46.3182 35.3263C47.1158 35.2693 47.9239 35.2721 48.7215 35.3277C49.6507 35.393 50.4112 36.143 50.4756 37.062C50.5324 37.8669 50.5352 38.683 50.4735 39.4872C50.3993 40.4597 49.5373 41.2041 48.5513 41.2382C48.204 41.25 47.8559 41.2403 47.5079 41.2403L47.5093 41.241Z" fill="white"/>
<path d="M16.5597 20.9347C16.5597 21.253 16.5667 21.5721 16.559 21.8905C16.5324 22.9317 15.7691 23.7853 14.7229 23.8583C13.9519 23.9118 13.1704 23.9098 12.3987 23.8569C11.4289 23.7909 10.6635 23.036 10.5977 22.0767C10.5444 21.2975 10.5423 20.5093 10.5991 19.7308C10.674 18.7173 11.5402 17.9603 12.5682 17.9402C13.237 17.9269 13.9057 17.9256 14.5745 17.9408C15.6599 17.9652 16.5233 18.8236 16.5569 19.899C16.5681 20.2437 16.5583 20.5892 16.559 20.9347H16.5597Z" fill="white"/>
<path d="M33.5287 47.0312C33.5287 47.3767 33.5413 47.7221 33.5266 48.0662C33.4797 49.1471 32.6226 49.9833 31.5274 50.009C30.8726 50.0243 30.2165 50.0236 29.5617 50.009C28.449 49.9847 27.587 49.1388 27.5541 48.0342C27.5352 47.3975 27.5394 46.7594 27.5506 46.1227C27.5709 44.9542 28.3783 44.1124 29.554 44.0589C30.2081 44.029 30.8656 44.0297 31.5197 44.0589C32.6961 44.1096 33.5042 44.9486 33.5322 46.1157C33.5399 46.4209 33.5336 46.7267 33.5336 47.0319C33.5322 47.0319 33.5308 47.0319 33.5294 47.0319L33.5287 47.0312Z" fill="white"/>
<path d="M18.2279 19.2059C18.0521 19.0377 17.7783 18.8924 17.7181 18.686C17.6565 18.4754 17.7818 18.1966 17.87 17.9638C17.9037 17.8755 18.0584 17.8268 18.1649 17.7726C20.5458 16.5409 22.9274 15.3099 25.3097 14.0802C25.7354 13.8606 26.0603 13.8891 26.2935 14.1594C26.5989 14.5126 26.4833 14.9998 26.012 15.248C24.9973 15.7825 23.975 16.3025 22.9561 16.8294C21.5814 17.5391 20.2075 18.2509 18.8315 18.9578C18.6683 19.0419 18.4912 19.0989 18.2286 19.2059H18.2279Z" fill="white"/>
<path d="M35.3822 13.9287C35.4599 13.9579 35.6154 13.9996 35.7547 14.0712C38.1496 15.3043 40.5438 16.5395 42.9359 17.7789C43.4093 18.0243 43.555 18.401 43.3428 18.7813C43.1397 19.1469 42.7714 19.2241 42.3029 18.9829C39.8961 17.7428 37.4907 16.5006 35.086 15.2564C34.6896 15.0513 34.5404 14.7677 34.6483 14.4208C34.7449 14.1101 34.9634 13.9371 35.3815 13.9294L35.3822 13.9287Z" fill="white"/>
<path d="M26.4538 44.5858C26.4447 45.103 25.9496 45.4005 25.4503 45.1642C24.9076 44.9077 24.3796 44.6213 23.8467 44.346C21.9504 43.3666 20.0527 42.3914 18.1633 41.3995C17.9764 41.3014 17.7411 41.1221 17.7089 40.9476C17.6683 40.7231 17.7474 40.4187 17.8881 40.2331C18.0849 39.9745 18.4028 39.9995 18.6927 40.1496C19.7466 40.6953 20.8012 41.2396 21.8565 41.7838C23.22 42.4866 24.5834 43.1894 25.9475 43.8907C26.2346 44.0388 26.4678 44.2223 26.4545 44.5858H26.4538Z" fill="white"/>
<path d="M35.2182 45.3219C35.0453 45.1683 34.8072 45.0348 34.6881 44.8319C34.5376 44.5754 34.6055 44.2848 34.8478 44.077C34.9472 43.9922 35.0705 43.931 35.1881 43.8705C37.4983 42.6756 39.8085 41.4814 42.1193 40.2886C42.2615 40.2149 42.4029 40.1336 42.5542 40.0857C42.8924 39.9786 43.1683 40.0912 43.3371 40.3936C43.5031 40.6918 43.4687 40.9886 43.2082 41.2256C43.1025 41.3223 42.9653 41.3883 42.8357 41.4557C40.5136 42.6569 38.1915 43.8566 35.8674 45.0529C35.6923 45.1426 35.5032 45.2051 35.2189 45.3212L35.2182 45.3219Z" fill="white"/>
<path d="M14.2456 29.6208C14.2456 30.7629 14.247 31.9056 14.2456 33.0477C14.2442 33.6302 14.0068 33.9249 13.5544 33.9173C13.1063 33.9103 12.8752 33.6114 12.8752 33.0255C12.8738 30.7406 12.8752 28.4558 12.8752 26.171C12.8752 26.091 12.871 26.0111 12.8787 25.9319C12.9179 25.512 13.1868 25.2555 13.5768 25.2625C13.9732 25.2687 14.2372 25.5238 14.2407 25.9541C14.2505 27.1761 14.2442 28.3981 14.2442 29.6201H14.2463L14.2456 29.6208Z" fill="white"/>
<path d="M46.8357 29.5972C46.8357 28.428 46.8336 27.2595 46.8364 26.0903C46.8378 25.5426 47.0843 25.2534 47.5275 25.2618C47.9554 25.2694 48.2047 25.5565 48.2054 26.0751C48.2089 28.4259 48.2068 30.7775 48.2075 33.1283C48.2075 33.4418 48.1263 33.7449 47.8104 33.8415C47.6053 33.9041 47.2852 33.9034 47.1438 33.7838C46.9715 33.6385 46.8553 33.3396 46.849 33.104C46.8203 31.9355 46.8357 30.7663 46.8357 29.5979V29.5972Z" fill="white"/>
<path d="M18.3196 22.6724C18.4337 22.7058 18.557 22.7232 18.6613 22.776C19.1501 23.0221 19.6396 23.2674 20.1179 23.5323C20.5058 23.7471 20.6081 24.0793 20.4281 24.4394C20.2432 24.8085 19.8875 24.9267 19.4778 24.7258C18.975 24.4783 18.4772 24.2197 17.9877 23.9473C17.6796 23.7756 17.5528 23.4704 17.6985 23.1653C17.8035 22.9449 18.05 22.7913 18.2335 22.6078C18.2622 22.6293 18.2909 22.6509 18.3196 22.6724Z" fill="white"/>
<path d="M43.4256 23.5246C43.3514 23.6164 43.2429 23.8479 43.0601 23.9591C42.5818 24.2482 42.0769 24.4971 41.5713 24.739C41.1834 24.9246 40.8361 24.7995 40.6547 24.445C40.4705 24.0863 40.5714 23.7491 40.9572 23.5364C41.4362 23.2723 41.9208 23.0158 42.4145 22.7809C42.927 22.5376 43.4431 22.8573 43.4256 23.5253V23.5246Z" fill="white"/>
<path d="M20.5036 35.1928C20.4315 35.2818 20.3243 35.5118 20.1429 35.6224C19.6647 35.9122 19.1605 36.1618 18.6556 36.4057C18.2767 36.5886 17.8979 36.4607 17.7256 36.127C17.5527 35.7927 17.6654 35.4069 18.0253 35.2081C18.5162 34.9377 19.012 34.6735 19.5197 34.4365C20.0113 34.2071 20.4994 34.5248 20.5036 35.1921V35.1928Z" fill="white"/>
<path d="M41.2954 34.3552C41.3697 34.3788 41.5034 34.4024 41.6197 34.4608C42.0853 34.6937 42.5496 34.9293 43.0062 35.1782C43.4039 35.395 43.5356 35.7621 43.3626 36.1117C43.1827 36.4759 42.7905 36.5886 42.3676 36.3772C41.8781 36.1333 41.3928 35.8795 40.9124 35.6175C40.6162 35.4562 40.5133 35.1851 40.6022 34.8702C40.6883 34.5644 40.8942 34.3684 41.2954 34.3552Z" fill="white"/>
<path d="M31.2287 41.7407C31.2266 42.3899 30.999 42.6937 30.5235 42.6833C30.0207 42.6721 29.8281 42.3461 29.8526 41.5482C29.8695 41.006 30.1173 40.7328 30.5774 40.7523C31.048 40.7724 31.2308 41.0498 31.2287 41.7407Z" fill="white"/>
<path d="M31.2291 17.3862C31.2256 18.1703 30.9553 18.4872 30.4371 18.4226C29.9987 18.3684 29.844 18.0903 29.8524 17.3723C29.8587 16.819 30.0548 16.5389 30.463 16.4992C30.8439 16.4624 31.143 16.6827 31.2067 17.0616C31.2305 17.2041 31.227 17.3521 31.2291 17.3862Z" fill="white"/>
</g>
</g>
<defs>
<filter id="filter0_d_823_1032" x="8.55566" y="9.1665" width="43.9653" height="44.8537" filterUnits="userSpaceOnUse" color-interpolation-filters="sRGB">
<feFlood flood-opacity="0" result="BackgroundImageFix"/>
<feColorMatrix in="SourceAlpha" type="matrix" values="0 0 0 0 0 0 0 0 0 0 0 0 0 0 0 0 0 0 127 0" result="hardAlpha"/>
<feOffset dy="2"/>
<feGaussianBlur stdDeviation="1"/>
<feComposite in2="hardAlpha" operator="out"/>
<feColorMatrix type="matrix" values="0 0 0 0 0 0 0 0 0 0 0 0 0 0 0 0 0 0 0.15 0"/>
<feBlend mode="normal" in2="BackgroundImageFix" result="effect1_dropShadow_823_1032"/>
<feBlend mode="normal" in="SourceGraphic" in2="effect1_dropShadow_823_1032" result="shape"/>
</filter>
<clipPath id="clip0_823_1032">
<rect width="39.9655" height="40.8537" fill="white" transform="translate(10.5557 9.1665)"/>
</clipPath>
</defs>
</svg>
