<svg xmlns="http://www.w3.org/2000/svg" width="28" height="27" viewBox="0 0 36 37" fill="none">
  <g filter="url(#filter0_d_534_3890)">
    <path d="M5.22642 15.6494C7.37231 15.6515 9.51862 15.6554 11.6645 15.6558C17.9282 15.6567 24.1919 15.6558 30.4551 15.6558C30.5534 15.6558 30.652 15.6558 30.7744 15.6558C30.7786 16.2758 30.56 16.7863 30.17 17.2126C29.3516 18.1072 28.3117 18.4019 27.1528 18.2784C26.2162 18.1783 25.3999 17.7976 24.8387 16.9907C24.6418 16.708 24.5245 16.3673 24.3846 16.0816C23.8584 17.7189 22.615 18.3563 21.0032 18.2873C19.5529 18.2256 18.4531 17.5537 18.006 16.0297C17.3271 17.6793 16.2589 18.3806 14.5543 18.301C13.1219 18.2341 12.0625 17.414 11.6175 15.9977C11.5904 16.0765 11.5704 16.1242 11.5571 16.1736C11.3419 16.9707 10.8378 17.5209 10.1351 17.8926C8.71563 18.6437 6.86612 18.3533 5.85 17.2326C5.53071 16.8804 5.35838 16.4555 5.22559 16.0067V15.6494H5.22642Z" fill="white"/>
    <path d="M28.3282 19.8419C28.3282 19.9458 28.3282 20.0293 28.3282 20.1123C28.3282 23.1927 28.3282 26.273 28.3282 29.3534C28.3282 30.0138 28.0443 30.3076 27.4053 30.3076C25.6832 30.308 23.9614 30.3076 22.2393 30.3076C22.1577 30.3076 22.0757 30.3076 21.9617 30.3076C21.9617 30.1867 21.9617 30.0875 21.9617 29.9878C21.9617 27.7923 21.9371 25.5968 21.9721 23.4018C21.9896 22.3138 21.2453 21.6014 20.2387 21.6218C18.7418 21.6521 17.244 21.6495 15.7471 21.6227C14.7556 21.6052 14.0225 22.3274 14.0375 23.3736C14.0691 25.5772 14.0471 27.7813 14.0471 29.9853C14.0471 30.0849 14.0471 30.1841 14.0471 30.2953C13.9434 30.3 13.8701 30.3068 13.7969 30.3068C12.0502 30.3072 10.3031 30.308 8.5564 30.3068C7.98319 30.3063 7.68181 29.9968 7.68181 29.4066C7.68056 26.3007 7.6814 23.1948 7.68181 20.0889C7.68181 20.0135 7.68806 19.9386 7.69222 19.8432C8.13222 19.8432 8.56306 19.8713 8.98933 19.8373C9.88681 19.7661 10.7048 19.4472 11.4333 18.9051C11.5711 18.8025 11.6514 18.7966 11.7946 18.9013C13.585 20.2133 16.0531 20.2069 17.8451 18.8894C17.9679 18.7991 18.0395 18.7974 18.1648 18.8885C19.9819 20.2128 22.4321 20.2111 24.2374 18.8902C24.3294 18.823 24.3931 18.7668 24.5163 18.8587C25.6053 19.672 26.8267 19.9842 28.1637 19.8415C28.2045 19.8373 28.2457 19.8411 28.3286 19.8411L28.3282 19.8419Z" fill="white"/>
    <path d="M30.0016 14.0771H6.01465C6.05961 13.9732 6.09208 13.8898 6.13162 13.8093C7.22892 11.5695 8.33121 9.33143 9.42143 7.08781C9.61833 6.68201 9.89723 6.50062 10.3451 6.50147C15.4516 6.50913 20.5576 6.50913 25.664 6.50147C26.1115 6.50062 26.3917 6.68159 26.5886 7.08696C27.6755 9.32334 28.7736 11.5538 29.8676 13.7867C29.9079 13.8689 29.9446 13.9532 30.002 14.0776L30.0016 14.0771Z" fill="white"/>
    <path d="M20.4248 23.2217V30.2894H15.5923V23.2217H20.4248Z" fill="white"/>
  </g>
  <defs>
    <filter id="filter0_d_534_3890" x="3.22559" y="6.50146" width="29.5488" height="27.8062" filterUnits="userSpaceOnUse" color-interpolation-filters="sRGB">
      <feFlood flood-opacity="0" result="BackgroundImageFix"/>
      <feColorMatrix in="SourceAlpha" type="matrix" values="0 0 0 0 0 0 0 0 0 0 0 0 0 0 0 0 0 0 127 0" result="hardAlpha"/>
      <feOffset dy="2"/>
      <feGaussianBlur stdDeviation="1"/>
      <feComposite in2="hardAlpha" operator="out"/>
      <feColorMatrix type="matrix" values="0 0 0 0 0 0 0 0 0 0 0 0 0 0 0 0 0 0 0.15 0"/>
      <feBlend mode="normal" in2="BackgroundImageFix" result="effect1_dropShadow_534_3890"/>
      <feBlend mode="normal" in="SourceGraphic" in2="effect1_dropShadow_534_3890" result="shape"/>
    </filter>
  </defs>
</svg>