<svg width="50" height="50" viewBox="0 0 50 50" fill="none" xmlns="http://www.w3.org/2000/svg">
<g filter="url(#filter0_d_823_1015)">
<path d="M7.25897 21.5765C10.2394 21.5795 13.2204 21.5848 16.2008 21.5854C24.9003 21.5866 33.5999 21.5854 42.2988 21.5854C42.4353 21.5854 42.5723 21.5854 42.7423 21.5854C42.748 22.4465 42.4445 23.1556 41.9028 23.7476C40.7661 24.9902 39.3219 25.3994 37.7123 25.2279C36.4114 25.0889 35.2777 24.5602 34.4983 23.4395C34.2248 23.0468 34.0618 22.5737 33.8675 22.1768C33.1367 24.4508 31.4098 25.3361 29.1712 25.2403C27.1569 25.1546 25.6294 24.2213 25.0084 22.1047C24.0654 24.3958 22.5819 25.3698 20.2143 25.2592C18.2249 25.1664 16.7535 24.0273 16.1354 22.0603C16.0978 22.1697 16.0701 22.236 16.0516 22.3046C15.7527 23.4117 15.0525 24.1758 14.0766 24.6921C12.1051 25.7353 9.53633 25.332 8.12505 23.7754C7.6816 23.2863 7.44224 22.6961 7.25781 22.0727V21.5765H7.25897Z" fill="white"/>
<path d="M39.3449 27.3997C39.3449 27.544 39.3449 27.6599 39.3449 27.7752C39.3449 32.0535 39.3449 36.3317 39.3449 40.61C39.3449 41.5272 38.9505 41.9353 38.0631 41.9353C35.6712 41.9359 33.28 41.9353 30.8881 41.9353C30.7748 41.9353 30.6609 41.9353 30.5025 41.9353C30.5025 41.7674 30.5025 41.6296 30.5025 41.4912C30.5025 38.4419 30.4684 35.3926 30.517 32.3438C30.5412 30.8328 29.5075 29.8434 28.1095 29.8717C26.0305 29.9137 23.9502 29.9102 21.8712 29.8729C20.494 29.8487 19.4759 30.8517 19.4967 32.3048C19.5406 35.3653 19.51 38.4265 19.51 41.4876C19.51 41.626 19.51 41.7638 19.51 41.9182C19.366 41.9247 19.2643 41.9341 19.1625 41.9341C16.7366 41.9347 14.31 41.9359 11.8841 41.9341C11.088 41.9335 10.6694 41.5036 10.6694 40.6839C10.6676 36.3702 10.6688 32.0564 10.6694 27.7427C10.6694 27.638 10.678 27.5339 10.6838 27.4014C11.2949 27.4014 11.8933 27.4405 12.4854 27.3931C13.7319 27.2944 14.868 26.8514 15.8797 26.0986C16.0711 25.956 16.1827 25.9477 16.3816 26.0932C18.8682 27.9154 22.2961 27.9065 24.7851 26.0767C24.9557 25.9513 25.0551 25.9489 25.2291 26.0755C27.7528 27.9148 31.1558 27.9124 33.6633 26.0779C33.7911 25.9844 33.8795 25.9063 34.0507 26.0341C35.5631 27.1637 37.2594 27.5972 39.1165 27.3991C39.1731 27.3931 39.2304 27.3985 39.3454 27.3985L39.3449 27.3997Z" fill="white"/>
<path d="M41.6687 19.3927H8.35352C8.41596 19.2484 8.46105 19.1325 8.51598 19.0207C10.04 15.9099 11.571 12.8015 13.0852 9.68535C13.3586 9.12173 13.746 8.86979 14.3681 8.87098C21.4604 8.88162 28.552 8.88162 35.6443 8.87098C36.2658 8.86979 36.6549 9.12114 36.9284 9.68416C38.438 12.7902 39.9631 15.888 41.4825 18.9894C41.5386 19.1035 41.5895 19.2206 41.6693 19.3933L41.6687 19.3927Z" fill="white"/>
<path d="M28.3681 32.0935V41.9097H21.6562V32.0935H28.3681Z" fill="white"/>
</g>
<defs>
<filter id="filter0_d_823_1015" x="5.25781" y="8.87097" width="39.4844" height="37.0646" filterUnits="userSpaceOnUse" color-interpolation-filters="sRGB">
<feFlood flood-opacity="0" result="BackgroundImageFix"/>
<feColorMatrix in="SourceAlpha" type="matrix" values="0 0 0 0 0 0 0 0 0 0 0 0 0 0 0 0 0 0 127 0" result="hardAlpha"/>
<feOffset dy="2"/>
<feGaussianBlur stdDeviation="1"/>
<feComposite in2="hardAlpha" operator="out"/>
<feColorMatrix type="matrix" values="0 0 0 0 0 0 0 0 0 0 0 0 0 0 0 0 0 0 0.15 0"/>
<feBlend mode="normal" in2="BackgroundImageFix" result="effect1_dropShadow_823_1015"/>
<feBlend mode="normal" in="SourceGraphic" in2="effect1_dropShadow_823_1015" result="shape"/>
</filter>
</defs>
</svg>
