<svg width="28" height="29" viewBox="0 0 28 29" fill="none" xmlns="http://www.w3.org/2000/svg">
<g id="Layer_1" clip-path="url(#clip0_534_3832)">
<path id="Vector" d="M24.7612 25.8229C25.3884 25.8229 25.9915 25.8147 26.5945 25.8249C27.0483 25.8331 27.3488 26.1389 27.3549 26.5698C27.3609 26.9823 27.0826 27.3024 26.6772 27.3435C26.5784 27.3537 26.4755 27.3496 26.3747 27.3496C17.93 27.3496 9.48537 27.3496 1.04072 27.3496C0.931811 27.3496 0.818866 27.3558 0.711972 27.3414C0.320699 27.2881 0.0585051 26.97 0.0645557 26.5678C0.0706063 26.1656 0.350952 25.8126 0.744242 25.8414C1.26863 25.8803 1.52074 25.7121 1.73856 25.195C2.25085 23.976 3.66064 23.2558 4.92724 23.4589C5.03615 23.4753 5.19145 23.3686 5.28422 23.2742C6.50645 22.0389 8.44063 22.0409 9.61042 23.3112C9.84841 23.5697 9.99564 23.9165 10.2034 24.21C10.2659 24.3003 10.3788 24.4008 10.4777 24.4111C11.3772 24.4932 12.071 24.9118 12.5732 25.6731C12.6216 25.747 12.7467 25.8106 12.8374 25.8126C13.6986 25.8229 14.5598 25.8229 15.421 25.8126C15.5219 25.8126 15.651 25.747 15.7155 25.6669C16.252 24.998 16.9357 24.5875 17.7626 24.4008C17.8796 24.3741 18.0107 24.2551 18.0692 24.1443C18.7953 22.7284 20.2172 21.9855 21.7964 22.2092C23.2142 22.4103 24.3921 23.5882 24.6765 25.0944C24.7188 25.3222 24.7329 25.5541 24.7632 25.8188L24.7612 25.8229Z" fill="white"/>
<path id="Vector_2" d="M8.03009 21.0303C8.00798 21.0179 7.99914 21.0163 7.99767 21.0117C7.63813 19.8337 7.13565 18.6961 7.06786 17.4358C7.01776 16.4863 7.28742 15.6595 7.94904 14.9866C8.40142 14.5266 8.83611 14.0464 9.28702 13.5833C9.40343 13.4636 9.44321 13.3502 9.42406 13.1777C9.13819 10.5731 9.4049 8.03845 10.3111 5.58927C10.8195 4.21393 11.5312 2.9738 12.5524 1.94657C12.9399 1.55806 13.3098 1.1509 13.6811 0.759277C13.7091 0.763939 13.7268 0.759277 13.7342 0.767048C14.2867 1.35292 14.8585 1.91705 15.3845 2.52934C16.3099 3.60785 16.9067 4.8915 17.3399 6.25907C18.0561 8.5171 18.2565 10.8326 17.9942 13.1932C17.9765 13.3486 18.006 13.4543 18.1135 13.5647C18.5512 14.0122 18.9667 14.4831 19.4102 14.9213C20.1632 15.6657 20.4506 16.5826 20.3312 17.6394C20.2767 18.1258 20.1632 18.6107 20.035 19.0831C19.8715 19.6861 19.6666 20.2766 19.478 20.8718C19.4618 20.9231 19.4397 20.9728 19.4088 21.0521L19.2437 20.878C18.4112 20 17.5772 19.1219 16.7476 18.2408C16.6547 18.1429 16.5619 18.104 16.4322 18.1056C14.6183 18.1103 12.8044 18.1103 10.9919 18.1056C10.8534 18.1056 10.7576 18.1491 10.6604 18.2517C9.83665 19.1297 9.00557 20 8.17744 20.8749L8.02861 21.0319L8.03009 21.0303ZM14.6772 7.89082C14.1423 7.32514 13.2862 7.32204 12.7469 7.8846C12.2105 8.44251 12.2032 9.35784 12.7307 9.92507C13.2582 10.4923 14.1512 10.4954 14.6831 9.93129C15.2136 9.36872 15.2107 8.45494 14.6787 7.89082H14.6772Z" fill="white"/>
<path id="Vector_3" d="M12.0135 19.658C13.1467 19.6566 14.2834 19.6552 15.4043 19.6523C15.6845 21.2567 14.8578 22.5759 13.7089 23.8509C12.6493 22.5631 11.7263 21.271 12.0135 19.658Z" fill="white"/>
</g>
<defs>
<clipPath id="clip0_534_3832">
<rect width="27.2905" height="27.2903" fill="white" transform="translate(0.0644531 0.759277)"/>
</clipPath>
</defs>
</svg>
