<svg xmlns="http://www.w3.org/2000/svg" width="28" height="27" viewBox="0 0 28 27" fill="none">
  <g clip-path="url(#clip0_534_3861)">
    <path d="M15.8985 15.5023C17.6869 19.3561 16.2551 23.439 13.3391 25.4825C10.256 27.6429 6.1693 27.4257 3.39609 24.9827C0.606173 22.5251 -0.134834 18.5411 1.59024 15.2426C2.23444 14.0114 3.14538 13.0175 4.31051 12.2602C5.4659 11.5085 6.73202 11.086 8.10887 10.9893C9.49129 10.8918 10.8083 11.1501 12.0925 11.7298C10.0575 7.27255 12.3181 3.086 15.1094 1.43644C18.3674 -0.489438 22.4004 -0.0182336 24.9981 2.60784C27.6063 5.24436 28.0687 9.28335 26.1639 12.4266C24.3734 15.3819 20.2143 17.4247 15.8985 15.503V15.5023ZM8.69736 12.7398C5.27368 12.7238 2.46357 15.5085 2.44615 18.9343C2.42874 22.3761 5.19359 25.1574 8.66184 25.1853C12.1008 25.2131 14.9061 22.4367 14.9284 18.9837C14.9499 15.5579 12.1538 12.7551 8.69805 12.7391L8.69736 12.7398ZM19.3236 14.4798C22.7702 14.4715 25.5615 11.6749 25.5546 8.23584C25.5476 4.80795 22.7619 2.0378 19.318 2.03363C15.872 2.02945 13.0863 4.82118 13.094 8.27064C13.1016 11.7055 15.8929 14.4875 19.3236 14.4791V14.4798Z" fill="white"/>
    <path d="M1.93018 7.88451C1.92322 6.12776 2.32297 4.55198 3.61834 3.33116C4.88028 2.14236 6.40269 1.57859 8.16606 1.58137C8.16606 1.31619 8.16954 1.0698 8.16536 0.823412C8.16118 0.586766 8.24127 0.404409 8.47806 0.324367C8.7044 0.247805 8.86876 0.348031 9.00875 0.522036C9.57077 1.22223 10.1349 1.92173 10.7004 2.61914C10.8766 2.83699 10.8891 3.04997 10.7122 3.2727C10.1481 3.98333 9.584 4.69397 9.02337 5.40738C8.882 5.58696 8.70649 5.66839 8.48781 5.60157C8.26008 5.53197 8.18347 5.34613 8.18138 5.1255C8.1779 4.84083 8.18068 4.55615 8.18068 4.27635C5.78634 4.00491 4.30642 5.51805 4.62538 7.87268C4.90814 7.87268 5.19437 7.87546 5.48061 7.87198C5.6965 7.8692 5.86365 7.94576 5.94095 8.15596C6.02174 8.3759 5.94304 8.55199 5.76614 8.69467C5.05857 9.26262 4.35377 9.83475 3.64411 10.3999C3.3906 10.6018 3.2346 10.5955 2.97344 10.3895C2.27492 9.83962 1.58127 9.2842 0.881349 8.73574C0.694008 8.58888 0.594418 8.41209 0.673115 8.18171C0.752508 7.94715 0.946117 7.87616 1.18221 7.88312C1.42178 7.89008 1.66136 7.88451 1.93157 7.88451H1.93018Z" fill="white"/>
    <path d="M26.0713 19.3357C26.0762 21.0889 25.6771 22.6738 24.372 23.8974C23.108 25.082 21.5849 25.6437 19.834 25.6388C19.834 25.9137 19.8319 26.1615 19.8347 26.41C19.8375 26.6362 19.7546 26.8109 19.5353 26.891C19.3131 26.9717 19.1411 26.8826 19.0004 26.7072C18.4321 26 17.8624 25.2943 17.292 24.5885C17.1138 24.3679 17.1221 24.1556 17.2976 23.935C17.8569 23.2327 18.4147 22.529 18.9691 21.8219C19.1167 21.6332 19.2978 21.5448 19.5269 21.6221C19.7512 21.698 19.8194 21.8887 19.8208 22.1086C19.8222 22.3856 19.8208 22.6619 19.8208 22.9348C22.1824 23.2403 23.6749 21.73 23.3824 19.3475C23.1031 19.3475 22.819 19.3447 22.5348 19.3482C22.3092 19.351 22.1337 19.2772 22.0564 19.051C21.9798 18.8262 22.0703 18.6571 22.2451 18.5172C22.9457 17.9555 23.6428 17.3896 24.3448 16.8293C24.6018 16.624 24.7634 16.6226 25.0169 16.8217C25.7231 17.3764 26.4237 17.9381 27.1299 18.4921C27.3193 18.6404 27.4064 18.8234 27.3235 19.0503C27.2441 19.2689 27.0595 19.3419 26.8339 19.3364C26.5867 19.3301 26.3387 19.335 26.0713 19.335V19.3357Z" fill="white"/>
    <path d="M8.68465 13.6289C11.6306 13.631 14.0186 16.0204 14.0173 18.9632C14.0152 21.915 11.6389 24.294 8.68952 24.2968C5.72759 24.2996 3.32976 21.9059 3.33742 18.9548C3.34438 16.0162 5.7436 13.6268 8.68535 13.6289H8.68465ZM8.2257 16.2745C7.99796 16.3051 7.80087 16.3121 7.61492 16.3601C6.89899 16.5431 6.39825 17.244 6.45884 17.9581C6.5257 18.7481 7.1121 19.3543 7.89002 19.3996C8.35106 19.4267 8.81558 19.3982 9.27801 19.4052C9.72512 19.4114 10.0121 19.6731 10.0176 20.0636C10.0232 20.468 9.73557 20.7311 9.27105 20.7359C8.66933 20.7429 8.06761 20.7408 7.46589 20.7492C7.11001 20.754 6.91988 20.9197 6.92545 21.2037C6.93033 21.4765 7.11628 21.6296 7.45823 21.6352C7.71382 21.6394 7.96941 21.6359 8.20829 21.6359C8.23197 21.6867 8.24589 21.7034 8.24659 21.7194C8.25216 21.9595 8.25425 22.2004 8.26052 22.4405C8.26957 22.7774 8.42836 22.9611 8.70554 22.959C8.98063 22.9569 9.14151 22.769 9.14778 22.4335C9.15265 22.1767 9.14847 21.9199 9.14847 21.6394C9.26548 21.6317 9.35532 21.6262 9.44516 21.6206C10.542 21.5572 11.2392 20.4116 10.7677 19.4246C10.4766 18.8142 9.96191 18.5275 9.29473 18.5163C8.87826 18.5094 8.46109 18.5303 8.04532 18.5205C7.62885 18.5108 7.34262 18.224 7.34819 17.8482C7.35376 17.4814 7.62676 17.2211 8.03766 17.1939C8.11148 17.189 8.186 17.1911 8.25982 17.1911C8.80583 17.1876 9.35183 17.1856 9.89853 17.18C10.2579 17.1765 10.4487 17.0213 10.4494 16.7387C10.4494 16.4547 10.2579 16.2967 9.89993 16.2926C9.64503 16.2898 9.39083 16.2926 9.11505 16.2926C9.11505 15.9947 9.11853 15.7371 9.11435 15.4796C9.10947 15.1727 8.94163 14.9778 8.68326 14.9694C8.41652 14.9611 8.23336 15.1643 8.22779 15.4845C8.22291 15.7427 8.22709 16.0009 8.22709 16.2752L8.2257 16.2745Z" fill="white"/>
    <path d="M19.3169 13.5907C16.3703 13.5886 13.9822 11.2006 13.9829 8.25783C13.9843 5.30393 16.3557 2.92773 19.3079 2.92286C22.2684 2.91799 24.6704 5.31298 24.6627 8.26201C24.6558 11.2006 22.2552 13.5928 19.3162 13.5907H19.3169ZM18.8538 5.14594C18.7326 5.14594 18.6421 5.14594 18.5522 5.14594C17.9414 5.14942 17.3307 5.15151 16.7192 5.15847C16.387 5.16195 16.1941 5.32899 16.1962 5.59974C16.1983 5.8691 16.3988 6.04241 16.7213 6.04659C16.9783 6.05007 17.2353 6.04659 17.5194 6.04659V10.4628C17.4888 10.474 17.4714 10.4851 17.4546 10.4851C17.2234 10.4879 16.9922 10.4879 16.7603 10.4921C16.403 10.4983 16.2136 10.6563 16.2192 10.9417C16.224 11.2236 16.4197 11.3802 16.7763 11.3795C17.378 11.3788 17.9798 11.3732 18.5815 11.3718C18.6783 11.3718 18.7751 11.3802 18.8858 11.3857C18.8858 11.5389 18.8816 11.6586 18.8865 11.7776C18.8977 12.0588 19.0752 12.2481 19.326 12.2509C19.5746 12.2537 19.7577 12.065 19.7724 11.7825C19.7793 11.6488 19.7738 11.5145 19.7738 11.3468C20.154 11.3468 20.4883 11.369 20.8191 11.3426C21.6019 11.2792 22.2419 10.7022 22.3896 9.95612C22.547 9.15918 22.1869 8.39147 21.4779 8.01423C21.4069 7.97664 21.3359 7.93906 21.2704 7.90426C21.2753 7.86876 21.2732 7.84927 21.2802 7.83326C21.8784 6.5164 21.3164 5.432 19.8949 5.14803C19.8344 5.13619 19.7703 5.04223 19.7466 4.97333C19.7208 4.89885 19.7431 4.80837 19.7382 4.72554C19.7236 4.44296 19.5718 4.27383 19.3246 4.2613C19.0627 4.24808 18.8795 4.41442 18.8552 4.70049C18.8433 4.83691 18.8531 4.97472 18.8531 5.14594H18.8538Z" fill="white"/>
    <path d="M18.4438 10.4727V8.73887C18.4919 8.72843 18.5434 8.70825 18.595 8.70755C19.2615 8.70198 19.928 8.69363 20.5944 8.69711C21.1432 8.70059 21.5388 9.07226 21.5458 9.5727C21.5527 10.0704 21.1627 10.4594 20.6132 10.4692C19.9022 10.4817 19.1911 10.4727 18.4438 10.4727Z" fill="white"/>
    <path d="M18.4336 7.81243V6.04872C18.9378 6.04872 19.4274 6.02367 19.9142 6.05638C20.3258 6.08352 20.6364 6.48234 20.6406 6.90552C20.6441 7.34262 20.3446 7.70525 19.9086 7.78668C19.8272 7.80199 19.7436 7.81034 19.6607 7.81104C19.2644 7.81382 18.8689 7.81243 18.4336 7.81243Z" fill="white"/>
  </g>
  <defs>
    <clipPath id="clip0_534_3861">
      <rect width="26.7097" height="26.7097" fill="white" transform="translate(0.64502 0.259277)"/>
    </clipPath>
  </defs>
</svg>