<svg width="50" height="54" viewBox="0 0 50 54" fill="none" xmlns="http://www.w3.org/2000/svg">
<g filter="url(#filter0_d_823_1004)">
<g filter="url(#filter1_d_823_1004)">
<path d="M37.0452 28.632C37.7337 29.2748 37.8584 30.3602 37.5742 31.2609C37.2923 32.1592 36.6567 32.9112 36.0042 33.5805C33.9305 35.7153 31.3819 37.3812 28.6126 38.4318C29.487 37.6115 30.4728 36.8811 31.0641 35.8388C31.6554 34.799 31.7177 33.3262 30.8182 32.531C30.4656 32.2228 29.9979 32.0549 29.5481 31.923C27.4493 31.3233 25.2341 31.3137 23.0549 31.1902C20.8768 31.0666 18.6365 30.7932 16.7223 29.7342C15.7172 29.1789 14.8357 28.3681 14.2181 27.3978C13.592 26.4 13.3977 25.3254 13.3701 24.1692C14.6942 25.7835 16.7319 26.647 18.7504 27.1856C22.1997 28.0935 25.8158 28.2002 29.3622 27.9088C31.4443 27.7408 33.5791 27.441 35.6072 27.9447C36.1277 28.0767 36.6471 28.2614 37.044 28.6332L37.0452 28.632Z" fill="white"/>
<path d="M14.7743 17.2706C16.776 14.9067 19.5381 13.2923 22.4033 12.0846C21.6537 12.8342 20.789 13.477 20.1905 14.3514C19.5813 15.2161 19.273 16.4058 19.7672 17.3413C20.2877 18.3296 21.4954 18.7266 22.5976 18.9113C24.6533 19.2639 26.7438 19.2111 28.8259 19.379C30.8983 19.5469 33.0248 19.9511 34.7614 21.0905C36.5077 22.2275 37.8042 24.2304 37.6195 26.3029C35.7593 24.2304 32.9276 23.3393 30.1835 22.8991C27.4502 22.4578 24.6617 22.3774 21.902 22.5897C20.0394 22.7312 18.1612 23.0035 16.3095 22.7744C15.6126 22.6868 14.9146 22.5285 14.3329 22.1399C12.4464 20.8782 13.6361 18.6019 14.7743 17.2706Z" fill="white"/>
<path d="M25.4031 5.64526C14.4914 5.64526 5.64502 14.4917 5.64502 25.4033C5.64502 36.315 14.4914 45.1614 25.4031 45.1614C36.3148 45.1614 45.1612 36.3162 45.1612 25.4033C45.1612 14.4905 36.3148 5.64526 25.4031 5.64526ZM25.4031 42.8646C15.6812 42.8646 7.80145 34.9837 7.80145 25.263C7.80145 15.5423 15.6812 7.66017 25.4031 7.66017C35.125 7.66017 43.0047 15.5411 43.0047 25.263C43.0047 34.9849 35.125 42.8646 25.4031 42.8646Z" fill="white"/>
<path d="M37.5751 31.2609C37.2933 32.1592 36.6576 32.9112 36.0052 33.5805C33.9315 35.7153 31.3829 37.3812 28.6136 38.4318C29.4879 37.6115 30.4738 36.8811 31.0651 35.8388C31.6564 34.799 31.7187 33.3262 30.8192 32.531C30.4666 32.2228 29.9989 32.0549 29.5491 31.923C27.4502 31.3233 25.235 31.3137 23.0558 31.1902C20.8778 31.0666 18.6374 30.7932 16.7233 29.7342C15.7182 29.1789 14.8367 28.3681 14.219 27.3978C13.593 26.4 13.3987 25.3254 13.3711 24.1692C14.6952 25.7835 16.7329 26.647 18.7514 27.1856C22.2007 28.0935 25.8167 28.2002 29.3632 27.9088C31.4453 27.7408 33.5801 27.441 35.6082 27.9447C36.1287 28.0767 36.648 28.2614 37.045 28.6332C37.7335 29.276 37.8582 30.3614 37.5739 31.2621L37.5751 31.2609Z" fill="#24C3BC"/>
<path d="M14.7743 17.2706C16.776 14.9067 19.5381 13.2923 22.4033 12.0846C21.6537 12.8342 20.789 13.477 20.1905 14.3514C19.5813 15.2161 19.273 16.4058 19.7672 17.3413C20.2877 18.3296 21.4954 18.7266 22.5976 18.9113C24.6533 19.2639 26.7438 19.2111 28.8259 19.379C30.8983 19.5469 33.0248 19.9511 34.7614 21.0905C36.5077 22.2275 37.8042 24.2304 37.6195 26.3029C35.7593 24.2304 32.9276 23.3393 30.1835 22.8991C27.4502 22.4578 24.6617 22.3774 21.902 22.5897C20.0394 22.7312 18.1612 23.0035 16.3095 22.7744C15.6126 22.6868 14.9146 22.5285 14.3329 22.1399C12.4464 20.8782 13.6361 18.6019 14.7743 17.2706Z" fill="#24C3BC"/>
<path d="M37.6195 26.3041C35.7593 24.2316 32.9276 23.3405 30.1835 22.9003C27.4502 22.459 24.6617 22.3786 21.902 22.5909C20.0394 22.7324 18.1612 23.0047 16.3095 22.7756C15.6126 22.6881 14.9146 22.5297 14.3329 22.1412C12.4464 20.8794 13.6361 18.6031 14.7743 17.2718C16.776 14.9079 19.5381 13.2936 22.4033 12.0858C21.6537 12.8354 20.789 13.4783 20.1905 14.3526C19.5813 15.2173 19.273 16.4071 19.7672 17.3426C20.2877 18.3308 21.4954 18.7278 22.5976 18.9125C24.6533 19.2651 26.7438 19.2123 28.8259 19.3803C30.8983 19.5482 33.0248 19.9523 34.7614 21.0917C36.5077 22.2287 37.8042 24.2316 37.6195 26.3041Z" fill="white"/>
<path d="M37.5751 31.2609C37.2933 32.1592 36.6576 32.9112 36.0052 33.5805C33.9315 35.7153 31.3829 37.3812 28.6136 38.4318C29.4879 37.6115 30.4738 36.8811 31.0651 35.8388C31.6564 34.799 31.7187 33.3262 30.8192 32.531C30.4666 32.2228 29.9989 32.0549 29.5491 31.923C27.4502 31.3233 25.235 31.3137 23.0558 31.1902C20.8778 31.0666 18.6374 30.7932 16.7233 29.7342C15.7182 29.1789 14.8367 28.3681 14.219 27.3978C13.593 26.4 13.3987 25.3254 13.3711 24.1692C14.6952 25.7835 16.7329 26.647 18.7514 27.1856C22.2007 28.0935 25.8167 28.2002 29.3632 27.9088C31.4453 27.7408 33.5801 27.441 35.6082 27.9447C36.1287 28.0767 36.648 28.2614 37.045 28.6332C37.7335 29.276 37.8582 30.3614 37.5739 31.2621L37.5751 31.2609Z" fill="white"/>
</g>
</g>
<defs>
<filter id="filter0_d_823_1004" x="-4" y="0" width="58" height="58" filterUnits="userSpaceOnUse" color-interpolation-filters="sRGB">
<feFlood flood-opacity="0" result="BackgroundImageFix"/>
<feColorMatrix in="SourceAlpha" type="matrix" values="0 0 0 0 0 0 0 0 0 0 0 0 0 0 0 0 0 0 127 0" result="hardAlpha"/>
<feOffset dy="4"/>
<feGaussianBlur stdDeviation="2"/>
<feComposite in2="hardAlpha" operator="out"/>
<feColorMatrix type="matrix" values="0 0 0 0 0 0 0 0 0 0 0 0 0 0 0 0 0 0 0.25 0"/>
<feBlend mode="normal" in2="BackgroundImageFix" result="effect1_dropShadow_823_1004"/>
<feBlend mode="normal" in="SourceGraphic" in2="effect1_dropShadow_823_1004" result="shape"/>
</filter>
<filter id="filter1_d_823_1004" x="3.64502" y="5.64526" width="43.5161" height="43.5161" filterUnits="userSpaceOnUse" color-interpolation-filters="sRGB">
<feFlood flood-opacity="0" result="BackgroundImageFix"/>
<feColorMatrix in="SourceAlpha" type="matrix" values="0 0 0 0 0 0 0 0 0 0 0 0 0 0 0 0 0 0 127 0" result="hardAlpha"/>
<feOffset dy="2"/>
<feGaussianBlur stdDeviation="1"/>
<feComposite in2="hardAlpha" operator="out"/>
<feColorMatrix type="matrix" values="0 0 0 0 0 0 0 0 0 0 0 0 0 0 0 0 0 0 0.15 0"/>
<feBlend mode="normal" in2="BackgroundImageFix" result="effect1_dropShadow_823_1004"/>
<feBlend mode="normal" in="SourceGraphic" in2="effect1_dropShadow_823_1004" result="shape"/>
</filter>
</defs>
</svg>
