<svg width="50" height="50" viewBox="0 0 50 50" fill="none" xmlns="http://www.w3.org/2000/svg">
<g filter="url(#filter0_d_823_1034)">
<g clip-path="url(#clip0_823_1034)">
<path d="M26.9068 4.1665C27.7037 4.4515 28.3297 4.92209 28.4873 5.79376C28.5643 6.21986 28.5258 6.66681 28.5328 7.10473C28.5384 7.42309 28.5391 7.74215 28.5314 8.06051C28.5041 9.2276 27.7002 10.0673 26.5223 10.1208C25.8683 10.1507 25.2107 10.1507 24.5567 10.1208C23.3782 10.0666 22.5714 9.2276 22.549 8.06051C22.5378 7.47662 22.542 6.89203 22.5476 6.30814C22.5574 5.2613 23.0483 4.58844 24.0427 4.24297C24.0896 4.22698 24.1302 4.19222 24.1744 4.1665C25.0854 4.1665 25.9964 4.1665 26.9068 4.1665Z" fill="white"/>
<path d="M24.8531 29.0285C24.8531 30.3312 24.8552 31.6345 24.8524 32.9371C24.851 33.5488 24.6647 33.6552 24.1192 33.3611C21.9568 32.194 19.7979 31.0207 17.632 29.8599C17.2832 29.6729 17.1341 29.4143 17.1348 29.0278C17.1404 26.4351 17.1355 23.8423 17.1397 21.2495C17.1404 20.7254 17.3547 20.6017 17.8203 20.8526C20.0423 22.0496 22.2607 23.2535 24.4862 24.445C24.7586 24.5909 24.8608 24.7772 24.858 25.0796C24.8468 26.3954 24.8531 27.712 24.8531 29.0285Z" fill="white"/>
<path d="M26.2288 29.0028C26.2288 27.7001 26.2365 26.3968 26.2232 25.0942C26.2197 24.7744 26.3325 24.5881 26.6189 24.4352C28.81 23.2647 30.9927 22.0795 33.1783 20.8999C33.7658 20.5829 33.943 20.6879 33.9437 21.3559C33.9451 23.8819 33.9366 26.4079 33.9507 28.934C33.9535 29.4052 33.7749 29.6951 33.3589 29.9169C31.2252 31.0527 29.102 32.2086 26.9746 33.3563C26.4116 33.66 26.2302 33.5523 26.2295 32.9128C26.2274 31.6101 26.2295 30.3068 26.2295 29.0042L26.2288 29.0028Z" fill="white"/>
<path d="M25.5488 23.4377C25.4333 23.3897 25.3192 23.3529 25.2155 23.2973C22.995 22.0989 20.7744 20.9012 18.5602 19.6918C18.4166 19.6132 18.2388 19.4353 18.2388 19.3032C18.2388 19.1725 18.4187 18.9966 18.563 18.9181C20.7184 17.7406 22.8836 16.5804 25.0397 15.4029C25.3969 15.2083 25.7057 15.2173 26.0572 15.4085C28.214 16.5839 30.3793 17.7441 32.5347 18.9223C32.6761 18.9994 32.8316 19.1788 32.8428 19.3213C32.8519 19.436 32.6775 19.6104 32.5431 19.6841C30.3282 20.8929 28.1076 22.0906 25.8871 23.2889C25.7827 23.3453 25.67 23.3849 25.5488 23.4377Z" fill="white"/>
<path d="M42.5332 12.9381C42.8672 12.9381 43.202 12.9298 43.536 12.9402C44.5416 12.9708 45.4036 13.7208 45.4778 14.7155C45.5366 15.5072 45.5338 16.3094 45.4778 17.1011C45.412 18.0395 44.6473 18.7895 43.6963 18.8549C42.9113 18.9084 42.1172 18.9112 41.3329 18.8549C40.3099 18.7819 39.5445 17.9248 39.5235 16.9058C39.5095 16.242 39.5088 15.5781 39.5235 14.9143C39.5473 13.8195 40.4212 12.9652 41.5304 12.9388C41.8644 12.9311 42.1992 12.9374 42.5332 12.9381Z" fill="white"/>
<path d="M8.54146 36.2416C8.22074 36.2416 7.89932 36.2486 7.5786 36.2416C6.5317 36.2159 5.66758 35.4562 5.59475 34.4197C5.54083 33.6537 5.54293 32.8787 5.59545 32.1127C5.66197 31.1486 6.41966 30.3909 7.38813 30.3249C8.17312 30.2713 8.96723 30.2699 9.75152 30.3262C10.7732 30.3999 11.5351 31.257 11.5561 32.2795C11.5701 32.9433 11.5715 33.6072 11.5561 34.271C11.5309 35.3491 10.6668 36.2069 9.58416 36.2402C9.23683 36.2514 8.8888 36.2416 8.54076 36.2423L8.54146 36.2416Z" fill="white"/>
<path d="M42.5093 36.241C42.1753 36.241 41.8406 36.2493 41.5065 36.2396C40.4225 36.2076 39.5507 35.3512 39.5248 34.2794C39.5087 33.6023 39.5087 32.9246 39.5248 32.2483C39.5493 31.2522 40.3154 30.3979 41.3182 30.3263C42.1158 30.2693 42.9239 30.2721 43.7215 30.3277C44.6507 30.393 45.4112 31.143 45.4756 32.062C45.5324 32.8669 45.5352 33.683 45.4735 34.4872C45.3993 35.4597 44.5373 36.2041 43.5513 36.2382C43.204 36.25 42.8559 36.2403 42.5079 36.2403L42.5093 36.241Z" fill="white"/>
<path d="M11.5597 15.9347C11.5597 16.253 11.5667 16.5721 11.559 16.8905C11.5324 17.9317 10.7691 18.7853 9.72292 18.8583C8.95193 18.9118 8.17043 18.9098 7.39874 18.8569C6.42887 18.7909 5.66348 18.036 5.59766 17.0767C5.54444 16.2975 5.54234 15.5093 5.59906 14.7308C5.67399 13.7173 6.54021 12.9603 7.5682 12.9402C8.23696 12.9269 8.90571 12.9256 9.57446 12.9408C10.6599 12.9652 11.5233 13.8236 11.5569 14.899C11.5681 15.2437 11.5583 15.5892 11.559 15.9347H11.5597Z" fill="white"/>
<path d="M28.5287 42.0312C28.5287 42.3767 28.5413 42.7221 28.5266 43.0662C28.4797 44.1471 27.6226 44.9833 26.5274 45.009C25.8726 45.0243 25.2165 45.0236 24.5617 45.009C23.449 44.9847 22.587 44.1388 22.5541 43.0342C22.5352 42.3975 22.5394 41.7594 22.5506 41.1227C22.5709 39.9542 23.3783 39.1124 24.554 39.0589C25.2081 39.029 25.8656 39.0297 26.5197 39.0589C27.6961 39.1096 28.5042 39.9486 28.5322 41.1157C28.5399 41.4209 28.5336 41.7267 28.5336 42.0319C28.5322 42.0319 28.5308 42.0319 28.5294 42.0319L28.5287 42.0312Z" fill="white"/>
<path d="M13.2279 14.2059C13.0521 14.0377 12.7783 13.8924 12.7181 13.686C12.6565 13.4754 12.7818 13.1966 12.87 12.9638C12.9037 12.8755 13.0584 12.8268 13.1649 12.7726C15.5458 11.5409 17.9274 10.3099 20.3097 9.08021C20.7354 8.86055 21.0603 8.88905 21.2935 9.15945C21.5988 9.51256 21.4833 9.99984 21.012 10.248C19.9973 10.7825 18.975 11.3025 17.9561 11.8294C16.5814 12.5391 15.2075 13.2509 13.8315 13.9578C13.6683 14.0419 13.4912 14.0989 13.2286 14.2059H13.2279Z" fill="white"/>
<path d="M30.3822 8.92871C30.4599 8.95791 30.6154 8.99961 30.7547 9.07121C33.1496 10.3043 35.5438 11.5395 37.9359 12.7789C38.4093 13.0243 38.555 13.401 38.3428 13.7813C38.1397 14.1469 37.7714 14.2241 37.3029 13.9829C34.8961 12.7428 32.4907 11.5006 30.086 10.2564C29.6896 10.0513 29.5404 9.76771 29.6483 9.42085C29.7449 9.11013 29.9634 8.93705 30.3815 8.92941L30.3822 8.92871Z" fill="white"/>
<path d="M21.4538 39.5858C21.4447 40.103 20.9496 40.4005 20.4503 40.1642C19.9076 39.9077 19.3796 39.6213 18.8467 39.346C16.9504 38.3666 15.0527 37.3914 13.1633 36.3995C12.9764 36.3014 12.7411 36.1221 12.7089 35.9476C12.6683 35.7231 12.7474 35.4187 12.8881 35.2331C13.0849 34.9745 13.4028 34.9995 13.6927 35.1496C14.7466 35.6953 15.8012 36.2396 16.8565 36.7838C18.22 37.4866 19.5834 38.1894 20.9475 38.8907C21.2346 39.0388 21.4678 39.2223 21.4545 39.5858H21.4538Z" fill="white"/>
<path d="M30.2182 40.3219C30.0453 40.1683 29.8072 40.0348 29.6881 39.8319C29.5376 39.5754 29.6055 39.2848 29.8478 39.077C29.9472 38.9922 30.0705 38.931 30.1881 38.8705C32.4983 37.6756 34.8085 36.4814 37.1193 35.2886C37.2615 35.2149 37.4029 35.1336 37.5542 35.0857C37.8924 34.9786 38.1683 35.0912 38.3371 35.3936C38.5031 35.6918 38.4687 35.9886 38.2082 36.2256C38.1025 36.3223 37.9653 36.3883 37.8357 36.4557C35.5136 37.6569 33.1915 38.8566 30.8674 40.0529C30.6923 40.1426 30.5032 40.2051 30.2189 40.3212L30.2182 40.3219Z" fill="white"/>
<path d="M9.24559 24.6208C9.24559 25.7629 9.24699 26.9056 9.24559 28.0477C9.24419 28.6302 9.0068 28.9249 8.55442 28.9173C8.10625 28.9103 7.87517 28.6114 7.87517 28.0255C7.87377 25.7406 7.87517 23.4558 7.87517 21.171C7.87517 21.091 7.87097 21.0111 7.87867 20.9319C7.91788 20.512 8.18679 20.2555 8.57683 20.2625C8.97318 20.2687 9.23718 20.5238 9.24068 20.9541C9.25049 22.1761 9.24419 23.3981 9.24419 24.6201H9.24629L9.24559 24.6208Z" fill="white"/>
<path d="M41.8357 24.5972C41.8357 23.428 41.8336 22.2595 41.8364 21.0903C41.8378 20.5426 42.0843 20.2534 42.5275 20.2618C42.9554 20.2694 43.2047 20.5565 43.2054 21.0751C43.2089 23.4259 43.2068 25.7775 43.2075 28.1283C43.2075 28.4418 43.1263 28.7449 42.8104 28.8415C42.6053 28.9041 42.2852 28.9034 42.1438 28.7838C41.9715 28.6385 41.8553 28.3396 41.849 28.104C41.8203 26.9355 41.8357 25.7663 41.8357 24.5979V24.5972Z" fill="white"/>
<path d="M13.3196 17.6724C13.4337 17.7058 13.557 17.7232 13.6613 17.776C14.1501 18.0221 14.6396 18.2674 15.1179 18.5323C15.5058 18.7471 15.6081 19.0793 15.4281 19.4394C15.2432 19.8085 14.8875 19.9267 14.4778 19.7258C13.975 19.4783 13.4772 19.2197 12.9877 18.9473C12.6796 18.7756 12.5528 18.4704 12.6985 18.1653C12.8035 17.9449 13.05 17.7913 13.2335 17.6078C13.2622 17.6293 13.2909 17.6509 13.3196 17.6724Z" fill="white"/>
<path d="M38.4256 18.5246C38.3514 18.6164 38.2429 18.8479 38.0601 18.9591C37.5818 19.2482 37.0769 19.4971 36.5713 19.739C36.1834 19.9246 35.8361 19.7995 35.6547 19.445C35.4705 19.0863 35.5714 18.7491 35.9572 18.5364C36.4362 18.2723 36.9208 18.0158 37.4145 17.7809C37.927 17.5376 38.4431 17.8573 38.4256 18.5253V18.5246Z" fill="white"/>
<path d="M15.5036 30.1928C15.4315 30.2818 15.3243 30.5118 15.1429 30.6224C14.6647 30.9122 14.1605 31.1618 13.6556 31.4057C13.2767 31.5886 12.8979 31.4607 12.7256 31.127C12.5527 30.7927 12.6654 30.4069 13.0253 30.2081C13.5162 29.9377 14.012 29.6735 14.5197 29.4365C15.0113 29.2071 15.4994 29.5248 15.5036 30.1921V30.1928Z" fill="white"/>
<path d="M36.2954 29.3552C36.3697 29.3788 36.5034 29.4024 36.6197 29.4608C37.0853 29.6937 37.5496 29.9293 38.0062 30.1782C38.4039 30.395 38.5356 30.7621 38.3626 31.1117C38.1827 31.4759 37.7905 31.5886 37.3676 31.3772C36.8781 31.1333 36.3928 30.8795 35.9124 30.6175C35.6162 30.4562 35.5133 30.1851 35.6022 29.8702C35.6883 29.5644 35.8942 29.3684 36.2954 29.3552Z" fill="white"/>
<path d="M26.2287 36.7407C26.2266 37.3899 25.999 37.6937 25.5235 37.6833C25.0207 37.6721 24.8281 37.3461 24.8526 36.5482C24.8695 36.006 25.1173 35.7328 25.5774 35.7523C26.048 35.7724 26.2308 36.0498 26.2287 36.7407Z" fill="white"/>
<path d="M26.2291 12.3862C26.2256 13.1703 25.9553 13.4872 25.4371 13.4226C24.9987 13.3684 24.844 13.0903 24.8524 12.3723C24.8587 11.819 25.0548 11.5389 25.463 11.4992C25.8439 11.4624 26.143 11.6827 26.2067 12.0616C26.2305 12.2041 26.227 12.3521 26.2291 12.3862Z" fill="white"/>
</g>
</g>
<defs>
<filter id="filter0_d_823_1034" x="3.55566" y="4.1665" width="43.9653" height="44.8537" filterUnits="userSpaceOnUse" color-interpolation-filters="sRGB">
<feFlood flood-opacity="0" result="BackgroundImageFix"/>
<feColorMatrix in="SourceAlpha" type="matrix" values="0 0 0 0 0 0 0 0 0 0 0 0 0 0 0 0 0 0 127 0" result="hardAlpha"/>
<feOffset dy="2"/>
<feGaussianBlur stdDeviation="1"/>
<feComposite in2="hardAlpha" operator="out"/>
<feColorMatrix type="matrix" values="0 0 0 0 0 0 0 0 0 0 0 0 0 0 0 0 0 0 0.15 0"/>
<feBlend mode="normal" in2="BackgroundImageFix" result="effect1_dropShadow_823_1034"/>
<feBlend mode="normal" in="SourceGraphic" in2="effect1_dropShadow_823_1034" result="shape"/>
</filter>
<clipPath id="clip0_823_1034">
<rect width="39.9655" height="40.8537" fill="white" transform="translate(5.55566 4.1665)"/>
</clipPath>
</defs>
</svg>
