<svg xmlns="http://www.w3.org/2000/svg" width="29" height="30" viewBox="0 0 29 30" fill="none">
  <g clip-path="url(#clip0_534_3919)">
    <path d="M15.3726 0.114258C15.9464 0.319454 16.3972 0.658278 16.5106 1.28588C16.5661 1.59267 16.5383 1.91448 16.5434 2.22978C16.5474 2.459 16.5479 2.68872 16.5424 2.91794C16.5227 3.75824 15.9439 4.36282 15.0958 4.40136C14.6249 4.42288 14.1515 4.42288 13.6806 4.40136C12.832 4.36232 12.2512 3.75824 12.2351 2.91794C12.227 2.49754 12.23 2.07664 12.234 1.65623C12.2411 0.902512 12.5945 0.418048 13.3105 0.16931C13.3443 0.157799 13.3735 0.132776 13.4053 0.114258C14.0612 0.114258 14.7172 0.114258 15.3726 0.114258Z" fill="white"/>
    <path d="M13.8941 18.0148C13.8941 18.9527 13.8956 19.8911 13.8936 20.829C13.8926 21.2694 13.7585 21.346 13.3657 21.1343C11.8088 20.294 10.2544 19.4492 8.69489 18.6134C8.4438 18.4787 8.33641 18.2926 8.33692 18.0143C8.34095 16.1475 8.33742 14.2807 8.34044 12.4139C8.34095 12.0366 8.49523 11.9475 8.83052 12.1282C10.4303 12.99 12.0276 13.8568 13.6299 14.7146C13.826 14.8197 13.8997 14.9539 13.8976 15.1716C13.8896 16.119 13.8941 17.0669 13.8941 18.0148Z" fill="white"/>
    <path d="M14.8849 17.9963C14.8849 17.0584 14.8905 16.12 14.8809 15.1821C14.8784 14.9519 14.9596 14.8178 15.1658 14.7077C16.7434 13.8649 18.315 13.0115 19.8885 12.1622C20.3116 11.934 20.4391 12.0096 20.4396 12.4905C20.4406 14.3093 20.4346 16.128 20.4447 17.9468C20.4467 18.2861 20.3181 18.4948 20.0186 18.6544C18.4824 19.4722 16.9536 20.3045 15.4219 21.1308C15.0165 21.3495 14.886 21.2719 14.8855 20.8115C14.8839 19.8736 14.8855 18.9352 14.8855 17.9973L14.8849 17.9963Z" fill="white"/>
    <path d="M14.3951 13.9898C14.3119 13.9552 14.2297 13.9287 14.1551 13.8887C12.5563 13.0258 10.9575 12.1635 9.36326 11.2927C9.2599 11.2361 9.13184 11.108 9.13184 11.0129C9.13184 10.9188 9.26141 10.7922 9.36528 10.7357C10.9172 9.88785 12.4761 9.05255 14.0285 8.20474C14.2857 8.0646 14.508 8.07111 14.7611 8.20874C16.314 9.05505 17.873 9.89035 19.4249 10.7387C19.5267 10.7942 19.6387 10.9233 19.6467 11.0259C19.6533 11.1085 19.5278 11.2341 19.4309 11.2872C17.8362 12.1575 16.2374 13.0198 14.6386 13.8827C14.5635 13.9232 14.4823 13.9517 14.3951 13.9898Z" fill="white"/>
    <path d="M26.624 6.43001C26.8645 6.43001 27.1055 6.424 27.346 6.43151C28.07 6.45353 28.6907 6.99355 28.7441 7.70973C28.7865 8.27978 28.7844 8.85733 28.7441 9.42738C28.6967 10.103 28.1461 10.643 27.4614 10.6901C26.8962 10.7286 26.3245 10.7306 25.7598 10.6901C25.0232 10.6375 24.4721 10.0204 24.457 9.28674C24.4469 8.80878 24.4464 8.33083 24.457 7.85287C24.4741 7.06462 25.1033 6.44953 25.902 6.43051C26.1425 6.425 26.3835 6.42951 26.624 6.43001Z" fill="white"/>
    <path d="M2.14964 23.2082C1.91872 23.2082 1.6873 23.2132 1.45638 23.2082C0.702611 23.1897 0.0804394 22.6426 0.0280035 21.8964C-0.0108192 21.3449 -0.00930665 20.7869 0.0285077 20.2353C0.0764058 19.5412 0.621941 18.9956 1.31924 18.9481C1.88444 18.9096 2.45619 18.9086 3.02088 18.9491C3.7565 19.0021 4.30506 19.6192 4.32018 20.3554C4.33027 20.8334 4.33127 21.3114 4.32018 21.7893C4.30203 22.5656 3.67986 23.1832 2.90038 23.2072C2.6503 23.2152 2.39972 23.2082 2.14914 23.2087L2.14964 23.2082Z" fill="white"/>
    <path d="M26.6068 23.2079C26.3663 23.2079 26.1253 23.2139 25.8848 23.2069C25.1043 23.1839 24.4766 22.5673 24.4579 21.7956C24.4463 21.3081 24.4463 20.8201 24.4579 20.3332C24.4756 19.616 25.0271 19.0009 25.7492 18.9493C26.3234 18.9083 26.9053 18.9103 27.4795 18.9503C28.1486 18.9974 28.6961 19.5374 28.7425 20.199C28.7834 20.7786 28.7854 21.3662 28.741 21.9452C28.6876 22.6454 28.0669 23.1814 27.357 23.2059C27.1069 23.2144 26.8564 23.2074 26.6058 23.2074L26.6068 23.2079Z" fill="white"/>
    <path d="M4.32284 8.58734C4.32284 8.81656 4.32788 9.04628 4.32234 9.2755C4.30318 10.0252 3.75361 10.6398 3.00035 10.6924C2.44523 10.7309 1.88256 10.7294 1.32694 10.6913C0.628632 10.6438 0.0775509 10.1003 0.0301569 9.40962C-0.0081616 8.84859 -0.00967417 8.28104 0.0311653 7.72051C0.0851138 6.99081 0.708798 6.44579 1.44895 6.43127C1.93045 6.42176 2.41196 6.42076 2.89346 6.43177C3.67495 6.44929 4.29662 7.06738 4.32082 7.84162C4.32889 8.08986 4.32183 8.3386 4.32234 8.58734H4.32284Z" fill="white"/>
    <path d="M16.5406 27.3767C16.5406 27.6254 16.5497 27.8742 16.5391 28.1219C16.5053 28.9002 15.8882 29.5022 15.0997 29.5208C14.6282 29.5318 14.1558 29.5313 13.6844 29.5208C12.8832 29.5032 12.2626 28.8942 12.2389 28.0989C12.2253 27.6405 12.2283 27.181 12.2364 26.7226C12.251 25.8813 12.8323 25.2752 13.6789 25.2367C14.1498 25.2151 14.6232 25.2156 15.0941 25.2367C15.9412 25.2732 16.523 25.8773 16.5432 26.7176C16.5487 26.9373 16.5442 27.1575 16.5442 27.3772C16.5432 27.3772 16.5422 27.3772 16.5411 27.3772L16.5406 27.3767Z" fill="white"/>
    <path d="M5.52389 7.34279C5.39734 7.22167 5.2002 7.11707 5.15684 6.96843C5.11248 6.81679 5.20273 6.6161 5.26625 6.44844C5.29045 6.38487 5.40188 6.34984 5.47852 6.3108C7.19277 5.42395 8.90752 4.53761 10.6228 3.65226C10.9293 3.49411 11.1633 3.51463 11.3312 3.70931C11.551 3.96356 11.4678 4.31439 11.1285 4.49306C10.3979 4.87793 9.66179 5.25229 8.92819 5.63165C7.93847 6.14264 6.94924 6.65513 5.95851 7.16412C5.84103 7.22468 5.71347 7.26572 5.5244 7.34279H5.52389Z" fill="white"/>
    <path d="M17.8752 3.54297C17.9311 3.56399 18.0431 3.59402 18.1434 3.64557C19.8677 4.53342 21.5916 5.42277 23.3139 6.31512C23.6547 6.49179 23.7596 6.76305 23.6068 7.03681C23.4606 7.30006 23.1954 7.35562 22.8581 7.18195C21.1252 6.2891 19.3933 5.39474 17.6619 4.49888C17.3765 4.35124 17.2691 4.14705 17.3468 3.89731C17.4163 3.67359 17.5737 3.54897 17.8747 3.54347L17.8752 3.54297Z" fill="white"/>
    <path d="M11.4466 25.6163C11.44 25.9886 11.0836 26.2028 10.7241 26.0327C10.3333 25.848 9.95316 25.6418 9.56947 25.4436C8.20412 24.7384 6.83776 24.0362 5.47745 23.3221C5.34284 23.2515 5.17343 23.1224 5.15024 22.9968C5.12099 22.8351 5.17797 22.6159 5.27931 22.4823C5.42099 22.2961 5.64989 22.3141 5.85862 22.4222C6.61743 22.8151 7.37674 23.207 8.13656 23.5988C9.11822 24.1048 10.0999 24.6108 11.082 25.1158C11.2888 25.2224 11.4567 25.3545 11.4471 25.6163H11.4466Z" fill="white"/>
    <path d="M17.7569 26.1463C17.6324 26.0356 17.461 25.9396 17.3753 25.7934C17.2669 25.6087 17.3158 25.3995 17.4902 25.2499C17.5618 25.1888 17.6506 25.1448 17.7353 25.1013C19.3986 24.2409 21.0619 23.3811 22.7257 22.5223C22.8281 22.4692 22.9299 22.4107 23.0388 22.3761C23.2824 22.2991 23.481 22.3802 23.6025 22.5979C23.722 22.8126 23.6973 23.0263 23.5098 23.1969C23.4336 23.2665 23.3348 23.314 23.2415 23.3626C21.5696 24.2274 19.8977 25.0912 18.2243 25.9526C18.0983 26.0171 17.9621 26.0622 17.7574 26.1458L17.7569 26.1463Z" fill="white"/>
    <path d="M2.65647 14.8412C2.65647 15.6635 2.65748 16.4863 2.65647 17.3086C2.65546 17.728 2.48454 17.9402 2.15883 17.9347C1.83615 17.9297 1.66977 17.7145 1.66977 17.2926C1.66876 15.6475 1.66977 14.0024 1.66977 12.3574C1.66977 12.2998 1.66674 12.2422 1.67229 12.1852C1.70052 11.8829 1.89413 11.6982 2.17497 11.7032C2.46034 11.7077 2.65042 11.8914 2.65294 12.2012C2.66 13.081 2.65546 13.9609 2.65546 14.8407H2.65698L2.65647 14.8412Z" fill="white"/>
    <path d="M26.1216 14.8243C26.1216 13.9824 26.1201 13.1411 26.1221 12.2993C26.1231 11.905 26.3006 11.6968 26.6198 11.7028C26.9278 11.7083 27.1073 11.915 27.1078 12.2883C27.1103 13.9809 27.1088 15.6741 27.1093 17.3667C27.1093 17.5924 27.0508 17.8106 26.8235 17.8802C26.6757 17.9252 26.4453 17.9247 26.3435 17.8386C26.2194 17.734 26.1357 17.5188 26.1312 17.3492C26.1105 16.5079 26.1216 15.6661 26.1216 14.8247V14.8243Z" fill="white"/>
    <path d="M5.58974 9.83854C5.67192 9.86256 5.76066 9.87507 5.83579 9.91311C6.18771 10.0903 6.54014 10.2669 6.8845 10.4576C7.16382 10.6123 7.23744 10.8515 7.10786 11.1108C6.97475 11.3765 6.71862 11.4616 6.42367 11.317C6.06166 11.1388 5.70318 10.9526 5.35075 10.7564C5.12891 10.6328 5.03765 10.4131 5.14252 10.1934C5.21815 10.0347 5.39563 9.92412 5.52772 9.79199C5.5484 9.80751 5.56907 9.82302 5.58974 9.83854Z" fill="white"/>
    <path d="M23.6663 10.4523C23.6128 10.5184 23.5347 10.6851 23.4031 10.7651C23.0587 10.9733 22.6952 11.1525 22.3312 11.3267C22.0519 11.4603 21.8018 11.3702 21.6712 11.115C21.5386 10.8567 21.6112 10.614 21.889 10.4609C22.2339 10.2707 22.5828 10.086 22.9382 9.91683C23.3073 9.74166 23.6789 9.97188 23.6663 10.4528V10.4523Z" fill="white"/>
    <path d="M7.16244 18.8532C7.11051 18.9173 7.03337 19.0829 6.90279 19.1625C6.55842 19.3712 6.19541 19.5509 5.83188 19.7266C5.55912 19.8582 5.28635 19.7661 5.16232 19.5259C5.03778 19.2851 5.11896 19.0074 5.37811 18.8642C5.73155 18.6695 6.08852 18.4794 6.45406 18.3087C6.808 18.1435 7.15942 18.3723 7.16244 18.8527V18.8532Z" fill="white"/>
    <path d="M22.1327 18.25C22.1862 18.267 22.2825 18.284 22.3662 18.3261C22.7015 18.4937 23.0357 18.6634 23.3645 18.8426C23.6508 18.9987 23.7456 19.263 23.6211 19.5147C23.4915 19.777 23.2092 19.858 22.9046 19.7059C22.5522 19.5302 22.2028 19.3476 21.8569 19.1589C21.6437 19.0428 21.5695 18.8476 21.6336 18.6209C21.6956 18.4006 21.8438 18.2595 22.1327 18.25Z" fill="white"/>
    <path d="M14.8848 23.5678C14.8833 24.0353 14.7194 24.254 14.3771 24.2465C14.0151 24.2385 13.8764 24.0038 13.8941 23.4292C13.9062 23.0388 14.0846 22.8422 14.4159 22.8562C14.7547 22.8707 14.8863 23.0704 14.8848 23.5678Z" fill="white"/>
    <path d="M14.8845 6.0326C14.882 6.59714 14.6874 6.82536 14.3143 6.77881C13.9987 6.73978 13.8872 6.53959 13.8933 6.02259C13.8978 5.62421 14.039 5.42252 14.333 5.39399C14.6072 5.36746 14.8225 5.52612 14.8684 5.79888C14.8855 5.90148 14.883 6.00808 14.8845 6.0326Z" fill="white"/>
  </g>
  <defs>
    <clipPath id="clip0_534_3919">
      <rect width="28.7752" height="29.4146" fill="white" transform="translate(0 0.114258)"/>
    </clipPath>
  </defs>
</svg>