<svg xmlns="http://www.w3.org/2000/svg" width="26" height="23" viewBox="0 0 26 23" fill="none">
  <g clip-path="url(#clip0_534_3844)">
    <path d="M13.0964 22.7333C11.663 22.7333 10.2295 22.7333 8.79698 22.7333C7.68333 22.7333 7.04635 22.0874 7.03606 20.9721C7.02748 20.0967 7.04806 19.228 7.40727 18.4071C8.10941 16.8055 9.31394 15.8106 11.0397 15.4581C11.1297 15.4394 11.2583 15.4752 11.3329 15.5324C12.3617 16.3208 13.862 16.32 14.889 15.5307C14.9636 15.4735 15.0914 15.4419 15.184 15.4581C17.3992 15.837 19.125 17.8363 19.1713 20.0711C19.1782 20.4192 19.1782 20.7682 19.1747 21.1172C19.1653 22.0601 18.494 22.7282 17.5407 22.7325C16.0593 22.7376 14.5787 22.7342 13.0973 22.7342L13.0964 22.7333Z" fill="white"/>
    <path d="M9.19475 8.57501C9.56853 9.10235 9.93975 9.62456 10.3315 10.1775C10.2355 10.1869 10.1704 10.198 10.1044 10.198C8.6152 10.1988 7.12605 10.2082 5.63776 10.1963C3.17984 10.1775 1.35377 8.66034 0.893393 6.27282C0.395294 3.6916 2.10477 1.24861 4.717 0.756263C7.59071 0.215274 10.0495 2.40142 10.3333 4.98178C10.473 6.25319 10.1104 7.37528 9.33363 8.3779C9.29505 8.42824 9.25562 8.47774 9.21704 8.52808C9.21275 8.53405 9.21018 8.54173 9.19475 8.57501ZM3.39846 6.24295C3.85626 6.2421 4.19404 5.89908 4.19061 5.44086C4.18719 4.98093 3.84598 4.64388 3.38817 4.64729C2.93122 4.6507 2.58916 4.99629 2.59344 5.45024C2.59773 5.90846 2.93894 6.24466 3.3976 6.24381L3.39846 6.24295ZM7.73217 6.24295C8.19426 6.25234 8.53976 5.92723 8.55262 5.46816C8.56634 5.01165 8.2337 4.66094 7.77675 4.64729C7.3138 4.63449 6.97174 4.95874 6.95888 5.42208C6.94687 5.88372 7.27522 6.23271 7.73217 6.2421V6.24295ZM6.36733 5.44171C6.36562 4.97666 6.03298 4.64473 5.57089 4.64644C5.10965 4.64814 4.77787 4.98434 4.78045 5.44768C4.78216 5.90846 5.11908 6.24381 5.5786 6.24295C6.03984 6.24125 6.36905 5.90675 6.36733 5.44171Z" fill="white"/>
    <path d="M16.3788 10.7958C16.7037 10.3376 17.0012 9.91774 17.3012 9.4945C16.7791 8.86733 16.4611 8.16763 16.3745 7.36126C16.1627 5.38588 17.7008 3.4617 19.7112 3.2023C21.7224 2.9429 23.6299 4.34486 23.954 6.3211C24.3475 8.72056 22.6217 10.7796 20.187 10.8052C18.985 10.818 17.7822 10.8077 16.5802 10.8069C16.5271 10.8069 16.4739 10.8018 16.3788 10.7966V10.7958ZM20.1998 7.69576C20.5899 7.69576 20.89 7.39198 20.8891 6.99691C20.8891 6.60098 20.589 6.29891 20.1981 6.30062C19.8072 6.30232 19.5045 6.60695 19.5054 6.99861C19.5054 7.39028 19.8106 7.69576 20.1998 7.69576ZM21.256 6.99349C21.2543 7.39028 21.5475 7.69234 21.9393 7.69576C22.3277 7.69917 22.6312 7.39625 22.6346 7.00203C22.638 6.6078 22.3405 6.30403 21.9487 6.30147C21.5544 6.29891 21.2586 6.595 21.256 6.99264V6.99349ZM19.1376 7.00715C19.1428 6.6078 18.8547 6.3083 18.4612 6.30147C18.0694 6.2955 17.7702 6.58988 17.7659 6.98752C17.7616 7.38601 18.0505 7.68808 18.4423 7.6949C18.8307 7.70173 19.1333 7.40308 19.1376 7.00629V7.00715Z" fill="white"/>
    <path d="M18.9583 22.7321C19.5765 22.1689 19.6879 21.5008 19.6965 20.7678C19.7111 19.5527 19.5105 18.4041 18.8392 17.3674C18.7097 17.1686 18.5666 16.9783 18.4482 16.7266C18.5503 16.7598 18.6703 16.7684 18.7509 16.829C19.5868 17.4536 20.7887 17.4544 21.6263 16.8332C21.7086 16.7726 21.8458 16.7385 21.9469 16.7556C23.7207 17.0662 25.1327 18.7096 25.1867 20.5186C25.1961 20.8275 25.1944 21.1364 25.1893 21.4453C25.1773 22.1288 24.674 22.7116 23.9933 22.7227C22.3396 22.7491 20.685 22.7312 18.9583 22.7312V22.7321Z" fill="white"/>
    <path d="M7.77893 16.7853C7.74892 16.8288 7.72063 16.8741 7.68805 16.9159C6.94219 17.8639 6.5564 18.9407 6.52211 20.1422C6.51268 20.4664 6.51353 20.7915 6.51868 21.1166C6.52896 21.731 6.75358 22.2575 7.22253 22.7089C7.14623 22.7208 7.09736 22.7345 7.04935 22.7345C5.48133 22.7353 3.91245 22.7388 2.34442 22.7345C1.64486 22.7328 1.09189 22.2566 1.0396 21.568C0.977012 20.7437 0.991586 19.9195 1.33708 19.1404C1.89862 17.8733 2.86053 17.0823 4.21251 16.7589C4.35739 16.7239 4.47485 16.7375 4.60687 16.8399C5.40074 17.456 6.63441 17.4466 7.43686 16.8416C7.52173 16.7776 7.6409 16.7589 7.74463 16.7188L7.77893 16.7845V16.7853Z" fill="white"/>
    <path d="M15.5569 12.5058C15.55 13.8421 14.439 14.9027 13.0484 14.9002C11.7393 14.8976 10.6573 13.8063 10.6616 12.4947C10.6668 11.1175 11.7453 10.0296 13.1024 10.0347C14.4827 10.0398 15.5637 11.1286 15.5569 12.5058Z" fill="white"/>
    <path d="M4.01026 14.3149C4.01197 13.1817 4.89329 12.2806 5.99922 12.2798C7.14202 12.2789 8.0362 13.1766 8.03277 14.3217C8.02934 15.4114 7.10258 16.2988 5.97522 16.2911C4.89072 16.2843 4.00769 15.3969 4.01026 14.3157V14.3149Z" fill="white"/>
    <path d="M20.1673 16.2902C19.088 16.2927 18.1921 15.4053 18.1861 14.3284C18.1801 13.1935 19.0768 12.2763 20.1879 12.2788C21.3135 12.2814 22.2137 13.1816 22.2154 14.3071C22.218 15.3942 21.2955 16.2876 20.1673 16.2902Z" fill="white"/>
  </g>
  <defs>
    <clipPath id="clip0_534_3844">
      <rect width="24.3871" height="22.0645" fill="white" transform="translate(0.806641 0.67334)"/>
    </clipPath>
  </defs>
</svg>