<svg width="50" height="50" viewBox="0 0 50 50" fill="none" xmlns="http://www.w3.org/2000/svg">
<g filter="url(#filter0_d_823_992)">
<g clip-path="url(#clip0_823_992)">
<path d="M27.637 27.6223C30.1209 32.9749 28.1322 38.6455 24.0823 41.4837C19.8002 44.4843 14.1242 44.1827 10.2725 40.7896C6.39765 37.3762 5.36848 31.8429 7.76441 27.2617C8.65913 25.5516 9.92432 24.1712 11.5426 23.1194C13.1473 22.0754 14.9058 21.4886 16.8181 21.3543C18.7381 21.2189 20.5672 21.5776 22.3509 22.3828C19.5245 16.1921 22.6642 10.3775 26.5411 8.08642C31.066 5.41159 36.6674 6.06604 40.2754 9.71336C43.8978 13.3752 44.5401 18.9849 41.8946 23.3505C39.4077 27.455 33.6312 30.2923 27.637 27.6232V27.6223ZM17.6354 23.7855C12.8803 23.7633 8.97736 27.631 8.95318 32.389C8.929 37.1693 12.7691 41.0322 17.5861 41.0709C22.3625 41.1096 26.2586 37.2534 26.2896 32.4577C26.3196 27.6996 22.436 23.8068 17.6364 23.7845L17.6354 23.7855ZM32.394 26.2022C37.1811 26.1906 41.0579 22.3064 41.0482 17.53C41.0385 12.7691 37.1694 8.92164 32.3863 8.91584C27.6002 8.91004 23.7311 12.7874 23.7418 17.5784C23.7524 22.349 27.6293 26.2128 32.394 26.2012V26.2022Z" fill="white"/>
<path d="M8.23623 17.0427C8.22655 14.6028 8.78177 12.4142 10.5809 10.7186C12.3336 9.06749 14.448 8.28447 16.8972 8.28834C16.8972 7.92003 16.902 7.57782 16.8962 7.23561C16.8904 6.90694 17.0016 6.65367 17.3305 6.5425C17.6449 6.43616 17.8731 6.57536 18.0676 6.81704C18.8482 7.78953 19.6316 8.76105 20.4171 9.72968C20.6618 10.0323 20.6792 10.3281 20.4335 10.6374C19.65 11.6244 18.8665 12.6114 18.0879 13.6022C17.8915 13.8516 17.6478 13.9648 17.344 13.8719C17.0278 13.7753 16.9214 13.5172 16.9184 13.2107C16.9136 12.8154 16.9175 12.42 16.9175 12.0314C13.592 11.6544 11.5366 13.7559 11.9796 17.0263C12.3723 17.0263 12.7698 17.0301 13.1674 17.0253C13.4672 17.0214 13.6994 17.1278 13.8067 17.4197C13.9189 17.7252 13.8096 17.9698 13.564 18.1679C12.5812 18.9567 11.6023 19.7514 10.6167 20.5363C10.2646 20.8167 10.0479 20.808 9.6852 20.5218C8.71503 19.7581 7.75162 18.9867 6.77952 18.225C6.51932 18.021 6.381 17.7754 6.4903 17.4555C6.60057 17.1297 6.86947 17.0311 7.19738 17.0408C7.53012 17.0504 7.86286 17.0427 8.23816 17.0427H8.23623Z" fill="white"/>
<path d="M41.766 32.9469C41.7727 35.382 41.2185 37.5831 39.4058 39.2826C37.6502 40.9279 35.5348 41.708 33.1031 41.7013C33.1031 42.0831 33.1002 42.4272 33.1041 42.7723C33.1079 43.0865 32.9928 43.3292 32.6881 43.4403C32.3796 43.5525 32.1407 43.4287 31.9453 43.1851C31.156 42.203 30.3648 41.2227 29.5726 40.2425C29.3249 39.9361 29.3365 39.6412 29.5803 39.3348C30.357 38.3594 31.1318 37.3821 31.9017 36.3999C32.1068 36.1379 32.3583 36.0152 32.6765 36.1225C32.988 36.2278 33.0828 36.4927 33.0847 36.7982C33.0867 37.1829 33.0847 37.5667 33.0847 37.9457C36.3647 38.37 38.4376 36.2723 38.0313 32.9633C37.6435 32.9633 37.2488 32.9595 36.8542 32.9643C36.5408 32.9682 36.297 32.8657 36.1897 32.5515C36.0833 32.2393 36.209 32.0044 36.4518 31.8101C37.4249 31.0299 38.3931 30.244 39.3681 29.4658C39.725 29.1807 39.9494 29.1787 40.3015 29.4552C41.2823 30.2257 42.2554 31.0058 43.2362 31.7753C43.4993 31.9812 43.6202 32.2354 43.5051 32.5506C43.3949 32.8541 43.1385 32.9556 42.8251 32.9479C42.4818 32.9392 42.1374 32.9459 41.766 32.9459V32.9469Z" fill="white"/>
<path d="M17.6176 25.021C21.7092 25.0239 25.026 28.3426 25.024 32.4297C25.0211 36.5295 21.7208 39.8336 17.6244 39.8375C13.5106 39.8413 10.1803 36.5169 10.1909 32.4181C10.2006 28.3367 13.5329 25.0181 17.6186 25.021H17.6176ZM16.9802 28.6954C16.6639 28.7379 16.3902 28.7476 16.1319 28.8143C15.1376 29.0685 14.4421 30.042 14.5263 31.0338C14.6191 32.131 15.4336 32.973 16.514 33.0358C17.1543 33.0735 17.7995 33.0339 18.4418 33.0436C19.0628 33.0523 19.4613 33.4157 19.469 33.9581C19.4767 34.5197 19.0773 34.8851 18.4321 34.8919C17.5964 34.9016 16.7606 34.8987 15.9249 34.9103C15.4307 34.917 15.1666 35.1471 15.1743 35.5415C15.1811 35.9204 15.4394 36.1331 15.9143 36.1408C16.2693 36.1466 16.6243 36.1418 16.956 36.1418C16.9889 36.2124 17.0083 36.2356 17.0092 36.2578C17.017 36.5913 17.0199 36.9258 17.0286 37.2593C17.0412 37.7272 17.2617 37.9824 17.6467 37.9795C18.0287 37.9766 18.2522 37.7156 18.2609 37.2496C18.2677 36.8929 18.2619 36.5362 18.2619 36.1466C18.4244 36.136 18.5491 36.1283 18.6739 36.1205C20.1974 36.0326 21.1656 34.4414 20.5108 33.0706C20.1064 32.2228 19.3916 31.8246 18.465 31.8091C17.8866 31.7994 17.3072 31.8284 16.7297 31.8149C16.1513 31.8014 15.7537 31.4031 15.7615 30.8811C15.7692 30.3716 16.1484 30.0101 16.7191 29.9724C16.8216 29.9656 16.9251 29.9685 17.0276 29.9685C17.786 29.9637 18.5443 29.9608 19.3036 29.9531C19.8027 29.9482 20.0677 29.7327 20.0687 29.3402C20.0687 28.9458 19.8027 28.7263 19.3055 28.7205C18.9515 28.7167 18.5985 28.7205 18.2154 28.7205C18.2154 28.3068 18.2203 27.9491 18.2145 27.5914C18.2077 27.1651 17.9746 26.8944 17.6157 26.8828C17.2452 26.8712 16.9909 27.1535 16.9831 27.5982C16.9763 27.9568 16.9822 28.3155 16.9822 28.6964L16.9802 28.6954Z" fill="white"/>
<path d="M32.3854 24.9677C28.2929 24.9648 24.9761 21.6481 24.9771 17.5609C24.979 13.4583 28.2725 10.158 32.3728 10.1513C36.4847 10.1445 39.8208 13.4709 39.8102 17.5667C39.8005 21.6481 36.4663 24.9706 32.3844 24.9677H32.3854ZM31.7421 13.2389C31.5738 13.2389 31.4481 13.2389 31.3233 13.2389C30.475 13.2437 29.6267 13.2466 28.7775 13.2563C28.3161 13.2611 28.0481 13.4931 28.051 13.8692C28.0539 14.2433 28.3325 14.484 28.7804 14.4898C29.1373 14.4946 29.4942 14.4898 29.8889 14.4898V20.6234C29.8463 20.6389 29.8221 20.6544 29.7989 20.6544C29.4778 20.6582 29.1566 20.6582 28.8345 20.664C28.3383 20.6727 28.0752 20.8922 28.083 21.2885C28.0897 21.68 28.3615 21.8975 28.8568 21.8966C29.6925 21.8956 30.5282 21.8879 31.3639 21.8859C31.4984 21.8859 31.6328 21.8975 31.7866 21.9053C31.7866 22.1179 31.7808 22.2842 31.7876 22.4495C31.8031 22.84 32.0497 23.103 32.398 23.1069C32.7433 23.1107 32.9977 22.8487 33.018 22.4563C33.0276 22.2707 33.0199 22.0841 33.0199 21.8511C33.548 21.8511 34.0123 21.8821 34.4718 21.8453C35.559 21.7574 36.4479 20.956 36.653 19.9197C36.8716 18.8128 36.3715 17.7465 35.3868 17.2226C35.2882 17.1704 35.1895 17.1182 35.0986 17.0699C35.1053 17.0206 35.1024 16.9935 35.1121 16.9713C35.943 15.1423 35.1624 13.6362 33.1882 13.2418C33.1041 13.2253 33.0151 13.0948 32.9822 12.9991C32.9464 12.8957 32.9773 12.77 32.9706 12.655C32.9503 12.2625 32.7394 12.0276 32.396 12.0102C32.0323 11.9918 31.7779 12.2229 31.7441 12.6202C31.7276 12.8097 31.7412 13.0011 31.7412 13.2389H31.7421Z" fill="white"/>
<path d="M31.1724 20.637V18.2289C31.2391 18.2144 31.3107 18.1864 31.3823 18.1854C32.3079 18.1777 33.2336 18.1661 34.1593 18.1709C34.9215 18.1758 35.4709 18.692 35.4806 19.387C35.4903 20.0782 34.9486 20.6186 34.1854 20.6321C33.1978 20.6495 32.2102 20.637 31.1724 20.637Z" fill="white"/>
<path d="M31.1577 16.9423V14.4927C31.858 14.4927 32.538 14.4579 33.2141 14.5034C33.7858 14.5411 34.2172 15.095 34.223 15.6827C34.2278 16.2898 33.8119 16.7934 33.2064 16.9065C33.0932 16.9278 32.9772 16.9394 32.862 16.9404C32.3117 16.9442 31.7623 16.9423 31.1577 16.9423Z" fill="white"/>
</g>
</g>
<defs>
<filter id="filter0_d_823_992" x="4.45166" y="6.45178" width="41.0967" height="41.0968" filterUnits="userSpaceOnUse" color-interpolation-filters="sRGB">
<feFlood flood-opacity="0" result="BackgroundImageFix"/>
<feColorMatrix in="SourceAlpha" type="matrix" values="0 0 0 0 0 0 0 0 0 0 0 0 0 0 0 0 0 0 127 0" result="hardAlpha"/>
<feOffset dy="2"/>
<feGaussianBlur stdDeviation="1"/>
<feComposite in2="hardAlpha" operator="out"/>
<feColorMatrix type="matrix" values="0 0 0 0 0 0 0 0 0 0 0 0 0 0 0 0 0 0 0.15 0"/>
<feBlend mode="normal" in2="BackgroundImageFix" result="effect1_dropShadow_823_992"/>
<feBlend mode="normal" in="SourceGraphic" in2="effect1_dropShadow_823_992" result="shape"/>
</filter>
<clipPath id="clip0_823_992">
<rect width="37.0968" height="37.0968" fill="white" transform="translate(6.45166 6.45178)"/>
</clipPath>
</defs>
</svg>
