<svg width="50" height="50" viewBox="0 0 50 50" fill="none" xmlns="http://www.w3.org/2000/svg">
<g filter="url(#filter0_d_823_979)">
<g clip-path="url(#clip0_823_979)">
<path d="M25.1334 40.4438C23.1426 40.4438 21.1517 40.4438 19.162 40.4438C17.6153 40.4438 16.7306 39.5467 16.7163 37.9977C16.7044 36.7818 16.733 35.5753 17.2319 34.4352C18.2071 32.2107 19.88 30.8288 22.2769 30.3394C22.4019 30.3133 22.5805 30.3631 22.6841 30.4425C24.113 31.5375 26.1967 31.5364 27.6232 30.4401C27.7268 30.3607 27.9042 30.3169 28.0328 30.3394C31.1096 30.8656 33.5065 33.6423 33.5708 36.7462C33.5803 37.2297 33.5803 37.7145 33.5756 38.1992C33.5625 39.5087 32.6301 40.4367 31.3061 40.4426C29.2485 40.4497 27.1922 40.445 25.1346 40.445L25.1334 40.4438Z" fill="white"/>
<path d="M19.7144 20.779C20.2336 21.5114 20.7491 22.2367 21.2933 23.0047C21.1599 23.0177 21.0694 23.0331 20.9778 23.0331C18.9095 23.0343 16.8412 23.0473 14.7741 23.0307C11.3604 23.0047 8.82416 20.8975 8.18475 17.5815C7.49295 13.9965 9.86723 10.6034 13.4953 9.91961C17.4866 9.16824 20.9015 12.2046 21.2957 15.7884C21.4898 17.5542 20.9861 19.1127 19.9073 20.5052C19.8537 20.5751 19.7989 20.6439 19.7454 20.7138C19.7394 20.7221 19.7358 20.7328 19.7144 20.779ZM11.664 17.54C12.2999 17.5388 12.769 17.0624 12.7642 16.426C12.7595 15.7872 12.2856 15.3191 11.6497 15.3238C11.0151 15.3286 10.54 15.8085 10.5459 16.439C10.5519 17.0754 11.0258 17.5424 11.6628 17.5412L11.664 17.54ZM17.6831 17.54C18.3248 17.5531 18.8047 17.1015 18.8226 16.4639C18.8416 15.8299 18.3796 15.3428 17.745 15.3238C17.102 15.306 16.6269 15.7564 16.609 16.3999C16.5924 17.0411 17.0484 17.5258 17.6831 17.5388V17.54ZM15.7874 16.4272C15.7851 15.7813 15.3231 15.3203 14.6813 15.3226C14.0407 15.325 13.5799 15.7919 13.5834 16.4355C13.5858 17.0754 14.0538 17.5412 14.692 17.54C15.3326 17.5376 15.7898 17.0731 15.7874 16.4272Z" fill="white"/>
<path d="M29.6927 23.8638C30.144 23.2274 30.5572 22.6443 30.9739 22.0565C30.2488 21.1854 29.807 20.2136 29.6868 19.0937C29.3927 16.3501 31.5288 13.6776 34.321 13.3174C37.1144 12.9571 39.7638 14.9042 40.2138 17.649C40.7604 20.9816 38.3635 23.8413 34.9819 23.8769C33.3125 23.8947 31.6419 23.8804 29.9725 23.8793C29.8987 23.8793 29.8249 23.8721 29.6927 23.865V23.8638ZM34.9997 19.5583C35.5415 19.5583 35.9582 19.1364 35.9571 18.5876C35.9571 18.0377 35.5403 17.6182 34.9973 17.6206C34.4544 17.6229 34.0341 18.046 34.0352 18.59C34.0352 19.134 34.4591 19.5583 34.9997 19.5583ZM36.4667 18.5829C36.4643 19.134 36.8715 19.5535 37.4157 19.5583C37.9551 19.563 38.3766 19.1423 38.3813 18.5947C38.3861 18.0472 37.9729 17.6253 37.4288 17.6218C36.881 17.6182 36.4703 18.0294 36.4667 18.5817V18.5829ZM33.5244 18.6019C33.5316 18.0472 33.1315 17.6312 32.585 17.6218C32.0408 17.6135 31.6252 18.0223 31.6193 18.5746C31.6133 19.1281 32.0146 19.5476 32.5588 19.5571C33.0982 19.5666 33.5185 19.1518 33.5244 18.6007V18.6019Z" fill="white"/>
<path d="M33.2754 40.4414C34.1339 39.6592 34.2887 38.7313 34.3006 37.7133C34.3208 36.0256 34.0422 34.4304 33.1099 32.9905C32.9301 32.7144 32.7312 32.4501 32.5669 32.1005C32.7086 32.1467 32.8753 32.1585 32.9872 32.2427C34.1482 33.1102 35.8175 33.1114 36.9809 32.2486C37.0952 32.1645 37.2857 32.1171 37.4262 32.1408C39.8898 32.5721 41.8509 34.8547 41.9259 37.3672C41.939 37.7962 41.9366 38.2252 41.9295 38.6542C41.9128 39.6035 41.2138 40.413 40.2684 40.4284C37.9715 40.4651 35.6735 40.4402 33.2754 40.4402V40.4414Z" fill="white"/>
<path d="M17.7484 32.1823C17.7067 32.2427 17.6674 32.3055 17.6222 32.3636C16.5863 33.6803 16.0504 35.1759 16.0028 36.8446C15.9897 37.2949 15.9909 37.7465 15.9981 38.198C16.0123 39.0513 16.3243 39.7825 16.9756 40.4095C16.8697 40.4261 16.8018 40.445 16.7351 40.445C14.5573 40.4462 12.3783 40.451 10.2005 40.445C9.22886 40.4427 8.46085 39.7814 8.38822 38.825C8.3013 37.6801 8.32154 36.5353 8.8014 35.4533C9.58131 33.6933 10.9173 32.5947 12.795 32.1455C12.9963 32.097 13.1594 32.1159 13.3428 32.2581C14.4454 33.1138 16.1588 33.1008 17.2733 32.2605C17.3912 32.1716 17.5567 32.1455 17.7008 32.0898L17.7484 32.1811V32.1823Z" fill="white"/>
<path d="M28.5504 26.2388C28.5409 28.0947 26.9978 29.5678 25.0664 29.5643C23.2482 29.5607 21.7455 28.045 21.7515 26.2234C21.7586 24.3106 23.2565 22.7996 25.1414 22.8067C27.0585 22.8138 28.56 24.326 28.5504 26.2388Z" fill="white"/>
<path d="M12.5142 28.7512C12.5165 27.1774 13.7406 25.9259 15.2766 25.9247C16.8638 25.9235 18.1057 27.1703 18.101 28.7607C18.0962 30.2741 16.8091 31.5067 15.2433 31.496C13.737 31.4865 12.5106 30.254 12.5142 28.7524V28.7512Z" fill="white"/>
<path d="M34.9544 31.4949C33.4553 31.4985 32.211 30.2659 32.2027 28.7703C32.1943 27.1941 33.4398 25.92 34.983 25.9236C36.5464 25.9271 37.7966 27.1775 37.799 28.7407C37.8026 30.2505 36.5214 31.4913 34.9544 31.4949Z" fill="white"/>
</g>
</g>
<defs>
<filter id="filter0_d_823_979" x="6.06445" y="9.80457" width="37.8711" height="34.6451" filterUnits="userSpaceOnUse" color-interpolation-filters="sRGB">
<feFlood flood-opacity="0" result="BackgroundImageFix"/>
<feColorMatrix in="SourceAlpha" type="matrix" values="0 0 0 0 0 0 0 0 0 0 0 0 0 0 0 0 0 0 127 0" result="hardAlpha"/>
<feOffset dy="2"/>
<feGaussianBlur stdDeviation="1"/>
<feComposite in2="hardAlpha" operator="out"/>
<feColorMatrix type="matrix" values="0 0 0 0 0 0 0 0 0 0 0 0 0 0 0 0 0 0 0.15 0"/>
<feBlend mode="normal" in2="BackgroundImageFix" result="effect1_dropShadow_823_979"/>
<feBlend mode="normal" in="SourceGraphic" in2="effect1_dropShadow_823_979" result="shape"/>
</filter>
<clipPath id="clip0_823_979">
<rect width="33.871" height="30.6452" fill="white" transform="translate(8.06445 9.80457)"/>
</clipPath>
</defs>
</svg>
