<svg xmlns="http://www.w3.org/2000/svg" width="28" height="27" viewBox="0 0 36 37" fill="none">
  <g clip-path="url(#clip0_534_3875)">
    <g filter="url(#filter0_d_534_3875)">
      <path d="M26.6726 21.2293C27.1682 21.6922 27.258 22.4737 27.0534 23.1222C26.8504 23.769 26.3928 24.3104 25.923 24.7922C24.43 26.3293 22.595 27.5288 20.6011 28.2852C21.2306 27.6946 21.9404 27.1687 22.3661 26.4183C22.7919 25.6696 22.8368 24.6092 22.1891 24.0367C21.9352 23.8147 21.5985 23.6938 21.2746 23.5988C19.7635 23.1671 18.1685 23.1602 16.5995 23.0712C15.0313 22.9823 13.4182 22.7854 12.04 22.0229C11.3164 21.6231 10.6817 21.0393 10.237 20.3407C9.78622 19.6223 9.64633 18.8486 9.62646 18.0161C10.5798 19.1784 12.0469 19.8002 13.5003 20.1879C15.9838 20.8416 18.5873 20.9184 21.1408 20.7086C22.6399 20.5877 24.177 20.3718 25.6372 20.7345C26.012 20.8295 26.3859 20.9625 26.6717 21.2302L26.6726 21.2293Z" fill="white"/>
      <path d="M10.6378 13.0488C12.079 11.3468 14.0677 10.1845 16.1307 9.31494C15.591 9.85465 14.9684 10.3175 14.5375 10.947C14.0988 11.5696 13.8769 12.4262 14.2326 13.0998C14.6074 13.8113 15.477 14.0972 16.2706 14.2302C17.7507 14.484 19.2558 14.446 20.7549 14.5669C22.2471 14.6878 23.7781 14.9788 25.0285 15.7992C26.2858 16.6178 27.2193 18.0599 27.0863 19.5521C25.747 18.0599 23.7082 17.4183 21.7324 17.1014C19.7644 16.7836 17.7567 16.7258 15.7697 16.8786C14.4287 16.9805 13.0764 17.1765 11.7431 17.0116C11.2414 16.9486 10.7388 16.8346 10.32 16.5548C8.96165 15.6463 9.81827 14.0074 10.6378 13.0488Z" fill="white"/>
      <path d="M18.2903 4.67871C10.4339 4.67871 4.06445 11.0481 4.06445 18.9045C4.06445 26.7609 10.4339 33.1303 18.2903 33.1303C26.1467 33.1303 32.5161 26.7618 32.5161 18.9045C32.5161 11.0473 26.1467 4.67871 18.2903 4.67871ZM18.2903 31.4767C11.2905 31.4767 5.61708 25.8024 5.61708 18.8035C5.61708 11.8046 11.2905 6.12944 18.2903 6.12944C25.29 6.12944 30.9634 11.8037 30.9634 18.8035C30.9634 25.8033 25.29 31.4767 18.2903 31.4767Z" fill="white"/>
      <path d="M27.0544 23.1222C26.8514 23.769 26.3938 24.3104 25.924 24.7922C24.431 26.3293 22.5959 27.5288 20.6021 28.2852C21.2316 27.6946 21.9414 27.1687 22.3671 26.4183C22.7928 25.6696 22.8377 24.6092 22.1901 24.0367C21.9362 23.8147 21.5994 23.6938 21.2756 23.5988C19.7644 23.1671 18.1695 23.1602 16.6005 23.0712C15.0323 22.9823 13.4192 22.7854 12.041 22.0229C11.3174 21.6231 10.6827 21.0393 10.238 20.3407C9.78719 19.6223 9.6473 18.8486 9.62744 18.0161C10.5808 19.1784 12.0479 19.8002 13.5012 20.1879C15.9848 20.8416 18.5883 20.9184 21.1418 20.7086C22.6409 20.5877 24.1779 20.3718 25.6382 20.7345C26.0129 20.8295 26.3868 20.9625 26.6727 21.2302C27.1683 21.693 27.2582 22.4745 27.0535 23.123L27.0544 23.1222Z" fill="#24C3BC"/>
      <path d="M10.6378 13.0488C12.079 11.3468 14.0677 10.1845 16.1307 9.31494C15.591 9.85465 14.9684 10.3175 14.5375 10.947C14.0988 11.5696 13.8769 12.4262 14.2326 13.0998C14.6074 13.8113 15.477 14.0972 16.2706 14.2302C17.7507 14.484 19.2558 14.446 20.7549 14.5669C22.2471 14.6878 23.7781 14.9788 25.0285 15.7992C26.2858 16.6178 27.2193 18.0599 27.0863 19.5521C25.747 18.0599 23.7082 17.4183 21.7324 17.1014C19.7644 16.7836 17.7567 16.7258 15.7697 16.8786C14.4287 16.9805 13.0764 17.1765 11.7431 17.0116C11.2414 16.9486 10.7388 16.8346 10.32 16.5548C8.96165 15.6463 9.81827 14.0074 10.6378 13.0488Z" fill="#24C3BC"/>
      <path d="M27.0863 19.5531C25.747 18.0609 23.7082 17.4193 21.7324 17.1024C19.7644 16.7846 17.7567 16.7267 15.7697 16.8796C14.4287 16.9815 13.0764 17.1775 11.7431 17.0126C11.2414 16.9495 10.7388 16.8355 10.32 16.5558C8.96165 15.6473 9.81827 14.0083 10.6378 13.0498C12.079 11.3478 14.0677 10.1855 16.1307 9.31592C15.591 9.85562 14.9684 10.3185 14.5375 10.948C14.0988 11.5706 13.8769 12.4272 14.2326 13.1008C14.6074 13.8123 15.477 14.0982 16.2706 14.2311C17.7507 14.485 19.2558 14.447 20.7549 14.5679C22.2471 14.6888 23.7781 14.9798 25.0285 15.8002C26.2858 16.6188 27.2193 18.0609 27.0863 19.5531Z" fill="white"/>
      <path d="M27.0544 23.1222C26.8514 23.769 26.3938 24.3104 25.924 24.7922C24.431 26.3293 22.5959 27.5288 20.6021 28.2852C21.2316 27.6946 21.9414 27.1687 22.3671 26.4183C22.7928 25.6696 22.8377 24.6092 22.1901 24.0367C21.9362 23.8147 21.5994 23.6938 21.2756 23.5988C19.7644 23.1671 18.1695 23.1602 16.6005 23.0712C15.0323 22.9823 13.4192 22.7854 12.041 22.0229C11.3174 21.6231 10.6827 21.0393 10.238 20.3407C9.78719 19.6223 9.6473 18.8486 9.62744 18.0161C10.5808 19.1784 12.0479 19.8002 13.5012 20.1879C15.9848 20.8416 18.5883 20.9184 21.1418 20.7086C22.6409 20.5877 24.1779 20.3718 25.6382 20.7345C26.0129 20.8295 26.3868 20.9625 26.6727 21.2302C27.1683 21.693 27.2582 22.4745 27.0535 23.123L27.0544 23.1222Z" fill="white"/>
    </g>
  </g>
  <defs>
    <filter id="filter0_d_534_3875" x="2.06445" y="4.67871" width="32.4517" height="32.4517" filterUnits="userSpaceOnUse" color-interpolation-filters="sRGB">
      <feFlood flood-opacity="0" result="BackgroundImageFix"/>
      <feColorMatrix in="SourceAlpha" type="matrix" values="0 0 0 0 0 0 0 0 0 0 0 0 0 0 0 0 0 0 127 0" result="hardAlpha"/>
      <feOffset dy="2"/>
      <feGaussianBlur stdDeviation="1"/>
      <feComposite in2="hardAlpha" operator="out"/>
      <feColorMatrix type="matrix" values="0 0 0 0 0 0 0 0 0 0 0 0 0 0 0 0 0 0 0.15 0"/>
      <feBlend mode="normal" in2="BackgroundImageFix" result="effect1_dropShadow_534_3875"/>
      <feBlend mode="normal" in="SourceGraphic" in2="effect1_dropShadow_534_3875" result="shape"/>
    </filter>
    <clipPath id="clip0_534_3875">
      <rect width="36" height="36" fill="white" transform="translate(0 0.614258)"/>
    </clipPath>
  </defs>
</svg>