<svg width="50" height="50" viewBox="0 0 50 50" fill="none" xmlns="http://www.w3.org/2000/svg">
<g filter="url(#filter0_d_823_1024)">
<g clip-path="url(#clip0_823_1024)">
<path d="M40.3225 15.417C40.3234 13.9202 39.7356 12.7709 38.3498 12.1356C37.9018 11.9302 37.3672 11.8223 36.8726 11.8213C30.4514 11.8005 24.0311 11.8024 17.6099 11.81C15.6001 11.8128 14.1487 13.2623 14.1468 15.257C14.142 23.5372 14.143 31.8164 14.1468 40.0966C14.1468 41.8443 15.2016 43.1167 16.9298 43.4925C16.9745 43.502 17.0154 43.5294 17.0573 43.5484H37.4272C37.6183 43.4935 37.8114 43.4452 38.0007 43.3836C39.4274 42.9188 40.3101 41.654 40.3177 40.0436C40.3253 38.4493 40.3196 36.854 40.3196 35.2597C40.3196 28.6458 40.3158 22.0309 40.3225 15.417ZM20.7031 40.4421C20.7031 41.067 20.1894 41.5782 19.5617 41.5782H17.5395C16.9118 41.5782 16.3982 41.067 16.3982 40.4421V38.4294C16.3982 37.8045 16.9118 37.2933 17.5395 37.2933H19.5617C20.1894 37.2933 20.7031 37.8045 20.7031 38.4294V40.4421ZM37.3206 40.8559C37.2369 40.9401 37.1199 40.9922 36.9925 40.9922H23.0106C22.7547 40.9922 22.5454 40.783 22.5454 40.5283C22.5454 40.4014 22.5978 40.285 22.6824 40.2017C22.7661 40.1174 22.8831 40.0653 23.0106 40.0653H36.9925C37.2483 40.0653 37.4576 40.2736 37.4576 40.5283C37.4576 40.6552 37.4053 40.7716 37.3206 40.8559ZM37.3206 38.6698C37.2369 38.7541 37.1199 38.8062 36.9925 38.8062H23.0106C22.7547 38.8062 22.5454 38.5979 22.5454 38.3432C22.5454 38.2164 22.5978 38.0999 22.6824 38.0166C22.7661 37.9323 22.8831 37.8803 23.0106 37.8803H36.9925C37.2483 37.8803 37.4576 38.0885 37.4576 38.3432C37.4576 38.4701 37.4053 38.5865 37.3206 38.6698ZM38.6484 35.4718H15.5212V16.11C15.5212 14.5271 16.81 13.2443 18.4003 13.2443H35.7693C37.3596 13.2443 38.6484 14.5271 38.6484 16.11V35.4718Z" fill="white"/>
<path d="M35.6782 9.68086C35.4756 8.58549 34.3589 7.54787 33.1757 7.33296C32.898 7.28278 32.6107 7.261 32.3273 7.261C25.9555 7.25816 19.5828 7.25816 13.211 7.25911C11.1156 7.26006 9.68035 8.68774 9.6794 10.7762C9.6775 19.0195 9.67655 27.2618 9.68035 35.505C9.68035 36.9923 10.3557 38.0763 11.7149 38.7192C11.8271 38.7722 11.9527 38.7997 12.1201 38.8555V38.3528C12.1201 30.689 12.1143 23.0242 12.1239 15.3603C12.1267 12.9282 13.2415 11.1691 15.4624 10.1315C16.2043 9.78501 17.0033 9.68086 17.8184 9.68086C23.6214 9.68276 29.4234 9.68086 35.2264 9.68086H35.6791H35.6782Z" fill="white"/>
<path d="M25.1803 15.6622C24.6857 16.1545 24.114 16.5777 23.7183 17.1524C23.317 17.7204 23.1125 18.5034 23.4387 19.1178C23.7821 19.7673 24.5801 20.0276 25.3087 20.1498C26.666 20.3817 28.0461 20.3467 29.4205 20.4575C30.7892 20.5673 32.1931 20.8343 33.3402 21.5822C34.493 22.3301 35.349 23.6461 35.2273 25.0084C33.9984 23.6461 32.1284 23.061 30.3174 22.7703C28.5121 22.4806 26.6717 22.4286 24.8483 22.5677C23.6194 22.6605 22.3791 22.8404 21.1559 22.6899C20.6956 22.6321 20.2362 22.528 19.851 22.2723C18.605 21.443 19.3906 19.9481 20.142 19.0724C21.4641 17.5188 23.2875 16.4575 25.1803 15.6641V15.6622Z" fill="white"/>
<path d="M29.28 32.978C29.8564 32.4394 30.5088 31.9575 30.8988 31.2739C31.2888 30.5894 31.3297 29.6219 30.7362 29.1002C30.5031 28.8976 30.195 28.7868 29.8973 28.7007C28.5114 28.3068 27.0495 28.3012 25.6104 28.2197C24.1723 28.1383 22.6923 27.9584 21.4292 27.2635C20.7652 26.8981 20.1831 26.3651 19.7751 25.727C19.3613 25.0718 19.2339 24.3646 19.2158 23.6053C20.089 24.6666 21.4349 25.2347 22.7684 25.5878C25.0454 26.1852 27.4338 26.2543 29.7746 26.0631C31.149 25.9533 32.5586 25.7554 33.8978 26.0858C34.2412 26.1729 34.5855 26.2941 34.847 26.5383C35.3017 26.9615 35.3825 27.6744 35.1961 28.2661C35.0097 28.8578 34.5902 29.3501 34.1594 29.7904C32.7907 31.1934 31.1071 32.2888 29.279 32.979L29.28 32.978Z" fill="white"/>
</g>
</g>
<defs>
<filter id="filter0_d_823_1024" x="7.67725" y="7.25806" width="34.645" height="40.2903" filterUnits="userSpaceOnUse" color-interpolation-filters="sRGB">
<feFlood flood-opacity="0" result="BackgroundImageFix"/>
<feColorMatrix in="SourceAlpha" type="matrix" values="0 0 0 0 0 0 0 0 0 0 0 0 0 0 0 0 0 0 127 0" result="hardAlpha"/>
<feOffset dy="2"/>
<feGaussianBlur stdDeviation="1"/>
<feComposite in2="hardAlpha" operator="out"/>
<feColorMatrix type="matrix" values="0 0 0 0 0 0 0 0 0 0 0 0 0 0 0 0 0 0 0.15 0"/>
<feBlend mode="normal" in2="BackgroundImageFix" result="effect1_dropShadow_823_1024"/>
<feBlend mode="normal" in="SourceGraphic" in2="effect1_dropShadow_823_1024" result="shape"/>
</filter>
<clipPath id="clip0_823_1024">
<rect width="30.6452" height="36.2903" fill="white" transform="translate(9.67725 7.25806)"/>
</clipPath>
</defs>
</svg>
