<svg xmlns="http://www.w3.org/2000/svg" width="24" height="27" viewBox="0 0 24 27" fill="none">
  <g clip-path="url(#clip0_534_3905)">
    <path d="M23.0324 6.21417C23.0331 5.13648 22.6099 4.30896 21.6121 3.85157C21.2895 3.70365 20.9046 3.62594 20.5485 3.62526C15.9253 3.61026 11.3027 3.61163 6.67938 3.61708C5.23233 3.61913 4.18728 4.66273 4.18591 6.09897C4.18249 12.0607 4.18317 18.0217 4.18591 23.9834C4.18591 25.2418 4.94539 26.1579 6.18972 26.4285C6.22191 26.4353 6.25136 26.4551 6.28149 26.4687H20.9478C21.0854 26.4292 21.2245 26.3944 21.3607 26.3501C22.388 26.0154 23.0235 25.1048 23.029 23.9453C23.0345 22.7974 23.0304 21.6488 23.0304 20.5009C23.0304 15.7389 23.0276 10.9762 23.0324 6.21417ZM8.90644 24.2322C8.90644 24.6821 8.53663 25.0502 8.08465 25.0502H6.6287C6.17671 25.0502 5.8069 24.6821 5.8069 24.2322V22.7831C5.8069 22.3332 6.17671 21.9651 6.6287 21.9651H8.08465C8.53663 21.9651 8.90644 22.3332 8.90644 22.7831V24.2322ZM20.8711 24.5301C20.8108 24.5908 20.7266 24.6283 20.6348 24.6283H10.5678C10.3836 24.6283 10.233 24.4776 10.233 24.2943C10.233 24.2029 10.2706 24.1191 10.3316 24.0591C10.3918 23.9984 10.4761 23.9609 10.5678 23.9609H20.6348C20.819 23.9609 20.9697 24.1109 20.9697 24.2943C20.9697 24.3856 20.932 24.4695 20.8711 24.5301ZM20.8711 22.9562C20.8108 23.0169 20.7266 23.0544 20.6348 23.0544H10.5678C10.3836 23.0544 10.233 22.9044 10.233 22.721C10.233 22.6297 10.2706 22.5458 10.3316 22.4859C10.3918 22.4252 10.4761 22.3877 10.5678 22.3877H20.6348C20.819 22.3877 20.9697 22.5377 20.9697 22.721C20.9697 22.8124 20.932 22.8962 20.8711 22.9562ZM21.8271 20.6536H5.17549V6.71314C5.17549 5.57342 6.10343 4.64978 7.24847 4.64978H19.7541C20.8992 4.64978 21.8271 5.57342 21.8271 6.71314V20.6536Z" fill="white"/>
    <path d="M19.6886 2.0844C19.5427 1.29573 18.7387 0.548643 17.8868 0.393908C17.6868 0.357781 17.48 0.342103 17.2759 0.342103C12.6883 0.340058 8.0999 0.340058 3.51223 0.34074C2.00355 0.341421 0.970145 1.36935 0.96946 2.87307C0.968091 8.8082 0.967406 14.7427 0.970145 20.6778C0.970145 21.7487 1.45637 22.5292 2.43499 22.992C2.5158 23.0302 2.6062 23.0499 2.72673 23.0902V22.7282C2.72673 17.2102 2.72262 11.6916 2.72947 6.17362C2.73153 4.42246 3.53415 3.15596 5.13322 2.40887C5.66739 2.15938 6.24264 2.0844 6.82954 2.0844C11.0077 2.08577 15.1851 2.0844 19.3633 2.0844H19.6893H19.6886Z" fill="white"/>
    <path d="M12.13 6.39062C11.7739 6.74508 11.3623 7.04978 11.0774 7.46354C10.7884 7.87253 10.6412 8.43626 10.8761 8.87865C11.1233 9.34626 11.6979 9.53372 12.2225 9.62165C13.1997 9.78865 14.1934 9.76343 15.183 9.84319C16.1685 9.92226 17.1793 10.1145 18.0052 10.653C18.8352 11.1915 19.4515 12.139 19.3639 13.1199C18.4791 12.139 17.1327 11.7177 15.8288 11.5085C14.529 11.2999 13.2038 11.2624 11.891 11.3626C11.0062 11.4294 10.1132 11.5589 9.23251 11.4505C8.90105 11.4089 8.57028 11.334 8.29293 11.1499C7.3958 10.5528 7.96147 9.47646 8.50248 8.84593C9.4544 7.72734 10.7672 6.96321 12.13 6.39199V6.39062Z" fill="white"/>
    <path d="M15.0816 18.8582C15.4966 18.4703 15.9664 18.1234 16.2472 17.6312C16.528 17.1384 16.5574 16.4418 16.1301 16.0662C15.9623 15.9203 15.7404 15.8405 15.5261 15.7785C14.5283 15.4949 13.4757 15.4909 12.4396 15.4322C11.4041 15.3736 10.3385 15.2441 9.42905 14.7438C8.95104 14.4806 8.53192 14.0969 8.23813 13.6374C7.94023 13.1657 7.84846 12.6565 7.83545 12.1099C8.46412 12.874 9.43316 13.283 10.3933 13.5372C12.0328 13.9674 13.7524 14.0171 15.4377 13.8794C16.4273 13.8004 17.4422 13.6579 18.4065 13.8958C18.6537 13.9585 18.9016 14.0458 19.0899 14.2216C19.4173 14.5263 19.4755 15.0396 19.3413 15.4656C19.207 15.8917 18.905 16.2461 18.5948 16.5631C17.6093 17.5733 16.3972 18.362 15.0809 18.8589L15.0816 18.8582Z" fill="white"/>
  </g>
  <defs>
    <clipPath id="clip0_534_3905">
      <rect width="22.0645" height="26.129" fill="white" transform="translate(0.967773 0.339844)"/>
    </clipPath>
  </defs>
</svg>