<svg width="50" height="50" viewBox="0 0 50 50" fill="none" xmlns="http://www.w3.org/2000/svg">
<g filter="url(#filter0_d_823_971)">
<g clip-path="url(#clip0_823_971)">
<path d="M39.946 41.2625C40.8172 41.2625 41.6548 41.2511 42.4923 41.2654C43.1226 41.2768 43.54 41.7014 43.5484 42.3C43.5568 42.8728 43.1702 43.3174 42.6072 43.3744C42.4699 43.3887 42.327 43.383 42.187 43.383C30.4583 43.383 18.7296 43.383 7.00095 43.383C6.84968 43.383 6.69282 43.3915 6.54435 43.3716C6.00092 43.2975 5.63676 42.8557 5.64516 42.2971C5.65357 41.7385 6.04293 41.2483 6.58917 41.2882C7.31749 41.3423 7.66764 41.1086 7.97017 40.3904C8.68168 38.6975 10.6397 37.6971 12.3989 37.9792C12.5502 38.002 12.7658 37.8538 12.8947 37.7227C14.5922 36.007 17.2786 36.0098 18.9033 37.774C19.2338 38.1331 19.4383 38.6148 19.7269 39.0224C19.8137 39.1478 19.9706 39.2874 20.1078 39.3017C21.3572 39.4157 22.3208 39.9971 23.0183 41.0545C23.0855 41.1571 23.2592 41.2454 23.3852 41.2483C24.5814 41.2625 25.7775 41.2625 26.9736 41.2483C27.1137 41.2483 27.2929 41.1571 27.3826 41.0459C28.1277 40.1168 29.0773 39.5468 30.2258 39.2874C30.3883 39.2504 30.5704 39.0851 30.6516 38.9312C31.66 36.9646 33.6349 35.9329 35.8282 36.2435C37.7975 36.5228 39.4334 38.1588 39.8284 40.2507C39.8872 40.5671 39.9068 40.8892 39.9488 41.2568L39.946 41.2625Z" fill="white"/>
<path d="M16.7083 34.6059C16.6776 34.5886 16.6653 34.5865 16.6633 34.58C16.1639 32.9439 15.466 31.364 15.3719 29.6135C15.3023 28.2947 15.6768 27.1464 16.5958 26.2119C17.2241 25.573 17.8278 24.906 18.4541 24.2628C18.6157 24.0966 18.671 23.9391 18.6444 23.6995C18.2474 20.082 18.6178 16.5616 19.8764 13.16C20.5825 11.2498 21.571 9.52739 22.9893 8.10068C23.5275 7.56108 24.0412 6.99558 24.557 6.45166C24.5959 6.45814 24.6204 6.45166 24.6306 6.46245C25.3981 7.27617 26.1922 8.05967 26.9228 8.91008C28.2081 10.408 29.0369 12.1909 29.6386 14.0903C30.6333 17.2264 30.9116 20.4424 30.5473 23.7211C30.5228 23.9369 30.5637 24.0837 30.7131 24.2369C31.3209 24.8585 31.8981 25.5125 32.5141 26.1212C33.5599 27.1551 33.959 28.4285 33.7932 29.8962C33.7175 30.5718 33.5599 31.2453 33.3818 31.9014C33.1547 32.7389 32.8702 33.5591 32.6082 34.3857C32.5857 34.457 32.555 34.526 32.512 34.6361L32.2828 34.3944C31.1265 33.1749 29.9681 31.9554 28.8159 30.7316C28.687 30.5956 28.558 30.5416 28.3779 30.5438C25.8586 30.5502 23.3393 30.5502 20.822 30.5438C20.6296 30.5438 20.4965 30.6042 20.3615 30.7467C19.2174 31.9662 18.0632 33.1749 16.913 34.39L16.7063 34.608L16.7083 34.6059ZM25.9405 16.3566C25.1976 15.5709 24.0085 15.5666 23.2594 16.3479C22.5145 17.1228 22.5042 18.3941 23.2369 19.1819C23.9696 19.9697 25.2098 19.9741 25.9486 19.1906C26.6854 18.4092 26.6813 17.1401 25.9425 16.3566H25.9405Z" fill="white"/>
<path d="M22.2407 32.7003C23.8146 32.6983 25.3933 32.6963 26.9501 32.6924C27.3393 34.9207 26.1912 36.7529 24.5954 38.5236C23.1237 36.7351 21.8418 34.9405 22.2407 32.7003Z" fill="white"/>
</g>
</g>
<defs>
<filter id="filter0_d_823_971" x="3.64502" y="6.45166" width="41.9033" height="41.9032" filterUnits="userSpaceOnUse" color-interpolation-filters="sRGB">
<feFlood flood-opacity="0" result="BackgroundImageFix"/>
<feColorMatrix in="SourceAlpha" type="matrix" values="0 0 0 0 0 0 0 0 0 0 0 0 0 0 0 0 0 0 127 0" result="hardAlpha"/>
<feOffset dy="2"/>
<feGaussianBlur stdDeviation="1"/>
<feComposite in2="hardAlpha" operator="out"/>
<feColorMatrix type="matrix" values="0 0 0 0 0 0 0 0 0 0 0 0 0 0 0 0 0 0 0.15 0"/>
<feBlend mode="normal" in2="BackgroundImageFix" result="effect1_dropShadow_823_971"/>
<feBlend mode="normal" in="SourceGraphic" in2="effect1_dropShadow_823_971" result="shape"/>
</filter>
<clipPath id="clip0_823_971">
<rect width="37.9035" height="37.9032" fill="white" transform="translate(5.64502 6.45166)"/>
</clipPath>
</defs>
</svg>
