<svg width="60" height="60" viewBox="0 0 60 60" fill="none" xmlns="http://www.w3.org/2000/svg">
<rect width="60" height="60" rx="12" fill="#24C3BC"/>
<g filter="url(#filter0_d_823_990)">
<g clip-path="url(#clip0_823_990)">
<path d="M32.637 32.6223C35.1209 37.9749 33.1322 43.6455 29.0823 46.4837C24.8002 49.4843 19.1242 49.1827 15.2725 45.7896C11.3977 42.3762 10.3685 36.8429 12.7644 32.2617C13.6591 30.5516 14.9243 29.1712 16.5426 28.1194C18.1473 27.0754 19.9058 26.4886 21.8181 26.3543C23.7381 26.2189 25.5672 26.5776 27.3509 27.3828C24.5245 21.1921 27.6642 15.3775 31.5411 13.0864C36.066 10.4116 41.6674 11.066 45.2753 14.7134C48.8978 18.3752 49.5401 23.9849 46.8946 28.3505C44.4077 32.455 38.6312 35.2923 32.637 32.6232V32.6223ZM22.6354 28.7855C17.8803 28.7633 13.9774 32.631 13.9532 37.389C13.929 42.1693 17.7691 46.0322 22.5861 46.0709C27.3625 46.1096 31.2586 42.2534 31.2896 37.4577C31.3196 32.6996 27.436 28.8068 22.6364 28.7845L22.6354 28.7855ZM37.394 31.2022C42.1811 31.1906 46.0579 27.3064 46.0482 22.53C46.0385 17.7691 42.1694 13.9216 37.3863 13.9158C32.6002 13.91 28.7311 17.7874 28.7418 22.5784C28.7524 27.349 32.6293 31.2128 37.394 31.2012V31.2022Z" fill="white"/>
<path d="M13.2362 22.0427C13.2266 19.6028 13.7818 17.4142 15.5809 15.7186C17.3336 14.0675 19.448 13.2845 21.8972 13.2883C21.8972 12.92 21.902 12.5778 21.8962 12.2356C21.8904 11.9069 22.0016 11.6537 22.3305 11.5425C22.6449 11.4362 22.8731 11.5754 23.0676 11.817C23.8482 12.7895 24.6316 13.7611 25.4171 14.7297C25.6618 15.0323 25.6792 15.3281 25.4335 15.6374C24.65 16.6244 23.8665 17.6114 23.0879 18.6022C22.8915 18.8516 22.6478 18.9648 22.344 18.8719C22.0278 18.7753 21.9214 18.5172 21.9184 18.2107C21.9136 17.8154 21.9175 17.42 21.9175 17.0314C18.592 16.6544 16.5366 18.7559 16.9796 22.0263C17.3723 22.0263 17.7698 22.0301 18.1674 22.0253C18.4672 22.0214 18.6994 22.1278 18.8067 22.4197C18.9189 22.7252 18.8096 22.9698 18.564 23.1679C17.5812 23.9567 16.6023 24.7514 15.6167 25.5363C15.2646 25.8167 15.0479 25.808 14.6852 25.5218C13.715 24.7581 12.7516 23.9867 11.7795 23.225C11.5193 23.021 11.381 22.7754 11.4903 22.4555C11.6006 22.1297 11.8695 22.0311 12.1974 22.0408C12.5301 22.0504 12.8629 22.0427 13.2382 22.0427H13.2362Z" fill="white"/>
<path d="M46.766 37.9469C46.7727 40.382 46.2185 42.5831 44.4058 44.2826C42.6502 45.9279 40.5348 46.708 38.1031 46.7013C38.1031 47.0831 38.1002 47.4272 38.1041 47.7723C38.1079 48.0865 37.9928 48.3292 37.6881 48.4403C37.3796 48.5525 37.1407 48.4287 36.9453 48.1851C36.156 47.203 35.3648 46.2227 34.5726 45.2425C34.3249 44.9361 34.3365 44.6412 34.5803 44.3348C35.357 43.3594 36.1318 42.3821 36.9017 41.3999C37.1068 41.1379 37.3583 41.0152 37.6765 41.1225C37.988 41.2278 38.0828 41.4927 38.0847 41.7982C38.0867 42.1829 38.0847 42.5667 38.0847 42.9457C41.3647 43.37 43.4376 41.2723 43.0313 37.9633C42.6435 37.9633 42.2488 37.9595 41.8542 37.9643C41.5408 37.9682 41.297 37.8657 41.1897 37.5515C41.0833 37.2393 41.209 37.0044 41.4518 36.8101C42.4249 36.0299 43.3931 35.244 44.3681 34.4658C44.725 34.1807 44.9494 34.1787 45.3015 34.4552C46.2823 35.2257 47.2554 36.0058 48.2362 36.7753C48.4993 36.9812 48.6202 37.2354 48.5051 37.5506C48.3949 37.8541 48.1385 37.9556 47.8251 37.9479C47.4818 37.9392 47.1374 37.9459 46.766 37.9459V37.9469Z" fill="white"/>
<path d="M22.6176 30.021C26.7092 30.0239 30.026 33.3426 30.024 37.4297C30.0211 41.5295 26.7208 44.8336 22.6244 44.8375C18.5106 44.8413 15.1803 41.5169 15.1909 37.4181C15.2006 33.3367 18.5329 30.0181 22.6186 30.021H22.6176ZM21.9802 33.6954C21.6639 33.7379 21.3902 33.7476 21.1319 33.8143C20.1376 34.0685 19.4421 35.042 19.5263 36.0338C19.6191 37.131 20.4336 37.973 21.514 38.0358C22.1543 38.0735 22.7995 38.0339 23.4418 38.0436C24.0628 38.0523 24.4613 38.4157 24.469 38.9581C24.4767 39.5197 24.0773 39.8851 23.4321 39.8919C22.5964 39.9016 21.7606 39.8987 20.9249 39.9103C20.4307 39.917 20.1666 40.1471 20.1743 40.5415C20.1811 40.9204 20.4394 41.1331 20.9143 41.1408C21.2693 41.1466 21.6243 41.1418 21.956 41.1418C21.9889 41.2124 22.0083 41.2356 22.0092 41.2578C22.017 41.5913 22.0199 41.9258 22.0286 42.2593C22.0412 42.7272 22.2617 42.9824 22.6467 42.9795C23.0287 42.9766 23.2522 42.7156 23.2609 42.2496C23.2677 41.8929 23.2619 41.5362 23.2619 41.1466C23.4244 41.136 23.5491 41.1283 23.6739 41.1205C25.1974 41.0326 26.1656 39.4414 25.5108 38.0706C25.1064 37.2228 24.3916 36.8246 23.465 36.8091C22.8866 36.7994 22.3072 36.8284 21.7297 36.8149C21.1513 36.8014 20.7537 36.4031 20.7615 35.8811C20.7692 35.3716 21.1484 35.0101 21.7191 34.9724C21.8216 34.9656 21.9251 34.9685 22.0276 34.9685C22.786 34.9637 23.5443 34.9608 24.3036 34.9531C24.8027 34.9482 25.0677 34.7327 25.0687 34.3402C25.0687 33.9458 24.8027 33.7263 24.3055 33.7205C23.9515 33.7167 23.5985 33.7205 23.2154 33.7205C23.2154 33.3068 23.2203 32.9491 23.2145 32.5914C23.2077 32.1651 22.9746 31.8944 22.6157 31.8828C22.2452 31.8712 21.9909 32.1535 21.9831 32.5982C21.9763 32.9568 21.9822 33.3155 21.9822 33.6964L21.9802 33.6954Z" fill="white"/>
<path d="M37.3854 29.9677C33.2929 29.9648 29.9761 26.6481 29.9771 22.5609C29.979 18.4583 33.2725 15.158 37.3728 15.1513C41.4847 15.1445 44.8208 18.4709 44.8102 22.5667C44.8005 26.6481 41.4663 29.9706 37.3844 29.9677H37.3854ZM36.7421 18.2389C36.5738 18.2389 36.4481 18.2389 36.3233 18.2389C35.475 18.2437 34.6267 18.2466 33.7775 18.2563C33.3161 18.2611 33.0481 18.4931 33.051 18.8692C33.0539 19.2433 33.3325 19.484 33.7804 19.4898C34.1373 19.4946 34.4942 19.4898 34.8889 19.4898V25.6234C34.8463 25.6389 34.8221 25.6544 34.7989 25.6544C34.4778 25.6582 34.1566 25.6582 33.8345 25.664C33.3383 25.6727 33.0752 25.8922 33.083 26.2885C33.0897 26.68 33.3615 26.8975 33.8568 26.8966C34.6925 26.8956 35.5282 26.8879 36.3639 26.8859C36.4984 26.8859 36.6328 26.8975 36.7866 26.9053C36.7866 27.1179 36.7808 27.2842 36.7876 27.4495C36.8031 27.84 37.0497 28.103 37.398 28.1069C37.7433 28.1107 37.9977 27.8487 38.018 27.4563C38.0276 27.2707 38.0199 27.0841 38.0199 26.8511C38.548 26.8511 39.0123 26.8821 39.4718 26.8453C40.559 26.7573 41.4479 25.956 41.653 24.9197C41.8716 23.8128 41.3715 22.7465 40.3868 22.2226C40.2882 22.1704 40.1895 22.1182 40.0986 22.0699C40.1053 22.0206 40.1024 21.9935 40.1121 21.9713C40.943 20.1423 40.1624 18.6362 38.1882 18.2418C38.1041 18.2253 38.0151 18.0948 37.9822 17.9991C37.9464 17.8957 37.9773 17.77 37.9706 17.655C37.9503 17.2625 37.7394 17.0276 37.396 17.0102C37.0323 16.9918 36.7779 17.2229 36.7441 17.6202C36.7276 17.8097 36.7412 18.0011 36.7412 18.2389H36.7421Z" fill="white"/>
<path d="M36.1724 25.637V23.2289C36.2391 23.2144 36.3107 23.1864 36.3823 23.1854C37.3079 23.1777 38.2336 23.1661 39.1593 23.1709C39.9215 23.1758 40.4709 23.692 40.4806 24.387C40.4903 25.0782 39.9486 25.6186 39.1854 25.6321C38.1978 25.6495 37.2102 25.637 36.1724 25.637Z" fill="white"/>
<path d="M36.1577 21.9423V19.4927C36.858 19.4927 37.538 19.4579 38.2141 19.5034C38.7858 19.5411 39.2172 20.095 39.223 20.6827C39.2278 21.2898 38.8119 21.7934 38.2064 21.9065C38.0932 21.9278 37.9772 21.9394 37.862 21.9404C37.3117 21.9442 36.7623 21.9423 36.1577 21.9423Z" fill="white"/>
</g>
</g>
<defs>
<filter id="filter0_d_823_990" x="9.45166" y="11.4518" width="41.0967" height="41.0968" filterUnits="userSpaceOnUse" color-interpolation-filters="sRGB">
<feFlood flood-opacity="0" result="BackgroundImageFix"/>
<feColorMatrix in="SourceAlpha" type="matrix" values="0 0 0 0 0 0 0 0 0 0 0 0 0 0 0 0 0 0 127 0" result="hardAlpha"/>
<feOffset dy="2"/>
<feGaussianBlur stdDeviation="1"/>
<feComposite in2="hardAlpha" operator="out"/>
<feColorMatrix type="matrix" values="0 0 0 0 0 0 0 0 0 0 0 0 0 0 0 0 0 0 0.15 0"/>
<feBlend mode="normal" in2="BackgroundImageFix" result="effect1_dropShadow_823_990"/>
<feBlend mode="normal" in="SourceGraphic" in2="effect1_dropShadow_823_990" result="shape"/>
</filter>
<clipPath id="clip0_823_990">
<rect width="37.0968" height="37.0968" fill="white" transform="translate(11.4517 11.4518)"/>
</clipPath>
</defs>
</svg>
