<svg width="60" height="60" viewBox="0 0 60 60" fill="none" xmlns="http://www.w3.org/2000/svg">
<rect width="60" height="60" rx="12" fill="#24C3BC"/>
<g filter="url(#filter0_d_823_969)">
<g clip-path="url(#clip0_823_969)">
<path d="M44.946 46.2625C45.8172 46.2625 46.6548 46.2511 47.4923 46.2654C48.1226 46.2768 48.54 46.7014 48.5484 47.3C48.5568 47.8728 48.1702 48.3174 47.6072 48.3744C47.4699 48.3887 47.327 48.383 47.187 48.383C35.4583 48.383 23.7296 48.383 12.0009 48.383C11.8497 48.383 11.6928 48.3915 11.5444 48.3716C11.0009 48.2975 10.6368 47.8557 10.6452 47.2971C10.6536 46.7385 11.0429 46.2483 11.5892 46.2882C12.3175 46.3423 12.6676 46.1086 12.9702 45.3904C13.6817 43.6975 15.6397 42.6971 17.3989 42.9792C17.5502 43.002 17.7658 42.8538 17.8947 42.7227C19.5922 41.007 22.2786 41.0098 23.9033 42.774C24.2338 43.1331 24.4383 43.6148 24.7269 44.0224C24.8137 44.1478 24.9706 44.2874 25.1078 44.3017C26.3572 44.4157 27.3208 44.9971 28.0183 46.0545C28.0855 46.1571 28.2592 46.2454 28.3852 46.2483C29.5814 46.2625 30.7775 46.2625 31.9736 46.2483C32.1137 46.2483 32.2929 46.1571 32.3826 46.0459C33.1277 45.1168 34.0773 44.5468 35.2258 44.2874C35.3883 44.2504 35.5704 44.0851 35.6516 43.9312C36.66 41.9646 38.6349 40.9329 40.8282 41.2435C42.7975 41.5228 44.4334 43.1588 44.8284 45.2507C44.8872 45.5671 44.9068 45.8892 44.9488 46.2568L44.946 46.2625Z" fill="white"/>
<path d="M21.7083 39.6059C21.6776 39.5886 21.6653 39.5865 21.6633 39.58C21.1639 37.9439 20.466 36.364 20.3719 34.6135C20.3023 33.2947 20.6768 32.1464 21.5958 31.2119C22.2241 30.573 22.8278 29.906 23.4541 29.2628C23.6157 29.0966 23.671 28.9391 23.6444 28.6995C23.2474 25.082 23.6178 21.5616 24.8764 18.16C25.5825 16.2498 26.571 14.5274 27.9893 13.1007C28.5275 12.5611 29.0412 11.9956 29.557 11.4517C29.5959 11.4581 29.6204 11.4517 29.6306 11.4625C30.3981 12.2762 31.1922 13.0597 31.9228 13.9101C33.2081 15.408 34.0369 17.1909 34.6386 19.0903C35.6333 22.2264 35.9116 25.4424 35.5473 28.7211C35.5228 28.9369 35.5637 29.0837 35.7131 29.2369C36.3209 29.8585 36.8981 30.5125 37.5141 31.1212C38.5599 32.1551 38.959 33.4285 38.7932 34.8962C38.7175 35.5718 38.5599 36.2453 38.3818 36.9014C38.1547 37.7389 37.8702 38.5591 37.6082 39.3857C37.5857 39.457 37.555 39.526 37.512 39.6361L37.2828 39.3944C36.1265 38.1749 34.9681 36.9554 33.8159 35.7316C33.687 35.5956 33.558 35.5416 33.3779 35.5438C30.8586 35.5502 28.3393 35.5502 25.822 35.5438C25.6296 35.5438 25.4965 35.6042 25.3615 35.7467C24.2174 36.9662 23.0632 38.1749 21.913 39.39L21.7063 39.608L21.7083 39.6059ZM30.9405 21.3566C30.1976 20.5709 29.0085 20.5666 28.2594 21.3479C27.5145 22.1228 27.5042 23.3941 28.2369 24.1819C28.9696 24.9697 30.2098 24.9741 30.9486 24.1906C31.6854 23.4092 31.6813 22.1401 30.9425 21.3566H30.9405Z" fill="white"/>
<path d="M27.2407 37.7003C28.8146 37.6983 30.3933 37.6963 31.9501 37.6924C32.3393 39.9207 31.1912 41.7529 29.5954 43.5236C28.1237 41.7351 26.8418 39.9405 27.2407 37.7003Z" fill="white"/>
</g>
</g>
<defs>
<filter id="filter0_d_823_969" x="8.64502" y="11.4517" width="41.9033" height="41.9032" filterUnits="userSpaceOnUse" color-interpolation-filters="sRGB">
<feFlood flood-opacity="0" result="BackgroundImageFix"/>
<feColorMatrix in="SourceAlpha" type="matrix" values="0 0 0 0 0 0 0 0 0 0 0 0 0 0 0 0 0 0 127 0" result="hardAlpha"/>
<feOffset dy="2"/>
<feGaussianBlur stdDeviation="1"/>
<feComposite in2="hardAlpha" operator="out"/>
<feColorMatrix type="matrix" values="0 0 0 0 0 0 0 0 0 0 0 0 0 0 0 0 0 0 0.15 0"/>
<feBlend mode="normal" in2="BackgroundImageFix" result="effect1_dropShadow_823_969"/>
<feBlend mode="normal" in="SourceGraphic" in2="effect1_dropShadow_823_969" result="shape"/>
</filter>
<clipPath id="clip0_823_969">
<rect width="37.9035" height="37.9032" fill="white" transform="translate(10.645 11.4517)"/>
</clipPath>
</defs>
</svg>
