<svg width="60" height="60" viewBox="0 0 60 60" fill="none" xmlns="http://www.w3.org/2000/svg">
<rect width="60" height="60" rx="12" fill="#24C3BC"/>
<g filter="url(#filter0_d_823_1013)">
<path d="M12.259 26.5765C15.2394 26.5795 18.2204 26.5848 21.2008 26.5854C29.9003 26.5866 38.5998 26.5854 47.2988 26.5854C47.4353 26.5854 47.5723 26.5854 47.7423 26.5854C47.748 27.4465 47.4445 28.1556 46.9028 28.7476C45.7661 29.9902 44.3219 30.3994 42.7123 30.2279C41.4114 30.0889 40.2777 29.5602 39.4983 28.4395C39.2248 28.0468 39.0618 27.5737 38.8675 27.1768C38.1367 29.4508 36.4098 30.3361 34.1712 30.2403C32.1569 30.1546 30.6294 29.2213 30.0084 27.1047C29.0654 29.3958 27.5819 30.3698 25.2143 30.2592C23.2249 30.1664 21.7535 29.0273 21.1354 27.0603C21.0978 27.1697 21.0701 27.236 21.0516 27.3046C20.7527 28.4117 20.0525 29.1758 19.0766 29.6921C17.1051 30.7353 14.5363 30.332 13.125 28.7754C12.6816 28.2863 12.4422 27.6961 12.2578 27.0727V26.5765H12.259Z" fill="white"/>
<path d="M44.3449 32.3997C44.3449 32.544 44.3449 32.6599 44.3449 32.7752C44.3449 37.0535 44.3449 41.3317 44.3449 45.61C44.3449 46.5272 43.9505 46.9353 43.0631 46.9353C40.6712 46.9359 38.28 46.9353 35.8881 46.9353C35.7748 46.9353 35.6609 46.9353 35.5025 46.9353C35.5025 46.7674 35.5025 46.6296 35.5025 46.4912C35.5025 43.4419 35.4684 40.3926 35.517 37.3438C35.5412 35.8328 34.5075 34.8434 33.1095 34.8717C31.0305 34.9137 28.9502 34.9102 26.8712 34.8729C25.494 34.8487 24.4759 35.8517 24.4967 37.3048C24.5406 40.3653 24.51 43.4265 24.51 46.4876C24.51 46.626 24.51 46.7638 24.51 46.9182C24.366 46.9247 24.2643 46.9341 24.1625 46.9341C21.7366 46.9347 19.31 46.9359 16.8841 46.9341C16.088 46.9335 15.6694 46.5036 15.6694 45.6839C15.6676 41.3702 15.6688 37.0564 15.6694 32.7427C15.6694 32.638 15.678 32.5339 15.6838 32.4014C16.2949 32.4014 16.8933 32.4405 17.4854 32.3931C18.7319 32.2944 19.868 31.8514 20.8797 31.0986C21.0711 30.956 21.1827 30.9477 21.3816 31.0932C23.8682 32.9154 27.2961 32.9065 29.7851 31.0767C29.9557 30.9513 30.0551 30.9489 30.2291 31.0755C32.7528 32.9148 36.1558 32.9124 38.6633 31.0779C38.7911 30.9844 38.8795 30.9063 39.0507 31.0341C40.5631 32.1637 42.2594 32.5972 44.1165 32.3991C44.1731 32.3931 44.2304 32.3985 44.3454 32.3985L44.3449 32.3997Z" fill="white"/>
<path d="M46.6687 24.3927H13.3535C13.416 24.2484 13.4611 24.1325 13.516 24.0207C15.04 20.9099 16.571 17.8015 18.0852 14.6853C18.3586 14.1217 18.746 13.8698 19.3681 13.871C26.4604 13.8816 33.552 13.8816 40.6443 13.871C41.2658 13.8698 41.6549 14.1211 41.9284 14.6842C43.438 17.7902 44.9631 20.888 46.4825 23.9894C46.5386 24.1035 46.5895 24.2206 46.6693 24.3933L46.6687 24.3927Z" fill="white"/>
<path d="M33.3681 37.0935V46.9097H26.6562V37.0935H33.3681Z" fill="white"/>
</g>
<defs>
<filter id="filter0_d_823_1013" x="10.2578" y="13.871" width="39.4844" height="37.0646" filterUnits="userSpaceOnUse" color-interpolation-filters="sRGB">
<feFlood flood-opacity="0" result="BackgroundImageFix"/>
<feColorMatrix in="SourceAlpha" type="matrix" values="0 0 0 0 0 0 0 0 0 0 0 0 0 0 0 0 0 0 127 0" result="hardAlpha"/>
<feOffset dy="2"/>
<feGaussianBlur stdDeviation="1"/>
<feComposite in2="hardAlpha" operator="out"/>
<feColorMatrix type="matrix" values="0 0 0 0 0 0 0 0 0 0 0 0 0 0 0 0 0 0 0.15 0"/>
<feBlend mode="normal" in2="BackgroundImageFix" result="effect1_dropShadow_823_1013"/>
<feBlend mode="normal" in="SourceGraphic" in2="effect1_dropShadow_823_1013" result="shape"/>
</filter>
</defs>
</svg>
