<svg width="60" height="60" viewBox="0 0 60 60" fill="none" xmlns="http://www.w3.org/2000/svg">
<rect width="60" height="60" rx="12" fill="#24C3BC"/>
<g filter="url(#filter0_d_823_1022)">
<g clip-path="url(#clip0_823_1022)">
<path d="M45.3225 20.417C45.3234 18.9202 44.7356 17.7709 43.3498 17.1356C42.9018 16.9302 42.3672 16.8223 41.8726 16.8213C35.4514 16.8005 29.0311 16.8024 22.6099 16.81C20.6001 16.8128 19.1487 18.2623 19.1468 20.257C19.142 28.5372 19.143 36.8164 19.1468 45.0966C19.1468 46.8442 20.2016 48.1167 21.9298 48.4925C21.9745 48.502 22.0154 48.5294 22.0573 48.5484H42.4272C42.6183 48.4935 42.8114 48.4452 43.0007 48.3836C44.4274 47.9188 45.3101 46.654 45.3177 45.0436C45.3253 43.4493 45.3196 41.854 45.3196 40.2597C45.3196 33.6458 45.3158 27.0309 45.3225 20.417ZM25.7031 45.4421C25.7031 46.067 25.1894 46.5782 24.5617 46.5782H22.5395C21.9118 46.5782 21.3982 46.067 21.3982 45.4421V43.4294C21.3982 42.8045 21.9118 42.2933 22.5395 42.2933H24.5617C25.1894 42.2933 25.7031 42.8045 25.7031 43.4294V45.4421ZM42.3206 45.8559C42.2369 45.9401 42.1199 45.9922 41.9925 45.9922H28.0106C27.7547 45.9922 27.5454 45.783 27.5454 45.5283C27.5454 45.4014 27.5978 45.285 27.6824 45.2017C27.7661 45.1174 27.8831 45.0653 28.0106 45.0653H41.9925C42.2483 45.0653 42.4576 45.2736 42.4576 45.5283C42.4576 45.6552 42.4053 45.7716 42.3206 45.8559ZM42.3206 43.6698C42.2369 43.7541 42.1199 43.8062 41.9925 43.8062H28.0106C27.7547 43.8062 27.5454 43.5979 27.5454 43.3432C27.5454 43.2164 27.5978 43.0999 27.6824 43.0166C27.7661 42.9323 27.8831 42.8803 28.0106 42.8803H41.9925C42.2483 42.8803 42.4576 43.0885 42.4576 43.3432C42.4576 43.4701 42.4053 43.5865 42.3206 43.6698ZM43.6484 40.4718H20.5212V21.11C20.5212 19.5271 21.81 18.2443 23.4003 18.2443H40.7693C42.3596 18.2443 43.6484 19.5271 43.6484 21.11V40.4718Z" fill="white"/>
<path d="M40.6782 14.6809C40.4756 13.5855 39.3589 12.5479 38.1757 12.333C37.898 12.2828 37.6107 12.261 37.3273 12.261C30.9555 12.2582 24.5828 12.2582 18.211 12.2591C16.1156 12.2601 14.6804 13.6877 14.6794 15.7762C14.6775 24.0195 14.6765 32.2618 14.6804 40.505C14.6804 41.9923 15.3557 43.0763 16.7149 43.7192C16.8271 43.7722 16.9527 43.7997 17.1201 43.8555V43.3528C17.1201 35.689 17.1143 28.0242 17.1239 20.3603C17.1267 17.9282 18.2415 16.1691 20.4624 15.1315C21.2043 14.785 22.0033 14.6809 22.8184 14.6809C28.6214 14.6828 34.4234 14.6809 40.2264 14.6809H40.6791H40.6782Z" fill="white"/>
<path d="M30.1803 20.6622C29.6857 21.1545 29.114 21.5777 28.7183 22.1524C28.317 22.7204 28.1125 23.5034 28.4387 24.1178C28.7821 24.7673 29.5801 25.0276 30.3087 25.1498C31.666 25.3817 33.0461 25.3467 34.4205 25.4575C35.7892 25.5673 37.1931 25.8343 38.3402 26.5822C39.493 27.3301 40.349 28.6461 40.2273 30.0084C38.9984 28.6461 37.1284 28.061 35.3174 27.7703C33.5121 27.4806 31.6717 27.4286 29.8483 27.5677C28.6194 27.6605 27.3791 27.8404 26.1559 27.6899C25.6956 27.6321 25.2362 27.528 24.851 27.2723C23.605 26.443 24.3906 24.9481 25.142 24.0724C26.4641 22.5188 28.2875 21.4575 30.1803 20.6641V20.6622Z" fill="white"/>
<path d="M34.28 37.978C34.8564 37.4394 35.5088 36.9575 35.8988 36.2739C36.2888 35.5894 36.3297 34.6219 35.7362 34.1002C35.5031 33.8976 35.195 33.7868 34.8973 33.7007C33.5114 33.3068 32.0495 33.3012 30.6104 33.2197C29.1723 33.1383 27.6923 32.9584 26.4292 32.2635C25.7652 31.8981 25.1831 31.3651 24.7751 30.727C24.3613 30.0718 24.2339 29.3646 24.2158 28.6053C25.089 29.6666 26.4349 30.2347 27.7684 30.5878C30.0454 31.1852 32.4338 31.2543 34.7746 31.0631C36.149 30.9533 37.5586 30.7554 38.8978 31.0858C39.2412 31.1729 39.5855 31.2941 39.847 31.5383C40.3017 31.9615 40.3825 32.6744 40.1961 33.2661C40.0097 33.8578 39.5902 34.3501 39.1594 34.7904C37.7907 36.1934 36.1071 37.2888 34.279 37.979L34.28 37.978Z" fill="white"/>
</g>
</g>
<defs>
<filter id="filter0_d_823_1022" x="12.6772" y="12.2581" width="34.645" height="40.2903" filterUnits="userSpaceOnUse" color-interpolation-filters="sRGB">
<feFlood flood-opacity="0" result="BackgroundImageFix"/>
<feColorMatrix in="SourceAlpha" type="matrix" values="0 0 0 0 0 0 0 0 0 0 0 0 0 0 0 0 0 0 127 0" result="hardAlpha"/>
<feOffset dy="2"/>
<feGaussianBlur stdDeviation="1"/>
<feComposite in2="hardAlpha" operator="out"/>
<feColorMatrix type="matrix" values="0 0 0 0 0 0 0 0 0 0 0 0 0 0 0 0 0 0 0.15 0"/>
<feBlend mode="normal" in2="BackgroundImageFix" result="effect1_dropShadow_823_1022"/>
<feBlend mode="normal" in="SourceGraphic" in2="effect1_dropShadow_823_1022" result="shape"/>
</filter>
<clipPath id="clip0_823_1022">
<rect width="30.6452" height="36.2903" fill="white" transform="translate(14.6772 12.2581)"/>
</clipPath>
</defs>
</svg>
