<svg width="60" height="60" viewBox="0 0 60 60" fill="none" xmlns="http://www.w3.org/2000/svg">
<rect width="60" height="60" rx="12" fill="#24C3BC"/>
<g filter="url(#filter0_d_823_1002)">
<g filter="url(#filter1_d_823_1002)">
<path d="M42.0452 33.632C42.7337 34.2748 42.8584 35.3602 42.5742 36.2609C42.2923 37.1592 41.6567 37.9112 41.0042 38.5805C38.9305 40.7153 36.3819 42.3812 33.6126 43.4318C34.487 42.6115 35.4728 41.8811 36.0641 40.8388C36.6554 39.799 36.7177 38.3262 35.8182 37.531C35.4656 37.2228 34.9979 37.0549 34.5481 36.923C32.4493 36.3233 30.2341 36.3137 28.0549 36.1902C25.8768 36.0666 23.6365 35.7932 21.7223 34.7342C20.7172 34.1789 19.8357 33.3681 19.2181 32.3978C18.592 31.4 18.3977 30.3254 18.3701 29.1692C19.6942 30.7835 21.7319 31.647 23.7504 32.1856C27.1997 33.0935 30.8158 33.2002 34.3622 32.9088C36.4443 32.7408 38.5791 32.441 40.6072 32.9447C41.1278 33.0767 41.6471 33.2614 42.0441 33.6332L42.0452 33.632Z" fill="white"/>
<path d="M19.7743 22.2706C21.776 19.9067 24.5381 18.2923 27.4033 17.0846C26.6537 17.8342 25.789 18.477 25.1905 19.3514C24.5813 20.2161 24.273 21.4058 24.7672 22.3413C25.2877 23.3296 26.4954 23.7266 27.5976 23.9113C29.6533 24.2639 31.7438 24.2111 33.8259 24.379C35.8983 24.5469 38.0248 24.9511 39.7614 26.0905C41.5077 27.2275 42.8042 29.2304 42.6195 31.3029C40.7593 29.2304 37.9276 28.3393 35.1835 27.8991C32.4502 27.4578 29.6617 27.3774 26.902 27.5897C25.0394 27.7312 23.1612 28.0035 21.3095 27.7744C20.6126 27.6868 19.9146 27.5285 19.3329 27.1399C17.4464 25.8782 18.6361 23.6019 19.7743 22.2706Z" fill="white"/>
<path d="M30.4031 10.6453C19.4914 10.6453 10.645 19.4917 10.645 30.4033C10.645 41.315 19.4914 50.1614 30.4031 50.1614C41.3148 50.1614 50.1612 41.3162 50.1612 30.4033C50.1612 19.4905 41.3148 10.6453 30.4031 10.6453ZM30.4031 47.8646C20.6812 47.8646 12.8014 39.9837 12.8014 30.263C12.8014 20.5423 20.6812 12.6602 30.4031 12.6602C40.125 12.6602 48.0047 20.5411 48.0047 30.263C48.0047 39.9849 40.125 47.8646 30.4031 47.8646Z" fill="white"/>
<path d="M42.5751 36.2609C42.2933 37.1592 41.6576 37.9112 41.0052 38.5805C38.9315 40.7153 36.3829 42.3812 33.6136 43.4318C34.4879 42.6115 35.4738 41.8811 36.0651 40.8388C36.6564 39.799 36.7187 38.3262 35.8192 37.531C35.4666 37.2228 34.9989 37.0549 34.5491 36.923C32.4502 36.3233 30.235 36.3137 28.0558 36.1902C25.8778 36.0666 23.6374 35.7932 21.7233 34.7342C20.7182 34.1789 19.8367 33.3681 19.219 32.3978C18.593 31.4 18.3987 30.3254 18.3711 29.1692C19.6952 30.7835 21.7329 31.647 23.7514 32.1856C27.2007 33.0935 30.8167 33.2002 34.3632 32.9088C36.4453 32.7408 38.5801 32.441 40.6082 32.9447C41.1287 33.0767 41.648 33.2614 42.045 33.6332C42.7335 34.276 42.8582 35.3614 42.5739 36.2621L42.5751 36.2609Z" fill="#24C3BC"/>
<path d="M19.7743 22.2706C21.776 19.9067 24.5381 18.2923 27.4033 17.0846C26.6537 17.8342 25.789 18.477 25.1905 19.3514C24.5813 20.2161 24.273 21.4058 24.7672 22.3413C25.2877 23.3296 26.4954 23.7266 27.5976 23.9113C29.6533 24.2639 31.7438 24.2111 33.8259 24.379C35.8983 24.5469 38.0248 24.9511 39.7614 26.0905C41.5077 27.2275 42.8042 29.2304 42.6195 31.3029C40.7593 29.2304 37.9276 28.3393 35.1835 27.8991C32.4502 27.4578 29.6617 27.3774 26.902 27.5897C25.0394 27.7312 23.1612 28.0035 21.3095 27.7744C20.6126 27.6868 19.9146 27.5285 19.3329 27.1399C17.4464 25.8782 18.6361 23.6019 19.7743 22.2706Z" fill="#24C3BC"/>
<path d="M42.6195 31.3041C40.7593 29.2316 37.9276 28.3405 35.1835 27.9003C32.4502 27.459 29.6617 27.3786 26.902 27.5909C25.0394 27.7324 23.1612 28.0047 21.3095 27.7756C20.6126 27.6881 19.9146 27.5297 19.3329 27.1412C17.4464 25.8794 18.6361 23.6031 19.7743 22.2718C21.776 19.9079 24.5381 18.2936 27.4033 17.0858C26.6537 17.8354 25.789 18.4783 25.1905 19.3526C24.5813 20.2173 24.273 21.4071 24.7672 22.3426C25.2877 23.3308 26.4954 23.7278 27.5976 23.9125C29.6533 24.2651 31.7438 24.2123 33.8259 24.3803C35.8983 24.5482 38.0248 24.9523 39.7614 26.0917C41.5077 27.2287 42.8042 29.2316 42.6195 31.3041Z" fill="white"/>
<path d="M42.5751 36.2609C42.2933 37.1592 41.6576 37.9112 41.0052 38.5805C38.9315 40.7153 36.3829 42.3812 33.6136 43.4318C34.4879 42.6115 35.4738 41.8811 36.0651 40.8388C36.6564 39.799 36.7187 38.3262 35.8192 37.531C35.4666 37.2228 34.9989 37.0549 34.5491 36.923C32.4502 36.3233 30.235 36.3137 28.0558 36.1902C25.8778 36.0666 23.6374 35.7932 21.7233 34.7342C20.7182 34.1789 19.8367 33.3681 19.219 32.3978C18.593 31.4 18.3987 30.3254 18.3711 29.1692C19.6952 30.7835 21.7329 31.647 23.7514 32.1856C27.2007 33.0935 30.8167 33.2002 34.3632 32.9088C36.4453 32.7408 38.5801 32.441 40.6082 32.9447C41.1287 33.0767 41.648 33.2614 42.045 33.6332C42.7335 34.276 42.8582 35.3614 42.5739 36.2621L42.5751 36.2609Z" fill="white"/>
</g>
</g>
<defs>
<filter id="filter0_d_823_1002" x="1" y="5" width="58" height="58" filterUnits="userSpaceOnUse" color-interpolation-filters="sRGB">
<feFlood flood-opacity="0" result="BackgroundImageFix"/>
<feColorMatrix in="SourceAlpha" type="matrix" values="0 0 0 0 0 0 0 0 0 0 0 0 0 0 0 0 0 0 127 0" result="hardAlpha"/>
<feOffset dy="4"/>
<feGaussianBlur stdDeviation="2"/>
<feComposite in2="hardAlpha" operator="out"/>
<feColorMatrix type="matrix" values="0 0 0 0 0 0 0 0 0 0 0 0 0 0 0 0 0 0 0.25 0"/>
<feBlend mode="normal" in2="BackgroundImageFix" result="effect1_dropShadow_823_1002"/>
<feBlend mode="normal" in="SourceGraphic" in2="effect1_dropShadow_823_1002" result="shape"/>
</filter>
<filter id="filter1_d_823_1002" x="8.64502" y="10.6453" width="43.5161" height="43.5161" filterUnits="userSpaceOnUse" color-interpolation-filters="sRGB">
<feFlood flood-opacity="0" result="BackgroundImageFix"/>
<feColorMatrix in="SourceAlpha" type="matrix" values="0 0 0 0 0 0 0 0 0 0 0 0 0 0 0 0 0 0 127 0" result="hardAlpha"/>
<feOffset dy="2"/>
<feGaussianBlur stdDeviation="1"/>
<feComposite in2="hardAlpha" operator="out"/>
<feColorMatrix type="matrix" values="0 0 0 0 0 0 0 0 0 0 0 0 0 0 0 0 0 0 0.15 0"/>
<feBlend mode="normal" in2="BackgroundImageFix" result="effect1_dropShadow_823_1002"/>
<feBlend mode="normal" in="SourceGraphic" in2="effect1_dropShadow_823_1002" result="shape"/>
</filter>
</defs>
</svg>
