<svg width="448" height="439" viewBox="0 0 448 439" fill="none" xmlns="http://www.w3.org/2000/svg">
<g clip-path="url(#clip0_534_3347)">
<path d="M223.197 273.011C257.831 273.011 285.907 244.988 285.907 210.421C285.907 175.854 257.831 147.832 223.197 147.832C188.563 147.832 160.487 175.854 160.487 210.421C160.487 244.988 188.563 273.011 223.197 273.011Z" fill="white"/>
<path d="M223.197 269.395C255.83 269.395 282.284 242.991 282.284 210.421C282.284 177.851 255.83 151.448 223.197 151.448C190.564 151.448 164.11 177.851 164.11 210.421C164.11 242.991 190.564 269.395 223.197 269.395Z" fill="url(#paint0_linear_534_3347)"/>
<path d="M223.197 260.358C250.829 260.358 273.23 238.001 273.23 210.421C273.23 182.842 250.829 160.485 223.197 160.485C195.565 160.485 173.164 182.842 173.164 210.421C173.164 238.001 195.565 260.358 223.197 260.358Z" fill="white"/>
<path d="M223.197 258.55C249.829 258.55 271.418 237.002 271.418 210.421C271.418 183.841 249.829 162.293 223.197 162.293C196.565 162.293 174.976 183.841 174.976 210.421C174.976 237.002 196.565 258.55 223.197 258.55Z" fill="#16938A"/>
<path d="M223.197 250.244C245.233 250.244 263.097 232.415 263.097 210.421C263.097 188.428 245.233 170.599 223.197 170.599C201.161 170.599 183.297 188.428 183.297 210.421C183.297 232.415 201.161 250.244 223.197 250.244Z" fill="#07051B"/>
<path opacity="0.25" d="M223.197 254.934C247.828 254.934 267.795 235.005 267.795 210.421C267.795 185.838 247.828 165.909 223.197 165.909C198.566 165.909 178.599 185.838 178.599 210.421C178.599 235.005 198.566 254.934 223.197 254.934Z" fill="url(#paint1_linear_534_3347)"/>
<g filter="url(#filter0_d_534_3347)">
<path d="M249.404 223.455C248.789 225.408 247.409 227.036 245.986 228.495C241.475 233.131 235.931 236.751 229.902 239.029C231.802 237.249 233.953 235.656 235.237 233.396C236.522 231.136 236.656 227.937 234.7 226.213C233.932 225.542 232.916 225.179 231.936 224.893C227.369 223.59 222.55 223.572 217.812 223.304C213.071 223.035 208.195 222.442 204.031 220.143C201.844 218.935 199.923 217.173 198.579 215.069C197.217 212.904 196.796 210.566 196.735 208.059C199.615 211.565 204.049 213.441 208.443 214.609C215.947 216.583 223.816 216.813 231.533 216.181C236.062 215.817 240.707 215.167 245.119 216.259C246.252 216.545 247.384 216.947 248.247 217.752C249.744 219.151 250.013 221.506 249.397 223.459L249.404 223.455Z" fill="white"/>
<path d="M199.792 193.076C204.148 187.941 210.155 184.438 216.393 181.811C214.762 183.438 212.88 184.837 211.574 186.733C210.251 188.612 209.579 191.197 210.654 193.227C211.787 195.374 214.415 196.236 216.814 196.639C221.286 197.405 225.833 197.288 230.365 197.652C234.876 198.016 239.501 198.899 243.283 201.367C247.083 203.839 249.903 208.186 249.5 212.689C245.448 208.186 239.289 206.251 233.32 205.294C227.369 204.337 221.304 204.164 215.3 204.623C211.249 204.93 207.162 205.523 203.132 205.026C201.614 204.835 200.1 204.489 198.833 203.645C194.726 200.904 197.316 195.964 199.792 193.072V193.076Z" fill="white"/>
<path d="M249.404 223.455C248.789 225.408 247.409 227.036 245.986 228.495C241.475 233.131 235.931 236.751 229.902 239.029C231.802 237.249 233.953 235.656 235.237 233.396C236.522 231.136 236.656 227.937 234.7 226.213C233.932 225.542 232.916 225.179 231.936 224.893C227.369 223.59 222.55 223.572 217.812 223.304C213.071 223.035 208.195 222.442 204.031 220.143C201.844 218.935 199.923 217.173 198.579 215.069C197.217 212.904 196.796 210.566 196.735 208.059C199.615 211.565 204.049 213.441 208.443 214.609C215.947 216.583 223.816 216.813 231.533 216.181C236.062 215.817 240.707 215.167 245.119 216.259C246.252 216.545 247.384 216.947 248.247 217.752C249.744 219.151 250.013 221.506 249.397 223.459L249.404 223.455Z" fill="white"/>
<path d="M199.792 193.076C204.148 187.941 210.155 184.438 216.393 181.811C214.762 183.438 212.88 184.837 211.574 186.733C210.251 188.612 209.579 191.197 210.654 193.227C211.787 195.374 214.415 196.236 216.814 196.639C221.286 197.405 225.833 197.288 230.365 197.652C234.876 198.016 239.501 198.899 243.283 201.367C247.083 203.839 249.903 208.186 249.5 212.689C245.448 208.186 239.289 206.251 233.32 205.294C227.369 204.337 221.304 204.164 215.3 204.623C211.249 204.93 207.162 205.523 203.132 205.026C201.614 204.835 200.1 204.489 198.833 203.645C194.726 200.904 197.316 195.964 199.792 193.072V193.076Z" fill="white"/>
<path d="M249.5 212.692C245.448 208.19 239.289 206.254 233.32 205.297C227.369 204.34 221.304 204.167 215.3 204.626C211.249 204.934 207.162 205.527 203.132 205.029C201.614 204.838 200.1 204.492 198.833 203.648C194.726 200.908 197.316 195.968 199.792 193.076C204.148 187.941 210.155 184.438 216.393 181.811C214.762 183.438 212.88 184.837 211.574 186.733C210.251 188.612 209.579 191.197 210.654 193.227C211.787 195.374 214.415 196.236 216.814 196.639C221.286 197.405 225.833 197.288 230.365 197.652C234.876 198.016 239.501 198.899 243.283 201.367C247.083 203.839 249.903 208.186 249.5 212.689V212.692Z" fill="white"/>
<path d="M249.404 223.455C248.789 225.408 247.409 227.036 245.986 228.495C241.475 233.131 235.931 236.751 229.902 239.029C231.802 237.249 233.953 235.656 235.237 233.396C236.522 231.136 236.656 227.937 234.7 226.213C233.932 225.542 232.916 225.179 231.936 224.893C227.369 223.59 222.55 223.572 217.812 223.304C213.071 223.035 208.195 222.442 204.031 220.143C201.844 218.935 199.923 217.173 198.579 215.069C197.217 212.904 196.796 210.566 196.735 208.059C199.615 211.565 204.049 213.441 208.443 214.609C215.947 216.583 223.816 216.813 231.533 216.181C236.062 215.817 240.707 215.167 245.119 216.259C246.252 216.545 247.384 216.947 248.247 217.752C249.744 219.151 250.013 221.506 249.397 223.459L249.404 223.455Z" fill="white"/>
</g>
<path d="M134.319 198.228C122.413 233.598 128.155 274.084 153.17 305.446C170.507 327.185 194.198 340.901 219.496 346.06" stroke="url(#paint2_linear_534_3347)" stroke-width="5" stroke-miterlimit="10"/>
<path d="M134.319 198.228C122.413 233.598 128.155 274.084 153.17 305.446C170.507 327.185 194.198 340.901 219.496 346.06V409.44" stroke="url(#paint3_linear_534_3347)" stroke-width="5" stroke-miterlimit="10"/>
<path d="M219.496 437.214C234.865 437.214 247.324 424.779 247.324 409.44C247.324 394.101 234.865 381.666 219.496 381.666C204.127 381.666 191.668 394.101 191.668 409.44C191.668 424.779 204.127 437.214 219.496 437.214Z" fill="#2FC3BC"/>
<path d="M219.496 381.666C234.866 381.666 247.324 394.1 247.324 409.44C247.324 424.78 234.866 437.214 219.496 437.214C204.126 437.214 191.668 424.78 191.668 409.44C191.668 394.1 204.126 381.666 219.496 381.666ZM219.496 379.901C203.175 379.901 189.899 393.154 189.899 409.44C189.899 425.727 203.178 438.98 219.496 438.98C235.814 438.98 249.093 425.727 249.093 409.44C249.093 393.154 235.814 379.901 219.496 379.901Z" fill="url(#paint4_linear_534_3347)"/>
<path d="M134.319 204.747C137.926 204.747 140.85 201.828 140.85 198.228C140.85 194.628 137.926 191.709 134.319 191.709C130.712 191.709 127.787 194.628 127.787 198.228C127.787 201.828 130.712 204.747 134.319 204.747Z" fill="white" stroke="url(#paint5_linear_534_3347)" stroke-width="5" stroke-miterlimit="10"/>
<path d="M177.321 133.474C142.195 146.243 114.066 175.97 105.097 215.047C98.8808 242.129 102.914 269.169 114.647 292.122" stroke="url(#paint6_linear_534_3347)" stroke-width="5" stroke-miterlimit="10"/>
<path d="M177.321 133.474C142.195 146.243 114.066 175.97 105.097 215.047C98.8807 242.129 102.914 269.169 114.647 292.122L65.0029 331.645" stroke="url(#paint7_linear_534_3347)" stroke-width="5" stroke-miterlimit="10"/>
<path d="M65.0065 359.419C80.3752 359.419 92.834 346.984 92.834 331.645C92.834 316.306 80.3752 303.871 65.0065 303.871C49.6378 303.871 37.179 316.306 37.179 331.645C37.179 346.984 49.6378 359.419 65.0065 359.419Z" fill="#2FC3BC"/>
<path d="M64.9888 303.867C73.1654 303.867 81.2678 307.448 86.7625 314.324C96.3474 326.316 94.3766 343.789 82.3611 353.356C77.2343 357.438 71.1098 359.419 65.0242 359.419C56.8475 359.419 48.7452 355.838 43.2504 348.963C33.6656 336.97 35.6363 319.497 47.6519 309.931C52.7786 305.849 58.9032 303.867 64.9888 303.867ZM64.9888 302.102C58.2238 302.102 51.8481 304.33 46.548 308.55C33.7894 318.706 31.6913 337.33 41.867 350.064C47.5139 357.131 55.9559 361.185 65.0206 361.185C71.7856 361.185 78.1613 358.956 83.4614 354.736C96.22 344.58 98.3181 325.956 88.1424 313.222C82.4955 306.156 74.0535 302.102 64.9888 302.102Z" fill="url(#paint8_linear_534_3347)"/>
<path d="M177.321 139.993C180.929 139.993 183.853 137.074 183.853 133.474C183.853 129.873 180.929 126.955 177.321 126.955C173.714 126.955 170.79 129.873 170.79 133.474C170.79 137.074 173.714 139.993 177.321 139.993Z" fill="white" stroke="url(#paint9_linear_534_3347)" stroke-width="5" stroke-miterlimit="10"/>
<path d="M254.86 126.644C222.953 107.201 182.13 103.789 145.931 121.164C120.842 133.205 102.178 153.21 91.5178 176.68" stroke="url(#paint10_linear_534_3347)" stroke-width="5" stroke-miterlimit="10"/>
<path d="M254.86 126.644C222.953 107.201 182.13 103.789 145.931 121.164C120.842 133.205 102.178 153.21 91.5178 176.68L29.6038 162.593" stroke="url(#paint11_linear_534_3347)" stroke-width="5" stroke-miterlimit="10"/>
<path d="M29.6002 190.367C44.9689 190.367 57.4277 177.932 57.4277 162.593C57.4277 147.254 44.9689 134.819 29.6002 134.819C14.2315 134.819 1.77271 147.254 1.77271 162.593C1.77271 177.932 14.2315 190.367 29.6002 190.367Z" fill="#2FC3BC"/>
<path d="M29.5755 134.812C31.6241 134.812 33.7046 135.038 35.785 135.511C50.769 138.919 60.1487 153.807 56.7343 168.763C53.7941 181.641 42.3235 190.371 29.6286 190.371C27.58 190.371 25.4996 190.145 23.4192 189.672C8.43512 186.264 -0.944508 171.376 2.4698 156.421C5.41 143.542 16.8807 134.812 29.5755 134.812ZM29.5755 133.047C22.9804 133.047 16.4773 135.303 11.2692 139.399C5.97964 143.559 2.24336 149.464 0.743187 156.029C-2.88341 171.909 7.11185 187.775 23.0229 191.395C25.1953 191.889 27.4173 192.14 29.6251 192.14C36.2202 192.14 42.7233 189.883 47.9314 185.787C53.221 181.627 56.9572 175.723 58.4574 169.158C60.2159 161.463 58.8643 153.55 54.6575 146.868C50.4506 140.187 43.8873 135.543 36.1777 133.792C34.0053 133.297 31.7833 133.047 29.5755 133.047Z" fill="url(#paint12_linear_534_3347)"/>
<path d="M254.86 133.163C258.467 133.163 261.391 130.245 261.391 126.644C261.391 123.044 258.467 120.125 254.86 120.125C251.253 120.125 248.329 123.044 248.329 126.644C248.329 130.245 251.253 133.163 254.86 133.163Z" fill="white" stroke="url(#paint13_linear_534_3347)" stroke-width="5" stroke-miterlimit="10"/>
<path d="M308.559 182.88C303.892 145.862 281.103 111.88 244.921 94.47C219.847 82.4035 192.536 80.3165 167.507 86.6376" stroke="url(#paint14_linear_534_3347)" stroke-width="5" stroke-miterlimit="10"/>
<path d="M308.558 182.881C303.892 145.862 281.102 111.88 244.921 94.4702C219.846 82.4036 192.535 80.3166 167.507 86.6377L139.927 29.5466" stroke="url(#paint15_linear_534_3347)" stroke-width="5" stroke-miterlimit="10"/>
<path d="M139.93 57.3205C155.299 57.3205 167.758 44.8857 167.758 29.5466C167.758 14.2075 155.299 1.77271 139.93 1.77271C124.562 1.77271 112.103 14.2075 112.103 29.5466C112.103 44.8857 124.562 57.3205 139.93 57.3205Z" fill="#2FC3BC"/>
<path d="M139.909 1.76567C150.258 1.76567 160.2 7.55705 164.994 17.4836C171.667 31.3017 165.858 47.9025 152.013 54.5661C148.117 56.4413 144.003 57.3276 139.948 57.3276C129.599 57.3276 119.657 51.5363 114.862 41.6097C108.19 27.7916 113.999 11.1908 127.844 4.52717C131.739 2.65203 135.854 1.76567 139.909 1.76567ZM139.909 0C135.444 0 131.127 0.988773 127.076 2.93807C112.375 10.0113 106.183 27.7033 113.27 42.376C115.736 47.4788 119.582 51.7411 124.398 54.6968C129.082 57.5748 134.46 59.0933 139.951 59.0933C144.417 59.0933 148.733 58.1045 152.784 56.1552C167.485 49.082 173.677 31.39 166.59 16.7173C164.124 11.6146 160.278 7.35223 155.463 4.39651C150.778 1.51847 145.4 0 139.909 0Z" fill="url(#paint16_linear_534_3347)"/>
<path d="M308.558 189.399C312.165 189.399 315.09 186.481 315.09 182.881C315.09 179.28 312.165 176.362 308.558 176.362C304.951 176.362 302.027 179.28 302.027 182.881C302.027 186.481 304.951 189.399 308.558 189.399Z" fill="white" stroke="url(#paint17_linear_534_3347)" stroke-width="5" stroke-miterlimit="10"/>
<path d="M298 259.85C324.087 233.125 336.488 194.153 327.562 155.065C321.377 127.976 305.979 105.368 285.422 89.7773" stroke="url(#paint18_linear_534_3347)" stroke-width="5" stroke-miterlimit="10"/>
<path d="M298 259.85C324.087 233.125 336.488 194.153 327.562 155.065C321.377 127.976 305.979 105.368 285.422 89.7773L312.942 32.658" stroke="url(#paint19_linear_534_3347)" stroke-width="5" stroke-miterlimit="10"/>
<path d="M312.938 60.4353C328.307 60.4353 340.766 48.0005 340.766 32.6614C340.766 17.3223 328.307 4.88745 312.938 4.88745C297.57 4.88745 285.111 17.3223 285.111 32.6614C285.111 48.0005 297.57 60.4353 312.938 60.4353Z" fill="#2FC3BC"/>
<path d="M312.96 4.88041C317.004 4.88041 321.112 5.76325 325 7.63132C338.852 14.2773 344.679 30.8745 338.02 44.6997C333.23 54.6439 323.284 60.4459 312.921 60.4459C308.877 60.4459 304.769 59.5631 300.881 57.695C287.029 51.049 281.201 34.4518 287.86 20.6266C292.651 10.6824 302.597 4.88041 312.96 4.88041ZM312.96 3.11475C307.465 3.11475 302.08 4.63675 297.392 7.52185C292.577 10.4846 288.727 14.7505 286.264 19.8603C282.84 26.9724 282.394 34.9885 285.008 42.4361C287.623 49.8837 292.987 55.8658 300.113 59.2841C304.157 61.2228 308.463 62.2081 312.917 62.2081C318.412 62.2081 323.797 60.686 328.485 57.8009C333.301 54.8382 337.15 50.5723 339.613 45.4625C346.685 30.7827 340.472 13.0978 325.764 6.03869C321.72 4.09999 317.414 3.11475 312.96 3.11475Z" fill="url(#paint20_linear_534_3347)"/>
<path d="M298.001 266.368C301.608 266.368 304.532 263.45 304.532 259.85C304.532 256.249 301.608 253.331 298.001 253.331C294.393 253.331 291.469 256.249 291.469 259.85C291.469 263.45 294.393 266.368 298.001 266.368Z" fill="white" stroke="url(#paint21_linear_534_3347)" stroke-width="5" stroke-miterlimit="10"/>
<path d="M231.129 299.609C268.329 303.296 306.587 288.669 331.638 257.332C348.999 235.611 357.105 209.5 356.493 183.739" stroke="url(#paint22_linear_534_3347)" stroke-width="5" stroke-miterlimit="10"/>
<path d="M231.129 299.609C268.329 303.295 306.587 288.669 331.638 257.332C348.999 235.61 357.105 209.5 356.493 183.739L418.393 169.589" stroke="url(#paint23_linear_534_3347)" stroke-width="5" stroke-miterlimit="10"/>
<path d="M418.393 197.363C433.762 197.363 446.22 184.928 446.22 169.589C446.22 154.25 433.762 141.815 418.393 141.815C403.024 141.815 390.565 154.25 390.565 169.589C390.565 184.928 403.024 197.363 418.393 197.363Z" fill="#2FC3BC"/>
<path d="M418.418 141.808C431.102 141.808 442.566 150.523 445.52 163.388C448.952 178.339 439.587 193.238 424.606 196.663C422.515 197.14 420.428 197.37 418.368 197.37C405.684 197.37 394.22 188.654 391.266 175.79C387.834 160.838 397.2 145.939 412.18 142.514C414.271 142.037 416.359 141.808 418.418 141.808ZM418.418 140.042C416.199 140.042 413.967 140.296 411.784 140.794C395.876 144.431 385.899 160.305 389.54 176.185C391.043 182.743 394.783 188.64 400.069 192.793C405.277 196.882 411.773 199.135 418.365 199.135C420.583 199.135 422.816 198.881 424.999 198.383C432.705 196.621 439.261 191.97 443.464 185.285C447.664 178.601 449.009 170.683 447.243 162.992C445.739 156.434 442 150.537 436.714 146.384C431.506 142.295 425.009 140.042 418.418 140.042Z" fill="url(#paint24_linear_534_3347)"/>
<path d="M231.13 306.128C234.737 306.128 237.661 303.209 237.661 299.609C237.661 296.008 234.737 293.09 231.13 293.09C227.522 293.09 224.598 296.008 224.598 299.609C224.598 303.209 227.522 306.128 231.13 306.128Z" fill="white" stroke="url(#paint25_linear_534_3347)" stroke-width="5" stroke-miterlimit="10"/>
<path d="M158.286 272.23C178.599 303.553 213.913 324.286 254.078 324.286C281.916 324.286 307.423 314.327 327.218 297.786" stroke="url(#paint26_linear_534_3347)" stroke-width="5" stroke-miterlimit="10"/>
<path d="M158.286 272.23C178.599 303.553 213.913 324.286 254.078 324.286C281.916 324.286 307.423 314.327 327.218 297.786L376.901 337.26" stroke="url(#paint27_linear_534_3347)" stroke-width="5" stroke-miterlimit="10"/>
<path d="M376.905 365.03C392.273 365.03 404.732 352.595 404.732 337.256C404.732 321.917 392.273 309.482 376.905 309.482C361.536 309.482 349.077 321.917 349.077 337.256C349.077 352.595 361.536 365.03 376.905 365.03Z" fill="#2FC3BC"/>
<path d="M376.922 309.482C382.997 309.482 389.115 311.46 394.235 315.528C406.261 325.08 408.249 342.553 398.675 354.556C393.18 361.446 385.071 365.034 376.883 365.034C370.808 365.034 364.691 363.056 359.571 358.988C347.545 349.436 345.557 331.963 355.131 319.96C360.626 313.07 368.735 309.482 376.922 309.482ZM376.922 307.717C367.844 307.717 359.394 311.778 353.748 318.861C348.822 325.034 346.604 332.754 347.496 340.593C348.387 348.433 352.286 355.457 358.471 360.372C363.764 364.578 370.133 366.803 376.887 366.803C385.966 366.803 394.415 362.742 400.062 355.658C410.227 342.913 408.108 324.293 395.338 314.147C390.045 309.941 383.677 307.717 376.922 307.717Z" fill="url(#paint28_linear_534_3347)"/>
<path d="M158.286 278.749C161.893 278.749 164.817 275.831 164.817 272.23C164.817 268.63 161.893 265.711 158.286 265.711C154.679 265.711 151.755 268.63 151.755 272.23C151.755 275.831 154.679 278.749 158.286 278.749Z" fill="white" stroke="url(#paint29_linear_534_3347)" stroke-width="5" stroke-miterlimit="10"/>
</g>
<g filter="url(#filter1_d_534_3347)">
<g clip-path="url(#clip1_534_3347)">
<path d="M154.495 44.4731C155.307 44.4731 156.087 44.4625 156.868 44.4758C157.456 44.4864 157.845 44.8822 157.852 45.4401C157.86 45.974 157.5 46.3884 156.975 46.4416C156.847 46.4549 156.714 46.4495 156.583 46.4495C145.651 46.4495 134.719 46.4495 123.787 46.4495C123.646 46.4495 123.5 46.4575 123.362 46.4389C122.855 46.3699 122.516 45.9581 122.524 45.4374C122.531 44.9167 122.894 44.4598 123.403 44.497C124.082 44.5475 124.409 44.3297 124.691 43.6602C125.354 42.0823 127.179 41.1498 128.819 41.4128C128.96 41.4341 129.161 41.2959 129.281 41.1737C130.863 39.5745 133.367 39.5772 134.881 41.2215C135.189 41.5563 135.38 42.0052 135.649 42.3851C135.73 42.502 135.876 42.6322 136.004 42.6454C137.168 42.7517 138.067 43.2936 138.717 44.2792C138.779 44.3748 138.941 44.4572 139.059 44.4598C140.174 44.4731 141.289 44.4731 142.403 44.4598C142.534 44.4598 142.701 44.3748 142.785 44.2712C143.479 43.4052 144.364 42.8739 145.435 42.6321C145.586 42.5976 145.756 42.4435 145.832 42.3001C146.772 40.4671 148.612 39.5054 150.657 39.795C152.492 40.0553 154.017 41.5802 154.385 43.53C154.44 43.8249 154.458 44.1251 154.497 44.4678L154.495 44.4731Z" fill="white"/>
<path d="M132.836 38.2686C132.807 38.2525 132.795 38.2505 132.794 38.2445C132.328 36.7195 131.678 35.2469 131.59 33.6153C131.525 32.3861 131.874 31.3158 132.731 30.4447C133.316 29.8492 133.879 29.2276 134.463 28.628C134.613 28.4731 134.665 28.3263 134.64 28.103C134.27 24.7312 134.615 21.4499 135.788 18.2793C136.447 16.4989 137.368 14.8934 138.69 13.5636C139.192 13.0607 139.67 12.5336 140.151 12.0266C140.187 12.0326 140.21 12.0266 140.22 12.0367C140.935 12.7951 141.675 13.5254 142.356 14.3181C143.554 15.7143 144.327 17.376 144.888 19.1464C145.815 22.0696 146.074 25.0671 145.735 28.1231C145.712 28.3243 145.75 28.4611 145.889 28.6039C146.456 29.1833 146.994 29.7929 147.568 30.3602C148.543 31.3239 148.915 32.5108 148.76 33.8789C148.689 34.5086 148.543 35.1362 148.377 35.7478C148.165 36.5284 147.9 37.2929 147.656 38.0634C147.635 38.1298 147.606 38.1942 147.566 38.2968L147.352 38.0715C146.274 36.9348 145.195 35.7981 144.121 34.6574C144.001 34.5307 143.88 34.4804 143.713 34.4824C141.364 34.4884 139.016 34.4884 136.67 34.4824C136.49 34.4824 136.366 34.5387 136.241 34.6715C135.174 35.8082 134.098 36.9348 133.026 38.0674L132.834 38.2706L132.836 38.2686ZM141.441 21.2588C140.748 20.5265 139.64 20.5225 138.942 21.2507C138.247 21.973 138.238 23.1579 138.921 23.8923C139.604 24.6266 140.76 24.6306 141.448 23.9003C142.135 23.172 142.131 21.9891 141.443 21.2588H141.441Z" fill="white"/>
<path d="M137.992 36.4925C139.459 36.4906 140.931 36.4888 142.382 36.4851C142.744 38.5621 141.674 40.2698 140.187 41.9203C138.815 40.2532 137.62 38.5805 137.992 36.4925Z" fill="white"/>
</g>
</g>
<g filter="url(#filter2_d_534_3347)">
<g clip-path="url(#clip2_534_3347)">
<path d="M312.822 46.7171C310.967 46.7171 309.111 46.7171 307.257 46.7171C305.815 46.7171 304.99 45.8809 304.977 44.4372C304.966 43.3038 304.992 42.1793 305.457 41.1166C306.366 39.0432 307.926 37.7552 310.16 37.299C310.276 37.2747 310.443 37.3211 310.539 37.3951C311.871 38.4158 313.813 38.4147 315.143 37.3929C315.24 37.3189 315.405 37.278 315.525 37.299C318.393 37.7894 320.627 40.3776 320.687 43.2707C320.696 43.7214 320.696 44.1732 320.691 44.625C320.679 45.8456 319.81 46.7105 318.576 46.716C316.658 46.7227 314.741 46.7182 312.823 46.7182L312.822 46.7171Z" fill="white"/>
<path d="M307.771 28.3878C308.255 29.0705 308.736 29.7466 309.243 30.4624C309.119 30.4745 309.034 30.4889 308.949 30.4889C307.021 30.49 305.093 30.5021 303.167 30.4867C299.985 30.4624 297.621 28.4983 297.025 25.4075C296.38 22.066 298.593 18.9034 301.975 18.266C305.695 17.5657 308.878 20.3958 309.245 23.7362C309.426 25.3821 308.957 26.8347 307.951 28.1327C307.901 28.1979 307.85 28.2619 307.8 28.3271C307.795 28.3348 307.791 28.3448 307.771 28.3878ZM300.268 25.3689C300.86 25.3678 301.298 24.9237 301.293 24.3305C301.289 23.7351 300.847 23.2988 300.254 23.3032C299.663 23.3076 299.22 23.755 299.226 24.3427C299.231 24.9359 299.673 25.3711 300.267 25.37L300.268 25.3689ZM305.878 25.3689C306.476 25.381 306.923 24.9602 306.94 24.3659C306.958 23.7749 306.527 23.3209 305.936 23.3032C305.336 23.2866 304.894 23.7064 304.877 24.3062C304.861 24.9038 305.286 25.3556 305.878 25.3678V25.3689ZM304.111 24.3316C304.109 23.7296 303.678 23.2999 303.08 23.3021C302.483 23.3043 302.053 23.7395 302.057 24.3393C302.059 24.9359 302.495 25.37 303.09 25.3689C303.687 25.3667 304.113 24.9336 304.111 24.3316Z" fill="white"/>
<path d="M317.072 31.2633C317.492 30.6701 317.878 30.1266 318.266 29.5787C317.59 28.7668 317.178 27.861 317.066 26.8171C316.792 24.2599 318.783 21.7689 321.386 21.4331C323.989 21.0973 326.459 22.9122 326.878 25.4705C327.388 28.5768 325.154 31.2423 322.002 31.2754C320.446 31.292 318.889 31.2787 317.333 31.2776C317.264 31.2776 317.195 31.271 317.072 31.2644V31.2633ZM322.018 27.2501C322.523 27.2501 322.912 26.8569 322.911 26.3454C322.911 25.8329 322.522 25.4418 322.016 25.444C321.51 25.4462 321.118 25.8406 321.119 26.3476C321.119 26.8547 321.515 27.2501 322.018 27.2501ZM323.386 26.341C323.383 26.8547 323.763 27.2457 324.27 27.2501C324.773 27.2545 325.166 26.8624 325.17 26.352C325.175 25.8417 324.79 25.4485 324.282 25.4451C323.772 25.4418 323.389 25.8251 323.386 26.3399V26.341ZM320.643 26.3587C320.65 25.8417 320.277 25.454 319.768 25.4451C319.26 25.4374 318.873 25.8185 318.868 26.3333C318.862 26.8491 319.236 27.2402 319.743 27.249C320.246 27.2579 320.638 26.8712 320.643 26.3576V26.3587Z" fill="white"/>
<path d="M320.411 46.7149C321.212 45.9858 321.356 45.1209 321.367 44.172C321.386 42.599 321.126 41.1121 320.257 39.77C320.089 39.5126 319.904 39.2663 319.751 38.9404C319.883 38.9835 320.038 38.9946 320.143 39.073C321.225 39.8816 322.781 39.8827 323.865 39.0785C323.972 39.0001 324.149 38.9559 324.28 38.978C326.576 39.3801 328.404 41.5076 328.474 43.8494C328.487 44.2493 328.484 44.6492 328.478 45.0491C328.462 45.9339 327.811 46.6884 326.929 46.7027C324.789 46.737 322.647 46.7138 320.411 46.7138V46.7149Z" fill="white"/>
<path d="M305.939 39.0168C305.9 39.0732 305.864 39.1317 305.821 39.1858C304.856 40.4131 304.356 41.8071 304.312 43.3625C304.3 43.7822 304.301 44.2031 304.308 44.624C304.321 45.4193 304.612 46.1009 305.219 46.6852C305.12 46.7007 305.057 46.7184 304.995 46.7184C302.965 46.7195 300.934 46.7239 298.904 46.7184C297.998 46.7162 297.282 46.0998 297.215 45.2083C297.134 44.1412 297.152 43.0742 297.6 42.0656C298.327 40.4252 299.572 39.4012 301.322 38.9826C301.51 38.9373 301.662 38.955 301.833 39.0875C302.86 39.8851 304.457 39.8729 305.496 39.0897C305.606 39.0069 305.76 38.9826 305.895 38.9307L305.939 39.0157V39.0168Z" fill="white"/>
<path d="M316.008 33.4769C315.999 35.2068 314.56 36.5798 312.76 36.5765C311.065 36.5732 309.665 35.1604 309.67 33.4625C309.677 31.6796 311.073 30.2712 312.83 30.2779C314.617 30.2845 316.016 31.694 316.008 33.4769Z" fill="white"/>
<path d="M301.06 35.8189C301.062 34.3519 302.203 33.1854 303.635 33.1843C305.114 33.1832 306.272 34.3453 306.267 35.8277C306.263 37.2384 305.063 38.3872 303.604 38.3772C302.2 38.3684 301.057 37.2196 301.06 35.82V35.8189Z" fill="white"/>
<path d="M321.976 38.376C320.579 38.3793 319.419 37.2305 319.411 35.8365C319.403 34.3673 320.564 33.1798 322.003 33.1831C323.46 33.1864 324.625 34.3518 324.627 35.8088C324.631 37.2162 323.437 38.3727 321.976 38.376Z" fill="white"/>
</g>
</g>
<g filter="url(#filter3_d_534_3347)">
<g clip-path="url(#clip3_534_3347)">
<path d="M31.7729 166.31C34.0881 171.299 32.2345 176.584 28.4596 179.23C24.4683 182.026 19.1779 181.745 15.5878 178.583C11.9761 175.401 11.0168 170.244 13.25 165.974C14.084 164.38 15.2632 163.093 16.7716 162.113C18.2673 161.14 19.9063 160.593 21.6888 160.467C23.4784 160.341 25.1833 160.675 26.8458 161.426C24.2114 155.656 27.1379 150.236 30.7514 148.101C34.9689 145.608 40.19 146.218 43.5528 149.617C46.9292 153.03 47.5279 158.259 45.0621 162.328C42.7441 166.154 37.3599 168.798 31.7729 166.311V166.31ZM22.4506 162.733C18.0184 162.713 14.3806 166.318 14.3581 170.753C14.3355 175.208 17.9148 178.809 22.4046 178.845C26.8566 178.881 30.4881 175.287 30.517 170.817C30.5449 166.382 26.9251 162.753 22.4515 162.733L22.4506 162.733ZM36.2068 164.986C40.6687 164.975 44.2822 161.355 44.2732 156.903C44.2642 152.465 40.6579 148.879 36.1996 148.874C31.7386 148.868 28.1323 152.482 28.1422 156.948C28.1521 161.395 31.7657 164.996 36.2068 164.985V164.986Z" fill="white"/>
<path d="M13.69 156.448C13.681 154.174 14.1985 152.134 15.8755 150.554C17.5091 149.015 19.4799 148.285 21.7627 148.289C21.7627 147.945 21.7672 147.626 21.7618 147.307C21.7564 147.001 21.8601 146.765 22.1666 146.661C22.4597 146.562 22.6724 146.692 22.8536 146.917C23.5812 147.824 24.3115 148.729 25.0436 149.632C25.2717 149.914 25.2879 150.19 25.0589 150.478C24.3286 151.398 23.5983 152.318 22.8726 153.242C22.6896 153.474 22.4624 153.58 22.1793 153.493C21.8844 153.403 21.7853 153.162 21.7826 152.877C21.7781 152.508 21.7817 152.14 21.7817 151.777C18.6821 151.426 16.7662 153.385 17.1791 156.433C17.5452 156.433 17.9157 156.437 18.2863 156.432C18.5658 156.429 18.7821 156.528 18.8822 156.8C18.9868 157.085 18.8849 157.312 18.6559 157.497C17.7399 158.232 16.8275 158.973 15.9088 159.705C15.5806 159.966 15.3787 159.958 15.0406 159.691C14.1363 158.979 13.2383 158.26 12.3323 157.55C12.0897 157.36 11.9608 157.131 12.0627 156.833C12.1655 156.53 12.4161 156.438 12.7217 156.447C13.0319 156.456 13.342 156.448 13.6918 156.448H13.69Z" fill="white"/>
<path d="M44.9421 171.272C44.9485 173.542 44.4319 175.594 42.7423 177.178C41.1059 178.711 39.1342 179.438 36.8676 179.432C36.8676 179.788 36.8649 180.109 36.8686 180.43C36.8722 180.723 36.7649 180.949 36.4809 181.053C36.1933 181.158 35.9706 181.042 35.7885 180.815C35.0528 179.9 34.3153 178.986 33.5769 178.072C33.3461 177.787 33.3569 177.512 33.5841 177.226C34.3081 176.317 35.0302 175.406 35.7479 174.491C35.939 174.247 36.1734 174.132 36.4701 174.232C36.7604 174.33 36.8487 174.577 36.8505 174.862C36.8523 175.221 36.8505 175.578 36.8505 175.932C39.9078 176.327 41.8398 174.372 41.4612 171.288C41.0996 171.288 40.7318 171.284 40.364 171.289C40.0718 171.292 39.8446 171.197 39.7446 170.904C39.6454 170.613 39.7626 170.394 39.9889 170.213C40.8959 169.486 41.7984 168.753 42.7071 168.028C43.0398 167.762 43.249 167.76 43.5772 168.018C44.4914 168.736 45.3983 169.463 46.3125 170.18C46.5578 170.372 46.6705 170.609 46.5632 170.903C46.4604 171.186 46.2215 171.28 45.9294 171.273C45.6093 171.265 45.2884 171.271 44.9421 171.271V171.272Z" fill="white"/>
<path d="M22.4343 163.885C26.2479 163.887 29.3394 166.981 29.3376 170.79C29.3349 174.612 26.2588 177.691 22.4406 177.695C18.6062 177.699 15.5021 174.6 15.512 170.779C15.521 166.975 18.6269 163.882 22.4352 163.885H22.4343ZM21.8401 167.31C21.5453 167.349 21.2902 167.358 21.0495 167.42C20.1226 167.657 19.4744 168.565 19.5528 169.489C19.6394 170.512 20.3985 171.297 21.4056 171.355C22.0024 171.39 22.6038 171.353 23.2024 171.362C23.7812 171.371 24.1527 171.709 24.1599 172.215C24.1671 172.738 23.7948 173.079 23.1934 173.085C22.4144 173.094 21.6355 173.092 20.8565 173.102C20.3958 173.109 20.1497 173.323 20.1569 173.691C20.1632 174.044 20.4039 174.242 20.8466 174.249C21.1775 174.255 21.5084 174.25 21.8176 174.25C21.8483 174.316 21.8663 174.338 21.8672 174.358C21.8744 174.669 21.8771 174.981 21.8852 175.292C21.8969 175.728 22.1025 175.966 22.4613 175.963C22.8174 175.96 23.0257 175.717 23.0338 175.283C23.0401 174.95 23.0347 174.618 23.0347 174.255C23.1862 174.245 23.3025 174.238 23.4188 174.23C24.8388 174.148 25.7413 172.665 25.1309 171.388C24.754 170.597 24.0878 170.226 23.2241 170.212C22.6849 170.203 22.1449 170.23 21.6066 170.217C21.0675 170.205 20.6969 169.833 20.7042 169.347C20.7114 168.872 21.0648 168.535 21.5967 168.5C21.6923 168.494 21.7887 168.496 21.8843 168.496C22.5911 168.492 23.298 168.489 24.0057 168.482C24.4709 168.477 24.718 168.276 24.7189 167.911C24.7189 167.543 24.4709 167.338 24.0075 167.333C23.6775 167.329 23.3485 167.333 22.9914 167.333C22.9914 166.947 22.996 166.614 22.9905 166.281C22.9842 165.883 22.767 165.631 22.4325 165.62C22.0872 165.609 21.8501 165.872 21.8428 166.287C21.8365 166.621 21.8419 166.955 21.8419 167.31L21.8401 167.31Z" fill="white"/>
<path d="M36.1986 163.835C32.3841 163.833 29.2926 160.741 29.2935 156.932C29.2953 153.108 32.3651 150.031 36.1869 150.025C40.0195 150.019 43.129 153.119 43.1191 156.937C43.1101 160.741 40.0024 163.838 36.1977 163.835H36.1986ZM35.5991 152.903C35.4422 152.903 35.325 152.903 35.2087 152.903C34.418 152.908 33.6273 152.91 32.8357 152.919C32.4057 152.924 32.156 153.14 32.1587 153.491C32.1614 153.839 32.421 154.064 32.8384 154.069C33.1711 154.074 33.5038 154.069 33.8717 154.069V159.786C33.832 159.8 33.8094 159.815 33.7878 159.815C33.4885 159.818 33.1892 159.818 32.8889 159.824C32.4264 159.832 32.1812 160.037 32.1884 160.406C32.1947 160.771 32.4481 160.974 32.9097 160.973C33.6886 160.972 34.4676 160.965 35.2466 160.963C35.3719 160.963 35.4972 160.974 35.6405 160.981C35.6405 161.179 35.6351 161.334 35.6414 161.488C35.6559 161.852 35.8858 162.097 36.2103 162.101C36.5322 162.104 36.7693 161.86 36.7882 161.494C36.7973 161.321 36.79 161.148 36.79 160.93C37.2823 160.93 37.7151 160.959 38.1433 160.925C39.1567 160.843 39.9852 160.096 40.1764 159.13C40.3801 158.098 39.914 157.105 38.9962 156.616C38.9042 156.568 38.8123 156.519 38.7275 156.474C38.7338 156.428 38.7311 156.403 38.7402 156.382C39.5146 154.677 38.787 153.273 36.9469 152.906C36.8685 152.89 36.7855 152.769 36.7549 152.68C36.7215 152.583 36.7504 152.466 36.7441 152.359C36.7251 151.993 36.5286 151.774 36.2085 151.758C35.8695 151.741 35.6324 151.956 35.6009 152.326C35.5855 152.503 35.5982 152.681 35.5982 152.903H35.5991Z" fill="white"/>
<path d="M35.0681 159.799V157.554C35.1303 157.541 35.197 157.515 35.2638 157.514C36.1266 157.506 36.9894 157.496 37.8522 157.5C38.5626 157.505 39.0747 157.986 39.0837 158.634C39.0927 159.278 38.5879 159.782 37.8765 159.794C36.956 159.81 36.0355 159.799 35.0681 159.799Z" fill="white"/>
<path d="M35.0547 156.355V154.072C35.7074 154.072 36.3412 154.039 36.9714 154.082C37.5043 154.117 37.9064 154.633 37.9118 155.181C37.9163 155.747 37.5286 156.216 36.9642 156.322C36.8587 156.341 36.7505 156.352 36.6433 156.353C36.1303 156.357 35.6182 156.355 35.0547 156.355Z" fill="white"/>
</g>
</g>
<g filter="url(#filter4_d_534_3347)">
<path d="M429.911 173.265C430.553 173.864 430.669 174.876 430.404 175.715C430.142 176.552 429.549 177.253 428.941 177.877C427.008 179.867 424.633 181.42 422.051 182.399C422.866 181.634 423.785 180.953 424.336 179.982C424.888 179.013 424.946 177.64 424.107 176.899C423.779 176.612 423.343 176.455 422.923 176.332C420.967 175.773 418.902 175.764 416.871 175.649C414.841 175.534 412.753 175.279 410.969 174.292C410.032 173.774 409.21 173.019 408.635 172.114C408.051 171.184 407.87 170.183 407.844 169.105C409.078 170.61 410.978 171.415 412.859 171.916C416.074 172.763 419.445 172.862 422.75 172.591C424.691 172.434 426.681 172.155 428.571 172.624C429.056 172.747 429.54 172.919 429.91 173.266L429.911 173.265Z" fill="white"/>
<path d="M409.154 162.675C411.019 160.471 413.594 158.967 416.265 157.841C415.566 158.54 414.76 159.139 414.202 159.954C413.634 160.76 413.347 161.869 413.807 162.741C414.293 163.662 415.418 164.032 416.446 164.204C418.362 164.533 420.31 164.484 422.251 164.64C424.183 164.797 426.165 165.173 427.783 166.235C429.411 167.295 430.619 169.162 430.447 171.094C428.713 169.162 426.074 168.331 423.516 167.921C420.969 167.51 418.37 167.435 415.797 167.633C414.061 167.765 412.311 168.018 410.585 167.805C409.935 167.723 409.284 167.576 408.742 167.213C406.984 166.037 408.093 163.916 409.154 162.675Z" fill="white"/>
<path d="M419.06 151.839C408.89 151.839 400.644 160.085 400.644 170.255C400.644 180.426 408.89 188.671 419.06 188.671C429.231 188.671 437.476 180.427 437.476 170.255C437.476 160.084 429.231 151.839 419.06 151.839ZM419.06 186.531C409.999 186.531 402.654 179.185 402.654 170.124C402.654 161.064 409.999 153.717 419.06 153.717C428.122 153.717 435.466 161.063 435.466 170.124C435.466 179.186 428.122 186.531 419.06 186.531Z" fill="white"/>
<path d="M430.406 175.715C430.143 176.552 429.551 177.253 428.943 177.877C427.01 179.867 424.634 181.42 422.053 182.399C422.868 181.634 423.787 180.953 424.338 179.982C424.889 179.013 424.947 177.64 424.109 176.899C423.78 176.612 423.344 176.455 422.925 176.332C420.969 175.773 418.904 175.764 416.873 175.649C414.843 175.534 412.754 175.279 410.97 174.292C410.033 173.774 409.212 173.019 408.636 172.114C408.053 171.184 407.871 170.183 407.846 169.105C409.08 170.61 410.979 171.415 412.861 171.916C416.076 172.763 419.446 172.862 422.752 172.591C424.692 172.434 426.682 172.155 428.572 172.624C429.058 172.747 429.542 172.919 429.912 173.266C430.553 173.865 430.67 174.877 430.405 175.716L430.406 175.715Z" fill="#24C3BC"/>
<path d="M409.154 162.675C411.019 160.471 413.594 158.967 416.265 157.841C415.566 158.54 414.76 159.139 414.202 159.954C413.634 160.76 413.347 161.869 413.807 162.741C414.293 163.662 415.418 164.032 416.446 164.204C418.362 164.533 420.31 164.484 422.251 164.64C424.183 164.797 426.165 165.173 427.783 166.235C429.411 167.295 430.619 169.162 430.447 171.094C428.713 169.162 426.074 168.331 423.516 167.921C420.969 167.51 418.37 167.435 415.797 167.633C414.061 167.765 412.311 168.018 410.585 167.805C409.935 167.723 409.284 167.576 408.742 167.213C406.984 166.037 408.093 163.916 409.154 162.675Z" fill="#24C3BC"/>
<path d="M430.447 171.095C428.713 169.163 426.074 168.333 423.516 167.922C420.969 167.511 418.37 167.436 415.797 167.634C414.061 167.766 412.311 168.02 410.585 167.806C409.935 167.724 409.284 167.577 408.742 167.215C406.984 166.039 408.093 163.917 409.154 162.676C411.019 160.473 413.594 158.968 416.265 157.842C415.566 158.541 414.76 159.14 414.202 159.955C413.634 160.761 413.347 161.87 413.807 162.742C414.293 163.663 415.418 164.033 416.446 164.205C418.362 164.534 420.31 164.485 422.251 164.641C424.183 164.798 426.165 165.175 427.783 166.237C429.411 167.296 430.619 169.163 430.447 171.095Z" fill="white"/>
<path d="M430.406 175.715C430.143 176.552 429.551 177.253 428.943 177.877C427.01 179.867 424.634 181.42 422.053 182.399C422.868 181.634 423.787 180.953 424.338 179.982C424.889 179.013 424.947 177.64 424.109 176.899C423.78 176.612 423.344 176.455 422.925 176.332C420.969 175.773 418.904 175.764 416.873 175.649C414.843 175.534 412.754 175.279 410.97 174.292C410.033 173.774 409.212 173.019 408.636 172.114C408.053 171.184 407.871 170.183 407.846 169.105C409.08 170.61 410.979 171.415 412.861 171.916C416.076 172.763 419.446 172.862 422.752 172.591C424.692 172.434 426.682 172.155 428.572 172.624C429.058 172.747 429.542 172.919 429.912 173.266C430.553 173.865 430.67 174.877 430.405 175.716L430.406 175.715Z" fill="white"/>
</g>
<g filter="url(#filter5_d_534_3347)">
<path d="M48.1087 329.051C50.8867 329.054 53.6652 329.059 56.4432 329.059C64.5519 329.06 72.6606 329.059 80.7687 329.059C80.8959 329.059 81.0236 329.059 81.182 329.059C81.1874 329.862 80.9045 330.523 80.3996 331.075C79.3401 332.233 77.994 332.614 76.4937 332.454C75.2812 332.325 74.2244 331.832 73.498 330.787C73.2431 330.421 73.0911 329.98 72.9101 329.611C72.2289 331.73 70.6192 332.555 68.5327 332.466C66.6552 332.386 65.2314 331.516 64.6527 329.543C63.7737 331.679 62.3909 332.587 60.1842 332.484C58.3299 332.397 56.9584 331.335 56.3823 329.502C56.3473 329.604 56.3214 329.666 56.3042 329.73C56.0256 330.762 55.373 331.474 54.4633 331.955C52.6257 332.927 50.2314 332.551 48.916 331.101C48.5027 330.645 48.2796 330.095 48.1077 329.514V329.051H48.1087Z" fill="white"/>
<path d="M78.0156 334.479C78.0156 334.613 78.0156 334.721 78.0156 334.829C78.0156 338.816 78.0156 342.804 78.0156 346.792C78.0156 347.647 77.6481 348.027 76.8209 348.027C74.5915 348.028 72.3626 348.027 70.1332 348.027C70.0276 348.027 69.9215 348.027 69.7738 348.027C69.7738 347.871 69.7738 347.742 69.7738 347.613C69.7738 344.771 69.742 341.929 69.7873 339.087C69.8099 337.679 68.8464 336.756 67.5433 336.783C65.6055 336.822 63.6666 336.819 61.7287 336.784C60.4451 336.761 59.4961 337.696 59.5155 339.051C59.5564 341.903 59.5279 344.757 59.5279 347.61C59.5279 347.739 59.5279 347.867 59.5279 348.011C59.3937 348.017 59.2989 348.026 59.204 348.026C56.9428 348.027 54.6811 348.028 52.4199 348.026C51.6779 348.026 51.2877 347.625 51.2877 346.861C51.2861 342.84 51.2872 338.819 51.2877 334.798C51.2877 334.701 51.2958 334.604 51.3012 334.48C51.8708 334.48 52.4285 334.517 52.9804 334.473C54.1422 334.381 55.2011 333.968 56.1442 333.266C56.3226 333.133 56.4266 333.125 56.6119 333.261C58.9297 334.959 62.1248 334.951 64.4447 333.246C64.6037 333.129 64.6964 333.127 64.8586 333.245C67.2108 334.959 70.3827 334.957 72.7199 333.247C72.839 333.16 72.9215 333.087 73.081 333.206C74.4907 334.259 76.0718 334.663 77.8027 334.478C77.8555 334.473 77.9089 334.478 78.0161 334.478L78.0156 334.479Z" fill="white"/>
<path d="M80.1814 327.016H49.1289C49.1871 326.881 49.2291 326.773 49.2803 326.669C50.7008 323.769 52.1278 320.872 53.5392 317.968C53.7941 317.442 54.1551 317.207 54.735 317.208C61.3455 317.218 67.9556 317.218 74.5661 317.208C75.1454 317.207 75.5081 317.442 75.763 317.966C77.17 320.862 78.5916 323.749 80.0078 326.64C80.0601 326.746 80.1075 326.855 80.1819 327.016L80.1814 327.016Z" fill="white"/>
<path d="M67.784 338.854V348.003H61.5281V338.854H67.784Z" fill="white"/>
</g>
<g filter="url(#filter6_d_534_3347)">
<g clip-path="url(#clip4_534_3347)">
<path d="M390.873 328.571C390.874 327.176 390.326 326.105 389.034 325.513C388.617 325.321 388.119 325.22 387.658 325.22C381.672 325.2 375.688 325.202 369.703 325.209C367.83 325.212 366.477 326.563 366.475 328.422C366.471 336.14 366.472 343.857 366.475 351.574C366.475 353.203 367.458 354.389 369.069 354.74C369.111 354.749 369.149 354.774 369.188 354.792H388.174C388.353 354.741 388.533 354.696 388.709 354.638C390.039 354.205 390.862 353.026 390.869 351.525C390.876 350.039 390.87 348.552 390.87 347.066C390.87 340.901 390.867 334.736 390.873 328.571ZM372.586 351.897C372.586 352.479 372.107 352.955 371.522 352.955H369.637C369.052 352.955 368.574 352.479 368.574 351.897V350.02C368.574 349.438 369.052 348.962 369.637 348.962H371.522C372.107 348.962 372.586 349.438 372.586 350.02V351.897ZM388.075 352.282C387.997 352.361 387.888 352.409 387.769 352.409H374.737C374.498 352.409 374.303 352.214 374.303 351.977C374.303 351.859 374.352 351.75 374.431 351.672C374.509 351.594 374.618 351.545 374.737 351.545H387.769C388.008 351.545 388.203 351.739 388.203 351.977C388.203 352.095 388.154 352.204 388.075 352.282ZM388.075 350.245C387.997 350.323 387.888 350.372 387.769 350.372H374.737C374.498 350.372 374.303 350.178 374.303 349.94C374.303 349.822 374.352 349.713 374.431 349.636C374.509 349.557 374.618 349.509 374.737 349.509H387.769C388.008 349.509 388.203 349.703 388.203 349.94C388.203 350.058 388.154 350.167 388.075 350.245ZM389.313 347.264H367.756V329.217C367.756 327.742 368.958 326.546 370.44 326.546H386.629C388.111 326.546 389.313 327.742 389.313 329.217V347.264Z" fill="white"/>
<path d="M386.544 323.225C386.355 322.204 385.314 321.236 384.212 321.036C383.953 320.989 383.685 320.969 383.421 320.969C377.482 320.966 371.542 320.966 365.603 320.967C363.65 320.968 362.312 322.299 362.311 324.246C362.309 331.929 362.308 339.611 362.312 347.295C362.312 348.681 362.941 349.691 364.208 350.291C364.313 350.34 364.43 350.366 364.586 350.418V349.949C364.586 342.806 364.581 335.662 364.59 328.518C364.592 326.251 365.631 324.612 367.701 323.645C368.393 323.322 369.138 323.225 369.897 323.225C375.306 323.226 380.714 323.225 386.123 323.225H386.545H386.544Z" fill="white"/>
<path d="M376.759 328.8C376.298 329.259 375.765 329.653 375.396 330.189C375.022 330.718 374.831 331.448 375.135 332.021C375.456 332.626 376.199 332.869 376.878 332.983C378.144 333.199 379.43 333.166 380.711 333.269C381.987 333.372 383.295 333.621 384.364 334.318C385.439 335.015 386.237 336.241 386.123 337.511C384.978 336.241 383.235 335.696 381.547 335.425C379.864 335.155 378.149 335.107 376.449 335.236C375.304 335.323 374.148 335.49 373.008 335.35C372.579 335.296 372.15 335.199 371.791 334.961C370.63 334.188 371.362 332.795 372.063 331.978C373.295 330.53 374.995 329.541 376.759 328.802V328.8Z" fill="white"/>
<path d="M380.58 344.939C381.117 344.437 381.725 343.988 382.089 343.351C382.452 342.713 382.49 341.811 381.937 341.325C381.72 341.136 381.433 341.033 381.155 340.953C379.863 340.586 378.501 340.58 377.159 340.504C375.819 340.428 374.44 340.261 373.262 339.613C372.643 339.272 372.101 338.776 371.721 338.181C371.335 337.57 371.216 336.911 371.199 336.203C372.013 337.193 373.268 337.722 374.51 338.051C376.633 338.608 378.859 338.672 381.041 338.494C382.322 338.392 383.636 338.207 384.884 338.515C385.204 338.597 385.525 338.709 385.769 338.937C386.193 339.332 386.268 339.996 386.094 340.548C385.92 341.099 385.529 341.558 385.128 341.968C383.852 343.276 382.283 344.297 380.579 344.94L380.58 344.939Z" fill="white"/>
</g>
</g>
<g clip-path="url(#clip5_534_3347)">
<g filter="url(#filter7_d_534_3347)">
<g clip-path="url(#clip6_534_3347)">
<path d="M221.127 390.839C221.861 391.102 222.438 391.535 222.583 392.339C222.654 392.731 222.619 393.143 222.625 393.547C222.63 393.84 222.631 394.134 222.624 394.428C222.599 395.503 221.858 396.277 220.772 396.326C220.17 396.354 219.564 396.354 218.961 396.326C217.875 396.276 217.131 395.503 217.11 394.428C217.1 393.889 217.104 393.351 217.109 392.813C217.118 391.848 217.571 391.228 218.487 390.909C218.53 390.895 218.568 390.863 218.608 390.839C219.448 390.839 220.288 390.839 221.127 390.839Z" fill="white"/>
<path d="M219.233 413.752C219.233 414.952 219.235 416.153 219.233 417.354C219.231 417.918 219.06 418.016 218.557 417.745C216.564 416.669 214.574 415.588 212.578 414.518C212.257 414.346 212.119 414.107 212.12 413.751C212.125 411.362 212.121 408.972 212.125 406.583C212.125 406.1 212.323 405.986 212.752 406.217C214.8 407.32 216.844 408.43 218.895 409.528C219.146 409.662 219.24 409.834 219.238 410.112C219.228 411.325 219.233 412.538 219.233 413.752Z" fill="white"/>
<path d="M220.502 413.728C220.502 412.527 220.509 411.326 220.497 410.126C220.493 409.831 220.597 409.659 220.861 409.518C222.881 408.44 224.892 407.347 226.906 406.26C227.448 405.968 227.611 406.065 227.612 406.681C227.613 409.009 227.605 411.337 227.618 413.665C227.621 414.099 227.456 414.366 227.073 414.57C225.106 415.617 223.15 416.682 221.189 417.74C220.67 418.02 220.503 417.921 220.502 417.331C220.501 416.131 220.502 414.93 220.502 413.729L220.502 413.728Z" fill="white"/>
<path d="M219.875 408.599C219.769 408.555 219.663 408.521 219.568 408.47C217.521 407.365 215.475 406.262 213.434 405.147C213.302 405.074 213.138 404.91 213.138 404.789C213.138 404.668 213.304 404.506 213.437 404.434C215.423 403.349 217.419 402.279 219.406 401.194C219.735 401.015 220.02 401.023 220.344 401.199C222.331 402.283 224.327 403.352 226.313 404.438C226.444 404.509 226.587 404.674 226.597 404.805C226.606 404.911 226.445 405.072 226.321 405.14C224.28 406.254 222.233 407.358 220.187 408.462C220.091 408.514 219.987 408.55 219.875 408.599Z" fill="white"/>
<path d="M235.528 398.923C235.836 398.923 236.144 398.915 236.452 398.925C237.379 398.953 238.173 399.644 238.242 400.561C238.296 401.291 238.293 402.03 238.242 402.759C238.181 403.624 237.476 404.316 236.6 404.376C235.876 404.425 235.144 404.428 234.422 404.376C233.479 404.308 232.773 403.519 232.754 402.579C232.741 401.968 232.741 401.356 232.754 400.744C232.776 399.735 233.581 398.948 234.604 398.923C234.912 398.916 235.22 398.922 235.528 398.923Z" fill="white"/>
<path d="M204.201 420.399C203.905 420.399 203.609 420.406 203.314 420.399C202.349 420.376 201.552 419.675 201.485 418.72C201.436 418.014 201.437 417.3 201.486 416.594C201.547 415.706 202.245 415.007 203.138 414.946C203.861 414.897 204.593 414.896 205.316 414.948C206.258 415.016 206.96 415.806 206.979 416.748C206.992 417.36 206.993 417.971 206.979 418.583C206.956 419.577 206.16 420.367 205.162 420.398C204.842 420.408 204.521 420.399 204.2 420.4L204.201 420.399Z" fill="white"/>
<path d="M235.506 420.399C235.198 420.399 234.889 420.406 234.582 420.397C233.583 420.368 232.779 419.579 232.755 418.591C232.74 417.967 232.74 417.342 232.755 416.719C232.778 415.801 233.484 415.014 234.408 414.948C235.143 414.895 235.888 414.898 236.623 414.949C237.479 415.009 238.18 415.7 238.24 416.547C238.292 417.289 238.294 418.041 238.238 418.782C238.169 419.679 237.375 420.365 236.466 420.396C236.146 420.407 235.825 420.398 235.505 420.398L235.506 420.399Z" fill="white"/>
<path d="M206.983 401.684C206.983 401.978 206.989 402.272 206.982 402.565C206.957 403.525 206.254 404.311 205.29 404.379C204.579 404.428 203.859 404.426 203.148 404.377C202.254 404.317 201.549 403.621 201.488 402.737C201.439 402.019 201.437 401.292 201.489 400.575C201.558 399.641 202.357 398.943 203.304 398.925C203.92 398.912 204.537 398.911 205.153 398.925C206.153 398.948 206.949 399.739 206.98 400.73C206.99 401.048 206.981 401.366 206.982 401.684H206.983Z" fill="white"/>
<path d="M222.621 425.735C222.621 426.053 222.632 426.372 222.619 426.689C222.576 427.685 221.786 428.456 220.776 428.479C220.173 428.493 219.568 428.493 218.965 428.479C217.939 428.457 217.145 427.677 217.115 426.659C217.097 426.073 217.101 425.485 217.111 424.898C217.13 423.821 217.874 423.045 218.958 422.996C219.56 422.968 220.166 422.969 220.769 422.996C221.853 423.043 222.598 423.816 222.624 424.891C222.631 425.173 222.625 425.454 222.625 425.736C222.624 425.736 222.623 425.736 222.621 425.736L222.621 425.735Z" fill="white"/>
<path d="M208.52 400.091C208.358 399.936 208.105 399.802 208.05 399.612C207.993 399.418 208.109 399.161 208.19 398.946C208.221 398.865 208.363 398.82 208.462 398.77C210.656 397.635 212.851 396.501 215.046 395.367C215.439 395.165 215.738 395.191 215.953 395.44C216.234 395.766 216.128 396.215 215.693 396.444C214.758 396.936 213.816 397.415 212.877 397.901C211.61 398.555 210.344 399.211 209.076 399.862C208.926 399.94 208.762 399.993 208.52 400.091H208.52Z" fill="white"/>
<path d="M224.329 395.228C224.401 395.255 224.544 395.293 224.673 395.359C226.88 396.496 229.086 397.634 231.291 398.776C231.727 399.002 231.861 399.349 231.666 399.7C231.479 400.037 231.139 400.108 230.707 399.886C228.489 398.743 226.272 397.598 224.056 396.451C223.691 396.262 223.554 396.001 223.653 395.681C223.742 395.395 223.943 395.235 224.329 395.228L224.329 395.228Z" fill="white"/>
<path d="M216.101 423.481C216.092 423.958 215.636 424.232 215.176 424.014C214.676 423.778 214.189 423.514 213.698 423.26C211.951 422.358 210.202 421.459 208.46 420.545C208.288 420.454 208.071 420.289 208.042 420.128C208.004 419.921 208.077 419.641 208.207 419.47C208.388 419.231 208.681 419.254 208.948 419.393C209.92 419.896 210.891 420.397 211.864 420.899C213.121 421.547 214.377 422.194 215.634 422.841C215.899 422.977 216.114 423.146 216.101 423.481H216.101Z" fill="white"/>
<path d="M224.178 424.16C224.019 424.018 223.799 423.895 223.69 423.708C223.551 423.472 223.614 423.204 223.837 423.012C223.928 422.934 224.042 422.878 224.15 422.822C226.28 421.721 228.409 420.62 230.538 419.521C230.669 419.453 230.8 419.378 230.939 419.334C231.251 419.235 231.505 419.339 231.661 419.618C231.814 419.892 231.782 420.166 231.542 420.384C231.444 420.473 231.318 420.534 231.198 420.596C229.058 421.703 226.918 422.809 224.776 423.912C224.615 423.994 224.441 424.052 224.179 424.159L224.178 424.16Z" fill="white"/>
<path d="M204.849 409.69C204.849 410.742 204.851 411.795 204.849 412.848C204.848 413.385 204.629 413.656 204.213 413.649C203.799 413.643 203.587 413.367 203.587 412.827C203.585 410.722 203.587 408.616 203.587 406.51C203.587 406.437 203.583 406.363 203.59 406.29C203.626 405.903 203.874 405.667 204.233 405.673C204.598 405.679 204.842 405.914 204.845 406.31C204.854 407.437 204.848 408.563 204.848 409.689H204.85L204.849 409.69Z" fill="white"/>
<path d="M234.885 409.668C234.885 408.59 234.883 407.513 234.885 406.436C234.887 405.931 235.114 405.665 235.522 405.672C235.917 405.679 236.146 405.944 236.147 406.422C236.15 408.588 236.148 410.756 236.149 412.922C236.149 413.211 236.074 413.49 235.783 413.579C235.594 413.637 235.299 413.636 235.169 413.526C235.01 413.392 234.903 413.117 234.897 412.9C234.87 411.823 234.885 410.745 234.885 409.668V409.668Z" fill="white"/>
<path d="M208.605 403.286C208.71 403.317 208.823 403.333 208.919 403.381C209.37 403.608 209.821 403.834 210.262 404.078C210.619 404.276 210.714 404.582 210.548 404.914C210.377 405.254 210.05 405.363 209.672 405.178C209.209 404.95 208.75 404.712 208.299 404.461C208.015 404.303 207.898 404.021 208.032 403.74C208.129 403.537 208.356 403.395 208.525 403.226C208.552 403.246 208.578 403.266 208.605 403.286Z" fill="white"/>
<path d="M231.742 404.071C231.674 404.156 231.573 404.369 231.405 404.472C230.964 404.738 230.499 404.967 230.033 405.19C229.675 405.361 229.355 405.246 229.188 404.919C229.018 404.589 229.111 404.278 229.467 404.082C229.908 403.839 230.355 403.602 230.81 403.386C231.282 403.162 231.758 403.456 231.742 404.072V404.071Z" fill="white"/>
<path d="M210.617 414.825C210.551 414.907 210.452 415.119 210.285 415.22C209.844 415.488 209.38 415.718 208.914 415.942C208.565 416.111 208.216 415.993 208.057 415.686C207.898 415.377 208.002 415.022 208.333 414.839C208.786 414.589 209.243 414.346 209.711 414.128C210.164 413.916 210.614 414.209 210.617 414.824V414.825Z" fill="white"/>
<path d="M229.779 414.053C229.847 414.075 229.97 414.096 230.078 414.15C230.507 414.365 230.935 414.582 231.355 414.811C231.722 415.011 231.843 415.349 231.684 415.672C231.518 416.007 231.157 416.111 230.767 415.916C230.316 415.691 229.868 415.458 229.426 415.216C229.153 415.067 229.058 414.818 229.14 414.527C229.219 414.246 229.409 414.065 229.779 414.053Z" fill="white"/>
<path d="M220.501 420.859C220.5 421.458 220.29 421.738 219.852 421.728C219.388 421.718 219.211 421.417 219.233 420.682C219.249 420.182 219.477 419.93 219.901 419.948C220.335 419.967 220.503 420.223 220.501 420.859Z" fill="white"/>
<path d="M220.502 398.414C220.498 399.137 220.249 399.429 219.772 399.369C219.368 399.319 219.225 399.063 219.233 398.401C219.239 397.891 219.419 397.633 219.795 397.597C220.147 397.563 220.422 397.766 220.481 398.115C220.503 398.246 220.5 398.383 220.502 398.414Z" fill="white"/>
</g>
</g>
</g>
<defs>
<filter id="filter0_d_534_3347" x="176.678" y="161.811" width="93.0269" height="97.218" filterUnits="userSpaceOnUse" color-interpolation-filters="sRGB">
<feFlood flood-opacity="0" result="BackgroundImageFix"/>
<feColorMatrix in="SourceAlpha" type="matrix" values="0 0 0 0 0 0 0 0 0 0 0 0 0 0 0 0 0 0 127 0" result="hardAlpha"/>
<feOffset/>
<feGaussianBlur stdDeviation="10"/>
<feColorMatrix type="matrix" values="0 0 0 0 0 0 0 0 0 0 0 0 0 0 0 0 0 0 1 0"/>
<feBlend mode="normal" in2="BackgroundImageFix" result="effect1_dropShadow_534_3347"/>
<feBlend mode="normal" in="SourceGraphic" in2="effect1_dropShadow_534_3347" result="shape"/>
</filter>
<filter id="filter1_d_534_3347" x="120.523" y="12.0266" width="39.3291" height="39.3289" filterUnits="userSpaceOnUse" color-interpolation-filters="sRGB">
<feFlood flood-opacity="0" result="BackgroundImageFix"/>
<feColorMatrix in="SourceAlpha" type="matrix" values="0 0 0 0 0 0 0 0 0 0 0 0 0 0 0 0 0 0 127 0" result="hardAlpha"/>
<feOffset dy="2"/>
<feGaussianBlur stdDeviation="1"/>
<feComposite in2="hardAlpha" operator="out"/>
<feColorMatrix type="matrix" values="0 0 0 0 0 0 0 0 0 0 0 0 0 0 0 0 0 0 0.15 0"/>
<feBlend mode="normal" in2="BackgroundImageFix" result="effect1_dropShadow_534_3347"/>
<feBlend mode="normal" in="SourceGraphic" in2="effect1_dropShadow_534_3347" result="shape"/>
</filter>
<filter id="filter2_d_534_3347" x="294.913" y="18.1589" width="35.5703" height="32.5637" filterUnits="userSpaceOnUse" color-interpolation-filters="sRGB">
<feFlood flood-opacity="0" result="BackgroundImageFix"/>
<feColorMatrix in="SourceAlpha" type="matrix" values="0 0 0 0 0 0 0 0 0 0 0 0 0 0 0 0 0 0 127 0" result="hardAlpha"/>
<feOffset dy="2"/>
<feGaussianBlur stdDeviation="1"/>
<feComposite in2="hardAlpha" operator="out"/>
<feColorMatrix type="matrix" values="0 0 0 0 0 0 0 0 0 0 0 0 0 0 0 0 0 0 0.15 0"/>
<feBlend mode="normal" in2="BackgroundImageFix" result="effect1_dropShadow_534_3347"/>
<feBlend mode="normal" in="SourceGraphic" in2="effect1_dropShadow_534_3347" result="shape"/>
</filter>
<filter id="filter3_d_534_3347" x="10.0266" y="146.577" width="38.5771" height="38.5771" filterUnits="userSpaceOnUse" color-interpolation-filters="sRGB">
<feFlood flood-opacity="0" result="BackgroundImageFix"/>
<feColorMatrix in="SourceAlpha" type="matrix" values="0 0 0 0 0 0 0 0 0 0 0 0 0 0 0 0 0 0 127 0" result="hardAlpha"/>
<feOffset dy="2"/>
<feGaussianBlur stdDeviation="1"/>
<feComposite in2="hardAlpha" operator="out"/>
<feColorMatrix type="matrix" values="0 0 0 0 0 0 0 0 0 0 0 0 0 0 0 0 0 0 0.15 0"/>
<feBlend mode="normal" in2="BackgroundImageFix" result="effect1_dropShadow_534_3347"/>
<feBlend mode="normal" in="SourceGraphic" in2="effect1_dropShadow_534_3347" result="shape"/>
</filter>
<filter id="filter4_d_534_3347" x="398.644" y="151.839" width="40.832" height="40.8323" filterUnits="userSpaceOnUse" color-interpolation-filters="sRGB">
<feFlood flood-opacity="0" result="BackgroundImageFix"/>
<feColorMatrix in="SourceAlpha" type="matrix" values="0 0 0 0 0 0 0 0 0 0 0 0 0 0 0 0 0 0 127 0" result="hardAlpha"/>
<feOffset dy="2"/>
<feGaussianBlur stdDeviation="1"/>
<feComposite in2="hardAlpha" operator="out"/>
<feColorMatrix type="matrix" values="0 0 0 0 0 0 0 0 0 0 0 0 0 0 0 0 0 0 0.15 0"/>
<feBlend mode="normal" in2="BackgroundImageFix" result="effect1_dropShadow_534_3347"/>
<feBlend mode="normal" in="SourceGraphic" in2="effect1_dropShadow_534_3347" result="shape"/>
</filter>
<filter id="filter5_d_534_3347" x="46.1077" y="317.208" width="37.0745" height="34.8188" filterUnits="userSpaceOnUse" color-interpolation-filters="sRGB">
<feFlood flood-opacity="0" result="BackgroundImageFix"/>
<feColorMatrix in="SourceAlpha" type="matrix" values="0 0 0 0 0 0 0 0 0 0 0 0 0 0 0 0 0 0 127 0" result="hardAlpha"/>
<feOffset dy="2"/>
<feGaussianBlur stdDeviation="1"/>
<feComposite in2="hardAlpha" operator="out"/>
<feColorMatrix type="matrix" values="0 0 0 0 0 0 0 0 0 0 0 0 0 0 0 0 0 0 0.15 0"/>
<feBlend mode="normal" in2="BackgroundImageFix" result="effect1_dropShadow_534_3347"/>
<feBlend mode="normal" in="SourceGraphic" in2="effect1_dropShadow_534_3347" result="shape"/>
</filter>
<filter id="filter6_d_534_3347" x="360.309" y="320.966" width="32.564" height="37.8254" filterUnits="userSpaceOnUse" color-interpolation-filters="sRGB">
<feFlood flood-opacity="0" result="BackgroundImageFix"/>
<feColorMatrix in="SourceAlpha" type="matrix" values="0 0 0 0 0 0 0 0 0 0 0 0 0 0 0 0 0 0 127 0" result="hardAlpha"/>
<feOffset dy="2"/>
<feGaussianBlur stdDeviation="1"/>
<feComposite in2="hardAlpha" operator="out"/>
<feColorMatrix type="matrix" values="0 0 0 0 0 0 0 0 0 0 0 0 0 0 0 0 0 0 0.15 0"/>
<feBlend mode="normal" in2="BackgroundImageFix" result="effect1_dropShadow_534_3347"/>
<feBlend mode="normal" in="SourceGraphic" in2="effect1_dropShadow_534_3347" result="shape"/>
</filter>
<filter id="filter7_d_534_3347" x="199.449" y="390.839" width="40.832" height="41.6506" filterUnits="userSpaceOnUse" color-interpolation-filters="sRGB">
<feFlood flood-opacity="0" result="BackgroundImageFix"/>
<feColorMatrix in="SourceAlpha" type="matrix" values="0 0 0 0 0 0 0 0 0 0 0 0 0 0 0 0 0 0 127 0" result="hardAlpha"/>
<feOffset dy="2"/>
<feGaussianBlur stdDeviation="1"/>
<feComposite in2="hardAlpha" operator="out"/>
<feColorMatrix type="matrix" values="0 0 0 0 0 0 0 0 0 0 0 0 0 0 0 0 0 0 0.15 0"/>
<feBlend mode="normal" in2="BackgroundImageFix" result="effect1_dropShadow_534_3347"/>
<feBlend mode="normal" in="SourceGraphic" in2="effect1_dropShadow_534_3347" result="shape"/>
</filter>
<linearGradient id="paint0_linear_534_3347" x1="164.106" y1="210.421" x2="282.284" y2="210.421" gradientUnits="userSpaceOnUse">
<stop stop-color="#2FC3BC"/>
<stop offset="0.08" stop-color="#40CBC4"/>
<stop offset="0.27" stop-color="#67DDD8"/>
<stop offset="0.46" stop-color="#85ECE7"/>
<stop offset="0.65" stop-color="#9BF6F2"/>
<stop offset="0.83" stop-color="#A8FCF8"/>
<stop offset="1" stop-color="#ADFFFB"/>
</linearGradient>
<linearGradient id="paint1_linear_534_3347" x1="191.661" y1="178.947" x2="254.611" y2="242.017" gradientUnits="userSpaceOnUse">
<stop stop-color="#ADFFFB"/>
<stop offset="0.05" stop-color="#A8FCF8"/>
<stop offset="0.09" stop-color="#9BF6F2"/>
<stop offset="0.15" stop-color="#85ECE7"/>
<stop offset="0.2" stop-color="#67DDD8"/>
<stop offset="0.25" stop-color="#40CBC4"/>
<stop offset="0.27" stop-color="#2FC3BC"/>
<stop offset="0.47" stop-color="#ADFFFB"/>
<stop offset="0.55" stop-color="#A8FCF8"/>
<stop offset="0.63" stop-color="#9BF6F2"/>
<stop offset="0.71" stop-color="#85ECE7"/>
<stop offset="0.8" stop-color="#67DDD8"/>
<stop offset="0.89" stop-color="#40CBC4"/>
<stop offset="0.92" stop-color="#2FC3BC"/>
</linearGradient>
<linearGradient id="paint2_linear_534_3347" x1="127.472" y1="272.435" x2="219.673" y2="272.435" gradientUnits="userSpaceOnUse">
<stop stop-color="#2FC3BC"/>
<stop offset="0.08" stop-color="#40CBC4"/>
<stop offset="0.27" stop-color="#67DDD8"/>
<stop offset="0.46" stop-color="#85ECE7"/>
<stop offset="0.65" stop-color="#9BF6F2"/>
<stop offset="0.83" stop-color="#A8FCF8"/>
<stop offset="1" stop-color="#ADFFFB"/>
</linearGradient>
<linearGradient id="paint3_linear_534_3347" x1="127.472" y1="303.695" x2="220.381" y2="303.695" gradientUnits="userSpaceOnUse">
<stop stop-color="#2FC3BC"/>
<stop offset="0.08" stop-color="#40CBC4"/>
<stop offset="0.27" stop-color="#67DDD8"/>
<stop offset="0.46" stop-color="#85ECE7"/>
<stop offset="0.65" stop-color="#9BF6F2"/>
<stop offset="0.83" stop-color="#A8FCF8"/>
<stop offset="1" stop-color="#ADFFFB"/>
</linearGradient>
<linearGradient id="paint4_linear_534_3347" x1="189.899" y1="409.44" x2="249.093" y2="409.44" gradientUnits="userSpaceOnUse">
<stop stop-color="#2FC3BC"/>
<stop offset="0.08" stop-color="#40CBC4"/>
<stop offset="0.27" stop-color="#67DDD8"/>
<stop offset="0.46" stop-color="#85ECE7"/>
<stop offset="0.65" stop-color="#9BF6F2"/>
<stop offset="0.83" stop-color="#A8FCF8"/>
<stop offset="1" stop-color="#ADFFFB"/>
</linearGradient>
<linearGradient id="paint5_linear_534_3347" x1="126.906" y1="198.228" x2="141.735" y2="198.228" gradientUnits="userSpaceOnUse">
<stop stop-color="#2FC3BC"/>
<stop offset="0.08" stop-color="#40CBC4"/>
<stop offset="0.27" stop-color="#67DDD8"/>
<stop offset="0.46" stop-color="#85ECE7"/>
<stop offset="0.65" stop-color="#9BF6F2"/>
<stop offset="0.83" stop-color="#A8FCF8"/>
<stop offset="1" stop-color="#ADFFFB"/>
</linearGradient>
<linearGradient id="paint6_linear_534_3347" x1="114.928" y1="174.408" x2="172.29" y2="246.454" gradientUnits="userSpaceOnUse">
<stop stop-color="#2FC3BC"/>
<stop offset="0.08" stop-color="#40CBC4"/>
<stop offset="0.27" stop-color="#67DDD8"/>
<stop offset="0.46" stop-color="#85ECE7"/>
<stop offset="0.65" stop-color="#9BF6F2"/>
<stop offset="0.83" stop-color="#A8FCF8"/>
<stop offset="1" stop-color="#ADFFFB"/>
</linearGradient>
<linearGradient id="paint7_linear_534_3347" x1="90.4443" y1="193.902" x2="148.246" y2="266.5" gradientUnits="userSpaceOnUse">
<stop stop-color="#2FC3BC"/>
<stop offset="0.08" stop-color="#40CBC4"/>
<stop offset="0.27" stop-color="#67DDD8"/>
<stop offset="0.46" stop-color="#85ECE7"/>
<stop offset="0.65" stop-color="#9BF6F2"/>
<stop offset="0.83" stop-color="#A8FCF8"/>
<stop offset="1" stop-color="#ADFFFB"/>
</linearGradient>
<linearGradient id="paint8_linear_534_3347" x1="46.5515" y1="308.554" x2="83.378" y2="354.806" gradientUnits="userSpaceOnUse">
<stop stop-color="#2FC3BC"/>
<stop offset="0.08" stop-color="#40CBC4"/>
<stop offset="0.27" stop-color="#67DDD8"/>
<stop offset="0.46" stop-color="#85ECE7"/>
<stop offset="0.65" stop-color="#9BF6F2"/>
<stop offset="0.83" stop-color="#A8FCF8"/>
<stop offset="1" stop-color="#ADFFFB"/>
</linearGradient>
<linearGradient id="paint9_linear_534_3347" x1="172.698" y1="127.69" x2="181.923" y2="139.277" gradientUnits="userSpaceOnUse">
<stop stop-color="#2FC3BC"/>
<stop offset="0.08" stop-color="#40CBC4"/>
<stop offset="0.27" stop-color="#67DDD8"/>
<stop offset="0.46" stop-color="#85ECE7"/>
<stop offset="0.65" stop-color="#9BF6F2"/>
<stop offset="0.83" stop-color="#A8FCF8"/>
<stop offset="1" stop-color="#ADFFFB"/>
</linearGradient>
<linearGradient id="paint10_linear_534_3347" x1="183.89" y1="103.49" x2="163.475" y2="193.229" gradientUnits="userSpaceOnUse">
<stop stop-color="#2FC3BC"/>
<stop offset="0.08" stop-color="#40CBC4"/>
<stop offset="0.27" stop-color="#67DDD8"/>
<stop offset="0.46" stop-color="#85ECE7"/>
<stop offset="0.65" stop-color="#9BF6F2"/>
<stop offset="0.83" stop-color="#A8FCF8"/>
<stop offset="1" stop-color="#ADFFFB"/>
</linearGradient>
<linearGradient id="paint11_linear_534_3347" x1="153.353" y1="96.5429" x2="132.782" y2="186.971" gradientUnits="userSpaceOnUse">
<stop stop-color="#2FC3BC"/>
<stop offset="0.08" stop-color="#40CBC4"/>
<stop offset="0.27" stop-color="#67DDD8"/>
<stop offset="0.46" stop-color="#85ECE7"/>
<stop offset="0.65" stop-color="#9BF6F2"/>
<stop offset="0.83" stop-color="#A8FCF8"/>
<stop offset="1" stop-color="#ADFFFB"/>
</linearGradient>
<linearGradient id="paint12_linear_534_3347" x1="36.1777" y1="133.792" x2="23.071" y2="191.406" gradientUnits="userSpaceOnUse">
<stop stop-color="#2FC3BC"/>
<stop offset="0.08" stop-color="#40CBC4"/>
<stop offset="0.27" stop-color="#67DDD8"/>
<stop offset="0.46" stop-color="#85ECE7"/>
<stop offset="0.65" stop-color="#9BF6F2"/>
<stop offset="0.83" stop-color="#A8FCF8"/>
<stop offset="1" stop-color="#ADFFFB"/>
</linearGradient>
<linearGradient id="paint13_linear_534_3347" x1="256.507" y1="119.43" x2="253.224" y2="133.862" gradientUnits="userSpaceOnUse">
<stop stop-color="#2FC3BC"/>
<stop offset="0.08" stop-color="#40CBC4"/>
<stop offset="0.27" stop-color="#67DDD8"/>
<stop offset="0.46" stop-color="#85ECE7"/>
<stop offset="0.65" stop-color="#9BF6F2"/>
<stop offset="0.83" stop-color="#A8FCF8"/>
<stop offset="1" stop-color="#ADFFFB"/>
</linearGradient>
<linearGradient id="paint14_linear_534_3347" x1="282.437" y1="113.069" x2="199.445" y2="153.159" gradientUnits="userSpaceOnUse">
<stop stop-color="#2FC3BC"/>
<stop offset="0.08" stop-color="#40CBC4"/>
<stop offset="0.27" stop-color="#67DDD8"/>
<stop offset="0.46" stop-color="#85ECE7"/>
<stop offset="0.65" stop-color="#9BF6F2"/>
<stop offset="0.83" stop-color="#A8FCF8"/>
<stop offset="1" stop-color="#ADFFFB"/>
</linearGradient>
<linearGradient id="paint15_linear_534_3347" x1="268.835" y1="84.9114" x2="185.206" y2="125.309" gradientUnits="userSpaceOnUse">
<stop stop-color="#2FC3BC"/>
<stop offset="0.08" stop-color="#40CBC4"/>
<stop offset="0.27" stop-color="#67DDD8"/>
<stop offset="0.46" stop-color="#85ECE7"/>
<stop offset="0.65" stop-color="#9BF6F2"/>
<stop offset="0.83" stop-color="#A8FCF8"/>
<stop offset="1" stop-color="#ADFFFB"/>
</linearGradient>
<linearGradient id="paint16_linear_534_3347" x1="166.59" y1="16.7173" x2="113.309" y2="42.4563" gradientUnits="userSpaceOnUse">
<stop stop-color="#2FC3BC"/>
<stop offset="0.08" stop-color="#40CBC4"/>
<stop offset="0.27" stop-color="#67DDD8"/>
<stop offset="0.46" stop-color="#85ECE7"/>
<stop offset="0.65" stop-color="#9BF6F2"/>
<stop offset="0.83" stop-color="#A8FCF8"/>
<stop offset="1" stop-color="#ADFFFB"/>
</linearGradient>
<linearGradient id="paint17_linear_534_3347" x1="315.236" y1="179.668" x2="301.889" y2="186.115" gradientUnits="userSpaceOnUse">
<stop stop-color="#2FC3BC"/>
<stop offset="0.08" stop-color="#40CBC4"/>
<stop offset="0.27" stop-color="#67DDD8"/>
<stop offset="0.46" stop-color="#85ECE7"/>
<stop offset="0.65" stop-color="#9BF6F2"/>
<stop offset="0.83" stop-color="#A8FCF8"/>
<stop offset="1" stop-color="#ADFFFB"/>
</linearGradient>
<linearGradient id="paint18_linear_534_3347" x1="336.389" y1="195.934" x2="253.356" y2="155.932" gradientUnits="userSpaceOnUse">
<stop stop-color="#2FC3BC"/>
<stop offset="0.08" stop-color="#40CBC4"/>
<stop offset="0.27" stop-color="#67DDD8"/>
<stop offset="0.46" stop-color="#85ECE7"/>
<stop offset="0.65" stop-color="#9BF6F2"/>
<stop offset="0.83" stop-color="#A8FCF8"/>
<stop offset="1" stop-color="#ADFFFB"/>
</linearGradient>
<linearGradient id="paint19_linear_534_3347" x1="349.962" y1="167.762" x2="266.291" y2="127.453" gradientUnits="userSpaceOnUse">
<stop stop-color="#2FC3BC"/>
<stop offset="0.08" stop-color="#40CBC4"/>
<stop offset="0.27" stop-color="#67DDD8"/>
<stop offset="0.46" stop-color="#85ECE7"/>
<stop offset="0.65" stop-color="#9BF6F2"/>
<stop offset="0.83" stop-color="#A8FCF8"/>
<stop offset="1" stop-color="#ADFFFB"/>
</linearGradient>
<linearGradient id="paint20_linear_534_3347" x1="339.613" y1="45.4625" x2="286.303" y2="19.7801" gradientUnits="userSpaceOnUse">
<stop stop-color="#2FC3BC"/>
<stop offset="0.08" stop-color="#40CBC4"/>
<stop offset="0.27" stop-color="#67DDD8"/>
<stop offset="0.46" stop-color="#85ECE7"/>
<stop offset="0.65" stop-color="#9BF6F2"/>
<stop offset="0.83" stop-color="#A8FCF8"/>
<stop offset="1" stop-color="#ADFFFB"/>
</linearGradient>
<linearGradient id="paint21_linear_534_3347" x1="304.68" y1="263.057" x2="291.326" y2="256.623" gradientUnits="userSpaceOnUse">
<stop stop-color="#2FC3BC"/>
<stop offset="0.08" stop-color="#40CBC4"/>
<stop offset="0.27" stop-color="#67DDD8"/>
<stop offset="0.46" stop-color="#85ECE7"/>
<stop offset="0.65" stop-color="#9BF6F2"/>
<stop offset="0.83" stop-color="#A8FCF8"/>
<stop offset="1" stop-color="#ADFFFB"/>
</linearGradient>
<linearGradient id="paint22_linear_534_3347" x1="305.133" y1="289.706" x2="284.624" y2="199.988" gradientUnits="userSpaceOnUse">
<stop stop-color="#2FC3BC"/>
<stop offset="0.08" stop-color="#40CBC4"/>
<stop offset="0.27" stop-color="#67DDD8"/>
<stop offset="0.46" stop-color="#85ECE7"/>
<stop offset="0.65" stop-color="#9BF6F2"/>
<stop offset="0.83" stop-color="#A8FCF8"/>
<stop offset="1" stop-color="#ADFFFB"/>
</linearGradient>
<linearGradient id="paint23_linear_534_3347" x1="335.662" y1="282.727" x2="314.996" y2="192.321" gradientUnits="userSpaceOnUse">
<stop stop-color="#2FC3BC"/>
<stop offset="0.08" stop-color="#40CBC4"/>
<stop offset="0.27" stop-color="#67DDD8"/>
<stop offset="0.46" stop-color="#85ECE7"/>
<stop offset="0.65" stop-color="#9BF6F2"/>
<stop offset="0.83" stop-color="#A8FCF8"/>
<stop offset="1" stop-color="#ADFFFB"/>
</linearGradient>
<linearGradient id="paint24_linear_534_3347" x1="424.999" y1="198.383" x2="411.832" y2="140.783" gradientUnits="userSpaceOnUse">
<stop stop-color="#2FC3BC"/>
<stop offset="0.08" stop-color="#40CBC4"/>
<stop offset="0.27" stop-color="#67DDD8"/>
<stop offset="0.46" stop-color="#85ECE7"/>
<stop offset="0.65" stop-color="#9BF6F2"/>
<stop offset="0.83" stop-color="#A8FCF8"/>
<stop offset="1" stop-color="#ADFFFB"/>
</linearGradient>
<linearGradient id="paint25_linear_534_3347" x1="232.785" y1="306.823" x2="229.487" y2="292.394" gradientUnits="userSpaceOnUse">
<stop stop-color="#2FC3BC"/>
<stop offset="0.08" stop-color="#40CBC4"/>
<stop offset="0.27" stop-color="#67DDD8"/>
<stop offset="0.46" stop-color="#85ECE7"/>
<stop offset="0.65" stop-color="#9BF6F2"/>
<stop offset="0.83" stop-color="#A8FCF8"/>
<stop offset="1" stop-color="#ADFFFB"/>
</linearGradient>
<linearGradient id="paint26_linear_534_3347" x1="212.193" y1="323.79" x2="269.479" y2="251.685" gradientUnits="userSpaceOnUse">
<stop stop-color="#2FC3BC"/>
<stop offset="0.08" stop-color="#40CBC4"/>
<stop offset="0.27" stop-color="#67DDD8"/>
<stop offset="0.46" stop-color="#85ECE7"/>
<stop offset="0.65" stop-color="#9BF6F2"/>
<stop offset="0.83" stop-color="#A8FCF8"/>
<stop offset="1" stop-color="#ADFFFB"/>
</linearGradient>
<linearGradient id="paint27_linear_534_3347" x1="236.698" y1="343.258" x2="294.423" y2="270.599" gradientUnits="userSpaceOnUse">
<stop stop-color="#2FC3BC"/>
<stop offset="0.08" stop-color="#40CBC4"/>
<stop offset="0.27" stop-color="#67DDD8"/>
<stop offset="0.46" stop-color="#85ECE7"/>
<stop offset="0.65" stop-color="#9BF6F2"/>
<stop offset="0.83" stop-color="#A8FCF8"/>
<stop offset="1" stop-color="#ADFFFB"/>
</linearGradient>
<linearGradient id="paint28_linear_534_3347" x1="358.471" y1="360.369" x2="395.248" y2="314.074" gradientUnits="userSpaceOnUse">
<stop stop-color="#2FC3BC"/>
<stop offset="0.08" stop-color="#40CBC4"/>
<stop offset="0.27" stop-color="#67DDD8"/>
<stop offset="0.46" stop-color="#85ECE7"/>
<stop offset="0.65" stop-color="#9BF6F2"/>
<stop offset="0.83" stop-color="#A8FCF8"/>
<stop offset="1" stop-color="#ADFFFB"/>
</linearGradient>
<linearGradient id="paint29_linear_534_3347" x1="153.669" y1="278.017" x2="162.883" y2="266.42" gradientUnits="userSpaceOnUse">
<stop stop-color="#2FC3BC"/>
<stop offset="0.08" stop-color="#40CBC4"/>
<stop offset="0.27" stop-color="#67DDD8"/>
<stop offset="0.46" stop-color="#85ECE7"/>
<stop offset="0.65" stop-color="#9BF6F2"/>
<stop offset="0.83" stop-color="#A8FCF8"/>
<stop offset="1" stop-color="#ADFFFB"/>
</linearGradient>
<clipPath id="clip0_534_3347">
<rect width="448" height="438.98" fill="white"/>
</clipPath>
<clipPath id="clip1_534_3347">
<rect width="35.3291" height="35.3289" fill="white" transform="translate(122.523 12.0266)"/>
</clipPath>
<clipPath id="clip2_534_3347">
<rect width="31.5705" height="28.5638" fill="white" transform="translate(296.913 18.1589)"/>
</clipPath>
<clipPath id="clip3_534_3347">
<rect width="34.5772" height="34.5772" fill="white" transform="translate(12.0266 146.577)"/>
</clipPath>
<clipPath id="clip4_534_3347">
<rect width="28.5638" height="33.8255" fill="white" transform="translate(362.309 320.966)"/>
</clipPath>
<clipPath id="clip5_534_3347">
<rect width="46.604" height="46.604" fill="white" transform="translate(196.188 386.362)"/>
</clipPath>
<clipPath id="clip6_534_3347">
<rect width="36.8322" height="37.6507" fill="white" transform="translate(201.449 390.839)"/>
</clipPath>
</defs>
</svg>
