<svg width="270" height="265" viewBox="0 0 270 265" fill="none" xmlns="http://www.w3.org/2000/svg">
<g clip-path="url(#clip0_534_4117)">
<path d="M134.516 164.538C155.389 164.538 172.31 147.649 172.31 126.816C172.31 105.984 155.389 89.0952 134.516 89.0952C113.643 89.0952 96.7217 105.984 96.7217 126.816C96.7217 147.649 113.643 164.538 134.516 164.538Z" fill="white"/>
<path d="M134.516 162.358C154.183 162.358 170.126 146.446 170.126 126.817C170.126 107.187 154.183 91.2747 134.516 91.2747C114.849 91.2747 98.9053 107.187 98.9053 126.817C98.9053 146.446 114.849 162.358 134.516 162.358Z" fill="url(#paint0_linear_534_4117)"/>
<path d="M134.516 156.912C151.169 156.912 164.669 143.438 164.669 126.816C164.669 110.195 151.169 96.7207 134.516 96.7207C117.862 96.7207 104.362 110.195 104.362 126.816C104.362 143.438 117.862 156.912 134.516 156.912Z" fill="white"/>
<path d="M134.516 155.823C150.566 155.823 163.578 142.836 163.578 126.817C163.578 110.797 150.566 97.8105 134.516 97.8105C118.465 97.8105 105.454 110.797 105.454 126.817C105.454 142.836 118.465 155.823 134.516 155.823Z" fill="#16938A"/>
<path d="M134.516 150.817C147.797 150.817 158.563 140.072 158.563 126.817C158.563 113.561 147.797 102.816 134.516 102.816C121.235 102.816 110.469 113.561 110.469 126.817C110.469 140.072 121.235 150.817 134.516 150.817Z" fill="#07051B"/>
<path opacity="0.25" d="M134.516 153.643C149.36 153.643 161.394 141.632 161.394 126.816C161.394 112 149.36 99.9897 134.516 99.9897C119.671 99.9897 107.637 112 107.637 126.816C107.637 141.632 119.671 153.643 134.516 153.643Z" fill="url(#paint1_linear_534_4117)"/>
<g filter="url(#filter0_d_534_4117)">
<path d="M150.31 134.672C149.939 135.849 149.107 136.83 148.25 137.709C145.531 140.503 142.19 142.685 138.556 144.057C139.701 142.985 140.998 142.025 141.772 140.663C142.546 139.301 142.627 137.373 141.448 136.334C140.985 135.93 140.373 135.71 139.782 135.538C137.029 134.753 134.125 134.742 131.27 134.58C128.413 134.419 125.474 134.061 122.964 132.675C121.647 131.948 120.489 130.886 119.678 129.617C118.857 128.313 118.604 126.904 118.567 125.393C120.303 127.506 122.975 128.636 125.623 129.34C130.146 130.53 134.889 130.669 139.539 130.288C142.269 130.068 145.068 129.677 147.727 130.334C148.41 130.507 149.092 130.749 149.612 131.235C150.514 132.077 150.677 133.497 150.306 134.674L150.31 134.672Z" fill="white"/>
<path d="M120.41 116.362C123.035 113.268 126.656 111.157 130.415 109.573C129.432 110.554 128.298 111.397 127.511 112.54C126.713 113.672 126.308 115.23 126.956 116.454C127.639 117.748 129.223 118.267 130.669 118.51C133.364 118.972 136.104 118.901 138.836 119.121C141.554 119.34 144.341 119.872 146.621 121.36C148.911 122.849 150.611 125.469 150.368 128.183C147.926 125.469 144.214 124.303 140.616 123.726C137.03 123.149 133.375 123.045 129.756 123.322C127.315 123.507 124.852 123.865 122.423 123.564C121.508 123.449 120.595 123.241 119.832 122.732C117.356 121.081 118.917 118.103 120.41 116.36V116.362Z" fill="white"/>
<path d="M150.31 134.672C149.939 135.849 149.107 136.83 148.25 137.709C145.531 140.503 142.19 142.685 138.556 144.057C139.701 142.985 140.998 142.025 141.772 140.663C142.546 139.301 142.627 137.373 141.448 136.334C140.985 135.93 140.373 135.71 139.782 135.538C137.029 134.753 134.125 134.742 131.27 134.58C128.413 134.419 125.474 134.061 122.964 132.675C121.647 131.948 120.489 130.886 119.678 129.617C118.857 128.313 118.604 126.904 118.567 125.393C120.303 127.506 122.975 128.636 125.623 129.34C130.146 130.53 134.889 130.669 139.539 130.288C142.269 130.068 145.068 129.677 147.727 130.334C148.41 130.507 149.092 130.749 149.612 131.235C150.514 132.077 150.677 133.497 150.306 134.674L150.31 134.672Z" fill="white"/>
<path d="M120.41 116.362C123.035 113.268 126.656 111.157 130.415 109.573C129.432 110.554 128.298 111.397 127.511 112.54C126.713 113.672 126.308 115.23 126.956 116.454C127.639 117.748 129.223 118.267 130.669 118.51C133.364 118.972 136.104 118.901 138.836 119.121C141.554 119.34 144.341 119.872 146.621 121.36C148.911 122.849 150.611 125.469 150.368 128.183C147.926 125.469 144.214 124.303 140.616 123.726C137.03 123.149 133.375 123.045 129.756 123.322C127.315 123.507 124.852 123.865 122.423 123.564C121.508 123.449 120.595 123.241 119.832 122.732C117.356 121.081 118.917 118.103 120.41 116.36V116.362Z" fill="white"/>
<path d="M150.368 128.185C147.926 125.471 144.214 124.305 140.616 123.728C137.03 123.152 133.375 123.047 129.756 123.324C127.315 123.509 124.852 123.867 122.423 123.567C121.508 123.452 120.595 123.243 119.832 122.734C117.356 121.083 118.917 118.105 120.41 116.362C123.035 113.268 126.656 111.157 130.415 109.573C129.432 110.554 128.298 111.397 127.511 112.54C126.713 113.672 126.308 115.23 126.956 116.454C127.639 117.748 129.223 118.267 130.669 118.51C133.364 118.972 136.104 118.901 138.836 119.121C141.554 119.34 144.341 119.872 146.621 121.36C148.911 122.849 150.611 125.469 150.368 128.183V128.185Z" fill="white"/>
<path d="M150.31 134.672C149.939 135.849 149.107 136.83 148.25 137.709C145.531 140.503 142.19 142.685 138.556 144.057C139.701 142.985 140.998 142.025 141.772 140.663C142.546 139.301 142.627 137.373 141.448 136.334C140.985 135.93 140.373 135.71 139.782 135.538C137.029 134.753 134.125 134.742 131.27 134.58C128.413 134.419 125.474 134.061 122.964 132.675C121.647 131.948 120.489 130.886 119.678 129.617C118.857 128.313 118.604 126.904 118.567 125.393C120.303 127.506 122.975 128.636 125.623 129.34C130.146 130.53 134.889 130.669 139.539 130.288C142.269 130.068 145.068 129.677 147.727 130.334C148.41 130.507 149.092 130.749 149.612 131.235C150.514 132.077 150.677 133.497 150.306 134.674L150.31 134.672Z" fill="white"/>
</g>
<path d="M80.9512 119.468C73.7758 140.784 77.2366 165.185 92.3124 184.086C102.761 197.187 117.039 205.453 132.286 208.563" stroke="url(#paint2_linear_534_4117)" stroke-width="5" stroke-miterlimit="10"/>
<path d="M80.9512 119.468C73.7758 140.784 77.2366 165.185 92.3124 184.086C102.761 197.187 117.039 205.453 132.286 208.563V246.761" stroke="url(#paint3_linear_534_4117)" stroke-width="5" stroke-miterlimit="10"/>
<path d="M132.286 263.5C141.548 263.5 149.057 256.005 149.057 246.761C149.057 237.516 141.548 230.022 132.286 230.022C123.023 230.022 115.515 237.516 115.515 246.761C115.515 256.005 123.023 263.5 132.286 263.5Z" fill="#2FC3BC"/>
<path d="M132.285 230.022C141.548 230.022 149.057 237.516 149.057 246.761C149.057 256.006 141.548 263.5 132.285 263.5C123.022 263.5 115.514 256.006 115.514 246.761C115.514 237.516 123.022 230.022 132.285 230.022ZM132.285 228.958C122.449 228.958 114.448 236.945 114.448 246.761C114.448 256.576 122.451 264.564 132.285 264.564C142.12 264.564 150.123 256.576 150.123 246.761C150.123 236.945 142.12 228.958 132.285 228.958Z" fill="url(#paint4_linear_534_4117)"/>
<path d="M80.951 123.396C83.125 123.396 84.8873 121.637 84.8873 119.468C84.8873 117.298 83.125 115.539 80.951 115.539C78.777 115.539 77.0146 117.298 77.0146 119.468C77.0146 121.637 78.777 123.396 80.951 123.396Z" fill="white" stroke="url(#paint5_linear_534_4117)" stroke-width="5" stroke-miterlimit="10"/>
<path d="M106.867 80.4417C85.6974 88.1374 68.7451 106.053 63.3395 129.604C59.593 145.926 62.0239 162.222 69.0948 176.056" stroke="url(#paint6_linear_534_4117)" stroke-width="5" stroke-miterlimit="10"/>
<path d="M106.868 80.4417C85.6976 88.1374 68.7453 106.053 63.3397 129.604C59.5932 145.926 62.0241 162.222 69.095 176.056L39.1758 199.875" stroke="url(#paint7_linear_534_4117)" stroke-width="5" stroke-miterlimit="10"/>
<path d="M39.1778 216.614C48.4402 216.614 55.9488 209.12 55.9488 199.875C55.9488 190.631 48.4402 183.136 39.1778 183.136C29.9154 183.136 22.4067 190.631 22.4067 199.875C22.4067 209.12 29.9154 216.614 39.1778 216.614Z" fill="#2FC3BC"/>
<path d="M39.1672 183.134C44.0951 183.134 48.9782 185.292 52.2898 189.436C58.0663 196.664 56.8786 207.194 49.6371 212.96C46.5473 215.42 42.8562 216.614 39.1885 216.614C34.2606 216.614 29.3775 214.456 26.0659 210.312C20.2894 203.085 21.4771 192.554 28.7186 186.789C31.8084 184.328 35.4995 183.134 39.1672 183.134ZM39.1672 182.07C35.0901 182.07 31.2476 183.413 28.0533 185.957C20.364 192.077 19.0995 203.302 25.2322 210.976C28.6354 215.235 33.7233 217.678 39.1864 217.678C43.2635 217.678 47.106 216.335 50.3003 213.792C57.9896 207.671 59.2541 196.447 53.1214 188.772C49.7181 184.514 44.6303 182.07 39.1672 182.07Z" fill="url(#paint8_linear_534_4117)"/>
<path d="M106.868 84.3705C109.041 84.3705 110.804 82.6115 110.804 80.4417C110.804 78.2719 109.041 76.5129 106.868 76.5129C104.694 76.5129 102.931 78.2719 102.931 80.4417C102.931 82.6115 104.694 84.3705 106.868 84.3705Z" fill="white" stroke="url(#paint9_linear_534_4117)" stroke-width="5" stroke-miterlimit="10"/>
<path d="M153.599 76.3256C134.369 64.6074 109.766 62.5515 87.9494 73.0226C72.8288 80.2799 61.5806 92.3365 55.1558 106.481" stroke="url(#paint10_linear_534_4117)" stroke-width="5" stroke-miterlimit="10"/>
<path d="M153.598 76.3256C134.369 64.6074 109.765 62.5515 87.9492 73.0226C72.8286 80.2799 61.5804 92.3365 55.1556 106.481L17.8413 97.9913" stroke="url(#paint11_linear_534_4117)" stroke-width="5" stroke-miterlimit="10"/>
<path d="M17.8389 114.73C27.1013 114.73 34.61 107.236 34.61 97.9912C34.61 88.7466 27.1013 81.2524 17.8389 81.2524C8.57653 81.2524 1.06787 88.7466 1.06787 97.9912C1.06787 107.236 8.57653 114.73 17.8389 114.73Z" fill="#2FC3BC"/>
<path d="M17.8242 81.2482C19.0588 81.2482 20.3127 81.3844 21.5665 81.6696C30.5971 83.7234 36.25 92.6961 34.1922 101.709C32.4202 109.471 25.5071 114.732 17.8562 114.732C16.6215 114.732 15.3677 114.596 14.1139 114.311C5.08332 112.257 -0.569576 103.284 1.48816 94.271C3.26015 86.5093 10.1733 81.2482 17.8242 81.2482ZM17.8242 80.1841C13.8495 80.1841 9.93019 81.544 6.79135 84.0128C3.60346 86.5199 1.35168 90.0784 0.447562 94.0348C-1.73811 103.606 4.28582 113.168 13.8751 115.349C15.1843 115.647 16.5235 115.798 17.8541 115.798C21.8288 115.798 25.7481 114.438 28.8869 111.97C32.0748 109.463 34.3266 105.904 35.2307 101.948C36.2905 97.3102 35.4759 92.5407 32.9405 88.5141C30.4052 84.4874 26.4496 81.6888 21.8032 80.6331C20.4939 80.3352 19.1548 80.1841 17.8242 80.1841Z" fill="url(#paint12_linear_534_4117)"/>
<path d="M153.598 80.2545C155.772 80.2545 157.535 78.4955 157.535 76.3257C157.535 74.1559 155.772 72.397 153.598 72.397C151.424 72.397 149.662 74.1559 149.662 76.3257C149.662 78.4955 151.424 80.2545 153.598 80.2545Z" fill="white" stroke="url(#paint13_linear_534_4117)" stroke-width="5" stroke-miterlimit="10"/>
<path d="M185.961 110.218C183.148 87.9077 169.414 67.4275 147.608 56.9351C132.496 49.6629 116.036 48.4051 100.952 52.2147" stroke="url(#paint14_linear_534_4117)" stroke-width="5" stroke-miterlimit="10"/>
<path d="M185.961 110.218C183.149 87.9077 169.414 67.4275 147.608 56.9352C132.496 49.6629 116.037 48.4051 100.952 52.2147L84.3306 17.8071" stroke="url(#paint15_linear_534_4117)" stroke-width="5" stroke-miterlimit="10"/>
<path d="M84.3326 34.5459C93.595 34.5459 101.104 27.0517 101.104 17.8071C101.104 8.56255 93.595 1.06836 84.3326 1.06836C75.0702 1.06836 67.5615 8.56255 67.5615 17.8071C67.5615 27.0517 75.0702 34.5459 84.3326 34.5459Z" fill="#2FC3BC"/>
<path d="M84.3198 1.06413C90.5569 1.06413 96.5489 4.55447 99.4382 10.537C103.46 18.8649 99.9585 28.8698 91.6146 32.8858C89.2669 34.0159 86.7869 34.5501 84.3432 34.5501C78.1061 34.5501 72.1141 31.0598 69.2248 25.0773C65.2031 16.7494 68.7045 6.74445 77.0484 2.72843C79.3961 1.59832 81.8761 1.06413 84.3198 1.06413ZM84.3198 0C81.6287 0 79.0272 0.595912 76.5857 1.77071C67.7257 6.03361 63.9941 16.6962 68.2652 25.5391C69.7515 28.6144 72.0693 31.1832 74.9715 32.9646C77.7947 34.6991 81.0359 35.6143 84.3454 35.6143C87.0364 35.6143 89.6379 35.0184 92.0794 33.8436C100.939 29.5807 104.671 18.9181 100.4 10.0752C98.9137 6.99984 96.5958 4.43103 93.6937 2.64968C90.8704 0.915151 87.6292 0 84.3198 0Z" fill="url(#paint16_linear_534_4117)"/>
<path d="M185.961 114.147C188.135 114.147 189.898 112.388 189.898 110.218C189.898 108.049 188.135 106.29 185.961 106.29C183.787 106.29 182.025 108.049 182.025 110.218C182.025 112.388 183.787 114.147 185.961 114.147Z" fill="white" stroke="url(#paint17_linear_534_4117)" stroke-width="5" stroke-miterlimit="10"/>
<path d="M179.599 156.606C195.321 140.499 202.794 117.012 197.415 93.4539C193.687 77.1281 184.407 63.5029 172.018 54.1067" stroke="url(#paint18_linear_534_4117)" stroke-width="5" stroke-miterlimit="10"/>
<path d="M179.599 156.606C195.321 140.499 202.794 117.012 197.415 93.4539C193.687 77.1281 184.407 63.503 172.018 54.1067L188.604 19.6821" stroke="url(#paint19_linear_534_4117)" stroke-width="5" stroke-miterlimit="10"/>
<path d="M188.601 36.423C197.864 36.423 205.372 28.9289 205.372 19.6843C205.372 10.4397 197.864 2.94556 188.601 2.94556C179.339 2.94556 171.83 10.4397 171.83 19.6843C171.83 28.9289 179.339 36.423 188.601 36.423Z" fill="#2FC3BC"/>
<path d="M188.614 2.94133C191.051 2.94133 193.527 3.47339 195.871 4.59924C204.219 8.60462 207.731 18.6074 203.718 26.9396C200.83 32.9327 194.836 36.4295 188.591 36.4295C186.153 36.4295 183.678 35.8974 181.334 34.7716C172.986 30.7662 169.474 20.7634 173.487 12.4312C176.374 6.43805 182.368 2.94133 188.614 2.94133ZM188.614 1.8772C185.303 1.8772 182.057 2.79448 179.232 4.53326C176.33 6.31887 174.01 8.88981 172.525 11.9694C170.461 16.2557 170.193 21.0869 171.768 25.5753C173.344 30.0638 176.577 33.6691 180.871 35.7293C183.309 36.8977 185.904 37.4915 188.589 37.4915C191.9 37.4915 195.146 36.5742 197.971 34.8354C200.873 33.0498 203.193 30.4789 204.677 27.3993C208.94 18.5521 205.195 7.89378 196.331 3.6394C193.894 2.47098 191.299 1.8772 188.614 1.8772Z" fill="url(#paint20_linear_534_4117)"/>
<path d="M179.598 160.535C181.772 160.535 183.535 158.776 183.535 156.606C183.535 154.436 181.772 152.677 179.598 152.677C177.424 152.677 175.662 154.436 175.662 156.606C175.662 158.776 177.424 160.535 179.598 160.535Z" fill="white" stroke="url(#paint21_linear_534_4117)" stroke-width="5" stroke-miterlimit="10"/>
<path d="M139.297 180.568C161.717 182.79 184.774 173.974 199.871 155.088C210.334 141.997 215.22 126.261 214.851 110.735" stroke="url(#paint22_linear_534_4117)" stroke-width="5" stroke-miterlimit="10"/>
<path d="M139.297 180.568C161.717 182.79 184.774 173.975 199.871 155.088C210.334 141.997 215.22 126.261 214.851 110.735L252.157 102.208" stroke="url(#paint23_linear_534_4117)" stroke-width="5" stroke-miterlimit="10"/>
<path d="M252.157 118.946C261.419 118.946 268.928 111.452 268.928 102.207C268.928 92.9629 261.419 85.4688 252.157 85.4688C242.894 85.4688 235.386 92.9629 235.386 102.207C235.386 111.452 242.894 118.946 252.157 118.946Z" fill="#2FC3BC"/>
<path d="M252.171 85.4645C259.816 85.4645 266.725 90.7171 268.505 98.4703C270.574 107.481 264.929 116.46 255.901 118.525C254.641 118.812 253.383 118.951 252.142 118.951C244.497 118.951 237.588 113.698 235.808 105.945C233.739 96.9337 239.384 87.9546 248.412 85.8902C249.672 85.6029 250.93 85.4645 252.171 85.4645ZM252.171 84.4004C250.834 84.4004 249.489 84.5536 248.173 84.8537C238.586 87.0458 232.573 96.6123 234.767 106.183C235.673 110.135 237.927 113.689 241.113 116.192C244.252 118.657 248.167 120.015 252.139 120.015C253.476 120.015 254.822 119.861 256.138 119.561C260.782 118.499 264.733 115.696 267.267 111.668C269.798 107.639 270.608 102.867 269.544 98.2319C268.638 94.2798 266.384 90.7256 263.198 88.2227C260.059 85.7582 256.144 84.4004 252.171 84.4004Z" fill="url(#paint24_linear_534_4117)"/>
<path d="M139.297 184.497C141.471 184.497 143.233 182.738 143.233 180.568C143.233 178.398 141.471 176.639 139.297 176.639C137.123 176.639 135.36 178.398 135.36 180.568C135.36 182.738 137.123 184.497 139.297 184.497Z" fill="white" stroke="url(#paint25_linear_534_4117)" stroke-width="5" stroke-miterlimit="10"/>
<path d="M95.3955 164.067C107.637 182.945 128.921 195.44 153.127 195.44C169.905 195.44 185.277 189.438 197.207 179.47" stroke="url(#paint26_linear_534_4117)" stroke-width="5" stroke-miterlimit="10"/>
<path d="M95.3955 164.067C107.637 182.945 128.921 195.44 153.127 195.44C169.905 195.44 185.277 189.438 197.207 179.47L227.15 203.259" stroke="url(#paint27_linear_534_4117)" stroke-width="5" stroke-miterlimit="10"/>
<path d="M227.152 219.996C236.414 219.996 243.923 212.502 243.923 203.257C243.923 194.013 236.414 186.519 227.152 186.519C217.89 186.519 210.381 194.013 210.381 203.257C210.381 212.502 217.89 219.996 227.152 219.996Z" fill="#2FC3BC"/>
<path d="M227.163 186.518C230.824 186.518 234.511 187.71 237.596 190.162C244.844 195.919 246.043 206.45 240.272 213.684C236.961 217.836 232.073 219.998 227.139 219.998C223.478 219.998 219.791 218.806 216.706 216.355C209.458 210.598 208.259 200.067 214.029 192.833C217.341 188.681 222.228 186.518 227.163 186.518ZM227.163 185.454C221.691 185.454 216.599 187.902 213.196 192.171C210.227 195.891 208.89 200.544 209.428 205.268C209.965 209.993 212.315 214.226 216.042 217.189C219.232 219.724 223.071 221.064 227.141 221.064C232.613 221.064 237.705 218.617 241.108 214.348C247.235 206.667 245.957 195.444 238.262 189.33C235.072 186.795 231.233 185.454 227.163 185.454Z" fill="url(#paint28_linear_534_4117)"/>
<path d="M95.3953 167.996C97.5693 167.996 99.3317 166.237 99.3317 164.067C99.3317 161.898 97.5693 160.139 95.3953 160.139C93.2213 160.139 91.459 161.898 91.459 164.067C91.459 166.237 93.2213 167.996 95.3953 167.996Z" fill="white" stroke="url(#paint29_linear_534_4117)" stroke-width="5" stroke-miterlimit="10"/>
</g>
<g clip-path="url(#clip1_534_4117)">
<g filter="url(#filter1_d_534_4117)">
<g clip-path="url(#clip2_534_4117)">
<path d="M93.1102 26.8032C93.5996 26.8032 94.0701 26.7968 94.5406 26.8048C94.8946 26.8112 95.1291 27.0497 95.1338 27.3859C95.1385 27.7077 94.9214 27.9575 94.6051 27.9895C94.528 27.9975 94.4477 27.9943 94.3691 27.9943C87.7805 27.9943 81.192 27.9943 74.6035 27.9943C74.5185 27.9943 74.4304 27.9991 74.347 27.9879C74.0417 27.9463 73.8372 27.6981 73.8419 27.3843C73.8466 27.0705 74.0653 26.7952 74.3722 26.8176C74.7813 26.848 74.978 26.7167 75.1479 26.3133C75.5476 25.3623 76.6475 24.8003 77.6357 24.9588C77.7207 24.9716 77.8419 24.8884 77.9143 24.8147C78.8679 23.8509 80.3769 23.8525 81.2896 24.8435C81.4753 25.0453 81.5901 25.3158 81.7522 25.5448C81.801 25.6152 81.8891 25.6937 81.9662 25.7017C82.668 25.7657 83.2093 26.0923 83.6011 26.6863C83.6389 26.7439 83.7365 26.7936 83.8073 26.7952C84.4792 26.8032 85.1511 26.8032 85.823 26.7952C85.9017 26.7952 86.0024 26.7439 86.0528 26.6815C86.4713 26.1596 87.0048 25.8394 87.6499 25.6937C87.7412 25.6729 87.8435 25.58 87.8891 25.4935C88.4556 24.3888 89.565 23.8093 90.7971 23.9838C91.9033 24.1407 92.8222 25.0597 93.0441 26.2348C93.0772 26.4125 93.0882 26.5934 93.1118 26.8L93.1102 26.8032Z" fill="white"/>
<path d="M80.0566 23.0638C80.0393 23.0541 80.0324 23.0529 80.0313 23.0492C79.7508 22.1302 79.3587 21.2427 79.3058 20.2593C79.2667 19.5185 79.4771 18.8735 79.9933 18.3485C80.3463 17.9896 80.6854 17.6149 81.0372 17.2536C81.128 17.1603 81.1591 17.0717 81.1441 16.9372C80.9211 14.9051 81.1292 12.9275 81.8362 11.0167C82.2329 9.94362 82.7882 8.97607 83.5849 8.17462C83.8872 7.8715 84.1758 7.55383 84.4655 7.24829C84.4873 7.25193 84.5011 7.24829 84.5069 7.25435C84.938 7.71146 85.3841 8.15158 85.7945 8.6293C86.5165 9.47075 86.9821 10.4723 87.3201 11.5392C87.8788 13.301 88.0352 15.1075 87.8306 16.9493C87.8168 17.0705 87.8398 17.153 87.9237 17.2391C88.2651 17.5883 88.5893 17.9556 88.9354 18.2976C89.5229 18.8783 89.747 19.5937 89.6539 20.4182C89.6114 20.7977 89.5229 21.176 89.4228 21.5446C89.2952 22.015 89.1354 22.4757 88.9883 22.9401C88.9756 22.9801 88.9584 23.0189 88.9342 23.0808L88.8055 22.945C88.1559 22.2599 87.5052 21.5749 86.8579 20.8874C86.7855 20.811 86.7131 20.7807 86.6119 20.7819C85.1967 20.7856 83.7815 20.7856 82.3674 20.7819C82.2593 20.7819 82.1846 20.8159 82.1087 20.8959C81.466 21.5809 80.8176 22.2599 80.1715 22.9425L80.0554 23.065L80.0566 23.0638ZM85.2427 12.8123C84.8253 12.371 84.1574 12.3686 83.7366 12.8075C83.3181 13.2428 83.3124 13.9569 83.724 14.3995C84.1356 14.842 84.8322 14.8444 85.2473 14.4043C85.6611 13.9654 85.6589 13.2525 85.2438 12.8123H85.2427Z" fill="white"/>
<path d="M83.1645 21.9932C84.0486 21.9921 84.9354 21.991 85.8099 21.9888C86.0286 23.2405 85.3836 24.2697 84.4872 25.2645C83.6605 24.2597 82.9404 23.2516 83.1645 21.9932Z" fill="white"/>
</g>
</g>
</g>
<g filter="url(#filter2_d_534_4117)">
<g clip-path="url(#clip3_534_4117)">
<path d="M188.531 28.1554C187.413 28.1554 186.294 28.1554 185.177 28.1554C184.308 28.1554 183.811 27.6514 183.803 26.7813C183.796 26.0982 183.812 25.4205 184.092 24.7801C184.64 23.5305 185.58 22.7542 186.926 22.4793C186.997 22.4646 187.097 22.4926 187.155 22.5372C187.958 23.1523 189.128 23.1517 189.93 22.5358C189.988 22.4912 190.088 22.4666 190.16 22.4793C191.888 22.7749 193.235 24.3347 193.271 26.0783C193.276 26.3499 193.276 26.6222 193.273 26.8945C193.266 27.6301 192.742 28.1514 191.999 28.1547C190.843 28.1587 189.688 28.156 188.532 28.156L188.531 28.1554Z" fill="white"/>
<path d="M185.487 17.1085C185.779 17.5199 186.069 17.9274 186.374 18.3588C186.299 18.3661 186.249 18.3747 186.197 18.3747C185.035 18.3754 183.873 18.3827 182.712 18.3734C180.795 18.3588 179.37 17.1751 179.011 15.3123C178.622 13.2985 179.956 11.3924 181.994 11.0083C184.236 10.5862 186.154 12.2919 186.376 14.3051C186.485 15.297 186.202 16.1725 185.596 16.9547C185.566 16.994 185.535 17.0326 185.505 17.0719C185.501 17.0765 185.499 17.0825 185.487 17.1085ZM180.965 15.289C181.322 15.2884 181.586 15.0207 181.583 14.6632C181.58 14.3044 181.314 14.0414 180.957 14.0441C180.601 14.0467 180.334 14.3164 180.337 14.6705C180.34 15.0281 180.607 15.2904 180.964 15.2897L180.965 15.289ZM184.346 15.289C184.707 15.2963 184.976 15.0427 184.986 14.6845C184.997 14.3284 184.738 14.0547 184.381 14.0441C184.02 14.0341 183.753 14.2871 183.743 14.6486C183.734 15.0087 183.99 15.281 184.346 15.2884V15.289ZM183.281 14.6639C183.28 14.3011 183.021 14.0421 182.66 14.0434C182.3 14.0448 182.041 14.3071 182.043 14.6686C182.045 15.0281 182.308 15.2897 182.666 15.289C183.026 15.2877 183.283 15.0267 183.281 14.6639Z" fill="white"/>
<path d="M191.092 18.8416C191.346 18.4841 191.578 18.1566 191.812 17.8264C191.405 17.337 191.157 16.7911 191.089 16.162C190.924 14.6208 192.124 13.1196 193.692 12.9172C195.261 12.7148 196.75 13.8086 197.002 15.3505C197.31 17.2225 195.963 18.829 194.063 18.849C193.126 18.8589 192.187 18.8509 191.249 18.8503C191.208 18.8503 191.167 18.8463 191.092 18.8423V18.8416ZM194.073 16.423C194.378 16.423 194.612 16.186 194.611 15.8777C194.611 15.5688 194.377 15.3332 194.072 15.3345C193.767 15.3358 193.531 15.5735 193.532 15.8791C193.532 16.1846 193.77 16.423 194.073 16.423ZM194.898 15.8751C194.896 16.1846 195.125 16.4203 195.431 16.423C195.734 16.4256 195.97 16.1893 195.973 15.8817C195.976 15.5742 195.744 15.3372 195.438 15.3352C195.13 15.3332 194.9 15.5642 194.898 15.8744V15.8751ZM193.245 15.8857C193.249 15.5742 193.024 15.3405 192.717 15.3352C192.411 15.3305 192.178 15.5602 192.175 15.8704C192.171 16.1813 192.397 16.417 192.702 16.4223C193.005 16.4276 193.241 16.1946 193.245 15.8851V15.8857Z" fill="white"/>
<path d="M193.105 28.154C193.587 27.7146 193.674 27.1933 193.681 26.6215C193.692 25.6734 193.536 24.7774 193.012 23.9685C192.911 23.8134 192.799 23.6649 192.707 23.4685C192.787 23.4945 192.88 23.5011 192.943 23.5484C193.595 24.0357 194.533 24.0364 195.187 23.5517C195.251 23.5045 195.358 23.4778 195.437 23.4911C196.821 23.7335 197.922 25.0157 197.964 26.4271C197.972 26.6681 197.97 26.9091 197.966 27.1501C197.957 27.6833 197.564 28.138 197.033 28.1467C195.743 28.1673 194.452 28.1533 193.105 28.1533V28.154Z" fill="white"/>
<path d="M184.383 23.5143C184.359 23.5483 184.337 23.5836 184.312 23.6162C183.73 24.3558 183.429 25.196 183.402 26.1334C183.395 26.3863 183.395 26.64 183.399 26.8936C183.407 27.373 183.583 27.7837 183.948 28.1359C183.889 28.1452 183.851 28.1559 183.813 28.1559C182.59 28.1566 181.366 28.1592 180.143 28.1559C179.597 28.1546 179.165 27.7831 179.125 27.2458C179.076 26.6027 179.087 25.9596 179.357 25.3518C179.795 24.3632 180.545 23.746 181.6 23.4937C181.713 23.4664 181.805 23.477 181.908 23.5569C182.527 24.0376 183.49 24.0303 184.116 23.5583C184.182 23.5083 184.275 23.4937 184.356 23.4624L184.383 23.5137V23.5143Z" fill="white"/>
<path d="M190.451 20.1758C190.445 21.2184 189.578 22.0459 188.494 22.0439C187.472 22.0419 186.628 21.1904 186.631 20.1672C186.635 19.0926 187.477 18.2438 188.536 18.2478C189.613 18.2518 190.456 19.1013 190.451 20.1758Z" fill="white"/>
<path d="M181.442 21.5871C181.444 20.703 182.131 19.9999 182.994 19.9993C183.886 19.9986 184.583 20.699 184.581 21.5924C184.578 22.4425 183.855 23.1349 182.975 23.1289C182.129 23.1236 181.44 22.4312 181.442 21.5877V21.5871Z" fill="white"/>
<path d="M194.048 23.1282C193.206 23.1302 192.507 22.4378 192.502 21.5977C192.498 20.7122 193.197 19.9965 194.064 19.9985C194.943 20.0005 195.645 20.7029 195.646 21.581C195.648 22.4292 194.928 23.1262 194.048 23.1282Z" fill="white"/>
</g>
</g>
<g clip-path="url(#clip4_534_4117)">
<g filter="url(#filter3_d_534_4117)">
<g clip-path="url(#clip5_534_4117)">
<path d="M19.1492 100.231C20.5445 103.238 19.4274 106.424 17.1523 108.018C14.7469 109.703 11.5584 109.534 9.39476 107.628C7.21807 105.711 6.63993 102.602 7.98583 100.029C8.48844 99.0681 9.19916 98.2927 10.1082 97.7019C11.0096 97.1154 11.9975 96.7858 13.0717 96.7103C14.1502 96.6343 15.1777 96.8357 16.1797 97.2881C14.592 93.8105 16.3557 90.5441 18.5335 89.2572C21.0754 87.7546 24.222 88.1222 26.2487 90.1711C28.2836 92.2281 28.6444 95.3793 27.1583 97.8317C25.7613 100.137 22.5164 101.731 19.1492 100.232V100.231ZM13.5308 98.076C10.8597 98.0635 8.66721 100.236 8.65362 102.909C8.64004 105.594 10.7972 107.764 13.5031 107.786C16.1862 107.808 18.3749 105.642 18.3923 102.948C18.4091 100.275 16.2275 98.088 13.5314 98.0755L13.5308 98.076ZM21.8214 99.4336C24.5105 99.4271 26.6883 97.2452 26.6828 94.5621C26.6774 91.8876 24.504 89.7263 21.817 89.7231C19.1285 89.7198 16.9551 91.8979 16.961 94.5892C16.967 97.2691 19.1448 99.4396 21.8214 99.4331V99.4336Z" fill="white"/>
<path d="M8.25095 94.2881C8.24551 92.9175 8.5574 91.6881 9.56805 90.7356C10.5526 89.8081 11.7404 89.3682 13.1162 89.3704C13.1162 89.1635 13.1189 88.9713 13.1156 88.779C13.1124 88.5944 13.1749 88.4521 13.3596 88.3897C13.5362 88.33 13.6644 88.4082 13.7737 88.5439C14.2121 89.0902 14.6523 89.636 15.0935 90.1801C15.2309 90.35 15.2407 90.5162 15.1027 90.69C14.6626 91.2444 14.2225 91.7989 13.7851 92.3555C13.6748 92.4956 13.5378 92.5591 13.3672 92.507C13.1895 92.4527 13.1298 92.3077 13.1281 92.1355C13.1254 91.9134 13.1276 91.6913 13.1276 91.473C11.2595 91.2613 10.1049 92.4418 10.3537 94.2789C10.5744 94.2789 10.7977 94.2811 11.021 94.2783C11.1894 94.2762 11.3198 94.3359 11.3802 94.4999C11.4432 94.6715 11.3818 94.8089 11.2438 94.9202C10.6917 95.3633 10.1418 95.8097 9.58815 96.2506C9.39037 96.4081 9.26866 96.4032 9.0649 96.2425C8.51991 95.8135 7.97872 95.3802 7.43265 94.9523C7.28648 94.8377 7.20878 94.6997 7.27018 94.52C7.33212 94.337 7.48318 94.2816 7.66738 94.287C7.85429 94.2925 8.04121 94.2881 8.25203 94.2881H8.25095Z" fill="white"/>
<path d="M27.0862 103.222C27.09 104.59 26.7787 105.827 25.7604 106.781C24.7742 107.706 23.5859 108.144 22.2199 108.14C22.2199 108.355 22.2183 108.548 22.2204 108.742C22.2226 108.918 22.1579 109.054 21.9868 109.117C21.8135 109.18 21.6792 109.11 21.5695 108.974C21.1261 108.422 20.6816 107.871 20.2366 107.321C20.0975 107.148 20.1041 106.983 20.241 106.811C20.6773 106.263 21.1125 105.714 21.545 105.162C21.6602 105.015 21.8015 104.946 21.9803 105.006C22.1552 105.065 22.2085 105.214 22.2096 105.386C22.2107 105.602 22.2096 105.817 22.2096 106.03C24.0521 106.269 25.2165 105.09 24.9883 103.232C24.7704 103.232 24.5487 103.229 24.327 103.232C24.151 103.234 24.0141 103.177 23.9538 103C23.894 102.825 23.9646 102.693 24.101 102.584C24.6476 102.145 25.1915 101.704 25.7392 101.267C25.9397 101.107 26.0658 101.106 26.2636 101.261C26.8145 101.694 27.3612 102.132 27.9121 102.564C28.0599 102.68 28.1278 102.823 28.0632 103C28.0012 103.17 27.8572 103.227 27.6812 103.223C27.4883 103.218 27.2949 103.222 27.0862 103.222V103.222Z" fill="white"/>
<path d="M13.521 98.77C15.8195 98.7716 17.6826 100.636 17.6816 102.932C17.6799 105.235 15.826 107.091 13.5249 107.093C11.2139 107.095 9.34316 105.228 9.34914 102.925C9.35457 100.633 11.2264 98.7684 13.5216 98.77H13.521ZM13.163 100.834C12.9853 100.858 12.8315 100.863 12.6864 100.901C12.1279 101.044 11.7372 101.591 11.7845 102.148C11.8366 102.764 12.2941 103.237 12.9011 103.272C13.2608 103.293 13.6232 103.271 13.984 103.277C14.3328 103.282 14.5567 103.486 14.561 103.79C14.5654 104.106 14.341 104.311 13.9786 104.315C13.5091 104.32 13.0396 104.319 12.5702 104.325C12.2925 104.329 12.1442 104.458 12.1485 104.68C12.1523 104.893 12.2974 105.012 12.5642 105.017C12.7636 105.02 12.963 105.017 13.1494 105.017C13.1679 105.057 13.1787 105.07 13.1793 105.082C13.1836 105.27 13.1853 105.457 13.1901 105.645C13.1972 105.908 13.3211 106.051 13.5374 106.049C13.752 106.048 13.8775 105.901 13.8824 105.639C13.8862 105.439 13.8829 105.239 13.8829 105.02C13.9742 105.014 14.0443 105.009 14.1144 105.005C14.9702 104.956 15.5141 104.062 15.1462 103.292C14.9191 102.816 14.5176 102.592 13.997 102.583C13.6721 102.578 13.3466 102.594 13.0222 102.586C12.6973 102.579 12.474 102.355 12.4783 102.062C12.4827 101.776 12.6957 101.573 13.0163 101.551C13.0739 101.548 13.132 101.549 13.1896 101.549C13.6156 101.547 14.0416 101.545 14.4681 101.541C14.7485 101.538 14.8974 101.417 14.8979 101.196C14.8979 100.975 14.7485 100.851 14.4692 100.848C14.2703 100.846 14.072 100.848 13.8568 100.848C13.8568 100.616 13.8596 100.415 13.8563 100.214C13.8525 99.9745 13.7215 99.8224 13.52 99.8159C13.3119 99.8094 13.169 99.968 13.1646 100.218C13.1608 100.419 13.1641 100.621 13.1641 100.835L13.163 100.834Z" fill="white"/>
<path d="M21.8164 98.7401C19.5174 98.7384 17.6542 96.8753 17.6548 94.5794C17.6559 92.2747 19.506 90.4208 21.8093 90.417C24.1191 90.4132 25.9932 92.2818 25.9872 94.5826C25.9818 96.8753 24.1088 98.7417 21.8158 98.7401H21.8164ZM21.455 92.1514C21.3605 92.1514 21.2899 92.1514 21.2198 92.1514C20.7432 92.1542 20.2667 92.1558 19.7896 92.1612C19.5305 92.1639 19.38 92.2943 19.3816 92.5055C19.3832 92.7157 19.5397 92.8509 19.7913 92.8541C19.9918 92.8568 20.1923 92.8541 20.414 92.8541V96.2997C20.3901 96.3084 20.3765 96.3171 20.3634 96.3171C20.183 96.3192 20.0026 96.3192 19.8217 96.3225C19.543 96.3274 19.3952 96.4506 19.3995 96.6733C19.4033 96.8932 19.556 97.0154 19.8342 97.0149C20.3037 97.0143 20.7731 97.01 21.2426 97.0089C21.3181 97.0089 21.3936 97.0154 21.48 97.0197C21.48 97.1392 21.4768 97.2326 21.4806 97.3255C21.4893 97.5449 21.6278 97.6926 21.8234 97.6947C22.0174 97.6969 22.1603 97.5497 22.1717 97.3293C22.1772 97.225 22.1728 97.1202 22.1728 96.9893C22.4695 96.9893 22.7303 97.0067 22.9884 96.9861C23.5991 96.9367 24.0985 96.4865 24.2137 95.9044C24.3365 95.2826 24.0556 94.6836 23.5024 94.3893C23.447 94.36 23.3916 94.3306 23.3405 94.3035C23.3443 94.2758 23.3427 94.2606 23.3481 94.2481C23.8149 93.2207 23.3764 92.3746 22.2674 92.1531C22.2201 92.1438 22.1701 92.0705 22.1516 92.0168C22.1315 91.9587 22.1489 91.8881 22.1451 91.8235C22.1337 91.603 22.0152 91.471 21.8224 91.4613C21.618 91.4509 21.4751 91.5807 21.4561 91.8039C21.4469 91.9103 21.4545 92.0179 21.4545 92.1514H21.455Z" fill="white"/>
<path d="M21.1353 96.3073V94.9546C21.1727 94.9465 21.213 94.9307 21.2532 94.9302C21.7732 94.9258 22.2932 94.9193 22.8131 94.922C23.2413 94.9247 23.5499 95.2147 23.5554 95.6052C23.5608 95.9934 23.2565 96.297 22.8278 96.3046C22.273 96.3144 21.7183 96.3073 21.1353 96.3073Z" fill="white"/>
<path d="M21.127 94.2318V92.8558C21.5203 92.8558 21.9023 92.8362 22.2821 92.8618C22.6033 92.8829 22.8456 93.1941 22.8489 93.5243C22.8516 93.8653 22.6179 94.1482 22.2778 94.2117C22.2142 94.2237 22.149 94.2302 22.0844 94.2308C21.7752 94.2329 21.4666 94.2318 21.127 94.2318Z" fill="white"/>
</g>
</g>
</g>
<g clip-path="url(#clip6_534_4117)">
<g filter="url(#filter4_d_534_4117)">
<path d="M259.098 104.423C259.485 104.784 259.555 105.394 259.395 105.9C259.237 106.404 258.88 106.827 258.513 107.203C257.349 108.402 255.917 109.338 254.361 109.928C254.852 109.467 255.406 109.057 255.738 108.471C256.07 107.887 256.106 107.06 255.6 106.613C255.402 106.44 255.139 106.346 254.887 106.271C253.708 105.935 252.463 105.929 251.239 105.86C250.016 105.79 248.757 105.637 247.682 105.042C247.117 104.73 246.622 104.274 246.275 103.729C245.923 103.169 245.814 102.565 245.799 101.916C246.543 102.823 247.687 103.308 248.821 103.61C250.759 104.12 252.79 104.18 254.782 104.016C255.952 103.922 257.151 103.754 258.29 104.037C258.583 104.111 258.875 104.215 259.098 104.423L259.098 104.423Z" fill="white"/>
<path d="M246.588 98.0404C247.713 96.7125 249.264 95.8056 250.874 95.1272C250.453 95.5483 249.967 95.9094 249.631 96.4005C249.288 96.8863 249.115 97.5546 249.393 98.0801C249.685 98.6353 250.364 98.8583 250.983 98.9621C252.138 99.1601 253.312 99.1305 254.481 99.2248C255.646 99.3191 256.84 99.5462 257.816 100.186C258.797 100.825 259.525 101.95 259.421 103.114C258.376 101.95 256.786 101.449 255.244 101.202C253.709 100.954 252.142 100.909 250.592 101.028C249.546 101.108 248.491 101.261 247.45 101.132C247.059 101.083 246.667 100.994 246.34 100.776C245.28 100.067 245.949 98.7882 246.588 98.0404Z" fill="white"/>
<path d="M252.558 91.51C246.429 91.51 241.459 96.4794 241.459 102.609C241.459 108.739 246.429 113.708 252.558 113.708C258.688 113.708 263.657 108.739 263.657 102.609C263.657 96.4788 258.688 91.51 252.558 91.51ZM252.558 112.418C247.097 112.418 242.671 107.991 242.671 102.53C242.671 97.0696 247.097 92.6419 252.558 92.6419C258.02 92.6419 262.446 97.0689 262.446 102.53C262.446 107.991 258.02 112.418 252.558 112.418Z" fill="white"/>
<path d="M259.396 105.9C259.238 106.404 258.881 106.827 258.514 107.203C257.35 108.402 255.918 109.338 254.362 109.928C254.853 109.467 255.407 109.057 255.739 108.471C256.071 107.887 256.106 107.06 255.601 106.613C255.403 106.44 255.14 106.346 254.888 106.271C253.709 105.935 252.464 105.929 251.24 105.86C250.017 105.79 248.758 105.637 247.683 105.042C247.118 104.73 246.623 104.274 246.276 103.729C245.924 103.169 245.815 102.565 245.8 101.916C246.544 102.823 247.688 103.308 248.822 103.61C250.76 104.12 252.791 104.18 254.783 104.016C255.953 103.922 257.152 103.754 258.291 104.037C258.584 104.111 258.876 104.215 259.099 104.423C259.485 104.785 259.555 105.394 259.396 105.9L259.396 105.9Z" fill="#24C3BC"/>
<path d="M246.588 98.0404C247.713 96.7125 249.264 95.8056 250.874 95.1272C250.453 95.5483 249.967 95.9094 249.631 96.4005C249.288 96.8863 249.115 97.5546 249.393 98.0801C249.685 98.6353 250.364 98.8583 250.983 98.9621C252.138 99.1601 253.312 99.1305 254.481 99.2248C255.646 99.3191 256.84 99.5462 257.816 100.186C258.797 100.825 259.525 101.95 259.421 103.114C258.376 101.95 256.786 101.449 255.244 101.202C253.709 100.954 252.142 100.909 250.592 101.028C249.546 101.108 248.491 101.261 247.45 101.132C247.059 101.083 246.667 100.994 246.34 100.776C245.28 100.067 245.949 98.7882 246.588 98.0404Z" fill="#24C3BC"/>
<path d="M259.421 103.115C258.376 101.951 256.786 101.45 255.244 101.203C253.709 100.955 252.142 100.91 250.592 101.029C249.546 101.109 248.491 101.262 247.45 101.133C247.059 101.084 246.667 100.995 246.34 100.776C245.28 100.068 245.949 98.789 246.588 98.0411C247.713 96.7132 249.264 95.8064 250.874 95.1279C250.453 95.549 249.967 95.9101 249.631 96.4013C249.288 96.887 249.115 97.5554 249.393 98.0809C249.685 98.636 250.364 98.859 250.983 98.9628C252.138 99.1609 253.312 99.1312 254.481 99.2255C255.646 99.3199 256.84 99.5469 257.816 100.187C258.797 100.826 259.525 101.951 259.421 103.115Z" fill="white"/>
<path d="M259.396 105.9C259.238 106.404 258.881 106.827 258.514 107.203C257.35 108.402 255.918 109.338 254.362 109.928C254.853 109.467 255.407 109.057 255.739 108.471C256.071 107.887 256.106 107.06 255.601 106.613C255.403 106.44 255.14 106.346 254.888 106.271C253.709 105.935 252.464 105.929 251.24 105.86C250.017 105.79 248.758 105.637 247.683 105.042C247.118 104.73 246.623 104.274 246.276 103.729C245.924 103.169 245.815 102.565 245.8 101.916C246.544 102.823 247.688 103.308 248.822 103.61C250.76 104.12 252.791 104.18 254.783 104.016C255.953 103.922 257.152 103.754 258.291 104.037C258.584 104.111 258.876 104.215 259.099 104.423C259.485 104.785 259.555 105.394 259.396 105.9L259.396 105.9Z" fill="white"/>
</g>
</g>
<g filter="url(#filter5_d_534_4117)">
<path d="M28.9938 198.312C30.668 198.314 32.3426 198.317 34.0168 198.317C38.9037 198.318 43.7907 198.317 48.6773 198.317C48.7539 198.317 48.8309 198.317 48.9264 198.317C48.9296 198.801 48.7591 199.199 48.4548 199.532C47.8163 200.23 47.005 200.459 46.1008 200.363C45.3701 200.285 44.7332 199.988 44.2954 199.359C44.1418 199.138 44.0502 198.872 43.941 198.649C43.5305 199.927 42.5604 200.424 41.3029 200.37C40.1714 200.322 39.3133 199.798 38.9645 198.609C38.4348 199.896 37.6014 200.443 36.2714 200.381C35.1539 200.329 34.3273 199.689 33.9801 198.584C33.959 198.645 33.9434 198.682 33.933 198.721C33.7651 199.343 33.3718 199.772 32.8236 200.062C31.7161 200.648 30.2731 200.422 29.4803 199.547C29.2312 199.272 29.0968 198.941 28.9932 198.591V198.312H28.9938Z" fill="white"/>
<path d="M47.018 201.583C47.018 201.664 47.018 201.729 47.018 201.794C47.018 204.198 47.018 206.601 47.018 209.004C47.018 209.519 46.7965 209.749 46.298 209.749C44.9544 209.749 43.6111 209.749 42.2675 209.749C42.2038 209.749 42.1398 209.749 42.0509 209.749C42.0509 209.654 42.0509 209.577 42.0509 209.499C42.0509 207.786 42.0317 206.073 42.059 204.361C42.0726 203.512 41.4919 202.956 40.7066 202.972C39.5387 202.996 38.3702 202.994 37.2023 202.973C36.4286 202.959 35.8567 203.522 35.8684 204.339C35.8931 206.058 35.8759 207.778 35.8759 209.497C35.8759 209.575 35.8759 209.652 35.8759 209.739C35.795 209.743 35.7378 209.748 35.6807 209.748C34.3179 209.748 32.9548 209.749 31.5921 209.748C31.1448 209.748 30.9097 209.506 30.9097 209.046C30.9087 206.622 30.9094 204.199 30.9097 201.776C30.9097 201.717 30.9146 201.659 30.9178 201.584C31.2611 201.584 31.5972 201.606 31.9298 201.58C32.63 201.524 33.2682 201.275 33.8366 200.852C33.9441 200.772 34.0068 200.768 34.1185 200.849C35.5154 201.873 37.441 201.868 38.8391 200.84C38.9349 200.77 38.9908 200.768 39.0886 200.839C40.5062 201.873 42.4179 201.871 43.8264 200.841C43.8982 200.788 43.9479 200.744 44.044 200.816C44.8936 201.451 45.8465 201.694 46.8897 201.583C46.9215 201.58 46.9537 201.583 47.0183 201.583L47.018 201.583Z" fill="white"/>
<path d="M48.323 197.085H29.6084C29.6435 197.004 29.6688 196.939 29.6997 196.876C30.5558 195.129 31.4158 193.383 32.2664 191.632C32.42 191.316 32.6376 191.174 32.9871 191.175C36.9711 191.181 40.9548 191.181 44.9389 191.175C45.288 191.174 45.5066 191.315 45.6602 191.632C46.5082 193.376 47.3649 195.117 48.2185 196.859C48.25 196.923 48.2785 196.989 48.3234 197.086L48.323 197.085Z" fill="white"/>
<path d="M40.8519 204.22V209.734H37.0815V204.22H40.8519Z" fill="white"/>
</g>
<g clip-path="url(#clip7_534_4117)">
<g filter="url(#filter6_d_534_4117)">
<g clip-path="url(#clip8_534_4117)">
<path d="M235.57 198.023C235.571 197.182 235.24 196.536 234.462 196.18C234.21 196.064 233.91 196.004 233.632 196.003C230.025 195.991 226.419 195.992 222.811 195.997C221.682 195.998 220.867 196.812 220.866 197.933C220.863 202.584 220.864 207.235 220.866 211.886C220.866 212.868 221.459 213.583 222.429 213.794C222.455 213.799 222.478 213.815 222.501 213.826H233.944C234.051 213.795 234.16 213.768 234.266 213.733C235.067 213.472 235.563 212.761 235.567 211.857C235.572 210.961 235.569 210.065 235.569 209.169C235.569 205.454 235.566 201.738 235.57 198.023ZM224.549 212.081C224.549 212.432 224.261 212.719 223.908 212.719H222.772C222.419 212.719 222.131 212.432 222.131 212.081V210.95C222.131 210.599 222.419 210.312 222.772 210.312H223.908C224.261 210.312 224.549 210.599 224.549 210.95V212.081ZM233.884 212.313C233.837 212.36 233.771 212.39 233.7 212.39H225.845C225.702 212.39 225.584 212.272 225.584 212.129C225.584 212.058 225.613 211.992 225.661 211.946C225.708 211.898 225.774 211.869 225.845 211.869H233.7C233.843 211.869 233.961 211.986 233.961 212.129C233.961 212.2 233.931 212.266 233.884 212.313ZM233.884 211.085C233.837 211.132 233.771 211.162 233.7 211.162H225.845C225.702 211.162 225.584 211.045 225.584 210.902C225.584 210.83 225.613 210.765 225.661 210.718C225.708 210.671 225.774 210.641 225.845 210.641H233.7C233.843 210.641 233.961 210.758 233.961 210.902C233.961 210.973 233.931 211.038 233.884 211.085ZM234.63 209.289H221.638V198.412C221.638 197.523 222.362 196.802 223.255 196.802H233.012C233.906 196.802 234.63 197.523 234.63 198.412V209.289Z" fill="white"/>
<path d="M232.962 194.801C232.848 194.186 232.22 193.603 231.556 193.482C231.4 193.454 231.238 193.442 231.079 193.442C227.5 193.44 223.92 193.44 220.341 193.441C219.164 193.441 218.357 194.243 218.357 195.416C218.356 200.047 218.355 204.677 218.357 209.307C218.357 210.143 218.737 210.752 219.5 211.113C219.563 211.143 219.634 211.158 219.728 211.19V210.907C219.728 206.602 219.725 202.296 219.73 197.991C219.732 196.625 220.358 195.637 221.605 195.054C222.022 194.859 222.471 194.801 222.929 194.801C226.189 194.802 229.448 194.801 232.708 194.801H232.962H232.962Z" fill="white"/>
<path d="M227.064 198.161C226.786 198.437 226.465 198.675 226.243 198.998C226.017 199.317 225.902 199.757 226.086 200.102C226.279 200.467 226.727 200.613 227.136 200.681C227.899 200.812 228.674 200.792 229.446 200.854C230.215 200.916 231.003 201.066 231.648 201.486C232.295 201.906 232.776 202.646 232.708 203.411C232.018 202.646 230.967 202.317 229.95 202.154C228.936 201.991 227.902 201.962 226.878 202.04C226.187 202.092 225.491 202.193 224.803 202.108C224.545 202.076 224.287 202.017 224.07 201.874C223.37 201.408 223.812 200.568 224.234 200.076C224.977 199.204 226.001 198.607 227.064 198.162V198.161Z" fill="white"/>
<path d="M229.367 207.888C229.691 207.585 230.057 207.314 230.276 206.93C230.495 206.546 230.518 206.002 230.185 205.709C230.054 205.595 229.881 205.533 229.714 205.485C228.935 205.264 228.114 205.26 227.306 205.215C226.498 205.169 225.666 205.068 224.957 204.678C224.584 204.472 224.257 204.173 224.028 203.814C223.795 203.446 223.724 203.049 223.713 202.623C224.204 203.219 224.96 203.538 225.709 203.736C226.988 204.072 228.33 204.111 229.645 204.003C230.417 203.941 231.209 203.83 231.961 204.016C232.154 204.065 232.347 204.133 232.494 204.27C232.75 204.508 232.795 204.908 232.69 205.241C232.586 205.573 232.35 205.85 232.108 206.097C231.339 206.885 230.393 207.5 229.366 207.888L229.367 207.888Z" fill="white"/>
</g>
</g>
</g>
<g clip-path="url(#clip9_534_4117)">
<g filter="url(#filter7_d_534_4117)">
<g clip-path="url(#clip10_534_4117)">
<path d="M133.268 235.55C133.71 235.709 134.058 235.97 134.145 236.454C134.188 236.691 134.167 236.939 134.171 237.182C134.174 237.359 134.174 237.536 134.17 237.713C134.155 238.361 133.708 238.828 133.054 238.857C132.691 238.874 132.326 238.874 131.962 238.857C131.308 238.827 130.86 238.361 130.847 237.713C130.841 237.389 130.843 237.064 130.846 236.74C130.852 236.158 131.124 235.785 131.677 235.593C131.703 235.584 131.725 235.565 131.75 235.55C132.256 235.55 132.762 235.55 133.268 235.55Z" fill="white"/>
<path d="M132.127 249.359C132.127 250.083 132.128 250.807 132.126 251.53C132.126 251.87 132.022 251.929 131.719 251.766C130.518 251.118 129.319 250.466 128.116 249.821C127.922 249.717 127.839 249.574 127.84 249.359C127.843 247.919 127.84 246.479 127.843 245.039C127.843 244.748 127.962 244.679 128.221 244.818C129.455 245.483 130.687 246.152 131.923 246.814C132.074 246.895 132.131 246.998 132.13 247.166C132.123 247.897 132.127 248.628 132.127 249.359Z" fill="white"/>
<path d="M132.891 249.345C132.891 248.621 132.896 247.898 132.888 247.174C132.886 246.996 132.949 246.893 133.108 246.808C134.325 246.158 135.537 245.5 136.751 244.844C137.078 244.668 137.176 244.727 137.176 245.098C137.177 246.501 137.172 247.904 137.18 249.307C137.182 249.569 137.083 249.73 136.852 249.853C135.666 250.484 134.487 251.126 133.306 251.763C132.993 251.932 132.892 251.872 132.892 251.517C132.891 250.793 132.892 250.069 132.892 249.346L132.891 249.345Z" fill="white"/>
<path d="M132.513 246.254C132.449 246.227 132.386 246.207 132.328 246.176C131.095 245.51 129.862 244.845 128.632 244.173C128.552 244.13 128.453 244.031 128.453 243.958C128.453 243.885 128.553 243.787 128.633 243.744C129.83 243.09 131.033 242.445 132.231 241.791C132.429 241.683 132.6 241.688 132.796 241.794C133.994 242.447 135.196 243.092 136.393 243.746C136.472 243.789 136.558 243.888 136.565 243.968C136.57 244.031 136.473 244.128 136.398 244.169C135.168 244.841 133.935 245.506 132.701 246.171C132.643 246.203 132.581 246.225 132.513 246.254Z" fill="white"/>
<path d="M141.947 240.422C142.133 240.422 142.319 240.418 142.504 240.423C143.063 240.44 143.541 240.857 143.583 241.409C143.615 241.849 143.614 242.295 143.583 242.734C143.546 243.256 143.121 243.672 142.593 243.709C142.157 243.738 141.716 243.74 141.281 243.709C140.712 243.668 140.287 243.192 140.276 242.626C140.268 242.257 140.267 241.889 140.276 241.52C140.289 240.912 140.774 240.437 141.39 240.423C141.576 240.418 141.762 240.422 141.947 240.422Z" fill="white"/>
<path d="M123.067 253.366C122.889 253.366 122.711 253.37 122.533 253.366C121.951 253.351 121.471 252.929 121.431 252.354C121.401 251.928 121.402 251.498 121.431 251.072C121.468 250.537 121.889 250.116 122.427 250.079C122.863 250.05 123.304 250.049 123.739 250.08C124.307 250.121 124.73 250.597 124.742 251.165C124.75 251.534 124.75 251.902 124.742 252.271C124.728 252.87 124.248 253.346 123.647 253.365C123.454 253.371 123.26 253.366 123.067 253.366L123.067 253.366Z" fill="white"/>
<path d="M141.934 253.365C141.748 253.365 141.562 253.37 141.377 253.365C140.775 253.347 140.291 252.871 140.276 252.276C140.267 251.9 140.267 251.523 140.276 251.148C140.29 250.594 140.715 250.12 141.272 250.08C141.715 250.049 142.164 250.05 142.607 250.081C143.123 250.117 143.546 250.534 143.582 251.044C143.613 251.491 143.615 251.945 143.58 252.391C143.539 252.931 143.06 253.345 142.513 253.364C142.32 253.37 142.126 253.365 141.933 253.365L141.934 253.365Z" fill="white"/>
<path d="M124.744 242.087C124.744 242.264 124.748 242.441 124.743 242.618C124.729 243.196 124.305 243.67 123.723 243.711C123.295 243.74 122.861 243.739 122.433 243.71C121.894 243.673 121.469 243.254 121.432 242.721C121.403 242.288 121.401 241.85 121.433 241.418C121.475 240.855 121.956 240.435 122.527 240.423C122.898 240.416 123.27 240.415 123.641 240.424C124.244 240.437 124.723 240.914 124.742 241.511C124.748 241.703 124.743 241.895 124.743 242.087H124.744Z" fill="white"/>
<path d="M134.169 256.581C134.169 256.773 134.176 256.965 134.167 257.156C134.141 257.757 133.665 258.221 133.057 258.235C132.693 258.244 132.329 258.244 131.965 258.235C131.347 258.222 130.868 257.752 130.85 257.139C130.84 256.785 130.842 256.43 130.848 256.077C130.859 255.428 131.308 254.96 131.961 254.931C132.324 254.914 132.689 254.914 133.053 254.931C133.706 254.959 134.155 255.425 134.17 256.073C134.175 256.242 134.171 256.412 134.171 256.582C134.17 256.582 134.17 256.582 134.169 256.582L134.169 256.581Z" fill="white"/>
<path d="M125.67 241.127C125.573 241.033 125.421 240.952 125.387 240.838C125.353 240.721 125.422 240.566 125.471 240.437C125.49 240.388 125.576 240.361 125.635 240.33C126.958 239.646 128.28 238.963 129.604 238.28C129.84 238.158 130.021 238.173 130.15 238.324C130.32 238.52 130.256 238.79 129.994 238.928C129.43 239.225 128.862 239.514 128.296 239.806C127.533 240.201 126.77 240.596 126.005 240.989C125.915 241.035 125.816 241.067 125.671 241.127H125.67Z" fill="white"/>
<path d="M135.198 238.195C135.241 238.212 135.328 238.235 135.405 238.274C136.735 238.959 138.065 239.645 139.394 240.334C139.657 240.47 139.737 240.679 139.62 240.891C139.507 241.094 139.302 241.136 139.042 241.003C137.705 240.314 136.369 239.624 135.033 238.933C134.813 238.819 134.73 238.661 134.79 238.469C134.844 238.296 134.965 238.2 135.198 238.196L135.198 238.195Z" fill="white"/>
<path d="M130.239 255.223C130.234 255.51 129.959 255.676 129.682 255.544C129.38 255.402 129.087 255.243 128.791 255.09C127.738 254.546 126.684 254.004 125.634 253.453C125.53 253.399 125.4 253.299 125.382 253.202C125.359 253.078 125.403 252.909 125.481 252.806C125.591 252.662 125.767 252.676 125.928 252.759C126.514 253.062 127.099 253.365 127.686 253.667C128.443 254.057 129.2 254.448 129.958 254.837C130.117 254.919 130.247 255.021 130.239 255.223H130.239Z" fill="white"/>
<path d="M135.107 255.632C135.011 255.547 134.878 255.473 134.812 255.36C134.729 255.217 134.766 255.056 134.901 254.941C134.956 254.893 135.025 254.859 135.09 254.826C136.373 254.162 137.656 253.499 138.94 252.836C139.019 252.795 139.097 252.75 139.181 252.724C139.369 252.664 139.522 252.727 139.616 252.895C139.708 253.06 139.689 253.225 139.545 253.357C139.486 253.41 139.41 253.447 139.338 253.485C138.048 254.152 136.758 254.818 135.467 255.483C135.37 255.532 135.265 255.567 135.107 255.632L135.107 255.632Z" fill="white"/>
<path d="M123.458 246.911C123.458 247.546 123.459 248.18 123.458 248.815C123.457 249.138 123.325 249.302 123.074 249.298C122.825 249.294 122.697 249.128 122.697 248.802C122.696 247.533 122.697 246.264 122.697 244.995C122.697 244.951 122.695 244.906 122.699 244.862C122.721 244.629 122.87 244.487 123.087 244.491C123.307 244.494 123.453 244.636 123.455 244.875C123.461 245.553 123.457 246.232 123.457 246.911H123.458L123.458 246.911Z" fill="white"/>
<path d="M141.559 246.898C141.559 246.249 141.558 245.6 141.56 244.95C141.561 244.646 141.697 244.485 141.944 244.49C142.181 244.494 142.32 244.654 142.32 244.942C142.322 246.248 142.321 247.554 142.321 248.859C142.321 249.034 142.276 249.202 142.101 249.256C141.987 249.29 141.809 249.29 141.731 249.223C141.635 249.143 141.57 248.977 141.567 248.846C141.551 248.197 141.559 247.547 141.559 246.898V246.898Z" fill="white"/>
<path d="M125.721 243.052C125.784 243.07 125.853 243.08 125.911 243.109C126.182 243.246 126.454 243.382 126.72 243.529C126.935 243.649 126.992 243.833 126.892 244.033C126.789 244.238 126.592 244.304 126.364 244.192C126.085 244.055 125.808 243.911 125.536 243.76C125.365 243.664 125.295 243.495 125.376 243.326C125.434 243.203 125.571 243.118 125.673 243.016C125.689 243.028 125.705 243.04 125.721 243.052Z" fill="white"/>
<path d="M139.665 243.525C139.624 243.576 139.564 243.705 139.462 243.767C139.197 243.927 138.916 244.065 138.635 244.2C138.42 244.303 138.227 244.233 138.126 244.036C138.024 243.837 138.08 243.65 138.294 243.532C138.56 243.385 138.829 243.243 139.104 243.112C139.388 242.977 139.675 243.155 139.665 243.526V243.525Z" fill="white"/>
<path d="M126.934 250.006C126.894 250.056 126.834 250.183 126.734 250.245C126.468 250.406 126.188 250.544 125.907 250.68C125.697 250.781 125.487 250.71 125.391 250.525C125.295 250.339 125.357 250.125 125.557 250.015C125.83 249.864 126.105 249.718 126.387 249.586C126.66 249.459 126.932 249.635 126.934 250.006V250.006Z" fill="white"/>
<path d="M138.482 249.541C138.524 249.554 138.598 249.567 138.662 249.599C138.921 249.729 139.179 249.86 139.432 249.998C139.653 250.118 139.727 250.322 139.63 250.516C139.531 250.719 139.313 250.781 139.078 250.664C138.806 250.528 138.536 250.387 138.27 250.242C138.105 250.152 138.048 250.002 138.097 249.827C138.145 249.657 138.259 249.548 138.482 249.541Z" fill="white"/>
<path d="M132.891 253.643C132.89 254.003 132.764 254.172 132.5 254.166C132.22 254.16 132.114 253.979 132.127 253.536C132.136 253.235 132.274 253.083 132.53 253.094C132.791 253.105 132.893 253.259 132.891 253.643Z" fill="white"/>
<path d="M132.891 240.116C132.889 240.551 132.739 240.727 132.451 240.691C132.208 240.661 132.122 240.507 132.127 240.108C132.13 239.801 132.239 239.645 132.466 239.623C132.677 239.603 132.843 239.725 132.879 239.935C132.892 240.015 132.89 240.097 132.891 240.116Z" fill="white"/>
</g>
</g>
</g>
<defs>
<filter id="filter0_d_534_4117" x="98.5332" y="89.5732" width="71.958" height="74.4841" filterUnits="userSpaceOnUse" color-interpolation-filters="sRGB">
<feFlood flood-opacity="0" result="BackgroundImageFix"/>
<feColorMatrix in="SourceAlpha" type="matrix" values="0 0 0 0 0 0 0 0 0 0 0 0 0 0 0 0 0 0 127 0" result="hardAlpha"/>
<feOffset/>
<feGaussianBlur stdDeviation="10"/>
<feColorMatrix type="matrix" values="0 0 0 0 0 0 0 0 0 0 0 0 0 0 0 0 0 0 1 0"/>
<feBlend mode="normal" in2="BackgroundImageFix" result="effect1_dropShadow_534_4117"/>
<feBlend mode="normal" in="SourceGraphic" in2="effect1_dropShadow_534_4117" result="shape"/>
</filter>
<filter id="filter1_d_534_4117" x="71.8418" y="7.24829" width="25.292" height="25.292" filterUnits="userSpaceOnUse" color-interpolation-filters="sRGB">
<feFlood flood-opacity="0" result="BackgroundImageFix"/>
<feColorMatrix in="SourceAlpha" type="matrix" values="0 0 0 0 0 0 0 0 0 0 0 0 0 0 0 0 0 0 127 0" result="hardAlpha"/>
<feOffset dy="2"/>
<feGaussianBlur stdDeviation="1"/>
<feComposite in2="hardAlpha" operator="out"/>
<feColorMatrix type="matrix" values="0 0 0 0 0 0 0 0 0 0 0 0 0 0 0 0 0 0 0.15 0"/>
<feBlend mode="normal" in2="BackgroundImageFix" result="effect1_dropShadow_534_4117"/>
<feBlend mode="normal" in="SourceGraphic" in2="effect1_dropShadow_534_4117" result="shape"/>
</filter>
<filter id="filter2_d_534_4117" x="176.943" y="10.9438" width="23.0269" height="21.2148" filterUnits="userSpaceOnUse" color-interpolation-filters="sRGB">
<feFlood flood-opacity="0" result="BackgroundImageFix"/>
<feColorMatrix in="SourceAlpha" type="matrix" values="0 0 0 0 0 0 0 0 0 0 0 0 0 0 0 0 0 0 127 0" result="hardAlpha"/>
<feOffset dy="2"/>
<feGaussianBlur stdDeviation="1"/>
<feComposite in2="hardAlpha" operator="out"/>
<feColorMatrix type="matrix" values="0 0 0 0 0 0 0 0 0 0 0 0 0 0 0 0 0 0 0.15 0"/>
<feBlend mode="normal" in2="BackgroundImageFix" result="effect1_dropShadow_534_4117"/>
<feBlend mode="normal" in="SourceGraphic" in2="effect1_dropShadow_534_4117" result="shape"/>
</filter>
<filter id="filter3_d_534_4117" x="5.24854" y="88.3389" width="24.8389" height="24.8389" filterUnits="userSpaceOnUse" color-interpolation-filters="sRGB">
<feFlood flood-opacity="0" result="BackgroundImageFix"/>
<feColorMatrix in="SourceAlpha" type="matrix" values="0 0 0 0 0 0 0 0 0 0 0 0 0 0 0 0 0 0 127 0" result="hardAlpha"/>
<feOffset dy="2"/>
<feGaussianBlur stdDeviation="1"/>
<feComposite in2="hardAlpha" operator="out"/>
<feColorMatrix type="matrix" values="0 0 0 0 0 0 0 0 0 0 0 0 0 0 0 0 0 0 0.15 0"/>
<feBlend mode="normal" in2="BackgroundImageFix" result="effect1_dropShadow_534_4117"/>
<feBlend mode="normal" in="SourceGraphic" in2="effect1_dropShadow_534_4117" result="shape"/>
</filter>
<filter id="filter4_d_534_4117" x="239.459" y="91.51" width="26.1978" height="26.198" filterUnits="userSpaceOnUse" color-interpolation-filters="sRGB">
<feFlood flood-opacity="0" result="BackgroundImageFix"/>
<feColorMatrix in="SourceAlpha" type="matrix" values="0 0 0 0 0 0 0 0 0 0 0 0 0 0 0 0 0 0 127 0" result="hardAlpha"/>
<feOffset dy="2"/>
<feGaussianBlur stdDeviation="1"/>
<feComposite in2="hardAlpha" operator="out"/>
<feColorMatrix type="matrix" values="0 0 0 0 0 0 0 0 0 0 0 0 0 0 0 0 0 0 0.15 0"/>
<feBlend mode="normal" in2="BackgroundImageFix" result="effect1_dropShadow_534_4117"/>
<feBlend mode="normal" in="SourceGraphic" in2="effect1_dropShadow_534_4117" result="shape"/>
</filter>
<filter id="filter5_d_534_4117" x="26.9932" y="191.175" width="23.9331" height="22.574" filterUnits="userSpaceOnUse" color-interpolation-filters="sRGB">
<feFlood flood-opacity="0" result="BackgroundImageFix"/>
<feColorMatrix in="SourceAlpha" type="matrix" values="0 0 0 0 0 0 0 0 0 0 0 0 0 0 0 0 0 0 127 0" result="hardAlpha"/>
<feOffset dy="2"/>
<feGaussianBlur stdDeviation="1"/>
<feComposite in2="hardAlpha" operator="out"/>
<feColorMatrix type="matrix" values="0 0 0 0 0 0 0 0 0 0 0 0 0 0 0 0 0 0 0.15 0"/>
<feBlend mode="normal" in2="BackgroundImageFix" result="effect1_dropShadow_534_4117"/>
<feBlend mode="normal" in="SourceGraphic" in2="effect1_dropShadow_534_4117" result="shape"/>
</filter>
<filter id="filter6_d_534_4117" x="216.355" y="193.44" width="21.2148" height="24.386" filterUnits="userSpaceOnUse" color-interpolation-filters="sRGB">
<feFlood flood-opacity="0" result="BackgroundImageFix"/>
<feColorMatrix in="SourceAlpha" type="matrix" values="0 0 0 0 0 0 0 0 0 0 0 0 0 0 0 0 0 0 127 0" result="hardAlpha"/>
<feOffset dy="2"/>
<feGaussianBlur stdDeviation="1"/>
<feComposite in2="hardAlpha" operator="out"/>
<feColorMatrix type="matrix" values="0 0 0 0 0 0 0 0 0 0 0 0 0 0 0 0 0 0 0.15 0"/>
<feBlend mode="normal" in2="BackgroundImageFix" result="effect1_dropShadow_534_4117"/>
<feBlend mode="normal" in="SourceGraphic" in2="effect1_dropShadow_534_4117" result="shape"/>
</filter>
<filter id="filter7_d_534_4117" x="119.409" y="235.55" width="26.1978" height="26.6912" filterUnits="userSpaceOnUse" color-interpolation-filters="sRGB">
<feFlood flood-opacity="0" result="BackgroundImageFix"/>
<feColorMatrix in="SourceAlpha" type="matrix" values="0 0 0 0 0 0 0 0 0 0 0 0 0 0 0 0 0 0 127 0" result="hardAlpha"/>
<feOffset dy="2"/>
<feGaussianBlur stdDeviation="1"/>
<feComposite in2="hardAlpha" operator="out"/>
<feColorMatrix type="matrix" values="0 0 0 0 0 0 0 0 0 0 0 0 0 0 0 0 0 0 0.15 0"/>
<feBlend mode="normal" in2="BackgroundImageFix" result="effect1_dropShadow_534_4117"/>
<feBlend mode="normal" in="SourceGraphic" in2="effect1_dropShadow_534_4117" result="shape"/>
</filter>
<linearGradient id="paint0_linear_534_4117" x1="98.9031" y1="126.817" x2="170.126" y2="126.817" gradientUnits="userSpaceOnUse">
<stop stop-color="#2FC3BC"/>
<stop offset="0.08" stop-color="#40CBC4"/>
<stop offset="0.27" stop-color="#67DDD8"/>
<stop offset="0.46" stop-color="#85ECE7"/>
<stop offset="0.65" stop-color="#9BF6F2"/>
<stop offset="0.83" stop-color="#A8FCF8"/>
<stop offset="1" stop-color="#ADFFFB"/>
</linearGradient>
<linearGradient id="paint1_linear_534_4117" x1="115.51" y1="107.847" x2="153.448" y2="145.859" gradientUnits="userSpaceOnUse">
<stop stop-color="#ADFFFB"/>
<stop offset="0.05" stop-color="#A8FCF8"/>
<stop offset="0.09" stop-color="#9BF6F2"/>
<stop offset="0.15" stop-color="#85ECE7"/>
<stop offset="0.2" stop-color="#67DDD8"/>
<stop offset="0.25" stop-color="#40CBC4"/>
<stop offset="0.27" stop-color="#2FC3BC"/>
<stop offset="0.47" stop-color="#ADFFFB"/>
<stop offset="0.55" stop-color="#A8FCF8"/>
<stop offset="0.63" stop-color="#9BF6F2"/>
<stop offset="0.71" stop-color="#85ECE7"/>
<stop offset="0.8" stop-color="#67DDD8"/>
<stop offset="0.89" stop-color="#40CBC4"/>
<stop offset="0.92" stop-color="#2FC3BC"/>
</linearGradient>
<linearGradient id="paint2_linear_534_4117" x1="76.8251" y1="164.191" x2="132.392" y2="164.191" gradientUnits="userSpaceOnUse">
<stop stop-color="#2FC3BC"/>
<stop offset="0.08" stop-color="#40CBC4"/>
<stop offset="0.27" stop-color="#67DDD8"/>
<stop offset="0.46" stop-color="#85ECE7"/>
<stop offset="0.65" stop-color="#9BF6F2"/>
<stop offset="0.83" stop-color="#A8FCF8"/>
<stop offset="1" stop-color="#ADFFFB"/>
</linearGradient>
<linearGradient id="paint3_linear_534_4117" x1="76.8251" y1="183.03" x2="132.819" y2="183.03" gradientUnits="userSpaceOnUse">
<stop stop-color="#2FC3BC"/>
<stop offset="0.08" stop-color="#40CBC4"/>
<stop offset="0.27" stop-color="#67DDD8"/>
<stop offset="0.46" stop-color="#85ECE7"/>
<stop offset="0.65" stop-color="#9BF6F2"/>
<stop offset="0.83" stop-color="#A8FCF8"/>
<stop offset="1" stop-color="#ADFFFB"/>
</linearGradient>
<linearGradient id="paint4_linear_534_4117" x1="114.448" y1="246.761" x2="150.123" y2="246.761" gradientUnits="userSpaceOnUse">
<stop stop-color="#2FC3BC"/>
<stop offset="0.08" stop-color="#40CBC4"/>
<stop offset="0.27" stop-color="#67DDD8"/>
<stop offset="0.46" stop-color="#85ECE7"/>
<stop offset="0.65" stop-color="#9BF6F2"/>
<stop offset="0.83" stop-color="#A8FCF8"/>
<stop offset="1" stop-color="#ADFFFB"/>
</linearGradient>
<linearGradient id="paint5_linear_534_4117" x1="76.4837" y1="119.468" x2="85.4204" y2="119.468" gradientUnits="userSpaceOnUse">
<stop stop-color="#2FC3BC"/>
<stop offset="0.08" stop-color="#40CBC4"/>
<stop offset="0.27" stop-color="#67DDD8"/>
<stop offset="0.46" stop-color="#85ECE7"/>
<stop offset="0.65" stop-color="#9BF6F2"/>
<stop offset="0.83" stop-color="#A8FCF8"/>
<stop offset="1" stop-color="#ADFFFB"/>
</linearGradient>
<linearGradient id="paint6_linear_534_4117" x1="69.2644" y1="105.112" x2="103.835" y2="148.532" gradientUnits="userSpaceOnUse">
<stop stop-color="#2FC3BC"/>
<stop offset="0.08" stop-color="#40CBC4"/>
<stop offset="0.27" stop-color="#67DDD8"/>
<stop offset="0.46" stop-color="#85ECE7"/>
<stop offset="0.65" stop-color="#9BF6F2"/>
<stop offset="0.83" stop-color="#A8FCF8"/>
<stop offset="1" stop-color="#ADFFFB"/>
</linearGradient>
<linearGradient id="paint7_linear_534_4117" x1="54.5087" y1="116.86" x2="89.3446" y2="160.614" gradientUnits="userSpaceOnUse">
<stop stop-color="#2FC3BC"/>
<stop offset="0.08" stop-color="#40CBC4"/>
<stop offset="0.27" stop-color="#67DDD8"/>
<stop offset="0.46" stop-color="#85ECE7"/>
<stop offset="0.65" stop-color="#9BF6F2"/>
<stop offset="0.83" stop-color="#A8FCF8"/>
<stop offset="1" stop-color="#ADFFFB"/>
</linearGradient>
<linearGradient id="paint8_linear_534_4117" x1="28.0554" y1="185.959" x2="50.25" y2="213.834" gradientUnits="userSpaceOnUse">
<stop stop-color="#2FC3BC"/>
<stop offset="0.08" stop-color="#40CBC4"/>
<stop offset="0.27" stop-color="#67DDD8"/>
<stop offset="0.46" stop-color="#85ECE7"/>
<stop offset="0.65" stop-color="#9BF6F2"/>
<stop offset="0.83" stop-color="#A8FCF8"/>
<stop offset="1" stop-color="#ADFFFB"/>
</linearGradient>
<linearGradient id="paint9_linear_534_4117" x1="104.081" y1="76.9561" x2="109.641" y2="83.9393" gradientUnits="userSpaceOnUse">
<stop stop-color="#2FC3BC"/>
<stop offset="0.08" stop-color="#40CBC4"/>
<stop offset="0.27" stop-color="#67DDD8"/>
<stop offset="0.46" stop-color="#85ECE7"/>
<stop offset="0.65" stop-color="#9BF6F2"/>
<stop offset="0.83" stop-color="#A8FCF8"/>
<stop offset="1" stop-color="#ADFFFB"/>
</linearGradient>
<linearGradient id="paint10_linear_534_4117" x1="110.826" y1="62.3709" x2="98.5229" y2="116.455" gradientUnits="userSpaceOnUse">
<stop stop-color="#2FC3BC"/>
<stop offset="0.08" stop-color="#40CBC4"/>
<stop offset="0.27" stop-color="#67DDD8"/>
<stop offset="0.46" stop-color="#85ECE7"/>
<stop offset="0.65" stop-color="#9BF6F2"/>
<stop offset="0.83" stop-color="#A8FCF8"/>
<stop offset="1" stop-color="#ADFFFB"/>
</linearGradient>
<linearGradient id="paint11_linear_534_4117" x1="92.4225" y1="58.1842" x2="80.0246" y2="112.683" gradientUnits="userSpaceOnUse">
<stop stop-color="#2FC3BC"/>
<stop offset="0.08" stop-color="#40CBC4"/>
<stop offset="0.27" stop-color="#67DDD8"/>
<stop offset="0.46" stop-color="#85ECE7"/>
<stop offset="0.65" stop-color="#9BF6F2"/>
<stop offset="0.83" stop-color="#A8FCF8"/>
<stop offset="1" stop-color="#ADFFFB"/>
</linearGradient>
<linearGradient id="paint12_linear_534_4117" x1="21.8032" y1="80.6331" x2="13.9041" y2="115.356" gradientUnits="userSpaceOnUse">
<stop stop-color="#2FC3BC"/>
<stop offset="0.08" stop-color="#40CBC4"/>
<stop offset="0.27" stop-color="#67DDD8"/>
<stop offset="0.46" stop-color="#85ECE7"/>
<stop offset="0.65" stop-color="#9BF6F2"/>
<stop offset="0.83" stop-color="#A8FCF8"/>
<stop offset="1" stop-color="#ADFFFB"/>
</linearGradient>
<linearGradient id="paint13_linear_534_4117" x1="154.591" y1="71.9778" x2="152.612" y2="80.6759" gradientUnits="userSpaceOnUse">
<stop stop-color="#2FC3BC"/>
<stop offset="0.08" stop-color="#40CBC4"/>
<stop offset="0.27" stop-color="#67DDD8"/>
<stop offset="0.46" stop-color="#85ECE7"/>
<stop offset="0.65" stop-color="#9BF6F2"/>
<stop offset="0.83" stop-color="#A8FCF8"/>
<stop offset="1" stop-color="#ADFFFB"/>
</linearGradient>
<linearGradient id="paint14_linear_534_4117" x1="170.218" y1="68.1443" x2="120.201" y2="92.3054" gradientUnits="userSpaceOnUse">
<stop stop-color="#2FC3BC"/>
<stop offset="0.08" stop-color="#40CBC4"/>
<stop offset="0.27" stop-color="#67DDD8"/>
<stop offset="0.46" stop-color="#85ECE7"/>
<stop offset="0.65" stop-color="#9BF6F2"/>
<stop offset="0.83" stop-color="#A8FCF8"/>
<stop offset="1" stop-color="#ADFFFB"/>
</linearGradient>
<linearGradient id="paint15_linear_534_4117" x1="162.021" y1="51.1743" x2="111.62" y2="75.5209" gradientUnits="userSpaceOnUse">
<stop stop-color="#2FC3BC"/>
<stop offset="0.08" stop-color="#40CBC4"/>
<stop offset="0.27" stop-color="#67DDD8"/>
<stop offset="0.46" stop-color="#85ECE7"/>
<stop offset="0.65" stop-color="#9BF6F2"/>
<stop offset="0.83" stop-color="#A8FCF8"/>
<stop offset="1" stop-color="#ADFFFB"/>
</linearGradient>
<linearGradient id="paint16_linear_534_4117" x1="100.4" y1="10.0752" x2="68.2886" y2="25.5875" gradientUnits="userSpaceOnUse">
<stop stop-color="#2FC3BC"/>
<stop offset="0.08" stop-color="#40CBC4"/>
<stop offset="0.27" stop-color="#67DDD8"/>
<stop offset="0.46" stop-color="#85ECE7"/>
<stop offset="0.65" stop-color="#9BF6F2"/>
<stop offset="0.83" stop-color="#A8FCF8"/>
<stop offset="1" stop-color="#ADFFFB"/>
</linearGradient>
<linearGradient id="paint17_linear_534_4117" x1="189.986" y1="108.282" x2="181.942" y2="112.168" gradientUnits="userSpaceOnUse">
<stop stop-color="#2FC3BC"/>
<stop offset="0.08" stop-color="#40CBC4"/>
<stop offset="0.27" stop-color="#67DDD8"/>
<stop offset="0.46" stop-color="#85ECE7"/>
<stop offset="0.65" stop-color="#9BF6F2"/>
<stop offset="0.83" stop-color="#A8FCF8"/>
<stop offset="1" stop-color="#ADFFFB"/>
</linearGradient>
<linearGradient id="paint18_linear_534_4117" x1="202.735" y1="118.085" x2="152.692" y2="93.9765" gradientUnits="userSpaceOnUse">
<stop stop-color="#2FC3BC"/>
<stop offset="0.08" stop-color="#40CBC4"/>
<stop offset="0.27" stop-color="#67DDD8"/>
<stop offset="0.46" stop-color="#85ECE7"/>
<stop offset="0.65" stop-color="#9BF6F2"/>
<stop offset="0.83" stop-color="#A8FCF8"/>
<stop offset="1" stop-color="#ADFFFB"/>
</linearGradient>
<linearGradient id="paint19_linear_534_4117" x1="210.914" y1="101.107" x2="160.488" y2="76.8129" gradientUnits="userSpaceOnUse">
<stop stop-color="#2FC3BC"/>
<stop offset="0.08" stop-color="#40CBC4"/>
<stop offset="0.27" stop-color="#67DDD8"/>
<stop offset="0.46" stop-color="#85ECE7"/>
<stop offset="0.65" stop-color="#9BF6F2"/>
<stop offset="0.83" stop-color="#A8FCF8"/>
<stop offset="1" stop-color="#ADFFFB"/>
</linearGradient>
<linearGradient id="paint20_linear_534_4117" x1="204.677" y1="27.3993" x2="172.549" y2="11.921" gradientUnits="userSpaceOnUse">
<stop stop-color="#2FC3BC"/>
<stop offset="0.08" stop-color="#40CBC4"/>
<stop offset="0.27" stop-color="#67DDD8"/>
<stop offset="0.46" stop-color="#85ECE7"/>
<stop offset="0.65" stop-color="#9BF6F2"/>
<stop offset="0.83" stop-color="#A8FCF8"/>
<stop offset="1" stop-color="#ADFFFB"/>
</linearGradient>
<linearGradient id="paint21_linear_534_4117" x1="183.624" y1="158.539" x2="175.576" y2="154.661" gradientUnits="userSpaceOnUse">
<stop stop-color="#2FC3BC"/>
<stop offset="0.08" stop-color="#40CBC4"/>
<stop offset="0.27" stop-color="#67DDD8"/>
<stop offset="0.46" stop-color="#85ECE7"/>
<stop offset="0.65" stop-color="#9BF6F2"/>
<stop offset="0.83" stop-color="#A8FCF8"/>
<stop offset="1" stop-color="#ADFFFB"/>
</linearGradient>
<linearGradient id="paint22_linear_534_4117" x1="183.897" y1="174.599" x2="171.537" y2="120.528" gradientUnits="userSpaceOnUse">
<stop stop-color="#2FC3BC"/>
<stop offset="0.08" stop-color="#40CBC4"/>
<stop offset="0.27" stop-color="#67DDD8"/>
<stop offset="0.46" stop-color="#85ECE7"/>
<stop offset="0.65" stop-color="#9BF6F2"/>
<stop offset="0.83" stop-color="#A8FCF8"/>
<stop offset="1" stop-color="#ADFFFB"/>
</linearGradient>
<linearGradient id="paint23_linear_534_4117" x1="202.296" y1="170.394" x2="189.842" y2="115.908" gradientUnits="userSpaceOnUse">
<stop stop-color="#2FC3BC"/>
<stop offset="0.08" stop-color="#40CBC4"/>
<stop offset="0.27" stop-color="#67DDD8"/>
<stop offset="0.46" stop-color="#85ECE7"/>
<stop offset="0.65" stop-color="#9BF6F2"/>
<stop offset="0.83" stop-color="#A8FCF8"/>
<stop offset="1" stop-color="#ADFFFB"/>
</linearGradient>
<linearGradient id="paint24_linear_534_4117" x1="256.138" y1="119.561" x2="248.202" y2="84.847" gradientUnits="userSpaceOnUse">
<stop stop-color="#2FC3BC"/>
<stop offset="0.08" stop-color="#40CBC4"/>
<stop offset="0.27" stop-color="#67DDD8"/>
<stop offset="0.46" stop-color="#85ECE7"/>
<stop offset="0.65" stop-color="#9BF6F2"/>
<stop offset="0.83" stop-color="#A8FCF8"/>
<stop offset="1" stop-color="#ADFFFB"/>
</linearGradient>
<linearGradient id="paint25_linear_534_4117" x1="140.295" y1="184.916" x2="138.307" y2="176.22" gradientUnits="userSpaceOnUse">
<stop stop-color="#2FC3BC"/>
<stop offset="0.08" stop-color="#40CBC4"/>
<stop offset="0.27" stop-color="#67DDD8"/>
<stop offset="0.46" stop-color="#85ECE7"/>
<stop offset="0.65" stop-color="#9BF6F2"/>
<stop offset="0.83" stop-color="#A8FCF8"/>
<stop offset="1" stop-color="#ADFFFB"/>
</linearGradient>
<linearGradient id="paint26_linear_534_4117" x1="127.884" y1="195.141" x2="162.409" y2="151.685" gradientUnits="userSpaceOnUse">
<stop stop-color="#2FC3BC"/>
<stop offset="0.08" stop-color="#40CBC4"/>
<stop offset="0.27" stop-color="#67DDD8"/>
<stop offset="0.46" stop-color="#85ECE7"/>
<stop offset="0.65" stop-color="#9BF6F2"/>
<stop offset="0.83" stop-color="#A8FCF8"/>
<stop offset="1" stop-color="#ADFFFB"/>
</linearGradient>
<linearGradient id="paint27_linear_534_4117" x1="142.652" y1="206.874" x2="177.442" y2="163.084" gradientUnits="userSpaceOnUse">
<stop stop-color="#2FC3BC"/>
<stop offset="0.08" stop-color="#40CBC4"/>
<stop offset="0.27" stop-color="#67DDD8"/>
<stop offset="0.46" stop-color="#85ECE7"/>
<stop offset="0.65" stop-color="#9BF6F2"/>
<stop offset="0.83" stop-color="#A8FCF8"/>
<stop offset="1" stop-color="#ADFFFB"/>
</linearGradient>
<linearGradient id="paint28_linear_534_4117" x1="216.042" y1="217.187" x2="238.207" y2="189.286" gradientUnits="userSpaceOnUse">
<stop stop-color="#2FC3BC"/>
<stop offset="0.08" stop-color="#40CBC4"/>
<stop offset="0.27" stop-color="#67DDD8"/>
<stop offset="0.46" stop-color="#85ECE7"/>
<stop offset="0.65" stop-color="#9BF6F2"/>
<stop offset="0.83" stop-color="#A8FCF8"/>
<stop offset="1" stop-color="#ADFFFB"/>
</linearGradient>
<linearGradient id="paint29_linear_534_4117" x1="92.613" y1="167.555" x2="98.1655" y2="160.566" gradientUnits="userSpaceOnUse">
<stop stop-color="#2FC3BC"/>
<stop offset="0.08" stop-color="#40CBC4"/>
<stop offset="0.27" stop-color="#67DDD8"/>
<stop offset="0.46" stop-color="#85ECE7"/>
<stop offset="0.65" stop-color="#9BF6F2"/>
<stop offset="0.83" stop-color="#A8FCF8"/>
<stop offset="1" stop-color="#ADFFFB"/>
</linearGradient>
<clipPath id="clip0_534_4117">
<rect width="270" height="264.564" fill="white"/>
</clipPath>
<clipPath id="clip1_534_4117">
<rect width="28.0872" height="28.0872" fill="white" transform="translate(70.6709 3.62402)"/>
</clipPath>
<clipPath id="clip2_534_4117">
<rect width="21.2921" height="21.2919" fill="white" transform="translate(73.8418 7.24829)"/>
</clipPath>
<clipPath id="clip3_534_4117">
<rect width="19.0268" height="17.2148" fill="white" transform="translate(178.943 10.9438)"/>
</clipPath>
<clipPath id="clip4_534_4117">
<rect width="28.0872" height="28.0872" fill="white" transform="translate(3.62451 84.7146)"/>
</clipPath>
<clipPath id="clip5_534_4117">
<rect width="20.8389" height="20.8389" fill="white" transform="translate(7.24854 88.3389)"/>
</clipPath>
<clipPath id="clip6_534_4117">
<rect width="28.0872" height="28.0872" fill="white" transform="translate(238.289 88.3389)"/>
</clipPath>
<clipPath id="clip7_534_4117">
<rect width="28.0872" height="28.0872" fill="white" transform="translate(212.919 189.363)"/>
</clipPath>
<clipPath id="clip8_534_4117">
<rect width="17.2148" height="20.3859" fill="white" transform="translate(218.355 193.44)"/>
</clipPath>
<clipPath id="clip9_534_4117">
<rect width="28.0872" height="28.0872" fill="white" transform="translate(118.238 232.852)"/>
</clipPath>
<clipPath id="clip10_534_4117">
<rect width="22.198" height="22.6913" fill="white" transform="translate(121.409 235.55)"/>
</clipPath>
</defs>
</svg>
