<svg xmlns="http://www.w3.org/2000/svg" width="24" height="24" viewBox="0 0 24 24" fill="none">
  <path fill-rule="evenodd" clip-rule="evenodd" d="M5 6C5 4.89543 5.89543 4 7 4H17C18.1046 4 19 4.89543 19 6V19C19 20.1046 18.1046 21 17 21H7C5.89543 21 5 20.1046 5 19V6ZM14.5 6C14.8766 6 15.1818 6.28277 15.1818 6.63158V7.01018C15.7876 7.12642 16.3756 7.37567 16.7806 7.722C17.0573 7.95858 17.0746 8.35816 16.8192 8.61447C16.5638 8.87079 16.1324 8.88679 15.8557 8.65021C15.555 8.39306 14.9089 8.17634 14.3437 8.20188C14.0723 8.21415 13.8996 8.27941 13.8082 8.34836C13.7416 8.39859 13.6664 8.48618 13.6664 8.70484C13.6664 8.78801 13.6865 8.82475 13.7003 8.8446C13.7183 8.87036 13.758 8.91134 13.8507 8.96177C14.0617 9.07656 14.3725 9.1544 14.8177 9.25814L14.8629 9.26865C15.2457 9.35766 15.7443 9.47358 16.1424 9.69003C16.3622 9.80952 16.583 9.9749 16.7473 10.2102C16.9159 10.4514 17 10.7304 17 11.0358C17 11.6186 16.7334 12.089 16.3068 12.4089C15.9788 12.6548 15.5807 12.7952 15.1818 12.8609V13.3684C15.1818 13.7172 14.8766 14 14.5 14C14.1235 14 13.8182 13.7172 13.8182 13.3684V12.8297C13.1788 12.7025 12.5598 12.4162 12.1526 11.9519C11.9152 11.6812 11.9597 11.2834 12.2519 11.0635C12.5442 10.8435 12.9736 10.8847 13.211 11.1555C13.4798 11.462 14.1336 11.6897 14.7811 11.637C15.0879 11.6119 15.3144 11.5279 15.4489 11.427C15.562 11.3422 15.6364 11.2298 15.6364 11.0358C15.6364 10.9528 15.6163 10.9162 15.6025 10.8965C15.5846 10.8708 15.5449 10.8298 15.4522 10.7794C15.2411 10.6647 14.9303 10.5869 14.485 10.4831L14.4403 10.4727L14.4403 10.4727L14.4403 10.4727C14.0573 10.3837 13.5585 10.2677 13.1602 10.051C12.9403 9.93141 12.7196 9.76594 12.5553 9.53059C12.3868 9.28933 12.3027 9.01031 12.3027 8.70484C12.3027 8.14624 12.5306 7.6832 12.947 7.36899C13.2075 7.1724 13.5117 7.05658 13.8182 6.99511V6.63158C13.8182 6.28277 14.1235 6 14.5 6ZM7.5 6C7.22386 6 7 6.22386 7 6.5C7 6.77614 7.22386 7 7.5 7H10.5C10.7761 7 11 6.77614 11 6.5C11 6.22386 10.7761 6 10.5 6H7.5ZM7 9.5C7 9.22386 7.22386 9 7.5 9H10.5C10.7761 9 11 9.22386 11 9.5C11 9.77614 10.7761 10 10.5 10H7.5C7.22386 10 7 9.77614 7 9.5ZM7.5 12C7.22386 12 7 12.2239 7 12.5C7 12.7761 7.22386 13 7.5 13H10.5C10.7761 13 11 12.7761 11 12.5C11 12.2239 10.7761 12 10.5 12H7.5ZM7 15.5C7 15.2239 7.22386 15 7.5 15H16.5C16.7761 15 17 15.2239 17 15.5C17 15.7761 16.7761 16 16.5 16H7.5C7.22386 16 7 15.7761 7 15.5ZM7.5 18C7.22386 18 7 18.2239 7 18.5C7 18.7761 7.22386 19 7.5 19H16.5C16.7761 19 17 18.7761 17 18.5C17 18.2239 16.7761 18 16.5 18H7.5Z" fill="url(#paint0_linear_205_253)"/>
  <defs>
    <linearGradient id="paint0_linear_205_253" x1="5" y1="4" x2="21.6845" y2="17.7402" gradientUnits="userSpaceOnUse">
      <stop stop-color="#24C3BC"/>
      <stop offset="1" stop-color="#ADFFFB"/>
    </linearGradient>
  </defs>
</svg>