<svg xmlns="http://www.w3.org/2000/svg" width="140" height="34" viewBox="0 0 140 34" fill="none">
  <g clip-path="url(#clip0_168_1236)">
    <path d="M30.2891 6.68361L30.1133 5.62634C30.1121 5.61939 30.1098 5.61245 30.1086 5.6055C30.1063 5.59276 30.104 5.58002 30.1005 5.56844C30.0982 5.55802 30.0947 5.5476 30.0912 5.53718C30.0877 5.52675 30.0853 5.51749 30.0819 5.50823C30.0772 5.49664 30.0725 5.48506 30.0679 5.47464C30.0644 5.46654 30.0609 5.45727 30.0562 5.44917C30.0504 5.43759 30.0446 5.42716 30.0388 5.41674C30.0341 5.40864 30.0295 5.40053 30.0248 5.39242C30.019 5.382 30.012 5.37274 30.0062 5.36347C30.0004 5.35537 29.9945 5.3461 29.9887 5.338C29.9829 5.32989 29.9759 5.32178 29.9689 5.31368C29.9619 5.30441 29.9538 5.29631 29.9468 5.28704C29.941 5.2801 29.934 5.27315 29.927 5.26736C29.9189 5.25925 29.9095 5.24999 29.9002 5.24188C29.8932 5.23609 29.8863 5.2303 29.8793 5.22451C29.87 5.2164 29.8606 5.20946 29.8502 5.20251C29.842 5.19672 29.8327 5.19093 29.8246 5.18514C29.8152 5.17935 29.8071 5.17356 29.7966 5.16777C29.785 5.16082 29.7745 5.15503 29.7628 5.14924C29.757 5.14577 29.7512 5.14229 29.7442 5.13882C29.7431 5.13882 29.7407 5.13766 29.7396 5.1365C29.7268 5.13071 29.7128 5.12492 29.6988 5.11913C29.6918 5.11681 29.6848 5.11334 29.6779 5.11102C29.6651 5.10639 29.6511 5.10292 29.6371 5.09829C29.6301 5.09597 29.622 5.09365 29.615 5.09134C29.6033 5.08786 29.5905 5.08671 29.5789 5.08439C29.5696 5.08207 29.5591 5.07976 29.5498 5.0786C29.5405 5.07744 29.5312 5.07628 29.5219 5.07628C29.509 5.07513 29.4974 5.07397 29.4846 5.07281C29.4764 5.07281 29.4695 5.07281 29.4613 5.07281C29.4473 5.07281 29.4322 5.07281 29.4182 5.07281C29.4112 5.07281 29.4043 5.07397 29.3961 5.07513C29.381 5.07628 29.367 5.07744 29.3519 5.07976C29.3495 5.07976 29.3484 5.07976 29.3461 5.07976C29.3391 5.07976 29.3332 5.08323 29.3263 5.08439C29.3135 5.08671 29.3006 5.08902 29.2878 5.0925C29.2774 5.09481 29.2669 5.09829 29.2564 5.10176C29.2459 5.10523 29.2366 5.10755 29.2261 5.11102C29.2145 5.11566 29.2029 5.12029 29.1924 5.12492C29.1842 5.12839 29.1749 5.13187 29.1668 5.1365C29.1551 5.14229 29.1446 5.14808 29.1342 5.15387C29.126 5.1585 29.1179 5.16314 29.1097 5.16777C29.0992 5.17356 29.0899 5.18051 29.0806 5.1863C29.0725 5.19209 29.0631 5.19788 29.055 5.20367C29.0468 5.20946 29.0387 5.2164 29.0305 5.22335C29.0212 5.2303 29.0131 5.23841 29.0038 5.24535C28.9968 5.25114 28.9898 5.25809 28.984 5.26504C28.9758 5.27315 28.9665 5.28241 28.9584 5.29168C28.9525 5.29862 28.9467 5.30557 28.9409 5.31252C28.9327 5.32178 28.9258 5.33105 28.9188 5.34147C28.913 5.34958 28.9071 5.35884 28.9013 5.36695C28.8955 5.37621 28.8897 5.38432 28.8838 5.39474C28.8769 5.40632 28.871 5.41674 28.8652 5.42832C28.8617 5.43411 28.8582 5.4399 28.8547 5.44685L23.3164 16.8939L23.2466 17.0236C23.1826 17.0027 23.115 16.9923 23.044 16.9923H7.5922L1.63711 5.4318C1.63711 5.4318 1.63129 5.42253 1.62896 5.4179C1.62314 5.40748 1.61732 5.39706 1.6115 5.38663C1.60568 5.37737 1.59986 5.3681 1.59403 5.36C1.58821 5.35189 1.58239 5.34263 1.57541 5.33452C1.56842 5.32526 1.56144 5.31599 1.55329 5.30673C1.54746 5.29978 1.54048 5.29283 1.53466 5.28589C1.52651 5.27662 1.51836 5.26852 1.50904 5.25925C1.50206 5.2523 1.49507 5.24651 1.48809 5.23956C1.47877 5.23146 1.47062 5.22451 1.46131 5.2164C1.45316 5.20946 1.44501 5.20367 1.43686 5.19788C1.42871 5.19209 1.4194 5.18514 1.41008 5.17935C1.40077 5.17356 1.39029 5.16777 1.38098 5.16082C1.37283 5.15619 1.36468 5.15156 1.35536 5.14692C1.34489 5.14113 1.33441 5.1365 1.32277 5.13071C1.31345 5.12724 1.3053 5.1226 1.29599 5.11913C1.28551 5.1145 1.27387 5.11102 1.26339 5.10639C1.25291 5.10292 1.2436 5.09944 1.23312 5.09713C1.22264 5.09365 1.21333 5.09134 1.20285 5.08902C1.19121 5.08555 1.1784 5.08323 1.16676 5.08092C1.1621 5.08092 1.15628 5.0786 1.15162 5.07744C1.14697 5.07744 1.14347 5.07744 1.13882 5.07628C1.12601 5.07397 1.1132 5.07281 1.1004 5.07165C1.09108 5.07165 1.08177 5.07049 1.07245 5.06934C1.05965 5.06934 1.048 5.06934 1.0352 5.06934C1.02588 5.06934 1.01541 5.06934 1.00609 5.06934C0.99445 5.06934 0.982807 5.07165 0.972329 5.07281C0.961851 5.07281 0.951373 5.07513 0.940895 5.07628C0.930416 5.07744 0.919938 5.07976 0.90946 5.08207C0.897818 5.08439 0.88734 5.08671 0.876861 5.08902C0.867547 5.09134 0.857069 5.09481 0.847755 5.09713C0.836113 5.1006 0.82447 5.10408 0.813992 5.10871C0.804678 5.11218 0.796529 5.11566 0.787215 5.11913C0.775572 5.12376 0.76393 5.12955 0.752288 5.13419C0.748795 5.1365 0.744138 5.13766 0.740645 5.13998C0.735988 5.14229 0.731331 5.14577 0.726674 5.14808C0.716196 5.15387 0.705718 5.15966 0.69524 5.16545C0.685926 5.17124 0.676612 5.17703 0.668462 5.18282C0.660312 5.18861 0.652163 5.1944 0.642849 5.20135C0.633535 5.2083 0.624221 5.21525 0.614907 5.22335C0.607922 5.22914 0.600936 5.23609 0.593951 5.24188C0.584637 5.24999 0.576487 5.25809 0.567173 5.26736C0.560188 5.27431 0.554366 5.28125 0.547381 5.2882C0.539231 5.29747 0.532246 5.30557 0.524096 5.31484C0.517111 5.32294 0.51129 5.33105 0.505468 5.33915C0.499647 5.34726 0.492662 5.35652 0.486841 5.36579C0.481019 5.37505 0.475198 5.38548 0.469377 5.39474C0.46472 5.40285 0.460063 5.41095 0.455406 5.42022C0.449585 5.43064 0.444928 5.44106 0.439107 5.45264C0.435614 5.4619 0.430957 5.47001 0.427464 5.47927C0.422807 5.4897 0.419315 5.50128 0.414658 5.5117C0.411165 5.52212 0.407672 5.53139 0.405344 5.54181C0.401851 5.55223 0.399522 5.56149 0.397194 5.57192C0.393701 5.5835 0.391373 5.59623 0.389044 5.60781C0.389044 5.61245 0.386716 5.61824 0.385552 5.62287L0.209751 6.68014C0.189959 6.80057 -0.000976562 7.99449 -0.000976562 9.86585C-0.000976562 11.6446 0.171331 14.0359 0.830292 16.6958C1.45782 19.2273 2.60343 22.2497 4.68277 25.2246C6.76094 28.1996 9.77516 31.1248 14.1085 33.4477L14.9316 33.8889C14.9386 33.8924 14.9456 33.8947 14.9525 33.8982C14.9665 33.9052 14.9805 33.9121 14.9944 33.9179C15.0084 33.9237 15.0224 33.9283 15.0364 33.933C15.0492 33.9376 15.062 33.9411 15.0748 33.9445C15.0934 33.9492 15.1109 33.9526 15.1295 33.9561C15.1388 33.9573 15.1481 33.9596 15.1574 33.9619C15.1842 33.9654 15.211 33.9677 15.2389 33.9677C15.2401 33.9677 15.2424 33.9677 15.2436 33.9677C15.2739 33.9677 15.3041 33.9665 15.3344 33.9619C15.3379 33.9619 15.3426 33.9607 15.3461 33.9596C15.3705 33.9561 15.3938 33.9515 15.4171 33.9457C15.4299 33.9422 15.4415 33.9376 15.4532 33.9341C15.4683 33.9295 15.4823 33.9248 15.4962 33.9191C15.5102 33.9133 15.5242 33.9063 15.5393 33.8994C15.5475 33.8959 15.5568 33.8924 15.5649 33.8878L16.388 33.4454C20.7214 31.1224 23.7367 28.1984 25.8137 25.2223C27.8931 22.2462 29.0375 19.2238 29.6662 16.6935C30.3252 14.0347 30.4975 11.6422 30.4975 9.86353C30.4975 7.99217 30.3077 6.79826 30.2868 6.67782L30.2891 6.68361ZM22.5515 18.3182L15.2622 31.8798L8.27561 18.3182H22.5515ZM5.77832 24.4708C3.81075 21.6545 2.72335 18.7872 2.12609 16.3809C1.49857 13.8494 1.33324 11.5635 1.33324 9.86932C1.33324 9.06797 1.3705 8.40096 1.41125 7.90185L13.6579 31.6713C10.0907 29.5603 7.57125 27.0346 5.77832 24.4708ZM28.3739 16.3809C27.7767 18.7872 26.6893 21.6545 24.7217 24.4708C22.9404 27.0196 20.4396 29.5302 16.9061 31.6343L24.4993 17.5076L24.5121 17.4821L29.0969 8.00607C29.1353 8.49244 29.1668 9.1224 29.1668 9.86816C29.1668 11.5623 29.0026 13.8494 28.3739 16.3809Z" fill="white"/>
    <path d="M5.34174 5.12258L15.2494 2.11405L25.3783 5.18975C25.7299 5.29629 26.1025 5.09942 26.2108 4.7497C26.3179 4.39998 26.12 4.02941 25.7684 3.92172L15.445 0.786962C15.3181 0.748747 15.1831 0.748747 15.0562 0.786962L4.95288 3.85455C4.60128 3.96109 4.4022 4.33166 4.51047 4.68254C4.61875 5.03342 4.99014 5.23028 5.3429 5.12258H5.34174Z" fill="white"/>
    <path d="M39.57 11.8103C39.1683 12.2087 38.9692 12.6939 38.9692 13.2625V21.4659C38.9692 22.0356 39.1695 22.5197 39.57 22.918C39.9705 23.3164 40.4571 23.5156 41.0299 23.5156H51.3055V22.1317H41.0299C40.846 22.1317 40.6888 22.0657 40.5573 21.9349C40.4257 21.804 40.3593 21.6477 40.3593 21.4647V13.2613C40.3593 13.0795 40.4245 12.922 40.5573 12.7911C40.6888 12.6603 40.846 12.5943 41.0299 12.5943H51.3055V11.2104H41.0299C40.4571 11.2104 39.9705 11.4096 39.57 11.808V11.8103Z" fill="white"/>
    <path d="M59.3125 23.5178H70.6021V22.1339H60.7049V18.0658H68.6602V16.6646H60.7049V12.5965H70.6021V11.2126H59.3125V23.5178Z" fill="white"/>
    <path d="M88.9178 11.23H78.6084V23.5177H80.0008V18.8694C80.3443 18.9157 80.5678 18.9378 80.6714 18.9378H85.2073L89.0738 23.5177H90.9121L87.0294 18.9378H88.9189C89.4917 18.9378 89.9784 18.7386 90.3789 18.3402C90.7794 17.9419 90.9808 17.4578 90.9808 16.8869V13.2808C90.9808 12.7111 90.7805 12.227 90.3789 11.8287C89.9784 11.4303 89.4917 11.2311 88.9189 11.2311L88.9178 11.23ZM89.5709 16.8869C89.5709 17.0699 89.508 17.2227 89.3823 17.349C89.2565 17.474 89.1017 17.5365 88.9178 17.5365H80.6703C80.4863 17.5365 80.3291 17.474 80.1976 17.349C80.066 17.2239 79.9997 17.0699 79.9997 16.8869V13.2808C79.9997 13.099 80.0649 12.9427 80.1976 12.8107C80.3291 12.6798 80.4863 12.6138 80.6703 12.6138H88.9178C89.1005 12.6138 89.2554 12.6798 89.3823 12.8107C89.508 12.9415 89.5709 13.099 89.5709 13.2808V16.8869Z" fill="white"/>
    <path d="M98.3677 12.5965H103.866V23.5178H105.258V12.5965H110.739V11.2126H98.3677V12.5965Z" fill="white"/>
    <path d="M119.623 11.2126H118.231V23.5178H119.623V11.2126Z" fill="white"/>
    <path d="M134.811 17.3652L139.983 11.2126H138.195L133.591 16.6646H129.605V11.2126H128.196V23.5178H129.605V18.0658H133.591L138.195 23.5178H140L134.811 17.3652Z" fill="white"/>
  </g>
  <defs>
    <clipPath id="clip0_168_1236">
      <rect width="140" height="33.2143" fill="white" transform="translate(0 0.758057)"/>
    </clipPath>
  </defs>
</svg>