<svg xmlns="http://www.w3.org/2000/svg" width="140" height="22" viewBox="0 0 140 22" fill="none">
  <g clip-path="url(#clip0_168_1245)">
    <path d="M0.00469619 0.913818H14.4892V15.2496C14.4892 15.2496 14.5636 17.4271 12.4256 18.7028L7.25974 21.8168L1.80568 18.589C1.80568 18.589 -0.106848 17.3132 0.00469619 14.7244L4.8504e-05 10.2952L4.95913 12.3216V14.7616L7.2458 16.1884L9.57429 14.7244V12.4726L3.23252 9.88386L3.30688 4.17882L11.187 4.216L11.2242 9.54458L9.4976 8.83116L9.53478 5.90311L4.95681 5.82875L4.91963 8.71961L11.2242 11.3641L11.2056 15.2473L7.25974 18.0429L3.32547 15.4169L3.30688 13.3905L1.61744 12.7538L1.7104 15.231C1.7104 15.231 1.65463 16.5254 2.87464 17.1831L7.24347 19.8485L12.1421 16.7531C12.1421 16.7531 12.8649 16.3302 12.837 14.1504L12.8091 2.5684H1.62209L1.69181 9.23783L4.8504e-05 8.58948L0.00469619 0.913818Z" fill="white"/>
    <path d="M15.8206 11.9218H18.6069C18.6603 13.0558 19.3435 13.99 21.0887 13.99C22.5086 13.99 23.3359 13.3788 23.3359 12.354C23.3359 11.4895 22.7433 11.0945 21.5907 10.8621L19.8292 10.5019C17.833 10.1254 16.1598 9.22611 16.1598 6.97663C16.1598 4.54822 18.1212 3.29102 21.0167 3.29102C23.9122 3.29102 25.8549 4.5854 25.8549 7.17648H23.0849C23.1198 6.04245 22.2042 5.52191 20.9632 5.52191C19.5062 5.52191 18.9856 6.2423 18.9856 6.97896C18.9856 7.55527 19.3458 8.11299 20.4776 8.34538L22.0949 8.66839C25.0625 9.27956 26.1942 10.4299 26.1942 12.3377C26.1942 15.0543 23.9471 16.2232 21.0678 16.2232C17.8144 16.2232 15.8159 14.6941 15.8159 11.9241L15.8206 11.9218Z" fill="white"/>
    <path d="M28.5713 13.2348V8.71956H26.9888V6.68619H28.5713V4.27637H31.1973V6.68619H33.0494V8.71956H31.1973V12.856C31.1973 13.5764 31.4134 14.0621 32.3847 14.0621C32.5823 14.0621 32.7449 14.0621 33.1214 14.0272V15.9885C32.7078 16.0954 32.2035 16.1675 31.6829 16.1675C29.8122 16.1675 28.5713 15.3216 28.5713 13.2371V13.2348Z" fill="white"/>
    <path d="M33.9116 13.5602C33.9116 11.492 35.6011 11.0435 37.2208 10.8088L38.8033 10.5741C39.6678 10.4486 39.9374 10.3045 39.9374 9.78162V9.65613C39.9374 8.66618 39.289 8.39661 38.4803 8.39661C37.6716 8.39661 36.8792 8.66618 36.8792 9.63754V9.81648H34.4159V9.38424C34.4159 7.55073 35.6382 6.50732 38.5523 6.50732C41.4664 6.50732 42.5098 7.51355 42.5098 9.54691V16.0397H40.0094V14.3852H39.9025C39.7236 14.8894 38.9683 16.2187 36.9164 16.2187C35.3873 16.2187 33.9139 15.482 33.9139 13.5579L33.9116 13.5602ZM37.8134 14.3526C39.0543 14.3526 39.935 13.5253 39.935 12.7887V11.7453C39.791 11.9614 39.3424 12.0334 38.9288 12.1055L37.6158 12.3402C36.8071 12.4657 36.5376 12.8607 36.5376 13.3464C36.5376 13.9227 36.9164 14.3526 37.8157 14.3526H37.8134Z" fill="white"/>
    <path d="M44.4688 6.68857H47.0947V8.95431H47.1667C47.4897 7.58789 48.3728 6.57935 49.8647 6.57935C50.0808 6.57935 50.3132 6.59794 50.5851 6.66998V8.88228C50.2969 8.84742 50.0808 8.82883 49.8484 8.82883C48.4448 8.82883 47.097 9.63753 47.097 11.9033V16.0397H44.4711V6.68857H44.4688Z" fill="white"/>
    <path d="M51.8237 3.45142H54.4497V10.5368L57.8843 6.68853H60.7798L57.0036 10.6623L61.2655 16.0397H58.37L55.3839 12.3517L54.4497 13.3417V16.0397H51.8237V3.45142Z" fill="white"/>
    <path d="M61.7513 10.295C61.7513 5.99588 64.0891 3.83936 67.3983 3.83936C69.8081 3.83936 71.4813 4.9548 72.0204 7.00443H70.9422C70.4379 5.63801 69.2876 4.81072 67.3983 4.81072C64.6654 4.81072 62.8482 6.62797 62.8482 10.295C62.8482 13.962 64.6817 15.7979 67.4169 15.7979C69.9173 15.7979 71.4627 14.3059 71.4627 11.2106H68.0629V10.2764H72.5224V11.0317C72.5224 14.7893 70.6331 16.7692 67.4146 16.7692C64.052 16.7692 61.749 14.6104 61.749 10.295H61.7513Z" fill="white"/>
    <path d="M78.081 15.8514C79.9517 15.8514 81.0835 14.6639 81.0835 12.777V7.23694H82.1454V16.5881H81.0835V14.7894H81.0649C80.9022 15.3472 80.0029 16.767 77.7743 16.767C75.9408 16.767 74.3745 15.8143 74.3745 12.9536V7.23462H75.4365V12.7747C75.4365 14.6639 76.2104 15.8491 78.081 15.8491V15.8514Z" fill="white"/>
    <path d="M83.8184 14.2689C83.8184 12.7584 84.7897 11.8776 86.7487 11.6429L89.212 11.3548C90.274 11.2479 90.597 10.9946 90.597 10.7064V10.1859C90.597 8.51271 89.7511 7.90154 88.0083 7.90154C86.2654 7.90154 85.4009 8.53131 85.4009 9.8071V10.0232H84.3761V9.73506C84.3761 7.86436 85.7239 7.05566 88.0454 7.05566C90.367 7.05566 91.6613 7.97358 91.6613 10.2021V16.5857H90.6365V14.8777H90.5831C90.3135 15.4354 89.1446 16.767 86.8603 16.767C85.043 16.767 83.8207 15.9397 83.8207 14.2689H83.8184ZM87.0741 15.8863C89.4653 15.8863 90.5993 14.2503 90.5993 13.3695V11.6964C90.5459 11.9125 90.1671 12.11 89.1423 12.2355L87.002 12.4702C85.3846 12.6677 84.8804 13.2975 84.8804 14.1968C84.8804 15.4726 85.8703 15.8863 87.0741 15.8863Z" fill="white"/>
    <path d="M93.8716 7.23678H94.9336V9.27014H94.9684C95.2031 8.42426 96.0839 7.12988 98.008 7.12988C98.2241 7.12988 98.4937 7.14847 98.6912 7.22051V8.11984C98.4751 8.08498 98.259 8.08498 98.0266 8.08498C95.9932 8.08498 94.9336 9.50485 94.9336 11.4127V16.5926H93.8716V7.23678Z" fill="white"/>
    <path d="M99.4648 11.9148C99.4648 8.56843 101.48 7.05793 103.708 7.05793C105.093 7.05793 106.46 7.65052 107.196 8.89145V3.99976H108.258V16.588H107.196V14.9334C106.46 16.1744 105.091 16.767 103.708 16.767C101.477 16.767 99.4648 15.2565 99.4648 11.9124V11.9148ZM103.852 15.87C105.56 15.87 107.252 14.6104 107.252 11.9124C107.252 9.21446 105.563 7.95494 103.852 7.95494C102.142 7.95494 100.471 9.21446 100.471 11.9124C100.471 14.6104 102.107 15.87 103.852 15.87Z" fill="white"/>
    <path d="M110.922 3.67676C111.317 3.67676 111.658 3.99977 111.658 4.41342C111.658 4.82706 111.317 5.15007 110.922 5.15007C110.527 5.15007 110.185 4.80847 110.185 4.41342C110.185 3.99977 110.527 3.67676 110.922 3.67676ZM110.383 7.23689H111.445V16.588H110.383V7.23689Z" fill="white"/>
    <path d="M113.134 14.2689C113.134 12.7584 114.105 11.8776 116.064 11.6429L118.527 11.3548C119.589 11.2479 119.912 10.9946 119.912 10.7064V10.1859C119.912 8.51271 119.067 7.90154 117.324 7.90154C115.581 7.90154 114.716 8.53131 114.716 9.8071V10.0232H113.692V9.73506C113.692 7.86436 115.039 7.05566 117.361 7.05566C119.682 7.05566 120.977 7.97358 120.977 10.2021V16.5857H119.952V14.8777H119.899C119.629 15.4354 118.46 16.767 116.176 16.767C114.358 16.767 113.136 15.9397 113.136 14.2689H113.134ZM116.389 15.8863C118.781 15.8863 119.915 14.2503 119.915 13.3695V11.6964C119.861 11.9125 119.483 12.11 118.458 12.2355L116.317 12.4702C114.7 12.6677 114.196 13.2975 114.196 14.1968C114.196 15.4726 115.186 15.8863 116.389 15.8863Z" fill="white"/>
    <path d="M127.251 7.97578C125.381 7.97578 124.249 9.16326 124.249 11.0502V16.5903H123.187V7.2368H124.249V9.03545H124.268C124.43 8.47773 125.33 7.05786 127.558 7.05786C129.392 7.05786 130.958 8.01064 130.958 10.8713V16.5903H129.896V11.0502C129.896 9.16094 129.122 7.97578 127.251 7.97578Z" fill="white"/>
    <path d="M132.538 14.0713H133.509C133.726 15.475 135.057 15.9049 136.352 15.9049C137.755 15.9049 138.905 15.3843 138.905 14.0528C138.905 12.9745 138.185 12.6677 137.053 12.3982L135.273 11.9659C133.709 11.5895 132.845 10.8156 132.845 9.51894C132.845 7.91781 134.193 7.05566 136.261 7.05566C138.329 7.05566 139.661 7.84809 139.786 9.68161H138.887C138.652 8.36864 137.699 7.92013 136.279 7.92013C134.75 7.92013 133.888 8.42441 133.888 9.53753C133.888 10.3462 134.355 10.8319 135.633 11.1387L137.379 11.5523C138.961 11.9125 140.005 12.4865 140.005 14.0342C140.005 16.1024 138.152 16.767 136.335 16.767C134.32 16.767 132.666 15.9583 132.54 14.069L132.538 14.0713Z" fill="white"/>
  </g>
  <defs>
    <clipPath id="clip0_168_1245">
      <rect width="140" height="20.903" fill="white" transform="translate(0 0.913818)"/>
    </clipPath>
  </defs>
</svg>