<svg xmlns="http://www.w3.org/2000/svg" width="92" height="100" viewBox="0 0 92 100" fill="none">
  <g style="mix-blend-mode:overlay" opacity="0.1" clip-path="url(#clip0_168_1289)">
    <path d="M90.5396 17.8404L90.0141 14.6572C90.0106 14.6363 90.0037 14.6154 90.0002 14.5945C89.9932 14.5561 89.9863 14.5178 89.9758 14.4829C89.9689 14.4515 89.9584 14.4202 89.948 14.3888C89.9375 14.3574 89.9306 14.3295 89.9201 14.3016C89.9062 14.2667 89.8923 14.2319 89.8784 14.2005C89.8679 14.1761 89.8575 14.1482 89.8436 14.1238C89.8262 14.0889 89.8088 14.0576 89.7914 14.0262C89.7775 14.0018 89.7635 13.9774 89.7496 13.953C89.7322 13.9216 89.7113 13.8937 89.6939 13.8658C89.6765 13.8414 89.6591 13.8135 89.6417 13.7891C89.6243 13.7647 89.6034 13.7403 89.5826 13.7159C89.5617 13.688 89.5373 13.6636 89.5164 13.6357C89.499 13.6148 89.4782 13.5938 89.4573 13.5764C89.4329 13.552 89.4051 13.5241 89.3772 13.4997C89.3564 13.4823 89.3355 13.4648 89.3146 13.4474C89.2868 13.423 89.2589 13.4021 89.2276 13.3812C89.2032 13.3637 89.1754 13.3463 89.151 13.3289C89.1232 13.3114 89.0988 13.294 89.0675 13.2766C89.0327 13.2557 89.0014 13.2382 88.9666 13.2208C88.9492 13.2103 88.9318 13.1999 88.9109 13.1894C88.9074 13.1894 88.9005 13.1859 88.897 13.1824C88.8587 13.165 88.8169 13.1476 88.7752 13.1301C88.7543 13.1232 88.7334 13.1127 88.7125 13.1057C88.6742 13.0918 88.6325 13.0813 88.5907 13.0674C88.5698 13.0604 88.5455 13.0534 88.5246 13.0465C88.4898 13.036 88.4515 13.0325 88.4167 13.0255C88.3889 13.0186 88.3575 13.0116 88.3297 13.0081C88.3019 13.0046 88.274 13.0011 88.2462 13.0011C88.2079 12.9977 88.1731 12.9942 88.1348 12.9907C88.1105 12.9907 88.0896 12.9907 88.0652 12.9907C88.0235 12.9907 87.9782 12.9907 87.9364 12.9907C87.9156 12.9907 87.8947 12.9942 87.8703 12.9977C87.8251 13.0011 87.7833 13.0046 87.7381 13.0116C87.7311 13.0116 87.7276 13.0116 87.7207 13.0116C87.6998 13.0116 87.6824 13.0221 87.6615 13.0255C87.6232 13.0325 87.585 13.0395 87.5467 13.05C87.5154 13.0569 87.484 13.0674 87.4527 13.0778C87.4214 13.0883 87.3935 13.0953 87.3622 13.1057C87.3274 13.1197 87.2926 13.1336 87.2613 13.1476C87.2369 13.158 87.2091 13.1685 87.1847 13.1824C87.1499 13.1999 87.1186 13.2173 87.0873 13.2347C87.0629 13.2487 87.0386 13.2626 87.0142 13.2766C86.9829 13.294 86.955 13.3149 86.9272 13.3324C86.9028 13.3498 86.875 13.3672 86.8506 13.3847C86.8263 13.4021 86.8019 13.423 86.7776 13.4439C86.7497 13.4648 86.7254 13.4893 86.6975 13.5102C86.6766 13.5276 86.6558 13.5485 86.6384 13.5694C86.614 13.5938 86.5862 13.6217 86.5618 13.6496C86.5444 13.6706 86.527 13.6915 86.5096 13.7124C86.4852 13.7403 86.4643 13.7682 86.4435 13.7996C86.4261 13.824 86.4087 13.8519 86.3913 13.8763C86.3739 13.9041 86.3565 13.9286 86.3391 13.9599C86.3182 13.9948 86.3008 14.0262 86.2834 14.061C86.2729 14.0785 86.2625 14.0959 86.2521 14.1168L69.697 48.581L69.4882 48.9714C69.2968 48.9087 69.0949 48.8773 68.8826 48.8773H22.6941L4.89315 14.0715C4.89315 14.0715 4.87575 14.0436 4.86879 14.0297C4.85139 13.9983 4.83399 13.9669 4.81659 13.9355C4.79919 13.9076 4.78179 13.8797 4.76439 13.8553C4.74698 13.8309 4.72958 13.803 4.7087 13.7786C4.68782 13.7507 4.66694 13.7229 4.64258 13.695C4.62518 13.674 4.6043 13.6531 4.5869 13.6322C4.56254 13.6043 4.53818 13.5799 4.51033 13.552C4.48945 13.5311 4.46857 13.5137 4.44769 13.4927C4.41985 13.4683 4.39549 13.4474 4.36765 13.423C4.34329 13.4021 4.31893 13.3847 4.29457 13.3672C4.2702 13.3498 4.24236 13.3289 4.21452 13.3114C4.18668 13.294 4.15536 13.2766 4.12752 13.2557C4.10316 13.2417 4.0788 13.2278 4.05095 13.2138C4.01963 13.1964 3.98831 13.1824 3.95351 13.165C3.92567 13.1545 3.90131 13.1406 3.87347 13.1301C3.84215 13.1162 3.80734 13.1057 3.77602 13.0918C3.7447 13.0813 3.71686 13.0709 3.68554 13.0639C3.65422 13.0534 3.62638 13.0465 3.59506 13.0395C3.56025 13.029 3.52197 13.0221 3.48717 13.0151C3.47325 13.0151 3.45585 13.0081 3.44193 13.0046C3.42801 13.0046 3.41757 13.0046 3.40365 13.0011C3.36537 12.9942 3.32708 12.9907 3.2888 12.9872C3.26096 12.9872 3.23312 12.9837 3.20528 12.9802C3.167 12.9802 3.1322 12.9802 3.09391 12.9802C3.06607 12.9802 3.03475 12.9802 3.00691 12.9802C2.97211 12.9802 2.93731 12.9872 2.90599 12.9907C2.87466 12.9907 2.84334 12.9977 2.81202 13.0011C2.7807 13.0046 2.74938 13.0116 2.71806 13.0186C2.68326 13.0255 2.65194 13.0325 2.62061 13.0395C2.59277 13.0465 2.56145 13.0569 2.53361 13.0639C2.49881 13.0744 2.46401 13.0848 2.43269 13.0988C2.40484 13.1092 2.38048 13.1197 2.35264 13.1301C2.31784 13.1441 2.28304 13.1615 2.24824 13.1755C2.2378 13.1824 2.22388 13.1859 2.21344 13.1929C2.19952 13.1999 2.1856 13.2103 2.17167 13.2173C2.14035 13.2347 2.10903 13.2522 2.07771 13.2696C2.04987 13.287 2.02203 13.3045 1.99767 13.3219C1.97331 13.3393 1.94895 13.3568 1.9211 13.3777C1.89326 13.3986 1.86542 13.4195 1.83758 13.4439C1.8167 13.4614 1.79582 13.4823 1.77494 13.4997C1.7471 13.5241 1.72274 13.5485 1.69489 13.5764C1.67401 13.5973 1.65661 13.6183 1.63573 13.6392C1.61137 13.6671 1.59049 13.6915 1.56613 13.7194C1.54525 13.7438 1.52785 13.7682 1.51045 13.7926C1.49305 13.817 1.47216 13.8449 1.45476 13.8728C1.43736 13.9007 1.41996 13.932 1.40256 13.9599C1.38864 13.9843 1.37472 14.0087 1.3608 14.0366C1.3434 14.068 1.32948 14.0994 1.31208 14.1343C1.30164 14.1622 1.28772 14.1866 1.27728 14.2144C1.26336 14.2458 1.25292 14.2807 1.23899 14.3121C1.22855 14.3434 1.21811 14.3713 1.21115 14.4027C1.20071 14.4341 1.19375 14.462 1.18679 14.4934C1.17635 14.5282 1.16939 14.5666 1.16243 14.6015C1.16243 14.6154 1.15547 14.6328 1.15199 14.6468L0.626489 17.83C0.567326 18.1926 -0.00341797 21.7871 -0.00341797 27.4213C-0.00341797 32.7766 0.511644 39.9763 2.48141 47.9848C4.35721 55.6063 7.78167 64.706 13.9972 73.6629C20.2093 82.6197 29.2194 91.4266 42.1725 98.4206L44.633 99.7489C44.6538 99.7594 44.6747 99.7664 44.6956 99.7768C44.7374 99.7977 44.7791 99.8187 44.8209 99.8361C44.8626 99.8535 44.9044 99.8675 44.9462 99.8814C44.9845 99.8954 45.0227 99.9058 45.061 99.9163C45.1167 99.9302 45.1689 99.9407 45.2246 99.9511C45.2524 99.9546 45.2803 99.9616 45.3081 99.9686C45.3882 99.979 45.4682 99.986 45.5517 99.986C45.5552 99.986 45.5622 99.986 45.5656 99.986C45.6561 99.986 45.7466 99.9825 45.8371 99.9686C45.8475 99.9686 45.8615 99.9651 45.8719 99.9616C45.945 99.9511 46.0146 99.9372 46.0842 99.9198C46.1225 99.9093 46.1573 99.8954 46.1921 99.8849C46.2373 99.871 46.2791 99.857 46.3208 99.8396C46.3626 99.8221 46.4044 99.8012 46.4496 99.7803C46.474 99.7699 46.5018 99.7594 46.5262 99.7454L48.9866 98.4136C61.9397 91.4197 70.9533 82.6162 77.1619 73.6559C83.3775 64.6956 86.7984 55.5958 88.6777 47.9778C90.6475 39.9728 91.1626 32.7696 91.1626 27.4144C91.1626 21.7802 90.5953 18.1856 90.5326 17.823L90.5396 17.8404ZM67.4105 52.8694L45.6213 93.6998L24.737 52.8694H67.4105ZM17.272 71.3932C11.3906 62.914 8.14013 54.2814 6.35481 47.0364C4.47901 39.4149 3.98483 32.5326 3.98483 27.4318C3.98483 25.0191 4.0962 23.0109 4.218 21.5082L40.8257 93.0723C30.1625 86.7164 22.6315 79.1123 17.272 71.3932ZM84.8148 47.0364C83.0294 54.2814 79.779 62.914 73.8975 71.3932C68.5729 79.067 61.0975 86.6257 50.5353 92.9607L73.2328 50.4288L73.2711 50.3521L86.9759 21.822C87.0908 23.2863 87.1847 25.183 87.1847 27.4283C87.1847 32.5291 86.694 39.4149 84.8148 47.0364Z" fill="#07051B"/>
    <path d="M15.9671 13.1407L45.5832 4.0828L75.8605 13.343C76.9115 13.6637 78.0251 13.071 78.3488 12.0181C78.6689 10.9652 78.0773 9.84949 77.0263 9.52524L46.1678 0.0872676C45.7885 -0.0277871 45.3848 -0.0277871 45.0055 0.0872676L14.8047 9.32302C13.7537 9.64378 13.1586 10.7595 13.4823 11.8159C13.8059 12.8723 14.9161 13.465 15.9706 13.1407H15.9671Z" fill="#07051B"/>
  </g>
  <defs>
    <clipPath id="clip0_168_1289">
      <rect width="91.1694" height="100" fill="white"/>
    </clipPath>
  </defs>
</svg>