<svg xmlns="http://www.w3.org/2000/svg" width="24" height="24" viewBox="0 0 24 24" fill="none">
  <path fill-rule="evenodd" clip-rule="evenodd" d="M5.5365 19.0714C5.36832 19.0714 5.20702 19.0037 5.0881 18.8831C4.96918 18.7626 4.90237 18.5991 4.90237 18.4286V5.57143C4.90237 5.40093 4.96918 5.23742 5.0881 5.11686C5.20702 4.9963 5.36832 4.92857 5.5365 4.92857H17.2678C17.5201 4.92857 17.762 4.82698 17.9404 4.64614C18.1188 4.4653 18.219 4.22003 18.219 3.96429C18.219 3.70854 18.1188 3.46327 17.9404 3.28243C17.762 3.10159 17.5201 3 17.2678 3H5.5365C4.86378 3 4.21861 3.27092 3.74292 3.75315C3.26724 4.23539 3 4.88944 3 5.57143V18.4286C3 19.1106 3.26724 19.7646 3.74292 20.2468C4.21861 20.7291 4.86378 21 5.5365 21H18.219C18.8917 21 19.5369 20.7291 20.0126 20.2468C20.4882 19.7646 20.7555 19.1106 20.7555 18.4286V14.25C20.7555 13.9943 20.6553 13.749 20.4769 13.5681C20.2985 13.3873 20.0566 13.2857 19.8043 13.2857C19.552 13.2857 19.3101 13.3873 19.1317 13.5681C18.9533 13.749 18.8531 13.9943 18.8531 14.25V18.4286C18.8531 18.5991 18.7863 18.7626 18.6674 18.8831C18.5485 19.0037 18.3872 19.0714 18.219 19.0714H5.5365ZM21.7447 7.73143C21.9127 7.54863 22.0042 7.30686 21.9999 7.05704C21.9955 6.80723 21.8957 6.56887 21.7214 6.3922C21.5471 6.21553 21.312 6.11433 21.0656 6.10992C20.8192 6.10551 20.5807 6.19824 20.4004 6.36857L13.3514 13.5133L10.976 11.0241C10.8893 10.9323 10.7856 10.8588 10.6708 10.8078C10.556 10.7567 10.4324 10.7292 10.3071 10.7268C10.1818 10.7243 10.0572 10.747 9.94057 10.7935C9.82393 10.8401 9.7175 10.9095 9.62742 10.9979C9.53733 11.0862 9.46536 11.1918 9.41565 11.3084C9.36593 11.4251 9.33945 11.5505 9.33772 11.6776C9.336 11.8046 9.35906 11.9308 9.40559 12.0488C9.45212 12.1668 9.52119 12.2743 9.60884 12.3651L12.6564 15.5589C12.7441 15.6511 12.8491 15.7246 12.9651 15.7753C13.0811 15.8259 13.206 15.8526 13.3323 15.8538C13.4586 15.855 13.5839 15.8307 13.7009 15.7822C13.8178 15.7338 13.9241 15.6622 14.0135 15.5717L21.7447 7.73143Z" fill="#24C3BC"/>
</svg>