<svg xmlns="http://www.w3.org/2000/svg" width="24" height="24" viewBox="0 0 24 24" fill="none">
  <g clip-path="url(#clip0_754_1015)">
    <path d="M13.7059 13.6964C15.3129 17.1593 14.0263 20.8279 11.4061 22.6641C8.63579 24.6054 4.9637 24.4103 2.47184 22.2151C-0.0350452 20.0068 -0.700878 16.4269 0.849185 13.4631C1.42803 12.3568 2.24656 11.4637 3.29349 10.7833C4.33166 10.1078 5.46934 9.72821 6.70651 9.64128C7.94868 9.55372 9.13204 9.78575 10.286 10.3067C8.45745 6.3016 10.4887 2.53978 12.9969 1.05756C15.9243 -0.672938 19.5482 -0.249537 21.8824 2.11012C24.2259 4.47917 24.6414 8.1084 22.9299 10.9327C21.321 13.5882 17.5839 15.4238 13.7059 13.697V13.6964ZM7.23529 11.2142C4.15895 11.1998 1.63392 13.702 1.61827 16.7803C1.60263 19.8729 4.08698 22.3721 7.20338 22.3971C10.2935 22.4221 12.8141 19.9273 12.8342 16.8247C12.8536 13.7464 10.3411 11.2279 7.23592 11.2136L7.23529 11.2142ZM16.7835 12.7777C19.8805 12.7702 22.3886 10.2573 22.3824 7.16717C22.3761 4.08704 19.873 1.59792 16.7785 1.59416C13.6821 1.59041 11.179 4.09892 11.1859 7.19844C11.1927 10.2848 13.7009 12.7846 16.7835 12.7771V12.7777Z" fill="url(#paint0_linear_754_1015)"/>
    <path d="M1.15451 6.85196C1.14826 5.27343 1.50746 3.85751 2.67141 2.76055C3.80533 1.69235 5.17329 1.18577 6.75777 1.18827C6.75777 0.949992 6.7609 0.728598 6.75714 0.507204C6.75339 0.294566 6.82535 0.130709 7.03812 0.058787C7.2415 -0.0100078 7.38918 0.0800509 7.51497 0.236403C8.01997 0.865562 8.52686 1.4941 9.03499 2.12075C9.19331 2.31651 9.20458 2.50788 9.04563 2.70801C8.53875 3.34655 8.03186 3.98509 7.52811 4.62614C7.40107 4.78749 7.24338 4.86066 7.04688 4.80062C6.84225 4.73808 6.77341 4.5711 6.77154 4.37285C6.76841 4.11705 6.77091 3.86126 6.77091 3.60985C4.61947 3.36594 3.28968 4.72558 3.57629 6.84133C3.83036 6.84133 4.08756 6.84383 4.34475 6.8407C4.53875 6.8382 4.68893 6.907 4.75839 7.09587C4.83099 7.2935 4.76027 7.45173 4.60132 7.57993C3.96553 8.09027 3.33224 8.60435 2.69457 9.11218C2.46678 9.29355 2.32661 9.28792 2.09194 9.1028C1.46428 8.60873 0.840998 8.10965 0.212087 7.61683C0.0437514 7.48487 -0.0457355 7.32602 0.0249779 7.11901C0.0963171 6.90825 0.270285 6.84446 0.482425 6.85071C0.697694 6.85696 0.912963 6.85196 1.15577 6.85196H1.15451Z" fill="url(#paint1_linear_754_1015)"/>
    <path d="M22.8467 17.1412C22.8511 18.7166 22.4925 20.1406 21.3198 21.2401C20.184 22.3045 18.8154 22.8092 17.2422 22.8049C17.2422 23.0519 17.2403 23.2745 17.2428 23.4978C17.2453 23.7011 17.1708 23.858 16.9737 23.93C16.7741 24.0025 16.6195 23.9225 16.4931 23.7649C15.9825 23.1294 15.4706 22.4953 14.9581 21.8611C14.7979 21.6629 14.8054 21.4721 14.9631 21.2739C15.4656 20.6428 15.9668 20.0105 16.4649 19.3751C16.5976 19.2056 16.7603 19.1262 16.9662 19.1956C17.1677 19.2638 17.229 19.4352 17.2303 19.6328C17.2315 19.8817 17.2303 20.13 17.2303 20.3751C19.3523 20.6497 20.6934 19.2926 20.4305 17.1518C20.1796 17.1518 19.9243 17.1493 19.669 17.1524C19.4662 17.1549 19.3085 17.0886 19.239 16.8854C19.1702 16.6834 19.2516 16.5314 19.4086 16.4057C20.0382 15.901 20.6646 15.3925 21.2954 14.8891C21.5263 14.7046 21.6715 14.7033 21.8992 14.8822C22.5338 15.3806 23.1633 15.8853 23.7979 16.3832C23.9681 16.5164 24.0463 16.6809 23.9718 16.8848C23.9005 17.0811 23.7347 17.1468 23.5319 17.1418C23.3098 17.1362 23.087 17.1405 22.8467 17.1405V17.1412Z" fill="url(#paint2_linear_754_1015)"/>
    <path d="M7.22408 12.0134C9.87114 12.0153 12.017 14.1623 12.0157 16.8066C12.0138 19.4589 9.87865 21.5966 7.22847 21.5991C4.56701 21.6016 2.41244 19.4508 2.41933 16.7991C2.42559 14.1586 4.58141 12.0116 7.22471 12.0134H7.22408ZM6.81169 14.3906C6.60706 14.4181 6.42997 14.4244 6.26288 14.4675C5.61958 14.632 5.16964 15.2618 5.22408 15.9035C5.28416 16.6133 5.81107 17.158 6.51007 17.1987C6.92434 17.2231 7.34173 17.1974 7.75725 17.2037C8.159 17.2093 8.41683 17.4445 8.42183 17.7953C8.42684 18.1587 8.16839 18.3951 7.75099 18.3995C7.21032 18.4057 6.66964 18.4039 6.12897 18.4114C5.80919 18.4157 5.63835 18.5646 5.64336 18.8198C5.64774 19.0649 5.81482 19.2025 6.12208 19.2075C6.35174 19.2113 6.58141 19.2081 6.79605 19.2081C6.81733 19.2538 6.82984 19.2688 6.83047 19.2832C6.83547 19.4989 6.83735 19.7153 6.84298 19.9311C6.85112 20.2338 6.9938 20.3989 7.24286 20.397C7.49004 20.3952 7.6346 20.2263 7.64023 19.9248C7.64461 19.6941 7.64086 19.4633 7.64086 19.2113C7.74599 19.2044 7.82671 19.1994 7.90744 19.1944C8.89305 19.1375 9.51945 18.108 9.0958 17.2212C8.83422 16.6727 8.37177 16.4151 7.77227 16.4051C7.39805 16.3988 7.02321 16.4176 6.64962 16.4088C6.2754 16.4001 6.0182 16.1424 6.02321 15.8047C6.02821 15.4751 6.27352 15.2412 6.64273 15.2168C6.70907 15.2124 6.77602 15.2143 6.84236 15.2143C7.33297 15.2112 7.82358 15.2093 8.31482 15.2043C8.63773 15.2011 8.80919 15.0617 8.80982 14.8078C8.80982 14.5526 8.63773 14.4106 8.31607 14.4069C8.08704 14.4044 7.85863 14.4069 7.61082 14.4069C7.61082 14.1392 7.61395 13.9078 7.61019 13.6764C7.60581 13.4006 7.455 13.2255 7.22283 13.218C6.98316 13.2105 6.81858 13.3931 6.81357 13.6808C6.80919 13.9128 6.81295 14.1448 6.81295 14.3912L6.81169 14.3906Z" fill="url(#paint3_linear_754_1015)"/>
    <path d="M16.7779 11.9791C14.1302 11.9772 11.9844 9.83141 11.985 7.18718C11.9862 4.53296 14.117 2.39782 16.7697 2.39344C19.4299 2.38906 21.5882 4.54109 21.5814 7.19094C21.5751 9.83141 19.418 11.9809 16.7772 11.9791H16.7779ZM16.3617 4.39099C16.2528 4.39099 16.1715 4.39099 16.0907 4.39099C15.5419 4.39412 14.9931 4.39599 14.4437 4.40225C14.1452 4.40537 13.9718 4.55547 13.9737 4.79876C13.9756 5.04079 14.1558 5.19651 14.4456 5.20027C14.6765 5.20339 14.9074 5.20027 15.1627 5.20027V9.16847C15.1352 9.17848 15.1195 9.18849 15.1045 9.18849C14.8968 9.19099 14.689 9.19099 14.4806 9.19474C14.1596 9.20037 13.9894 9.34234 13.9944 9.59875C13.9988 9.85204 14.1746 9.99276 14.495 9.99214C15.0357 9.99151 15.5763 9.98651 16.117 9.98526C16.204 9.98526 16.291 9.99276 16.3905 9.99776C16.3905 10.1354 16.3867 10.2429 16.3911 10.3499C16.4011 10.6025 16.5607 10.7726 16.786 10.7751C17.0094 10.7776 17.174 10.6082 17.1871 10.3542C17.1934 10.2342 17.1884 10.1135 17.1884 9.96274C17.53 9.96274 17.8304 9.98275 18.1277 9.95899C18.831 9.90208 19.4061 9.38361 19.5388 8.71318C19.6802 7.99709 19.3567 7.30726 18.7197 6.96829C18.6558 6.93452 18.592 6.90075 18.5332 6.86948C18.5376 6.83758 18.5357 6.82007 18.5419 6.80569C19.0795 5.62242 18.5745 4.64803 17.2973 4.39287C17.2428 4.38223 17.1852 4.2978 17.164 4.23589C17.1408 4.16897 17.1608 4.08767 17.1565 4.01324C17.1433 3.75933 17.0069 3.60735 16.7847 3.5961C16.5494 3.58421 16.3849 3.73369 16.363 3.99073C16.3523 4.11331 16.3611 4.23714 16.3611 4.39099H16.3617Z" fill="url(#paint4_linear_754_1015)"/>
    <path d="M15.9932 9.17722V7.61933C16.0363 7.60995 16.0826 7.59181 16.129 7.59119C16.7278 7.58619 17.3267 7.57868 17.9256 7.58181C18.4187 7.58494 18.7741 7.9189 18.7804 8.36857C18.7867 8.81574 18.4362 9.16534 17.9425 9.1741C17.3036 9.18535 16.6646 9.17722 15.9932 9.17722Z" fill="url(#paint5_linear_754_1015)"/>
    <path d="M15.9838 6.78692V5.20214C16.4368 5.20214 16.8768 5.17962 17.3142 5.20901C17.684 5.23341 17.9631 5.59176 17.9669 5.97201C17.97 6.36477 17.7009 6.6906 17.3092 6.76378C17.236 6.77754 17.1609 6.78504 17.0864 6.78567C16.7303 6.78817 16.3749 6.78692 15.9838 6.78692Z" fill="url(#paint6_linear_754_1015)"/>
  </g>
  <defs>
    <linearGradient id="paint0_linear_754_1015" x1="0.019165" y1="0.000259399" x2="24.019" y2="23.9572" gradientUnits="userSpaceOnUse">
      <stop stop-color="#24C3BC"/>
      <stop offset="1" stop-color="#ADFFFB"/>
    </linearGradient>
    <linearGradient id="paint1_linear_754_1015" x1="0.000610352" y1="0.0354004" x2="9.21005" y2="9.19408" gradientUnits="userSpaceOnUse">
      <stop stop-color="#24C3BC"/>
      <stop offset="1" stop-color="#ADFFFB"/>
    </linearGradient>
    <linearGradient id="paint2_linear_754_1015" x1="14.8413" y1="14.7494" x2="24.0488" y2="23.9079" gradientUnits="userSpaceOnUse">
      <stop stop-color="#24C3BC"/>
      <stop offset="1" stop-color="#ADFFFB"/>
    </linearGradient>
    <linearGradient id="paint3_linear_754_1015" x1="2.41931" y1="12.0134" x2="12.0049" y2="21.6098" gradientUnits="userSpaceOnUse">
      <stop stop-color="#24C3BC"/>
      <stop offset="1" stop-color="#ADFFFB"/>
    </linearGradient>
    <linearGradient id="paint4_linear_754_1015" x1="11.985" y1="2.39343" x2="21.5706" y2="11.9898" gradientUnits="userSpaceOnUse">
      <stop stop-color="#24C3BC"/>
      <stop offset="1" stop-color="#ADFFFB"/>
    </linearGradient>
    <linearGradient id="paint5_linear_754_1015" x1="15.9932" y1="7.58107" x2="17.3735" y2="9.98721" gradientUnits="userSpaceOnUse">
      <stop stop-color="#24C3BC"/>
      <stop offset="1" stop-color="#ADFFFB"/>
    </linearGradient>
    <linearGradient id="paint6_linear_754_1015" x1="15.9838" y1="5.19389" x2="17.5397" y2="7.13046" gradientUnits="userSpaceOnUse">
      <stop stop-color="#24C3BC"/>
      <stop offset="1" stop-color="#ADFFFB"/>
    </linearGradient>
    <clipPath id="clip0_754_1015">
      <rect width="24" height="24" fill="white"/>
    </clipPath>
  </defs>
</svg>