<svg xmlns="http://www.w3.org/2000/svg" width="14" height="18" viewBox="0 0 14 18" fill="none">
  <g clip-path="url(#clip0_205_138)">
    <path d="M2.33333 0C1.04635 0 0 1.00898 0 2.25V15.75C0 16.991 1.04635 18 2.33333 18H11.6667C12.9536 18 14 16.991 14 15.75V2.25C14 1.00898 12.9536 0 11.6667 0H2.33333ZM5.83333 11.25H8.16667C9.77812 11.25 11.0833 12.5086 11.0833 14.0625C11.0833 14.3719 10.8208 14.625 10.5 14.625H3.5C3.17917 14.625 2.91667 14.3719 2.91667 14.0625C2.91667 12.5086 4.22187 11.25 5.83333 11.25ZM4.66667 7.875C4.66667 7.27826 4.9125 6.70597 5.35008 6.28401C5.78767 5.86205 6.38116 5.625 7 5.625C7.61884 5.625 8.21233 5.86205 8.64992 6.28401C9.0875 6.70597 9.33333 7.27826 9.33333 7.875C9.33333 8.47174 9.0875 9.04403 8.64992 9.46599C8.21233 9.88795 7.61884 10.125 7 10.125C6.38116 10.125 5.78767 9.88795 5.35008 9.46599C4.9125 9.04403 4.66667 8.47174 4.66667 7.875ZM5.25 2.25H8.75C9.07083 2.25 9.33333 2.50312 9.33333 2.8125C9.33333 3.12188 9.07083 3.375 8.75 3.375H5.25C4.92917 3.375 4.66667 3.12188 4.66667 2.8125C4.66667 2.50312 4.92917 2.25 5.25 2.25Z" fill="url(#paint0_linear_205_138)"/>
  </g>
  <defs>
    <linearGradient id="paint0_linear_205_138" x1="0" y1="0" x2="17.4462" y2="13.5692" gradientUnits="userSpaceOnUse">
      <stop stop-color="#24C3BC"/>
      <stop offset="1" stop-color="#ADFFFB"/>
    </linearGradient>
    <clipPath id="clip0_205_138">
      <rect width="14" height="18" fill="white"/>
    </clipPath>
  </defs>
</svg>