<svg xmlns="http://www.w3.org/2000/svg" width="24" height="24" viewBox="0 0 24 24" fill="none">
  <path fill-rule="evenodd" clip-rule="evenodd" d="M6.66667 8.4C6.66667 6.96783 7.22857 5.59432 8.22876 4.58162C9.22896 3.56893 10.5855 3 12 3C13.4145 3 14.771 3.56893 15.7712 4.58162C16.7714 5.59432 17.3333 6.96783 17.3333 8.4H18.2222C18.6937 8.4 19.1459 8.58964 19.4793 8.92721C19.8127 9.26477 20 9.72261 20 10.2V19.2C20 19.6774 19.8127 20.1352 19.4793 20.4728C19.1459 20.8104 18.6937 21 18.2222 21H5.77778C5.30628 21 4.8541 20.8104 4.5207 20.4728C4.1873 20.1352 4 19.6774 4 19.2V10.2C4 9.72261 4.1873 9.26477 4.5207 8.92721C4.8541 8.58964 5.30628 8.4 5.77778 8.4H6.66667ZM12 4.8C12.943 4.8 13.8474 5.17928 14.5142 5.85442C15.181 6.52955 15.5556 7.44522 15.5556 8.4H8.44444C8.44444 7.44522 8.81905 6.52955 9.48584 5.85442C10.1526 5.17928 11.057 4.8 12 4.8ZM13.7778 13.8C13.7778 14.116 13.6956 14.4263 13.5396 14.7C13.3836 14.9736 13.1591 15.2008 12.8889 15.3588V16.5C12.8889 16.7387 12.7952 16.9676 12.6285 17.1364C12.4618 17.3052 12.2357 17.4 12 17.4C11.7643 17.4 11.5382 17.3052 11.3715 17.1364C11.2048 16.9676 11.1111 16.7387 11.1111 16.5V15.3588C10.7722 15.1607 10.5074 14.8549 10.3576 14.4888C10.2079 14.1227 10.1816 13.7168 10.2829 13.3341C10.3842 12.9514 10.6073 12.6132 10.9178 12.372C11.2283 12.1308 11.6087 12 12 12C12.4715 12 12.9237 12.1896 13.2571 12.5272C13.5905 12.8648 13.7778 13.3226 13.7778 13.8Z" fill="url(#paint0_linear_205_223)"/>
  <defs>
    <linearGradient id="paint0_linear_205_223" x1="4" y1="3" x2="21.8759" y2="18.8897" gradientUnits="userSpaceOnUse">
      <stop stop-color="#24C3BC"/>
      <stop offset="1" stop-color="#ADFFFB"/>
    </linearGradient>
  </defs>
</svg>