<svg xmlns="http://www.w3.org/2000/svg" width="24" height="23" viewBox="0 0 24 23" fill="none">
  <path d="M0.000782076 8.59341C2.01658 8.59541 4.03277 8.59901 6.04857 8.59941C11.9325 8.60021 17.8165 8.59941 23.7 8.59941C23.7923 8.59941 23.885 8.59941 23.9999 8.59941C24.0039 9.18182 23.7986 9.66142 23.4322 10.0618C22.6634 10.9022 21.6866 11.179 20.5979 11.063C19.7181 10.969 18.9513 10.6114 18.4241 9.85342C18.2392 9.58782 18.1289 9.26782 17.9975 8.99942C17.5032 10.5374 16.3352 11.1362 14.8211 11.0714C13.4587 11.0134 12.4256 10.3822 12.0056 8.95061C11.3679 10.5002 10.3645 11.159 8.76316 11.0842C7.4176 11.0214 6.4224 10.251 6.00439 8.92061C5.97897 8.99461 5.9602 9.03941 5.94769 9.08581C5.74552 9.83462 5.27197 10.3514 4.6119 10.7006C3.27846 11.4062 1.54108 11.1334 0.586557 10.0806C0.286631 9.74982 0.124741 9.35061 0 8.92901V8.59341H0.000782076Z" fill="url(#paint0_linear_754_1007)"/>
  <path d="M21.7022 12.5319C21.7022 12.6295 21.7022 12.7079 21.7022 12.7859C21.7022 15.6795 21.7022 18.5731 21.7022 21.4667C21.7022 22.0871 21.4355 22.3631 20.8353 22.3631C19.2175 22.3635 17.6002 22.3631 15.9825 22.3631C15.9058 22.3631 15.8288 22.3631 15.7217 22.3631C15.7217 22.2495 15.7217 22.1563 15.7217 22.0627C15.7217 20.0003 15.6986 17.9379 15.7314 15.8759C15.7479 14.8539 15.0487 14.1847 14.1032 14.2039C12.697 14.2323 11.29 14.2299 9.88386 14.2047C8.95241 14.1883 8.26379 14.8667 8.27787 15.8495C8.30759 17.9195 8.28686 19.9899 8.28686 22.0603C8.28686 22.1539 8.28686 22.2471 8.28686 22.3515C8.18949 22.3559 8.12067 22.3623 8.05185 22.3623C6.41105 22.3627 4.76987 22.3635 3.12907 22.3623C2.59062 22.3619 2.3075 22.0711 2.3075 21.5167C2.30633 18.5991 2.30711 15.6815 2.3075 12.7639C2.3075 12.6931 2.31337 12.6227 2.31728 12.5331C2.73061 12.5331 3.13533 12.5595 3.53575 12.5275C4.37883 12.4607 5.14722 12.1611 5.83154 11.6519C5.96097 11.5555 6.03644 11.5499 6.17096 11.6483C7.85281 12.8807 10.1713 12.8747 11.8547 11.6371C11.97 11.5523 12.0373 11.5507 12.155 11.6363C13.8619 12.8803 16.1635 12.8787 17.8595 11.6379C17.9459 11.5747 18.0057 11.5219 18.1215 11.6083C19.1444 12.3723 20.2917 12.6655 21.5477 12.5315C21.5861 12.5275 21.6248 12.5311 21.7026 12.5311L21.7022 12.5319Z" fill="url(#paint1_linear_754_1007)"/>
  <path d="M23.2739 7.11641H0.741089C0.783321 7.01881 0.813822 6.94041 0.85097 6.86481C1.88175 4.76081 2.91721 2.65841 3.94134 0.550803C4.1263 0.169603 4.3883 -0.000797191 4.80905 2.80979e-06C9.60592 0.00720282 14.4024 0.00720282 19.1992 2.80979e-06C19.6196 -0.000797191 19.8828 0.169203 20.0677 0.550003C21.0887 2.65081 22.1203 4.74601 23.1479 6.84361C23.1859 6.92081 23.2203 7.00001 23.2743 7.11681L23.2739 7.11641Z" fill="url(#paint2_linear_754_1007)"/>
  <path d="M14.278 15.7066V22.3458H9.7384V15.7066H14.278Z" fill="url(#paint3_linear_754_1007)"/>
  <defs>
    <linearGradient id="paint0_linear_754_1007" x1="0" y1="8.59341" x2="0.514713" y2="13.5372" gradientUnits="userSpaceOnUse">
      <stop stop-color="#24C3BC"/>
      <stop offset="1" stop-color="#ADFFFB"/>
    </linearGradient>
    <linearGradient id="paint1_linear_754_1007" x1="2.30688" y1="11.563" x2="11.4881" y2="28.0511" gradientUnits="userSpaceOnUse">
      <stop stop-color="#24C3BC"/>
      <stop offset="1" stop-color="#ADFFFB"/>
    </linearGradient>
    <linearGradient id="paint2_linear_754_1007" x1="0.741089" y1="0" x2="4.82883" y2="12.9426" gradientUnits="userSpaceOnUse">
      <stop stop-color="#24C3BC"/>
      <stop offset="1" stop-color="#ADFFFB"/>
    </linearGradient>
    <linearGradient id="paint3_linear_754_1007" x1="9.7384" y1="15.7066" x2="15.9251" y2="19.9367" gradientUnits="userSpaceOnUse">
      <stop stop-color="#24C3BC"/>
      <stop offset="1" stop-color="#ADFFFB"/>
    </linearGradient>
  </defs>
</svg>