<svg xmlns="http://www.w3.org/2000/svg" width="36" height="36" viewBox="0 0 36 36" fill="none">
  <path d="M4.25 6.75C3.14543 6.75 2.25 7.64543 2.25 8.75V9.25C2.25 10.3546 3.14543 11.25 4.25 11.25H31.75C32.8546 11.25 33.75 10.3546 33.75 9.25V8.75C33.75 7.64543 32.8546 6.75 31.75 6.75H4.25ZM4.25 15.75C3.14543 15.75 2.25 16.6454 2.25 17.75V18.25C2.25 19.3546 3.14543 20.25 4.25 20.25H31.75C32.8546 20.25 33.75 19.3546 33.75 18.25V17.75C33.75 16.6454 32.8546 15.75 31.75 15.75H4.25ZM4.25 24.75C3.14543 24.75 2.25 25.6454 2.25 26.75V27.25C2.25 28.3546 3.14543 29.25 4.25 29.25H31.75C32.8546 29.25 33.75 28.3546 33.75 27.25V26.75C33.75 25.6454 32.8546 24.75 31.75 24.75H4.25Z" fill="#F7F8FB"/>
</svg>