<svg xmlns="http://www.w3.org/2000/svg" width="20" height="20" viewBox="0 0 20 20" fill="none">
  <path fill-rule="evenodd" clip-rule="evenodd" d="M4.99984 2.91675H14.9998C16.1504 2.91675 17.0832 3.84949 17.0832 5.00008V15.0001C17.0832 16.1507 16.1504 17.0834 14.9998 17.0834H4.99984C3.84924 17.0834 2.9165 16.1507 2.9165 15.0001V5.00008C2.9165 3.84949 3.84924 2.91675 4.99984 2.91675ZM4.99984 4.16675C4.5396 4.16675 4.1665 4.53984 4.1665 5.00008V15.0001C4.1665 15.4603 4.5396 15.8334 4.99984 15.8334H14.9998C15.4601 15.8334 15.8332 15.4603 15.8332 15.0001V5.00008C15.8332 4.53984 15.4601 4.16675 14.9998 4.16675H4.99984Z" fill="white"/>
</svg>