<svg xmlns="http://www.w3.org/2000/svg" width="24" height="24" viewBox="0 0 24 24" fill="none">
  <path d="M21 12.1403C21 11.0566 20.1172 10.1762 19.0305 10.1762C18.4994 10.1762 18.0176 10.3867 17.6624 10.7269C16.3154 9.75888 14.4584 9.13108 12.3939 9.06094L13.2907 4.84875L16.2239 5.46953C16.2591 6.21306 16.871 6.80579 17.6237 6.80579C18.4009 6.80579 19.0305 6.17799 19.0305 5.40289C19.0305 4.62779 18.4009 4 17.6237 4C17.0715 4 16.5967 4.31916 16.3681 4.78211L13.0938 4.08768C13.0023 4.06664 12.9074 4.08417 12.83 4.13678C12.7526 4.18588 12.6964 4.26655 12.6788 4.35774L11.6764 9.05743C9.5803 9.11705 7.69519 9.74134 6.3306 10.7234C5.97538 10.3832 5.49707 10.1762 4.96952 10.1762C3.88277 10.1762 3 11.0566 3 12.1403C3 12.9399 3.47831 13.6238 4.16413 13.9325C4.13247 14.1289 4.11841 14.3253 4.11841 14.5252C4.11841 17.5484 7.64595 20 12 20C16.354 20 19.8746 17.5484 19.8746 14.5252C19.8746 14.3253 19.857 14.1289 19.8288 13.936C20.5182 13.6309 21 12.9434 21 12.1403ZM7.49121 13.5432C7.49121 12.7681 8.12427 12.1403 8.89801 12.1403C9.67526 12.1403 10.3048 12.7716 10.3048 13.5432C10.3048 14.3183 9.67526 14.9461 8.89801 14.9461C8.12075 14.9461 7.49121 14.3183 7.49121 13.5432ZM15.3376 17.2538C14.3775 18.2113 12.5346 18.285 11.9965 18.285C11.4549 18.285 9.61547 18.2113 8.65533 17.2538C8.51465 17.1135 8.51465 16.8821 8.65533 16.7383C8.79601 16.598 9.02814 16.598 9.17233 16.7383C9.77726 17.3415 11.0715 17.5555 11.9965 17.5555C12.9215 17.5555 14.2157 17.3415 14.8242 16.7383C14.9683 16.598 15.197 16.598 15.3411 16.7383C15.4818 16.8821 15.4818 17.11 15.3376 17.2538ZM15.0914 14.9461C14.3142 14.9461 13.6846 14.3148 13.6846 13.5432C13.6846 12.7681 14.3177 12.1403 15.0914 12.1403C15.8687 12.1403 16.4982 12.7716 16.4982 13.5432C16.4982 14.3183 15.8652 14.9461 15.0914 14.9461Z" fill="url(#paint0_linear_205_247)"/>
  <defs>
    <linearGradient id="paint0_linear_205_247" x1="3" y1="4" x2="18.8897" y2="21.8759" gradientUnits="userSpaceOnUse">
      <stop stop-color="#24C3BC"/>
      <stop offset="1" stop-color="#ADFFFB"/>
    </linearGradient>
  </defs>
</svg>