<?xml version="1.0" encoding="UTF-8"?>
<svg id="Layer_1" data-name="Layer 1" xmlns="http://www.w3.org/2000/svg" viewBox="0 0 448 448">
  <defs>
    <style>
      .cls-1 {
        fill: #fff;
      }

      .cls-1, .cls-2 {
        stroke-width: 0px;
      }

      .cls-2 {
        fill: #24c3bc;
      }
    </style>
  </defs>
  <circle class="cls-1" cx="224" cy="224" r="224"/>
  <circle class="cls-2" cx="224" cy="222.4" r="210.6"/>
  <path class="cls-1" d="m190,73c-8.5,8.5-18.3,15.8-25.1,25.7-6.9,9.8-10.4,23.3-4.8,33.9,5.9,11.2,19.6,15.7,32.1,17.8,23.3,4,47,3.4,70.6,5.3,23.5,1.9,47.6,6.5,67.3,19.4,19.8,12.9,34.5,35.6,32.4,59.1-21.1-23.5-53.2-33.6-84.3-38.6-31-5-62.6-5.9-93.9-3.5-21.1,1.6-42.4,4.7-63.4,2.1-7.9-1-15.8-2.8-22.4-7.2-21.4-14.3-7.9-40.1,5-55.2,22.7-26.8,54-45.1,86.5-58.8Z"/>
  <path class="cls-1" d="m260.4,371.7c9.9-9.3,21.1-17.6,27.8-29.4,6.7-11.8,7.4-28.5-2.8-37.5-4-3.5-9.3-5.4-14.4-6.9-23.8-6.8-48.9-6.9-73.6-8.3-24.7-1.4-50.1-4.5-71.8-16.5-11.4-6.3-21.4-15.5-28.4-26.5-7.1-11.3-9.3-23.5-9.6-36.6,15,18.3,38.1,28.1,61,34.2,39.1,10.3,80.1,11.5,120.3,8.2,23.6-1.9,47.8-5.3,70.8.4,5.9,1.5,11.8,3.6,16.3,7.8,7.8,7.3,9.2,19.6,6,29.8-3.2,10.2-10.4,18.7-17.8,26.3-23.5,24.2-52.4,43.1-83.8,55h0Z"/>
</svg>