<svg xmlns="http://www.w3.org/2000/svg" width="72" height="100" viewBox="0 0 72 100" fill="none">
  <g style="mix-blend-mode:overlay" opacity="0.1" clip-path="url(#clip0_168_1292)">
    <path d="M0.0233297 0H71.9794V68.5826C71.9794 68.5826 72.3488 78.9995 61.728 85.1028L36.0648 100L8.97021 84.5581C8.97021 84.5581 -0.5308 78.4547 0.0233297 66.07L0.000240957 44.8805L24.6359 54.5748V66.2479L35.9956 73.0739L47.563 66.07V55.2974L16.0585 42.9127L16.4279 15.6198L55.5748 15.7977L55.7595 41.2896L47.1821 37.8766L47.3668 23.8688L24.6244 23.5131L24.4397 37.343L55.7595 49.9944L55.6672 68.5714L36.0648 81.9455L16.5202 69.383L16.4279 59.6887L8.03512 56.6426L8.49689 68.4936C8.49689 68.4936 8.21983 74.6859 14.2806 77.8321L35.984 90.5837L60.3196 75.7754C60.3196 75.7754 63.9099 73.7521 63.7713 63.3241L63.6328 7.91551H8.05821L8.40454 39.8221L0.000240957 36.7204L0.0233297 0Z" fill="#07051B"/>
  </g>
  <defs>
    <clipPath id="clip0_168_1292">
      <rect width="71.9907" height="100" fill="white"/>
    </clipPath>
  </defs>
</svg>