<svg width="20" height="11" viewBox="0 0 20 11" fill="none" xmlns="http://www.w3.org/2000/svg">
<path fill-rule="evenodd" clip-rule="evenodd" d="M13.0769 1.43478C12.6521 1.43478 12.3077 1.1136 12.3077 0.717391C12.3077 0.321187 12.6521 0 13.0769 0H19.2308C19.6556 0 20 0.321187 20 0.717391V6.45652C20 6.85273 19.6556 7.17391 19.2308 7.17391C18.8059 7.17391 18.4615 6.85273 18.4615 6.45652V2.44933L11.5696 8.87684C11.2692 9.157 10.7821 9.157 10.4817 8.87684L6.92308 5.55802L1.31316 10.7899C1.01276 11.07 0.525706 11.07 0.225302 10.7899C-0.0751008 10.5097 -0.0751008 10.0555 0.225302 9.77534L6.37915 4.03621C6.67955 3.75605 7.1666 3.75605 7.467 4.03621L11.0256 7.35502L17.3737 1.43478H13.0769Z" fill="#24C3BC"/>
</svg>
