<svg xmlns="http://www.w3.org/2000/svg" width="24" height="24" viewBox="0 0 24 24" fill="none">
  <path d="M14.8453 5.00058H14.8024L14.5268 5.25817C17.3813 6.03092 18.7657 7.2387 18.7657 7.2387C16.9219 6.38009 15.268 5.95079 13.608 5.77334C12.4073 5.60162 11.2128 5.6932 10.196 5.77334H9.92037C9.27106 5.77334 7.8928 6.03092 6.04901 6.71781C5.40582 6.98112 5.03828 7.15284 5.03828 7.15284C5.03828 7.15284 6.41654 5.86492 9.46095 5.17231L9.27718 5.00058C9.27718 5.00058 6.97397 4.92045 4.48698 6.63768C4.48698 6.63768 2 10.6846 2 15.676C2 15.676 3.37825 17.9142 7.15773 18C7.15773 18 7.70903 17.3131 8.26646 16.7121C6.14702 16.1111 5.32006 14.9033 5.32006 14.9033C5.32006 14.9033 5.50382 14.9892 5.77947 15.1609H5.85911C5.90199 15.1609 5.92037 15.178 5.93874 15.2009V15.2067C5.96325 15.2296 5.98163 15.2467 6.01837 15.2467C6.47167 15.4242 6.92496 15.5959 7.29862 15.7619C7.94181 16.0195 8.76876 16.2828 9.77948 16.4545C11.0597 16.6263 12.5298 16.7121 14.2022 16.4545C15.0291 16.2828 15.8561 16.1111 16.683 15.7677C17.2221 15.5101 17.8836 15.2525 18.6064 14.8174C18.6064 14.8174 17.7795 16.0252 15.5682 16.6263C16.0214 17.2273 16.6647 17.9142 16.6647 17.9142C20.4441 17.8397 21.9142 15.5959 22 15.6932C22 10.7075 19.5007 6.65485 19.5007 6.65485C17.2466 5.09217 15.1393 5.03493 14.7657 5.03493L14.8453 5.00058ZM15.0781 10.6846C16.0459 10.6846 16.83 11.4574 16.83 12.4018C16.83 13.3521 16.0459 14.1248 15.0781 14.1248C14.1102 14.1248 13.3262 13.3521 13.3262 12.4076C13.3323 11.4574 14.1164 10.6846 15.0781 10.6846ZM8.81777 10.6846C9.77948 10.6846 10.5636 11.4574 10.5636 12.4018C10.5636 13.3521 9.77947 14.1248 8.81164 14.1248C7.84993 14.1248 7.05972 13.3521 7.05972 12.4076C7.06585 11.4574 7.84993 10.6846 8.81777 10.6846Z" fill="white"/>
</svg>