<svg xmlns="http://www.w3.org/2000/svg" width="24" height="24" viewBox="0 0 24 24" fill="none">
  <path d="M13.2812 11.4999C13.2812 14.5375 10.7558 17 7.64049 17C4.52519 17 2 14.5382 2 11.4999C2 8.46161 4.52538 6 7.64049 6C10.7556 6 13.2812 8.46235 13.2812 11.4999ZM19.4691 11.4999C19.4691 14.3594 18.2063 16.6773 16.6487 16.6773C15.0912 16.6773 13.8284 14.3586 13.8284 11.4999C13.8284 8.64117 15.0912 6.32256 16.6487 6.32256C18.2063 6.32256 19.4691 8.64117 19.4691 11.4999ZM22 11.4999C22 14.0619 21.5558 16.1386 21.008 16.1386C20.4603 16.1386 20.0161 14.0611 20.0161 11.4999C20.0161 8.93869 20.4603 6.86122 21.0082 6.86122C21.5562 6.86122 22 8.93813 22 11.4999Z" fill="white"/>
</svg>