<svg xmlns="http://www.w3.org/2000/svg" width="24" height="24" viewBox="0 0 24 24" fill="none">
  <path fill-rule="evenodd" clip-rule="evenodd" d="M3.3009 10.4694C8.40012 8.3592 11.7947 6.95704 13.4993 6.27678C18.3509 4.34707 19.3707 4.01388 20.0263 4C20.172 4 20.4925 4.02777 20.7111 4.19436C20.8859 4.33319 20.9296 4.51366 20.9587 4.65249C20.9879 4.79132 21.0171 5.08286 20.9879 5.30498C20.7257 7.94272 19.5892 14.3427 19.0065 17.2858C18.7588 18.5353 18.2781 18.9518 17.8119 18.9934C16.792 19.0768 16.0198 18.3548 15.0436 17.7439C13.4993 16.786 12.6397 16.1891 11.1391 15.2451C9.4054 14.1622 10.5272 13.5653 11.518 12.5935C11.7802 12.3436 16.2529 8.45638 16.3403 8.10931C16.3549 8.06766 16.3549 7.90107 16.2529 7.81777C16.1509 7.73448 16.0053 7.76224 15.8887 7.79C15.7284 7.81777 13.2808 9.37265 8.51667 12.4407C7.81736 12.8989 7.19088 13.121 6.62268 13.1071C5.9962 13.0933 4.80153 12.7739 3.89824 12.4963C2.80555 12.1631 1.9314 11.9826 2.00425 11.3995C2.04795 11.0941 2.48503 10.7887 3.3009 10.4694Z" fill="white"/>
</svg>