<svg xmlns="http://www.w3.org/2000/svg" width="14" height="14" viewBox="0 0 14 14" fill="none">
  <path d="M4.2959 5.16719H5.0735C5.16289 4.79206 5.27885 4.44715 5.41653 4.14221C5.15348 4.28845 4.90916 4.47209 4.6905 4.69075C4.5427 4.83855 4.41099 4.99813 4.2959 5.16719Z" fill="white"/>
  <path d="M4.2959 8.83276C4.41102 9.00183 4.5427 9.16141 4.6905 9.3092C4.90916 9.52787 5.15348 9.71151 5.41653 9.85774C5.27882 9.55281 5.16289 9.20789 5.0735 8.83276H4.2959Z" fill="white"/>
  <path d="M9.70412 5.16719C9.58901 4.99813 9.45732 4.83855 9.30953 4.69075C9.09086 4.47209 8.84654 4.28845 8.5835 4.14221C8.7212 4.44715 8.83714 4.79206 8.92652 5.16719H9.70412Z" fill="white"/>
  <path d="M7.6139 4.43085C7.35069 3.90443 7.08663 3.73413 6.99998 3.73413C6.91333 3.73413 6.64927 3.90443 6.38606 4.43085C6.27704 4.64892 6.18347 4.89731 6.10693 5.16711H7.89303C7.81647 4.89731 7.72292 4.64889 7.6139 4.43085Z" fill="white"/>
  <path d="M6.38606 9.56902C6.64927 10.0954 6.91333 10.2657 6.99998 10.2657C7.08663 10.2657 7.35069 10.0954 7.6139 9.56902C7.72292 9.35095 7.81649 9.10256 7.89303 8.83276H6.10693C6.1835 9.10256 6.27704 9.35098 6.38606 9.56902Z" fill="white"/>
  <path d="M4.86745 6.99988C4.86745 6.71474 4.88155 6.43622 4.90824 6.16675H3.84126C3.77091 6.4354 3.73438 6.7148 3.73438 6.99988C3.73438 7.28497 3.77088 7.56437 3.84126 7.83302H4.90824C4.88155 7.56355 4.86745 7.28503 4.86745 6.99988Z" fill="white"/>
  <path d="M9.13259 6.99988C9.13259 7.28503 9.11848 7.56355 9.0918 7.83302H10.1588C10.2291 7.56437 10.2657 7.28497 10.2657 6.99988C10.2657 6.7148 10.2292 6.4354 10.1588 6.16675H9.0918C9.11848 6.43622 9.13259 6.71474 9.13259 6.99988Z" fill="white"/>
  <path d="M7 0C3.134 0 0 3.134 0 7C0 10.866 3.134 14 7 14C10.866 14 14 10.866 14 7C14 3.134 10.866 0 7 0ZM7 11.2656C4.64417 11.2656 2.73438 9.35583 2.73438 7C2.73438 4.64417 4.64417 2.73438 7 2.73438C9.35583 2.73438 11.2656 4.64417 11.2656 7C11.2656 9.35583 9.35583 11.2656 7 11.2656Z" fill="white"/>
  <path d="M5.91405 6.16675C5.88329 6.43748 5.86719 6.7171 5.86719 6.99988C5.86719 7.28267 5.88329 7.56229 5.91405 7.83302H8.08643C8.1172 7.56229 8.1333 7.28267 8.1333 6.99988C8.1333 6.7171 8.1172 6.43748 8.08643 6.16675H5.91405Z" fill="white"/>
  <path d="M8.5835 9.85774C8.84654 9.71151 9.09086 9.52787 9.30953 9.3092C9.45732 9.16141 9.58901 9.00183 9.70412 8.83276H8.92652C8.83714 9.20789 8.7212 9.55281 8.5835 9.85774Z" fill="white"/>
</svg>