<svg xmlns="http://www.w3.org/2000/svg" width="16" height="16" viewBox="0 0 16 16" fill="none">
  <g clip-path="url(#clip0_210_1740)">
    <path d="M13.3303 3.682C12.3675 3.24903 11.3351 2.93005 10.2557 2.74735C10.236 2.74382 10.2164 2.75263 10.2062 2.77026C10.0735 3.00171 9.92638 3.30367 9.82339 3.541C8.66236 3.37064 7.50729 3.37064 6.37007 3.541C6.26705 3.29839 6.11464 3.00171 5.98127 2.77026C5.97114 2.75322 5.9515 2.74441 5.93184 2.74735C4.85298 2.92946 3.82056 3.24845 2.8572 3.682C2.84886 3.68552 2.84171 3.6914 2.83696 3.69903C0.87868 6.56643 0.342224 9.36334 0.605392 12.1256C0.606583 12.1391 0.614323 12.152 0.62504 12.1602C1.91706 13.0902 3.1686 13.6547 4.3969 14.0289C4.41656 14.0348 4.43739 14.0278 4.4499 14.0119C4.74045 13.623 4.99946 13.213 5.22153 12.7818C5.23463 12.7565 5.22212 12.7265 5.19534 12.7166C4.78451 12.5638 4.39333 12.3776 4.01703 12.1661C3.98727 12.1491 3.98489 12.1074 4.01227 12.0874C4.09146 12.0292 4.17066 11.9687 4.24627 11.9076C4.25995 11.8965 4.27902 11.8941 4.2951 11.9012C6.76719 13.0074 9.44352 13.0074 11.8864 11.9012C11.9025 11.8935 11.9216 11.8959 11.9359 11.907C12.0115 11.9681 12.0907 12.0292 12.1705 12.0874C12.1979 12.1074 12.1961 12.1491 12.1663 12.1661C11.79 12.3817 11.3988 12.5638 10.9874 12.716C10.9606 12.726 10.9487 12.7565 10.9618 12.7818C11.1886 13.2124 11.4476 13.6224 11.7328 14.0113C11.7448 14.0278 11.7662 14.0348 11.7858 14.0289C13.0201 13.6547 14.2716 13.0902 15.5636 12.1602C15.575 12.152 15.5821 12.1397 15.5833 12.1262C15.8983 8.93271 15.0558 6.15874 13.3499 3.69962C13.3458 3.6914 13.3386 3.68552 13.3303 3.682ZM5.5907 10.4437C4.84643 10.4437 4.23317 9.77397 4.23317 8.95152C4.23317 8.12907 4.83453 7.45938 5.5907 7.45938C6.35279 7.45938 6.96011 8.13495 6.9482 8.95152C6.9482 9.77397 6.34684 10.4437 5.5907 10.4437ZM10.6099 10.4437C9.86566 10.4437 9.25241 9.77397 9.25241 8.95152C9.25241 8.12907 9.85375 7.45938 10.6099 7.45938C11.372 7.45938 11.9793 8.13495 11.9674 8.95152C11.9674 9.77397 11.372 10.4437 10.6099 10.4437Z" fill="white"/>
  </g>
  <defs>
    <clipPath id="clip0_210_1740">
      <rect width="15.2437" height="14.9403" fill="white" transform="translate(0.473633 0.453857)"/>
    </clipPath>
  </defs>
</svg>