<svg xmlns="http://www.w3.org/2000/svg" width="18" height="18" viewBox="0 0 18 18" fill="none">
  <path d="M9 0C4.02733 0 0 4.13301 0 9.2281C0 13.3071 2.57946 16.7662 6.15346 17.9842C6.60328 18.0706 6.76845 17.786 6.76845 17.541C6.76845 17.3212 6.76142 16.741 6.75791 15.9735C4.25576 16.532 3.72511 14.734 3.72511 14.734C3.31394 13.6674 2.72354 13.3827 2.72354 13.3827C1.90824 12.8098 2.7868 12.8206 2.7868 12.8206C3.68997 12.8855 4.16439 13.7719 4.16439 13.7719C4.96564 15.1844 6.27294 14.7772 6.78602 14.5394C6.86685 13.9412 7.09879 13.5341 7.35533 13.3035C5.35572 13.0728 3.2542 12.2801 3.2542 8.74165C3.2542 7.73272 3.60211 6.91117 4.18196 6.26617C4.08005 6.03196 3.77782 5.09509 4.25927 3.82312C4.25927 3.82312 5.01484 3.57449 6.73331 4.77079C7.45373 4.5654 8.21984 4.46451 8.98243 4.46091C9.74854 4.46451 10.5111 4.5654 11.2316 4.77079C12.943 3.5781 13.695 3.82312 13.695 3.82312C14.18 5.09509 13.8743 6.03196 13.7864 6.26617C14.3592 6.91117 14.7107 7.73633 14.7107 8.74165C14.7107 12.2873 12.6056 13.0692 10.6025 13.2962C10.9188 13.5737 11.2105 14.1394 11.2105 15.0042C11.2105 16.2402 11.1999 17.2311 11.1999 17.5301C11.1999 17.7716 11.3581 18.0598 11.8184 17.9698C15.4241 16.7626 18 13.3035 18 9.2281C18 4.13301 13.9692 0 9 0Z" fill="white"/>
</svg>