<svg xmlns="http://www.w3.org/2000/svg" width="16" height="16" viewBox="0 0 16 16" fill="none">
  <path d="M8.30614 0.94458C12.3718 0.94458 15.6674 4.1746 15.6674 8.15935C15.6674 12.1441 12.3718 15.3741 8.30614 15.3741C4.24045 15.3741 0.944824 12.1441 0.944824 8.15935C0.944824 4.1746 4.24045 0.94458 8.30614 0.94458ZM10.8455 11.1002C10.9809 10.693 11.6152 6.63515 11.6936 5.83557C11.7173 5.5934 11.6392 5.43248 11.4862 5.36065C11.3012 5.27344 11.0273 5.31704 10.7094 5.42934C10.2735 5.58336 4.70069 7.90244 4.37872 8.0367C4.07338 8.16374 3.78469 8.30239 3.78469 8.50315C3.78469 8.64431 3.87015 8.72367 4.10571 8.80617C4.35087 8.8918 4.96826 9.07531 5.33281 9.17381C5.68391 9.26885 6.08366 9.18636 6.3077 9.0499C6.54518 8.90529 9.28583 7.10787 9.48267 6.9504C9.67918 6.79293 9.83601 6.99463 9.67534 7.15242C9.51467 7.30989 7.63338 9.09946 7.38533 9.34728C7.08416 9.6481 7.29796 9.9599 7.49991 10.0848C7.73067 10.2272 9.39017 11.3182 9.64013 11.4932C9.8901 11.6682 10.1436 11.7476 10.3756 11.7476C10.6077 11.7476 10.7299 11.448 10.8455 11.1002Z" fill="white"/>
</svg>