<svg xmlns="http://www.w3.org/2000/svg" width="13" height="11" viewBox="0 0 13 11" fill="none">
  <g clip-path="url(#clip0_210_1754)">
    <path d="M7.55892 4.61584L12.1615 10.4836H11.3364C10.5864 10.4836 9.8364 10.4772 9.08639 10.4882C8.99749 10.495 8.90832 10.4787 8.82844 10.4408C8.74856 10.403 8.68099 10.3452 8.63298 10.2735C7.72918 9.11 6.81563 7.94995 5.90512 6.78933C5.8441 6.71311 5.78307 6.63865 5.66651 6.49844C5.60488 6.59269 5.53721 6.68323 5.4639 6.76954C4.37764 7.89178 3.28039 9.00412 2.20756 10.1368C1.96346 10.3969 1.71935 10.5441 1.34771 10.4859C1.22566 10.4667 1.09262 10.4824 0.873535 10.4824C2.3644 8.94885 3.79607 7.47174 5.26069 5.96612L0.921748 0.434079C1.05112 0.424189 1.13412 0.411972 1.21711 0.411972C2.13982 0.411972 3.06192 0.417206 3.98402 0.406152C4.07292 0.400307 4.16182 0.417565 4.24124 0.456087C4.32066 0.49461 4.38762 0.552952 4.435 0.624898C5.24787 1.67208 6.06989 2.71927 6.88946 3.76122C6.95598 3.84557 7.02433 3.92877 7.17568 4.11784C7.24647 3.99683 7.28369 3.8892 7.35876 3.81299C8.35348 2.78152 9.35918 1.75993 10.349 0.722056C10.5632 0.496329 10.7762 0.360775 11.1027 0.407317C11.2504 0.42826 11.4042 0.410807 11.647 0.410807L7.55892 4.61584ZM2.40224 1.10544C2.41542 1.1482 2.43279 1.18969 2.45411 1.22936C4.65511 4.03775 6.85814 6.84459 9.06321 9.64988C9.11203 9.71213 9.20296 9.78078 9.27558 9.78253C9.72656 9.79474 10.1781 9.78893 10.6981 9.78893C10.5052 9.53818 10.3545 9.33864 10.1995 9.14142C8.15515 6.5347 6.10956 3.93012 4.06275 1.32768C3.99074 1.23634 3.87234 1.12348 3.77043 1.11824C3.32799 1.09497 2.88068 1.10544 2.40224 1.10544Z" fill="white"/>
  </g>
  <defs>
    <clipPath id="clip0_210_1754">
      <rect width="11.2873" height="10.1007" fill="white" transform="translate(0.873535 0.398193)"/>
    </clipPath>
  </defs>
</svg>